<?xml version="1.0" encoding="UTF-8" standalone="no"?>
<!DOCTYPE svg PUBLIC "-//W3C//DTD SVG 1.1//EN" "http://www.w3.org/Graphics/SVG/1.1/DTD/svg11.dtd">
<!-- Generated by Microsoft Visio, SVG Export channels-db.svg channels-db -->
<svg xmlns="http://www.w3.org/2000/svg" xmlns:xlink="http://www.w3.org/1999/xlink" xmlns:ev="http://www.w3.org/2001/xml-events"
		xmlns:v="http://schemas.microsoft.com/visio/2003/SVGExtensions/" width="8.48879in" height="4.36931in"
		viewBox="0 0 611.193 314.59" xml:space="preserve" color-interpolation-filters="sRGB" class="st22">
	<v:documentProperties v:langID="2070" v:metric="true" v:viewMarkup="false">
		<v:userDefs>
			<v:ud v:nameU="msvNoAutoConnect" v:val="VT0(1):26"/>
		</v:userDefs>
	</v:documentProperties>

	<style type="text/css">
	<![CDATA[
		.st1 {fill:#dae8fc;stroke:#6c8ebf;stroke-linecap:butt;stroke-width:0.75}
		.st2 {fill:#000000;fill-opacity:0.25;stroke:#000000;stroke-linecap:butt;stroke-opacity:0.25;stroke-width:0.75}
		.st3 {fill:#fff2cc;stroke:#d6b656;stroke-linecap:butt;stroke-width:0.75}
		.st4 {fill:#000000;font-family:Calibri;font-size:1.16666em;font-weight:bold}
		.st5 {font-size:1em}
		.st6 {fill:none;stroke:none;stroke-linecap:round;stroke-linejoin:round;stroke-width:0.75}
		.st7 {fill:#000000;fill-opacity:0.25;stroke:none;stroke-linecap:butt;stroke-width:0.75}
		.st8 {fill:url(#grad0-19);stroke:none;stroke-linecap:butt;stroke-width:0.75}
		.st9 {marker-end:url(#mrkr5-40);marker-start:url(#mrkr5-38);stroke:#000000;stroke-linecap:round;stroke-linejoin:round;stroke-width:1.5}
		.st10 {fill:#000000;fill-opacity:1;stroke:#000000;stroke-opacity:1;stroke-width:0.37313432835821}
		.st11 {fill:#424a60;stroke:none;stroke-linecap:butt;stroke-width:11.5472}
		.st12 {fill:#556080;stroke:none;stroke-linecap:butt;stroke-width:11.5472}
		.st13 {fill:#7fabda;stroke:none;stroke-linecap:butt;stroke-width:11.5472}
		.st14 {fill:#7383bf;stroke:none;stroke-linecap:butt;stroke-width:11.5472}
		.st15 {marker-end:url(#mrkr5-40);marker-start:url(#mrkr5-38);stroke:#000000;stroke-dasharray:4.5,4.5,0,4.5,0,4.5;stroke-linecap:round;stroke-linejoin:round;stroke-width:1.5}
		.st16 {stroke:#000000;stroke-linecap:round;stroke-linejoin:round;stroke-width:1.5}
		.st17 {fill:#ffd965;stroke:none;stroke-linecap:butt;stroke-width:0.75}
		.st18 {fill:#000000;fill-opacity:0.067;stroke:none;stroke-linecap:butt;stroke-width:0.75}
		.st19 {fill:#ffffff;stroke:none;stroke-linecap:butt;stroke-width:0.75}
		.st20 {fill:#ffffff;stroke:#000000;stroke-dasharray:1.5,3;stroke-linecap:round;stroke-linejoin:round;stroke-width:1.5}
		.st21 {fill:#000000;font-family:Segoe UI;font-size:1.16666em;font-weight:bold}
		.st22 {fill:none;fill-rule:evenodd;font-size:12px;overflow:visible;stroke-linecap:square;stroke-miterlimit:3}
	]]>
	</style>

	<defs id="Patterns_And_Gradients">
		<linearGradient id="grad0-19" x1="0" y1="0" x2="1" y2="0" gradientTransform="rotate(90 0.5 0.5)">
			<stop offset="0" stop-color="#4387fd" stop-opacity="1"/>
			<stop offset="1" stop-color="#4683ea" stop-opacity="1"/>
		</linearGradient>
	</defs>
	<defs id="Markers">
		<g id="lend5">
			<path d="M 2 1 L 0 0 L 1.98117 -0.993387 C 1.67173 -0.364515 1.67301 0.372641 1.98465 1.00043 " style="stroke:none"/>
		</g>
		<marker id="mrkr5-38" class="st10" v:arrowType="5" v:arrowSize="2" v:setback="4.45" refX="4.45" orient="auto"
				markerUnits="strokeWidth" overflow="visible">
			<use xlink:href="#lend5" transform="scale(2.68) "/>
		</marker>
		<marker id="mrkr5-40" class="st10" v:arrowType="5" v:arrowSize="2" v:setback="4.69" refX="-4.69" orient="auto"
				markerUnits="strokeWidth" overflow="visible">
			<use xlink:href="#lend5" transform="scale(-2.68,-2.68) "/>
		</marker>
	</defs>
	<g v:mID="15" v:index="13" v:groupContext="foregroundPage">
		<title>channels-db</title>
		<v:pageProperties v:drawingScale="0.0393701" v:pageScale="0.0393701" v:drawingUnits="24" v:shadowOffsetX="9"
				v:shadowOffsetY="-9"/>
		<v:layer v:name="Connector" v:index="0"/>
		<g id="shape1-1" v:mID="1" v:groupContext="shape" transform="translate(220.275,-19.4624)">
			<title>Sheet.1</title>
			<path d="M0 273.13 A27.2641 41.4577 -180 0 0 27.26 314.59 L344.9 314.59 A27.2641 41.4577 -180 0 0 372.17 273.13 L372.17
						 79.67 A27.2641 41.4577 -180 0 0 344.9 38.21 L27.26 38.21 A27.2641 41.4577 -180 0 0 -0 79.67 L0 273.13 Z"
					class="st1"/>
		</g>
		<g id="group2-3" transform="translate(251.1,-119.569)" v:mID="2" v:groupContext="group">
			<title>Sheet.2</title>
			<g id="shape3-4" v:mID="3" v:groupContext="shape" transform="translate(0.322164,0)">
				<title>Sheet.3</title>
				<rect x="0" y="230.828" width="72.4869" height="83.7626" class="st2"/>
			</g>
			<g id="shape4-6" v:mID="4" v:groupContext="shape" transform="translate(0,-0.483246)">
				<title>Sheet.4</title>
				<desc>Service Broker</desc>
				<v:textBlock v:margins="rect(0,0,0,0)" v:tabSpace="42.5197"/>
				<v:textRect cx="36.2434" cy="272.709" width="72.49" height="83.7626"/>
				<rect x="0" y="230.828" width="72.4869" height="83.7626" class="st3"/>
				<text x="15.44" y="268.51" class="st4" v:langID="2070"><v:paragraph v:horizAlign="1"/><v:tabList/>Service<v:lf/><tspan
							x="16.7" dy="1.2em" class="st5">Broker</tspan></text>			</g>
		</g>
		<g id="shape13-10" v:mID="13" v:groupContext="shape" transform="translate(220.558,-267.814)">
			<title>Sheet.13</title>
			<desc>Node 1</desc>
			<v:textBlock v:margins="rect(4,4,4,4)" v:tabSpace="42.5197"/>
			<v:textRect cx="30.8976" cy="304.59" width="61.8" height="20"/>
			<rect x="0" y="294.59" width="61.7953" height="20" class="st6"/>
			<text x="10.11" y="308.79" class="st4" v:langID="2070"><v:paragraph v:horizAlign="1"/><v:tabList/>Node 1</text>		</g>
		<g id="group30-13" transform="translate(398.935,-203.714)" v:mID="30" v:groupContext="group">
			<title>Sheet.30</title>
			<g id="shape31-14" v:mID="31" v:groupContext="shape" transform="translate(8.20069,-16.8642)">
				<title>Sheet.31</title>
				<path d="M16.39 311.3 L1.19 285.17 C0 283.12 0 280.6 1.19 278.55 L16.39 252.42 C17.58 250.37 19.78 249.11 22.17 249.1
							 L52.58 249.1 C54.97 249.09 57.18 250.35 58.38 252.4 L73.58 278.54 C74.77 280.58 74.77 283.1 73.58 285.15
							 L58.38 311.28 C57.18 313.33 54.97 314.59 52.58 314.58 L22.17 314.58 C19.79 314.59 17.59 313.34 16.39
							 311.3 Z" class="st7"/>
			</g>
			<g id="shape32-16" v:mID="32" v:groupContext="shape" transform="translate(7.04135,-18.6032)">
				<title>Sheet.32</title>
				<path d="M16.39 311.3 L1.19 285.17 C0 283.12 0 280.6 1.19 278.55 L16.39 252.42 C17.58 250.37 19.78 249.11 22.17 249.1
							 L52.58 249.1 C54.97 249.09 57.18 250.35 58.38 252.4 L73.58 278.54 C74.77 280.58 74.77 283.1 73.58 285.15
							 L58.38 311.28 C57.18 313.33 54.97 314.59 52.58 314.58 L22.17 314.58 C19.79 314.59 17.59 313.34 16.39
							 311.3 Z" class="st8"/>
			</g>
			<g id="shape33-20" v:mID="33" v:groupContext="shape" transform="translate(-8.27199,0)">
				<title>Sheet.33</title>
				<desc>Greeter Service</desc>
				<v:textBlock v:margins="rect(4,4,4,4)" v:tabSpace="42.5197"/>
				<v:textRect cx="53.8583" cy="308.592" width="107.72" height="11.9964"/>
				<rect x="0" y="302.594" width="107.717" height="11.9964" class="st6"/>
				<text x="9.04" y="312.79" class="st4" v:langID="2070"><v:paragraph v:horizAlign="1"/><v:tabList/>Greeter Service</text>			</g>
		</g>
		<g id="group34-23" transform="translate(400.73,-111.588)" v:mID="34" v:groupContext="group">
			<title>Sheet.34</title>
			<g id="shape35-24" v:mID="35" v:groupContext="shape" transform="translate(8.20069,-16.8642)">
				<title>Sheet.35</title>
				<path d="M16.39 311.3 L1.19 285.17 C0 283.12 0 280.6 1.19 278.55 L16.39 252.42 C17.58 250.37 19.78 249.11 22.17 249.1
							 L52.58 249.1 C54.97 249.09 57.18 250.35 58.38 252.4 L73.58 278.54 C74.77 280.58 74.77 283.1 73.58 285.15
							 L58.38 311.28 C57.18 313.33 54.97 314.59 52.58 314.58 L22.17 314.58 C19.79 314.59 17.59 313.34 16.39
							 311.3 Z" class="st7"/>
			</g>
			<g id="shape36-26" v:mID="36" v:groupContext="shape" transform="translate(7.04135,-18.6032)">
				<title>Sheet.36</title>
				<path d="M16.39 311.3 L1.19 285.17 C0 283.12 0 280.6 1.19 278.55 L16.39 252.42 C17.58 250.37 19.78 249.11 22.17 249.1
							 L52.58 249.1 C54.97 249.09 57.18 250.35 58.38 252.4 L73.58 278.54 C74.77 280.58 74.77 283.1 73.58 285.15
							 L58.38 311.28 C57.18 313.33 54.97 314.59 52.58 314.58 L22.17 314.58 C19.79 314.59 17.59 313.34 16.39
							 311.3 Z" class="st8"/>
			</g>
			<g id="shape37-29" v:mID="37" v:groupContext="shape" transform="translate(-12.0822,0)">
				<title>Sheet.37</title>
				<desc>Products Service</desc>
				<v:textBlock v:margins="rect(4,4,4,4)" v:tabSpace="42.5197"/>
				<v:textRect cx="59.5276" cy="308.592" width="119.06" height="11.9964"/>
				<rect x="0" y="302.594" width="119.055" height="11.9964" class="st6"/>
				<text x="11.5" y="312.79" class="st4" v:langID="2070"><v:paragraph v:horizAlign="1"/><v:tabList/>Products Service</text>			</g>
		</g>
		<g id="shape38-32" v:mID="38" v:groupContext="shape" v:layerMember="0" transform="translate(525.048,-168.602)">
			<title>Dynamic connector.261</title>
			<path d="M-6.67 321.6 L-7.03 321.6 L-34.61 321.75" class="st9"/>
		</g>
		<g id="group39-41" transform="translate(525.048,-135.091)" v:mID="39" v:groupContext="group">
			<title>Sheet.39</title>
			<g id="shape40-42" v:mID="40" v:groupContext="shape">
				<title>Sheet.40</title>
				<path d="M48.26 269.3 C47.52 264.81 37.01 261.25 24.15 261.25 C11.29 261.25 0.78 264.81 0.05 269.3 L0 269.3 L0 269.81
							 L0 281.38 L0 281.88 L0 282.39 L0 293.46 L0 293.96 L0 294.46 L0 306.54 L0.05 306.54 C0.78 311.03 11.29
							 314.59 24.15 314.59 C37.01 314.59 47.52 311.03 48.26 306.54 L48.3 306.54 L48.3 294.46 L48.3 293.96 L48.3
							 293.46 L48.3 282.39 L48.3 281.88 L48.3 281.38 L48.3 269.81 L48.3 269.3 L48.26 269.3 Z" class="st11"/>
			</g>
			<g id="group41-44" v:mID="41" v:groupContext="group">
				<title>Sheet.41</title>
				<g id="shape42-45" v:mID="42" v:groupContext="shape">
					<title>Sheet.42</title>
					<path d="M24.15 302.51 C10.81 302.51 0 298.68 0 293.96 L0 306.54 L0.05 306.54 C0.78 311.03 11.29 314.59 24.15
								 314.59 C37.01 314.59 47.52 311.03 48.26 306.54 L48.3 306.54 L48.3 293.96 C48.3 298.68 37.49 302.51
								 24.15 302.51 Z" class="st11"/>
				</g>
				<g id="shape43-47" v:mID="43" v:groupContext="shape" transform="translate(0,-20.6301)">
					<title>Sheet.43</title>
					<path d="M0 314.09 L0 314.59 C0 314.42 0.02 314.25 0.05 314.09 L0 314.09 Z" class="st11"/>
				</g>
				<g id="shape44-49" v:mID="44" v:groupContext="shape" transform="translate(48.2592,-20.6301)">
					<title>Sheet.44</title>
					<path d="M0 314.09 C0.03 314.25 0.05 314.42 0.05 314.59 L0.05 314.09 L0 314.09 Z" class="st11"/>
				</g>
			</g>
			<g id="group45-51" transform="translate(0,-12.0761)" v:mID="45" v:groupContext="group">
				<title>Sheet.45</title>
				<g id="shape46-52" v:mID="46" v:groupContext="shape">
					<title>Sheet.46</title>
					<path d="M24.15 302.51 C10.81 302.51 0 298.68 0 293.96 L0 306.54 L0.05 306.54 C0.78 311.03 11.29 314.59 24.15
								 314.59 C37.01 314.59 47.52 311.03 48.26 306.54 L48.3 306.54 L48.3 293.96 C48.3 298.68 37.49 302.51
								 24.15 302.51 Z" class="st12"/>
				</g>
				<g id="shape47-54" v:mID="47" v:groupContext="shape" transform="translate(0,-20.6301)">
					<title>Sheet.47</title>
					<path d="M0 314.09 L0 314.59 C0 314.42 0.02 314.25 0.05 314.09 L0 314.09 Z" class="st12"/>
				</g>
				<g id="shape48-56" v:mID="48" v:groupContext="shape" transform="translate(48.2592,-20.6301)">
					<title>Sheet.48</title>
					<path d="M0 314.09 C0.03 314.25 0.05 314.42 0.05 314.59 L0.05 314.09 L0 314.09 Z" class="st12"/>
				</g>
			</g>
			<g id="shape49-58" v:mID="49" v:groupContext="shape" transform="translate(0,-36.2284)">
				<title>Sheet.49</title>
				<ellipse cx="24.1523" cy="306.036" rx="24.1523" ry="8.55393" class="st13"/>
			</g>
			<g id="group50-60" transform="translate(0,-24.1523)" v:mID="50" v:groupContext="group">
				<title>Sheet.50</title>
				<g id="shape51-61" v:mID="51" v:groupContext="shape">
					<title>Sheet.51</title>
					<path d="M24.15 302.51 C10.81 302.51 0 298.68 0 293.96 L0 306.54 L0.05 306.54 C0.78 311.03 11.29 314.59 24.15
								 314.59 C37.01 314.59 47.52 311.03 48.26 306.54 L48.3 306.54 L48.3 293.96 C48.3 298.68 37.49 302.51
								 24.15 302.51 Z" class="st14"/>
				</g>
				<g id="shape52-63" v:mID="52" v:groupContext="shape" transform="translate(0,-20.6301)">
					<title>Sheet.52</title>
					<path d="M0 314.09 L0 314.59 C0 314.42 0.02 314.25 0.05 314.09 L0 314.09 Z" class="st14"/>
				</g>
				<g id="shape53-65" v:mID="53" v:groupContext="shape" transform="translate(48.2592,-20.6301)">
					<title>Sheet.53</title>
					<path d="M0 314.09 C0.03 314.25 0.05 314.42 0.05 314.59 L0.05 314.09 L0 314.09 Z" class="st14"/>
				</g>
			</g>
		</g>
		<g id="group54-67" transform="translate(402.002,-20.402)" v:mID="54" v:groupContext="group">
			<title>Sheet.54</title>
			<g id="shape55-68" v:mID="55" v:groupContext="shape" transform="translate(8.20069,-16.8642)">
				<title>Sheet.55</title>
				<path d="M16.39 311.3 L1.19 285.17 C0 283.12 0 280.6 1.19 278.55 L16.39 252.42 C17.58 250.37 19.78 249.11 22.17 249.1
							 L52.58 249.1 C54.97 249.09 57.18 250.35 58.38 252.4 L73.58 278.54 C74.77 280.58 74.77 283.1 73.58 285.15
							 L58.38 311.28 C57.18 313.33 54.97 314.59 52.58 314.58 L22.17 314.58 C19.79 314.59 17.59 313.34 16.39
							 311.3 Z" class="st7"/>
			</g>
			<g id="shape56-70" v:mID="56" v:groupContext="shape" transform="translate(7.04135,-18.6032)">
				<title>Sheet.56</title>
				<path d="M16.39 311.3 L1.19 285.17 C0 283.12 0 280.6 1.19 278.55 L16.39 252.42 C17.58 250.37 19.78 249.11 22.17 249.1
							 L52.58 249.1 C54.97 249.09 57.18 250.35 58.38 252.4 L73.58 278.54 C74.77 280.58 74.77 283.1 73.58 285.15
							 L58.38 311.28 C57.18 313.33 54.97 314.59 52.58 314.58 L22.17 314.58 C19.79 314.59 17.59 313.34 16.39
							 311.3 Z" class="st8"/>
			</g>
			<g id="shape57-73" v:mID="57" v:groupContext="shape" transform="translate(-6.91696,0)">
				<title>Sheet.57</title>
				<desc>Inventory Service</desc>
				<v:textBlock v:margins="rect(4,4,4,4)" v:tabSpace="42.5197"/>
				<v:textRect cx="57.0628" cy="308.592" width="114.13" height="11.9964"/>
				<rect x="0" y="302.594" width="114.126" height="11.9964" class="st6"/>
				<text x="6.47" y="312.79" class="st4" v:langID="2070"><v:paragraph v:horizAlign="1"/><v:tabList/>Inventory Service</text>			</g>
		</g>
		<g id="shape58-76" v:mID="58" v:groupContext="shape" v:layerMember="0" transform="translate(323.586,-183.008)">
			<title>Dynamic connector.97</title>
			<path d="M5.77 311.24 L6.08 311.05 L86.36 264.37" class="st9"/>
		</g>
		<g id="shape59-83" v:mID="59" v:groupContext="shape" v:layerMember="0" transform="translate(417.746,-87.9582)">
			<title>Dynamic connector.282</title>
			<path d="M-5.81 311.31 L-6.13 311.13 L-87.71 265.04" class="st9"/>
		</g>
		<g id="shape60-90" v:mID="60" v:groupContext="shape" v:layerMember="0" transform="translate(408.077,-169.278)">
			<title>Dynamic connector.283</title>
			<path d="M-6.67 321.34 L-7.03 321.35 L-77.13 322.01" class="st9"/>
		</g>
		<g id="shape61-97" v:mID="61" v:groupContext="shape" v:layerMember="0" transform="translate(130.308,-169.202)">
			<title>Dynamic connector.179</title>
			<path d="M6.67 321.31 L7.03 321.31 L114.08 322.04" class="st15"/>
		</g>
		<g id="group79-104" transform="translate(18.75,-37.1432)" v:mID="79" v:groupContext="group">
			<title>Sheet.79</title>
			<g id="shape80-105" v:mID="80" v:groupContext="shape" v:layerMember="0" transform="translate(97.8293,-99.8091)">
				<title>Dynamic connector.250</title>
				<path d="M0 314.59 L59.49 382.06" class="st16"/>
			</g>
			<g id="shape81-108" v:mID="81" v:groupContext="shape" v:layerMember="0" transform="translate(53.1076,-98.3568)">
				<title>Dynamic connector.205</title>
				<path d="M0 314.59 L-53.11 380.61" class="st16"/>
			</g>
			<g id="group82-111" transform="translate(37.5943,-92.7803)" v:mID="82" v:groupContext="group">
				<title>Sheet.82</title>
				<g id="shape83-112" v:mID="83" v:groupContext="shape" transform="translate(0.657184,-1.02318E-12)">
					<title>Sheet.83</title>
					<path d="M16.15 311.27 L1.17 285.05 C0 283 0 280.47 1.17 278.42 L16.15 252.19 C17.32 250.14 19.49 248.87 21.83
								 248.87 L51.78 248.87 C54.12 248.87 56.29 250.14 57.46 252.19 L72.43 278.42 C73.6 280.47 73.6 283
								 72.43 285.05 L57.46 311.27 C56.29 313.33 54.12 314.59 51.78 314.59 L21.83 314.59 C19.49 314.59 17.32
								 313.33 16.15 311.27 Z" class="st7"/>
				</g>
				<g id="shape84-114" v:mID="84" v:groupContext="shape" transform="translate(-3.83693E-13,-0.985776)">
					<title>Sheet.84</title>
					<path d="M16.15 311.27 L1.17 285.05 C0 283 0 280.47 1.17 278.42 L16.15 252.19 C17.32 250.14 19.49 248.87 21.83
								 248.87 L51.78 248.87 C54.12 248.87 56.29 250.14 57.46 252.19 L72.43 278.42 C73.6 280.47 73.6 283
								 72.43 285.05 L57.46 311.27 C56.29 313.33 54.12 314.59 51.78 314.59 L21.83 314.59 C19.49 314.59 17.32
								 313.33 16.15 311.27 Z" class="st17"/>
				</g>
				<g id="shape85-116" v:mID="85" v:groupContext="shape" transform="translate(23.1526,-1.15336)">
					<title>Sheet.85</title>
					<path d="M16 268.16 L13.73 267.74 L11.38 272.76 L13.36 274.76 L12.8 278.01 L16.06 281.3 L7.2 282.22 L4.59 279.58
								 L0 284.23 L30.03 314.59 C31.83 314.2 33.38 313.05 34.31 311.44 L43.27 295.75 L16 268.16 Z"
							class="st18"/>
				</g>
				<g id="shape86-118" v:mID="86" v:groupContext="shape" transform="translate(33.5598,-42.0635)">
					<title>Sheet.86</title>
					<ellipse cx="3.24584" cy="311.308" rx="3.24584" ry="3.28217" class="st19"/>
				</g>
				<g id="shape87-120" v:mID="87" v:groupContext="shape" transform="translate(33.5598,-19.0621)">
					<title>Sheet.87</title>
					<ellipse cx="3.24584" cy="311.308" rx="3.24584" ry="3.28217" class="st19"/>
				</g>
				<g id="shape88-122" v:mID="88" v:groupContext="shape" transform="translate(22.059,-30.5628)">
					<title>Sheet.88</title>
					<ellipse cx="3.24584" cy="311.308" rx="3.24584" ry="3.28217" class="st19"/>
				</g>
				<g id="shape89-124" v:mID="89" v:groupContext="shape" transform="translate(45.0605,-30.5628)">
					<title>Sheet.89</title>
					<ellipse cx="3.24584" cy="311.308" rx="3.24584" ry="3.28217" class="st19"/>
				</g>
				<g id="shape90-126" v:mID="90" v:groupContext="shape" transform="translate(22.5644,-21.4571)">
					<title>Sheet.90</title>
					<path d="M13.42 314.59 L0 301.14 L22.81 301.14 L13.42 291.62 L15.07 289.85 L28.48 303.27 L5.66 303.27 L15.07
								 312.83 L13.42 314.59 Z" class="st19"/>
				</g>
				<g id="shape91-128" v:mID="91" v:groupContext="shape" transform="translate(35.9513,-22.1668)">
					<title>Sheet.91</title>
					<rect x="0" y="306.809" width="1.39652" height="7.78106" class="st19"/>
				</g>
				<g id="shape92-130" v:mID="92" v:groupContext="shape" transform="translate(35.9513,-37.7289)">
					<title>Sheet.92</title>
					<rect x="0" y="306.809" width="1.39652" height="7.78106" class="st19"/>
				</g>
			</g>
			<g id="shape93-132" v:mID="93" v:groupContext="shape" transform="translate(26.3043,-70.8661)">
				<title>Sheet.93</title>
				<desc>Event Stream Broker</desc>
				<v:textBlock v:margins="rect(4,4,4,4)" v:tabSpace="42.5197"/>
				<v:textRect cx="50.9817" cy="305.43" width="101.97" height="18.3201"/>
				<rect x="0" y="296.27" width="101.963" height="18.3201" class="st6"/>
				<text x="34.55" y="301.23" class="st4" v:langID="2070"><v:paragraph v:horizAlign="1"/><v:tabList/>Event<v:newlineChar/><tspan
							x="8.95" dy="1.2em" class="st5">Stream Broker</tspan></text>			</g>
			<g id="shape94-136" v:mID="94" v:groupContext="shape">
				<title>Rectangle.117</title>
				<desc>Persistent Events</desc>
				<v:userDefs>
					<v:ud v:nameU="visVersion" v:val="VT0(15):26"/>
				</v:userDefs>
				<v:textBlock v:margins="rect(4,4,4,4)" v:tabSpace="42.5197"/>
				<v:textRect cx="78.6614" cy="282.255" width="157.33" height="64.6713"/>
				<path d="M0 314.59 L157.32 314.59 L157.32 249.92 L0 249.92 L0 314.59 Z" class="st20"/>
				<text x="22.89" y="286.45" class="st21" v:langID="2070"><v:paragraph v:horizAlign="1"/><v:tabList/>Persistent Events</text>			</g>
		</g>
	</g>
</svg>
