<?xml version="1.0" encoding="UTF-8" standalone="no"?>
<!DOCTYPE svg PUBLIC "-//W3C//DTD SVG 1.1//EN" "http://www.w3.org/Graphics/SVG/1.1/DTD/svg11.dtd">
<!-- Generated by Microsoft Visio, SVG Export db.svg db -->
<svg xmlns="http://www.w3.org/2000/svg" xmlns:xlink="http://www.w3.org/1999/xlink" xmlns:ev="http://www.w3.org/2001/xml-events"
		xmlns:v="http://schemas.microsoft.com/visio/2003/SVGExtensions/" width="5.68984in" height="4.35942in"
		viewBox="0 0 409.668 313.878" xml:space="preserve" color-interpolation-filters="sRGB" class="st15">
	<v:documentProperties v:langID="2070" v:metric="true" v:viewMarkup="false">
		<v:userDefs>
			<v:ud v:nameU="msvNoAutoConnect" v:val="VT0(1):26"/>
		</v:userDefs>
	</v:documentProperties>

	<style type="text/css">
	<![CDATA[
		.st1 {fill:#dae8fc;stroke:#6c8ebf;stroke-linecap:butt;stroke-width:0.75}
		.st2 {fill:#000000;fill-opacity:0.25;stroke:#000000;stroke-linecap:butt;stroke-opacity:0.25;stroke-width:0.75}
		.st3 {fill:#fff2cc;stroke:#d6b656;stroke-linecap:butt;stroke-width:0.75}
		.st4 {fill:#000000;font-family:Calibri;font-size:1.16666em;font-weight:bold}
		.st5 {font-size:1em}
		.st6 {fill:none;stroke:none;stroke-linecap:round;stroke-linejoin:round;stroke-width:0.75}
		.st7 {fill:#000000;fill-opacity:0.25;stroke:none;stroke-linecap:butt;stroke-width:0.75}
		.st8 {fill:url(#grad0-19);stroke:none;stroke-linecap:butt;stroke-width:0.75}
		.st9 {marker-end:url(#mrkr5-40);marker-start:url(#mrkr5-38);stroke:#000000;stroke-linecap:round;stroke-linejoin:round;stroke-width:1.5}
		.st10 {fill:#000000;fill-opacity:1;stroke:#000000;stroke-opacity:1;stroke-width:0.37313432835821}
		.st11 {fill:#424a60;stroke:none;stroke-linecap:butt;stroke-width:11.5472}
		.st12 {fill:#556080;stroke:none;stroke-linecap:butt;stroke-width:11.5472}
		.st13 {fill:#7fabda;stroke:none;stroke-linecap:butt;stroke-width:11.5472}
		.st14 {fill:#7383bf;stroke:none;stroke-linecap:butt;stroke-width:11.5472}
		.st15 {fill:none;fill-rule:evenodd;font-size:12px;overflow:visible;stroke-linecap:square;stroke-miterlimit:3}
	]]>
	</style>

	<defs id="Patterns_And_Gradients">
		<linearGradient id="grad0-19" x1="0" y1="0" x2="1" y2="0" gradientTransform="rotate(90 0.5 0.5)">
			<stop offset="0" stop-color="#4387fd" stop-opacity="1"/>
			<stop offset="1" stop-color="#4683ea" stop-opacity="1"/>
		</linearGradient>
	</defs>
	<defs id="Markers">
		<g id="lend5">
			<path d="M 2 1 L 0 0 L 1.98117 -0.993387 C 1.67173 -0.364515 1.67301 0.372641 1.98465 1.00043 " style="stroke:none"/>
		</g>
		<marker id="mrkr5-38" class="st10" v:arrowType="5" v:arrowSize="2" v:setback="4.45" refX="4.45" orient="auto"
				markerUnits="strokeWidth" overflow="visible">
			<use xlink:href="#lend5" transform="scale(2.68) "/>
		</marker>
		<marker id="mrkr5-40" class="st10" v:arrowType="5" v:arrowSize="2" v:setback="4.69" refX="-4.69" orient="auto"
				markerUnits="strokeWidth" overflow="visible">
			<use xlink:href="#lend5" transform="scale(-2.68,-2.68) "/>
		</marker>
	</defs>
	<g v:mID="16" v:index="20" v:groupContext="foregroundPage">
		<title>db</title>
		<v:pageProperties v:drawingScale="0.0393701" v:pageScale="0.0393701" v:drawingUnits="24" v:shadowOffsetX="9"
				v:shadowOffsetY="-9"/>
		<v:layer v:name="Connector" v:index="0"/>
		<g id="shape1-1" v:mID="1" v:groupContext="shape" transform="translate(18.75,-18.75)">
			<title>Sheet.1</title>
			<path d="M0 272.42 A27.2641 41.4577 -180 0 0 27.26 313.88 L344.9 313.88 A27.2641 41.4577 -180 0 0 372.17 272.42 L372.17
						 78.96 A27.2641 41.4577 -180 0 0 344.9 37.5 L27.26 37.5 A27.2641 41.4577 -180 0 0 -0 78.96 L0 272.42 Z"
					class="st1"/>
		</g>
		<g id="group2-3" transform="translate(49.5749,-118.857)" v:mID="2" v:groupContext="group">
			<title>Sheet.2</title>
			<g id="shape3-4" v:mID="3" v:groupContext="shape" transform="translate(0.322164,0)">
				<title>Sheet.3</title>
				<rect x="0" y="230.115" width="72.4869" height="83.7626" class="st2"/>
			</g>
			<g id="shape4-6" v:mID="4" v:groupContext="shape" transform="translate(0,-0.483246)">
				<title>Sheet.4</title>
				<desc>Service Broker</desc>
				<v:textBlock v:margins="rect(0,0,0,0)" v:tabSpace="42.5197"/>
				<v:textRect cx="36.2434" cy="271.997" width="72.49" height="83.7626"/>
				<rect x="0" y="230.115" width="72.4869" height="83.7626" class="st3"/>
				<text x="15.44" y="267.8" class="st4" v:langID="2070"><v:paragraph v:horizAlign="1"/><v:tabList/>Service<v:lf/><tspan
							x="16.7" dy="1.2em" class="st5">Broker</tspan></text>			</g>
		</g>
		<g id="shape5-10" v:mID="5" v:groupContext="shape" transform="translate(19.0335,-267.102)">
			<title>Sheet.5</title>
			<desc>Node 1</desc>
			<v:textBlock v:margins="rect(4,4,4,4)" v:tabSpace="42.5197"/>
			<v:textRect cx="30.8976" cy="303.878" width="61.8" height="20"/>
			<rect x="0" y="293.878" width="61.7953" height="20" class="st6"/>
			<text x="10.11" y="308.08" class="st4" v:langID="2070"><v:paragraph v:horizAlign="1"/><v:tabList/>Node 1</text>		</g>
		<g id="group7-13" transform="translate(197.411,-203.002)" v:mID="7" v:groupContext="group">
			<title>Sheet.7</title>
			<g id="shape8-14" v:mID="8" v:groupContext="shape" transform="translate(8.20069,-16.8642)">
				<title>Sheet.8</title>
				<path d="M16.39 310.59 L1.19 284.45 C0 282.41 0 279.89 1.19 277.84 L16.39 251.71 C17.58 249.66 19.78 248.39 22.17
							 248.39 L52.58 248.39 C54.97 248.38 57.18 249.64 58.38 251.69 L73.58 277.82 C74.77 279.87 74.77 282.39
							 73.58 284.44 L58.38 310.57 C57.18 312.62 54.97 313.88 52.58 313.87 L22.17 313.87 C19.79 313.88 17.59
							 312.63 16.39 310.59 Z" class="st7"/>
			</g>
			<g id="shape9-16" v:mID="9" v:groupContext="shape" transform="translate(7.04135,-18.6032)">
				<title>Sheet.9</title>
				<path d="M16.39 310.59 L1.19 284.45 C0 282.41 0 279.89 1.19 277.84 L16.39 251.71 C17.58 249.66 19.78 248.39 22.17
							 248.39 L52.58 248.39 C54.97 248.38 57.18 249.64 58.38 251.69 L73.58 277.82 C74.77 279.87 74.77 282.39
							 73.58 284.44 L58.38 310.57 C57.18 312.62 54.97 313.88 52.58 313.87 L22.17 313.87 C19.79 313.88 17.59
							 312.63 16.39 310.59 Z" class="st8"/>
			</g>
			<g id="shape10-20" v:mID="10" v:groupContext="shape" transform="translate(-8.27199,0)">
				<title>Sheet.10</title>
				<desc>Greeter Service</desc>
				<v:textBlock v:margins="rect(4,4,4,4)" v:tabSpace="42.5197"/>
				<v:textRect cx="53.8583" cy="307.88" width="107.72" height="11.9964"/>
				<rect x="0" y="301.882" width="107.717" height="11.9964" class="st6"/>
				<text x="9.04" y="312.08" class="st4" v:langID="2070"><v:paragraph v:horizAlign="1"/><v:tabList/>Greeter Service</text>			</g>
		</g>
		<g id="group11-23" transform="translate(199.206,-44.8987)" v:mID="11" v:groupContext="group">
			<title>Sheet.11</title>
			<g id="shape12-24" v:mID="12" v:groupContext="shape" transform="translate(8.20069,-16.8642)">
				<title>Sheet.12</title>
				<path d="M16.39 310.59 L1.19 284.45 C0 282.41 0 279.89 1.19 277.84 L16.39 251.71 C17.58 249.66 19.78 248.39 22.17
							 248.39 L52.58 248.39 C54.97 248.38 57.18 249.64 58.38 251.69 L73.58 277.82 C74.77 279.87 74.77 282.39
							 73.58 284.44 L58.38 310.57 C57.18 312.62 54.97 313.88 52.58 313.87 L22.17 313.87 C19.79 313.88 17.59
							 312.63 16.39 310.59 Z" class="st7"/>
			</g>
			<g id="shape13-26" v:mID="13" v:groupContext="shape" transform="translate(7.04135,-18.6032)">
				<title>Sheet.13</title>
				<path d="M16.39 310.59 L1.19 284.45 C0 282.41 0 279.89 1.19 277.84 L16.39 251.71 C17.58 249.66 19.78 248.39 22.17
							 248.39 L52.58 248.39 C54.97 248.38 57.18 249.64 58.38 251.69 L73.58 277.82 C74.77 279.87 74.77 282.39
							 73.58 284.44 L58.38 310.57 C57.18 312.62 54.97 313.88 52.58 313.87 L22.17 313.87 C19.79 313.88 17.59
							 312.63 16.39 310.59 Z" class="st8"/>
			</g>
			<g id="shape14-29" v:mID="14" v:groupContext="shape" transform="translate(-12.0822,0)">
				<title>Sheet.14</title>
				<desc>Products Service</desc>
				<v:textBlock v:margins="rect(4,4,4,4)" v:tabSpace="42.5197"/>
				<v:textRect cx="59.5276" cy="307.88" width="119.06" height="11.9964"/>
				<rect x="0" y="301.882" width="119.055" height="11.9964" class="st6"/>
				<text x="11.5" y="312.08" class="st4" v:langID="2070"><v:paragraph v:horizAlign="1"/><v:tabList/>Products Service</text>			</g>
		</g>
		<g id="shape15-32" v:mID="15" v:groupContext="shape" v:layerMember="0" transform="translate(323.523,-101.912)">
			<title>Dynamic connector.261</title>
			<path d="M-6.67 320.89 L-7.03 320.89 L-34.61 321.04" class="st9"/>
		</g>
		<g id="group16-41" transform="translate(323.523,-68.4012)" v:mID="16" v:groupContext="group">
			<title>Sheet.16</title>
			<g id="shape17-42" v:mID="17" v:groupContext="shape">
				<title>Sheet.17</title>
				<path d="M48.26 268.59 C47.52 264.1 37.01 260.54 24.15 260.54 C11.29 260.54 0.78 264.1 0.05 268.59 L0 268.59 L0 269.1
							 L0 280.67 L0 281.17 L0 281.67 L0 292.74 L0 293.25 L0 293.75 L0 305.83 L0.05 305.83 C0.78 310.32 11.29
							 313.88 24.15 313.88 C37.01 313.88 47.52 310.32 48.26 305.83 L48.3 305.83 L48.3 293.75 L48.3 293.25 L48.3
							 292.74 L48.3 281.67 L48.3 281.17 L48.3 280.67 L48.3 269.1 L48.3 268.59 L48.26 268.59 Z" class="st11"/>
			</g>
			<g id="group18-44" v:mID="18" v:groupContext="group">
				<title>Sheet.18</title>
				<g id="shape19-45" v:mID="19" v:groupContext="shape">
					<title>Sheet.19</title>
					<path d="M24.15 301.8 C10.81 301.8 0 297.97 0 293.25 L0 305.83 L0.05 305.83 C0.78 310.32 11.29 313.88 24.15 313.88
								 C37.01 313.88 47.52 310.32 48.26 305.83 L48.3 305.83 L48.3 293.25 C48.3 297.97 37.49 301.8 24.15
								 301.8 Z" class="st11"/>
				</g>
				<g id="shape20-47" v:mID="20" v:groupContext="shape" transform="translate(0,-20.6301)">
					<title>Sheet.20</title>
					<path d="M0 313.37 L0 313.88 C0 313.71 0.02 313.54 0.05 313.37 L0 313.37 Z" class="st11"/>
				</g>
				<g id="shape21-49" v:mID="21" v:groupContext="shape" transform="translate(48.2592,-20.6301)">
					<title>Sheet.21</title>
					<path d="M0 313.37 C0.03 313.54 0.05 313.71 0.05 313.88 L0.05 313.37 L0 313.37 Z" class="st11"/>
				</g>
			</g>
			<g id="group22-51" transform="translate(0,-12.0761)" v:mID="22" v:groupContext="group">
				<title>Sheet.22</title>
				<g id="shape23-52" v:mID="23" v:groupContext="shape">
					<title>Sheet.23</title>
					<path d="M24.15 301.8 C10.81 301.8 0 297.97 0 293.25 L0 305.83 L0.05 305.83 C0.78 310.32 11.29 313.88 24.15 313.88
								 C37.01 313.88 47.52 310.32 48.26 305.83 L48.3 305.83 L48.3 293.25 C48.3 297.97 37.49 301.8 24.15
								 301.8 Z" class="st12"/>
				</g>
				<g id="shape24-54" v:mID="24" v:groupContext="shape" transform="translate(0,-20.6301)">
					<title>Sheet.24</title>
					<path d="M0 313.37 L0 313.88 C0 313.71 0.02 313.54 0.05 313.37 L0 313.37 Z" class="st12"/>
				</g>
				<g id="shape25-56" v:mID="25" v:groupContext="shape" transform="translate(48.2592,-20.6301)">
					<title>Sheet.25</title>
					<path d="M0 313.37 C0.03 313.54 0.05 313.71 0.05 313.88 L0.05 313.37 L0 313.37 Z" class="st12"/>
				</g>
			</g>
			<g id="shape26-58" v:mID="26" v:groupContext="shape" transform="translate(0,-36.2284)">
				<title>Sheet.26</title>
				<ellipse cx="24.1523" cy="305.324" rx="24.1523" ry="8.55393" class="st13"/>
			</g>
			<g id="group27-60" transform="translate(0,-24.1523)" v:mID="27" v:groupContext="group">
				<title>Sheet.27</title>
				<g id="shape28-61" v:mID="28" v:groupContext="shape">
					<title>Sheet.28</title>
					<path d="M24.15 301.8 C10.81 301.8 0 297.97 0 293.25 L0 305.83 L0.05 305.83 C0.78 310.32 11.29 313.88 24.15 313.88
								 C37.01 313.88 47.52 310.32 48.26 305.83 L48.3 305.83 L48.3 293.25 C48.3 297.97 37.49 301.8 24.15
								 301.8 Z" class="st14"/>
				</g>
				<g id="shape29-63" v:mID="29" v:groupContext="shape" transform="translate(0,-20.6301)">
					<title>Sheet.29</title>
					<path d="M0 313.37 L0 313.88 C0 313.71 0.02 313.54 0.05 313.37 L0 313.37 Z" class="st14"/>
				</g>
				<g id="shape30-65" v:mID="30" v:groupContext="shape" transform="translate(48.2592,-20.6301)">
					<title>Sheet.30</title>
					<path d="M0 313.37 C0.03 313.54 0.05 313.71 0.05 313.88 L0.05 313.37 L0 313.37 Z" class="st14"/>
				</g>
			</g>
		</g>
		<g id="shape35-67" v:mID="35" v:groupContext="shape" v:layerMember="0" transform="translate(122.062,-182.295)">
			<title>Dynamic connector.97</title>
			<path d="M5.77 310.52 L6.08 310.34 L86.36 263.66" class="st9"/>
		</g>
		<g id="shape37-74" v:mID="37" v:groupContext="shape" v:layerMember="0" transform="translate(212.854,-108.853)">
			<title>Dynamic connector.283</title>
			<path d="M-6.18 311.35 L-6.51 311.21 L-83.96 279.5" class="st9"/>
		</g>
	</g>
</svg>
