<?xml version="1.0" encoding="UTF-8" standalone="no"?>
<!DOCTYPE svg PUBLIC "-//W3C//DTD SVG 1.1//EN" "http://www.w3.org/Graphics/SVG/1.1/DTD/svg11.dtd">
<!-- Generated by Microsoft Visio, SVG Export gql-http.svg gql-http -->
<svg xmlns="http://www.w3.org/2000/svg" xmlns:xlink="http://www.w3.org/1999/xlink" xmlns:ev="http://www.w3.org/2001/xml-events"
		xmlns:v="http://schemas.microsoft.com/visio/2003/SVGExtensions/" width="8.42079in" height="3.22337in"
		viewBox="0 0 606.297 232.083" xml:space="preserve" color-interpolation-filters="sRGB" class="st25">
	<v:documentProperties v:langID="2070" v:metric="true" v:viewMarkup="false">
		<v:userDefs>
			<v:ud v:nameU="msvNoAutoConnect" v:val="VT0(1):26"/>
		</v:userDefs>
	</v:documentProperties>

	<style type="text/css">
	<![CDATA[
		.st1 {fill:#dae8fc;stroke:#6c8ebf;stroke-linecap:butt;stroke-width:0.75}
		.st2 {fill:#000000;fill-opacity:0.25;stroke:#000000;stroke-linecap:butt;stroke-opacity:0.25;stroke-width:0.75}
		.st3 {fill:#fff2cc;stroke:#d6b656;stroke-linecap:butt;stroke-width:0.75}
		.st4 {fill:#000000;font-family:Calibri;font-size:1.16666em;font-weight:bold}
		.st5 {font-size:1em}
		.st6 {fill:#000000;fill-opacity:0.25;stroke:none;stroke-linecap:butt;stroke-width:0.75}
		.st7 {fill:url(#grad0-17);stroke:none;stroke-linecap:butt;stroke-width:0.75}
		.st8 {fill:#000000;fill-opacity:0.067;stroke:none;stroke-linecap:butt;stroke-width:0.75}
		.st9 {fill:#ffffff;stroke:none;stroke-linecap:butt;stroke-width:0.75}
		.st10 {fill:none;stroke:none;stroke-linecap:round;stroke-linejoin:round;stroke-width:0.75}
		.st11 {marker-end:url(#mrkr5-34);marker-start:url(#mrkr5-32);stroke:#000000;stroke-linecap:round;stroke-linejoin:round;stroke-width:1.5}
		.st12 {fill:#000000;fill-opacity:1;stroke:#000000;stroke-opacity:1;stroke-width:0.37313432835821}
		.st13 {stroke:#000000;stroke-linecap:round;stroke-linejoin:round;stroke-width:1.5}
		.st14 {fill:#ffffff;stroke:#000000;stroke-dasharray:1.5,3;stroke-linecap:round;stroke-linejoin:round;stroke-width:1.5}
		.st15 {fill:#000000;font-family:Segoe UI;font-size:1.16666em;font-weight:bold}
		.st16 {marker-end:url(#mrkr5-34);marker-start:url(#mrkr5-32);stroke:#000000;stroke-dasharray:10.5,7.5,0,7.5;stroke-linecap:round;stroke-linejoin:round;stroke-width:1.5}
		.st17 {fill:#f54f33;stroke:none;stroke-linecap:butt;stroke-width:4.78125}
		.st18 {fill:#ffffff;stroke:none;stroke-linecap:butt;stroke-width:4.78125}
		.st19 {fill:#e1e3e9;stroke:none;stroke-linecap:butt;stroke-width:4.78125}
		.st20 {fill:#f24b45;stroke:none;stroke-linecap:butt;stroke-width:4.78125}
		.st21 {fill:#ffb202;stroke:none;stroke-linecap:butt;stroke-width:4.78125}
		.st22 {fill:#4cbb41;stroke:none;stroke-linecap:butt;stroke-width:4.78125}
		.st23 {fill:#53899f;stroke:none;stroke-linecap:butt;stroke-width:4.78125}
		.st24 {fill:url(#grad0-81);stroke:none;stroke-linecap:butt;stroke-width:0.75}
		.st25 {fill:none;fill-rule:evenodd;font-size:12px;overflow:visible;stroke-linecap:square;stroke-miterlimit:3}
	]]>
	</style>

	<defs id="Patterns_And_Gradients">
		<linearGradient id="grad0-17" x1="0" y1="0" x2="1" y2="0" gradientTransform="rotate(90 0.5 0.5)">
			<stop offset="0" stop-color="#35cc49" stop-opacity="1"/>
			<stop offset="1" stop-color="#44bf3b" stop-opacity="1"/>
		</linearGradient>
		<linearGradient id="grad0-81" x1="0" y1="0" x2="1" y2="0" gradientTransform="rotate(90 0.5 0.5)">
			<stop offset="0" stop-color="#4387fd" stop-opacity="1"/>
			<stop offset="1" stop-color="#4683ea" stop-opacity="1"/>
		</linearGradient>
	</defs>
	<defs id="Markers">
		<g id="lend5">
			<path d="M 2 1 L 0 0 L 1.98117 -0.993387 C 1.67173 -0.364515 1.67301 0.372641 1.98465 1.00043 " style="stroke:none"/>
		</g>
		<marker id="mrkr5-32" class="st12" v:arrowType="5" v:arrowSize="2" v:setback="4.45" refX="4.45" orient="auto"
				markerUnits="strokeWidth" overflow="visible">
			<use xlink:href="#lend5" transform="scale(2.68) "/>
		</marker>
		<marker id="mrkr5-34" class="st12" v:arrowType="5" v:arrowSize="2" v:setback="4.69" refX="-4.69" orient="auto"
				markerUnits="strokeWidth" overflow="visible">
			<use xlink:href="#lend5" transform="scale(-2.68,-2.68) "/>
		</marker>
	</defs>
	<g v:mID="12" v:index="10" v:groupContext="foregroundPage">
		<title>gql-http</title>
		<v:pageProperties v:drawingScale="0.0393701" v:pageScale="0.0393701" v:drawingUnits="24" v:shadowOffsetX="9"
				v:shadowOffsetY="-9"/>
		<v:layer v:name="Connector" v:index="0"/>
		<g id="shape1-1" v:mID="1" v:groupContext="shape" transform="translate(155.339,-85.7737)">
			<title>Sheet.1</title>
			<path d="M0 212.95 A31.236 19.1343 -180 0 0 31.24 232.08 L395.15 232.08 A31.236 19.1343 -180 0 0 426.39 212.95 L426.39
						 123.66 A31.236 19.1343 -180 0 0 395.15 104.52 L31.24 104.52 A31.236 19.1343 -180 0 0 -0 123.66 L0 212.95
						 Z" class="st1"/>
		</g>
		<g id="group2-3" transform="translate(331.318,-114.914)" v:mID="2" v:groupContext="group">
			<title>Sheet.2</title>
			<g id="shape3-4" v:mID="3" v:groupContext="shape" transform="translate(0.322164,2.84217E-14)">
				<title>Sheet.3</title>
				<rect x="0" y="148.32" width="72.4869" height="83.7626" class="st2"/>
			</g>
			<g id="shape4-6" v:mID="4" v:groupContext="shape" transform="translate(0,-0.483246)">
				<title>Sheet.4</title>
				<desc>Service Broker</desc>
				<v:textBlock v:margins="rect(0,0,0,0)" v:tabSpace="42.5197"/>
				<v:textRect cx="36.2434" cy="190.201" width="72.49" height="83.7626"/>
				<rect x="0" y="148.32" width="72.4869" height="83.7626" class="st3"/>
				<text x="15.44" y="186" class="st4" v:langID="2070"><v:paragraph v:horizAlign="1"/><v:tabList/>Service<v:lf/><tspan
							x="16.7" dy="1.2em" class="st5">Broker</tspan></text>			</g>
		</g>
		<g id="group5-10" transform="translate(210.693,-91.0922)" v:mID="5" v:groupContext="group">
			<title>Sheet.5</title>
			<g id="group6-11" transform="translate(7.62102,-34.3433)" v:mID="6" v:groupContext="group">
				<title>Sheet.6</title>
				<g id="shape7-12" v:mID="7" v:groupContext="shape" transform="translate(1.15933,-1.33582E-12)">
					<title>Sheet.7</title>
					<path d="M16.4 228.75 L1.19 202.38 C0 200.32 0 197.77 1.19 195.71 L16.4 169.33 C17.59 167.27 19.79 166 22.17
								 166 L52.6 166 C54.98 166 57.18 167.27 58.37 169.33 L73.58 195.71 C74.77 197.77 74.77 200.32 73.58
								 202.38 L58.37 228.75 C57.18 230.81 54.98 232.08 52.6 232.08 L22.17 232.08 C19.79 232.08 17.59 230.81
								 16.4 228.75 Z" class="st6"/>
				</g>
				<g id="shape8-14" v:mID="8" v:groupContext="shape" transform="translate(0,-1.739)">
					<title>Sheet.8</title>
					<path d="M16.4 228.75 L1.19 202.38 C0 200.32 0 197.77 1.19 195.71 L16.4 169.33 C17.59 167.27 19.79 166 22.17
								 166 L52.6 166 C54.98 166 57.18 167.27 58.37 169.33 L73.58 195.71 C74.77 197.77 74.77 200.32 73.58
								 202.38 L58.37 228.75 C57.18 230.81 54.98 232.08 52.6 232.08 L22.17 232.08 C19.79 232.08 17.59 230.81
								 16.4 228.75 Z" class="st7"/>
				</g>
				<g id="shape9-18" v:mID="9" v:groupContext="shape" transform="translate(20.6535,-1.739)">
					<title>Sheet.9</title>
					<path d="M35.7 198.55 L28.61 202.2 L25.44 199.02 L13.01 198.67 L7.22 192.87 L0 199.05 L4.9 206.7 L30.26 232.08
								 L31.95 232.08 C34.33 232.08 36.52 230.81 37.72 228.75 L48.02 210.89 L35.7 198.55 Z" class="st8"/>
				</g>
				<g id="shape10-20" v:mID="10" v:groupContext="shape" transform="translate(18.103,-26.9081)">
					<title>Sheet.10</title>
					<path d="M28 224.2 L26.35 222.54 L12.23 222.54 L10.57 224.2 L12.23 225.86 L26.35 225.86 L28 224.2 ZM9.77 229.49
								 L4.49 224.21 L9.77 218.94 C10.01 218.69 10.01 218.29 9.77 218.04 L8.31 216.59 C8.06 216.34 7.66
								 216.34 7.41 216.59 L0.24 223.76 C0 224.01 0 224.41 0.24 224.66 L1.7 226.12 L1.7 226.12 L7.42 231.83
								 C7.67 232.08 8.06 232.08 8.31 231.83 L9.77 230.38 C10.01 230.14 10.01 229.74 9.77 229.49 ZM28.8
								 218.94 L34.08 224.22 L28.8 229.49 C28.56 229.74 28.56 230.14 28.8 230.38 L30.26 231.83 C30.51 232.08
								 30.91 232.08 31.16 231.83 L38.33 224.66 C38.57 224.41 38.57 224.01 38.33 223.76 L36.87 222.31 L36.86
								 222.3 L31.15 216.59 C30.9 216.34 30.51 216.34 30.26 216.59 L28.8 218.04 C28.56 218.29 28.56 218.69
								 28.8 218.94 Z" class="st9"/>
				</g>
			</g>
			<g id="shape11-22" v:mID="11" v:groupContext="shape">
				<title>Sheet.11</title>
				<desc>API Gateway</desc>
				<v:textBlock v:margins="rect(4,4,4,4)" v:tabSpace="42.5197"/>
				<v:textRect cx="45.5863" cy="216.487" width="91.18" height="31.1906"/>
				<rect x="0" y="200.892" width="91.1726" height="31.1906" class="st10"/>
				<text x="35.75" y="212.29" class="st4" v:langID="2070"><v:paragraph v:horizAlign="1"/><v:tabList/>API<v:newlineChar/><tspan
							x="19.73" dy="1.2em" class="st5">Gateway</tspan></text>			</g>
		</g>
		<g id="shape12-26" v:mID="12" v:groupContext="shape" v:layerMember="0" transform="translate(331.318,-150.786)">
			<title>Dynamic connector.67</title>
			<path d="M-6.67 225.13 L-7.03 225.12 L-30.35 224.87" class="st11"/>
		</g>
		<g id="shape13-35" v:mID="13" v:groupContext="shape" transform="translate(171.496,-189.16)">
			<title>Sheet.13</title>
			<desc>Node 1</desc>
			<v:textBlock v:margins="rect(4,4,4,4)" v:tabSpace="42.5197"/>
			<v:textRect cx="30.8976" cy="222.083" width="61.8" height="20"/>
			<rect x="0" y="212.083" width="61.7953" height="20" class="st10"/>
			<text x="10.11" y="226.28" class="st4" v:langID="2070"><v:paragraph v:horizAlign="1"/><v:tabList/>Node 1</text>		</g>
		<g id="shape14-38" v:mID="14" v:groupContext="shape" v:layerMember="0" transform="translate(234.249,-129.925)">
			<title>Dynamic connector.180</title>
			<path d="M0 232.08 L-46.23 314.71" class="st13"/>
		</g>
		<g id="shape15-41" v:mID="15" v:groupContext="shape" v:layerMember="0" transform="translate(279.628,-130.966)">
			<title>Dynamic connector.181</title>
			<path d="M0 232.08 L46.81 315.75" class="st13"/>
		</g>
		<g id="shape16-44" v:mID="16" v:groupContext="shape" transform="translate(188.016,-18.75)">
			<title>Rectangle.182</title>
			<desc>- HTTP Server - GraphQL Server</desc>
			<v:userDefs>
				<v:ud v:nameU="visVersion" v:val="VT0(15):26"/>
			</v:userDefs>
			<v:textBlock v:margins="rect(4,4,4,4)" v:tabSpace="42.5197"/>
			<v:textRect cx="69.2096" cy="203.537" width="138.42" height="57.0915"/>
			<path d="M0 232.08 L138.42 232.08 L138.42 174.99 L0 174.99 L0 232.08 Z" class="st14"/>
			<text x="4" y="199.34" class="st15" v:langID="2070"><v:paragraph/><v:tabList/>- HTTP Server<v:newlineChar/><tspan x="4"
						dy="1.2em" class="st5">-</tspan> GraphQL Server</text>		</g>
		<g id="shape17-48" v:mID="17" v:groupContext="shape" v:layerMember="0" transform="translate(218.619,-153.98)">
			<title>Dynamic connector.75</title>
			<path d="M-6.67 225.47 L-7.03 225.47 L-118.3 224.52" class="st16"/>
		</g>
		<g id="group18-55" transform="translate(22.7812,-126.649)" v:mID="18" v:groupContext="group">
			<title>Sheet.18</title>
			<g id="shape19-56" v:mID="19" v:groupContext="shape">
				<title>Sheet.19</title>
				<ellipse cx="35.2531" cy="196.83" rx="35.2531" ry="35.2531" class="st17"/>
			</g>
			<g id="shape20-58" v:mID="20" v:groupContext="shape" transform="translate(10.4966,-17.1049)">
				<title>Sheet.20</title>
				<path d="M47.31 232.08 L2.2 232.08 C0.99 232.08 0 231.1 0 229.88 L0 197.99 C0 196.77 0.99 195.79 2.2 195.79 L47.31
							 195.79 C48.53 195.79 49.51 196.77 49.51 197.99 L49.51 229.88 C49.51 231.1 48.53 232.08 47.31 232.08
							 Z" class="st18"/>
			</g>
			<g id="shape21-60" v:mID="21" v:groupContext="shape" transform="translate(10.4966,-47.3416)">
				<title>Sheet.21</title>
				<path d="M49.51 232.08 L49.51 228.23 C49.51 227.01 48.53 226.02 47.31 226.02 L2.2 226.02 C0.99 226.02 0 227.01 0
							 228.23 L0 232.08 L49.51 232.08 Z" class="st19"/>
			</g>
			<g id="shape22-62" v:mID="22" v:groupContext="shape" transform="translate(12.1182,-48.7192)">
				<title>Sheet.22</title>
				<ellipse cx="1.65249" cy="230.43" rx="1.65249" ry="1.65249" class="st20"/>
			</g>
			<g id="shape23-64" v:mID="23" v:groupContext="shape" transform="translate(17.0757,-48.7192)">
				<title>Sheet.23</title>
				<ellipse cx="1.65249" cy="230.43" rx="1.65249" ry="1.65249" class="st21"/>
			</g>
			<g id="shape24-66" v:mID="24" v:groupContext="shape" transform="translate(22.0337,-48.7192)">
				<title>Sheet.24</title>
				<ellipse cx="1.65249" cy="230.43" rx="1.65249" ry="1.65249" class="st22"/>
			</g>
			<g id="group25-68" transform="translate(17.0019,-23.5722)" v:mID="25" v:groupContext="group">
				<title>Sheet.25</title>
				<g id="shape26-69" v:mID="26" v:groupContext="shape" transform="translate(0,-2.11904)">
					<title>Sheet.26</title>
					<path d="M0 224.07 L12.45 218.28 L12.45 221.03 L3.04 225.16 L3.04 225.21 L12.45 229.33 L12.45 232.08 L0 226.3
								 L0 224.07 Z" class="st23"/>
				</g>
				<g id="shape27-71" v:mID="27" v:groupContext="shape" transform="translate(14.3722,2.84217E-14)">
					<title>Sheet.27</title>
					<path d="M0 232.08 L5.55 213.27 L8.17 213.27 L2.62 232.08 L0 232.08 Z" class="st23"/>
				</g>
				<g id="shape28-73" v:mID="28" v:groupContext="shape" transform="translate(24.0481,-2.11904)">
					<title>Sheet.28</title>
					<path d="M12.45 226.38 L0 232.08 L0 229.33 L9.63 225.21 L9.63 225.16 L0 221.03 L0 218.28 L12.45 223.99 L12.45
								 226.38 L12.45 226.38 Z" class="st23"/>
				</g>
			</g>
		</g>
		<g id="group30-75" transform="translate(480.949,-105.139)" v:mID="30" v:groupContext="group">
			<title>Sheet.30</title>
			<g id="shape31-76" v:mID="31" v:groupContext="shape" transform="translate(8.20069,-16.8642)">
				<title>Sheet.31</title>
				<path d="M16.39 228.79 L1.19 202.66 C0 200.61 0 198.09 1.19 196.04 L16.39 169.91 C17.58 167.86 19.78 166.6 22.17
							 166.59 L52.58 166.59 C54.97 166.59 57.18 167.84 58.38 169.9 L73.58 196.03 C74.77 198.07 74.77 200.6
							 73.58 202.64 L58.38 228.77 C57.18 230.82 54.97 232.08 52.58 232.08 L22.17 232.08 C19.79 232.08 17.59
							 230.83 16.39 228.79 Z" class="st6"/>
			</g>
			<g id="shape32-78" v:mID="32" v:groupContext="shape" transform="translate(7.04135,-18.6032)">
				<title>Sheet.32</title>
				<path d="M16.39 228.79 L1.19 202.66 C0 200.61 0 198.09 1.19 196.04 L16.39 169.91 C17.58 167.86 19.78 166.6 22.17
							 166.59 L52.58 166.59 C54.97 166.59 57.18 167.84 58.38 169.9 L73.58 196.03 C74.77 198.07 74.77 200.6
							 73.58 202.64 L58.38 228.77 C57.18 230.82 54.97 232.08 52.58 232.08 L22.17 232.08 C19.79 232.08 17.59
							 230.83 16.39 228.79 Z" class="st24"/>
			</g>
			<g id="shape33-82" v:mID="33" v:groupContext="shape" transform="translate(-12.0822,2.84217E-14)">
				<title>Sheet.33</title>
				<desc>Greeter Service</desc>
				<v:textBlock v:margins="rect(4,4,4,4)" v:tabSpace="42.5197"/>
				<v:textRect cx="59.5276" cy="226.085" width="119.06" height="11.9964"/>
				<rect x="0" y="220.086" width="119.055" height="11.9964" class="st10"/>
				<text x="14.7" y="230.28" class="st4" v:langID="2070"><v:paragraph v:horizAlign="1"/><v:tabList/>Greeter Service</text>			</g>
		</g>
		<g id="shape34-85" v:mID="34" v:groupContext="shape" v:layerMember="0" transform="translate(488.288,-149.557)">
			<title>Dynamic connector.283</title>
			<path d="M-6.67 225.06 L-7.03 225.06 L-77.13 224.93" class="st11"/>
		</g>
	</g>
</svg>
