<?xml version="1.0" encoding="UTF-8" standalone="no"?>
<!DOCTYPE svg PUBLIC "-//W3C//DTD SVG 1.1//EN" "http://www.w3.org/Graphics/SVG/1.1/DTD/svg11.dtd">
<!-- Generated by Microsoft Visio, SVG Export greeter.svg greeter -->
<svg xmlns="http://www.w3.org/2000/svg" xmlns:xlink="http://www.w3.org/1999/xlink" xmlns:ev="http://www.w3.org/2001/xml-events"
		xmlns:v="http://schemas.microsoft.com/visio/2003/SVGExtensions/" width="4.69874in" height="2.33426in"
		viewBox="0 0 338.309 168.067" xml:space="preserve" color-interpolation-filters="sRGB" class="st11">
	<v:documentProperties v:langID="2070" v:metric="true" v:viewMarkup="false">
		<v:userDefs>
			<v:ud v:nameU="msvNoAutoConnect" v:val="VT0(1):26"/>
		</v:userDefs>
	</v:documentProperties>

	<style type="text/css">
	<![CDATA[
		.st1 {fill:#dae8fc;stroke:#6c8ebf;stroke-linecap:butt;stroke-width:0.75}
		.st2 {fill:#000000;fill-opacity:0.25;stroke:#000000;stroke-linecap:butt;stroke-opacity:0.25;stroke-width:0.75}
		.st3 {fill:#fff2cc;stroke:#d6b656;stroke-linecap:butt;stroke-width:0.75}
		.st4 {fill:#000000;font-family:Calibri;font-size:1.16666em;font-weight:bold}
		.st5 {font-size:1em}
		.st6 {fill:#000000;fill-opacity:0.25;stroke:none;stroke-linecap:butt;stroke-width:0.75}
		.st7 {fill:url(#grad0-18);stroke:none;stroke-linecap:butt;stroke-width:0.75}
		.st8 {fill:none;stroke:none;stroke-linecap:round;stroke-linejoin:round;stroke-width:0.75}
		.st9 {marker-end:url(#mrkr5-30);marker-start:url(#mrkr5-28);stroke:#000000;stroke-linecap:round;stroke-linejoin:round;stroke-width:1.5}
		.st10 {fill:#000000;fill-opacity:1;stroke:#000000;stroke-opacity:1;stroke-width:0.37313432835821}
		.st11 {fill:none;fill-rule:evenodd;font-size:12px;overflow:visible;stroke-linecap:square;stroke-miterlimit:3}
	]]>
	</style>

	<defs id="Patterns_And_Gradients">
		<linearGradient id="grad0-18" x1="0" y1="0" x2="1" y2="0" gradientTransform="rotate(90 0.5 0.5)">
			<stop offset="0" stop-color="#4387fd" stop-opacity="1"/>
			<stop offset="1" stop-color="#4683ea" stop-opacity="1"/>
		</linearGradient>
	</defs>
	<defs id="Markers">
		<g id="lend5">
			<path d="M 2 1 L 0 0 L 1.98117 -0.993387 C 1.67173 -0.364515 1.67301 0.372641 1.98465 1.00043 " style="stroke:none"/>
		</g>
		<marker id="mrkr5-28" class="st10" v:arrowType="5" v:arrowSize="2" v:setback="4.45" refX="4.45" orient="auto"
				markerUnits="strokeWidth" overflow="visible">
			<use xlink:href="#lend5" transform="scale(2.68) "/>
		</marker>
		<marker id="mrkr5-30" class="st10" v:arrowType="5" v:arrowSize="2" v:setback="4.69" refX="-4.69" orient="auto"
				markerUnits="strokeWidth" overflow="visible">
			<use xlink:href="#lend5" transform="scale(-2.68,-2.68) "/>
		</marker>
	</defs>
	<g v:mID="17" v:index="15" v:groupContext="foregroundPage">
		<title>greeter</title>
		<v:pageProperties v:drawingScale="0.0393701" v:pageScale="0.0393701" v:drawingUnits="24" v:shadowOffsetX="9"
				v:shadowOffsetY="-9"/>
		<v:layer v:name="Connector" v:index="0"/>
		<g id="group46-1" transform="translate(18.75,-18.75)" v:mID="46" v:groupContext="group">
			<title>Sheet.46</title>
			<g id="group47-2" v:mID="47" v:groupContext="group">
				<title>Sheet.47</title>
				<g id="shape48-3" v:mID="48" v:groupContext="shape">
					<title>Sheet.48</title>
					<path d="M0 148.48 A22.0365 19.5855 -180 0 0 22.04 168.07 L278.77 168.07 A22.0365 19.5855 -180 0 0 300.81 148.48
								 L300.81 57.09 A22.0365 19.5855 -180 0 0 278.77 37.5 L22.04 37.5 A22.0365 19.5855 -180 0 0 -0 57.09
								 L0 148.48 Z" class="st1"/>
				</g>
				<g id="group49-5" transform="translate(13.1117,-18.8939)" v:mID="49" v:groupContext="group">
					<title>Sheet.49</title>
					<g id="shape50-6" v:mID="50" v:groupContext="shape" transform="translate(0.322164,0)">
						<title>Sheet.50</title>
						<rect x="0" y="84.3044" width="72.4869" height="83.7626" class="st2"/>
					</g>
					<g id="shape51-8" v:mID="51" v:groupContext="shape" transform="translate(0,-0.483246)">
						<title>Sheet.51</title>
						<desc>Service Broker</desc>
						<v:textBlock v:margins="rect(0,0,0,0)" v:tabSpace="42.5197"/>
						<v:textRect cx="36.2434" cy="126.186" width="72.49" height="83.7626"/>
						<rect x="0" y="84.3044" width="72.4869" height="83.7626" class="st3"/>
						<text x="15.44" y="121.99" class="st4" v:langID="2070"><v:paragraph v:horizAlign="1"/><v:tabList/>Service<v:lf/><tspan
									x="16.7" dy="1.2em" class="st5">Broker</tspan></text>					</g>
				</g>
				<g id="group52-12" transform="translate(156.01,-9.4436)" v:mID="52" v:groupContext="group">
					<title>Sheet.52</title>
					<g id="shape53-13" v:mID="53" v:groupContext="shape" transform="translate(8.20069,-16.8642)">
						<title>Sheet.53</title>
						<path d="M16.39 164.77 L1.19 138.64 C0 136.6 0 134.08 1.19 132.03 L16.39 105.9 C17.58 103.85 19.78 102.58
									 22.17 102.58 L52.58 102.58 C54.97 102.57 57.18 103.83 58.38 105.88 L73.58 132.01 C74.77 134.06
									 74.77 136.58 73.58 138.63 L58.38 164.76 C57.18 166.81 54.97 168.07 52.58 168.06 L22.17 168.06
									 C19.79 168.07 17.59 166.81 16.39 164.77 Z" class="st6"/>
					</g>
					<g id="shape54-15" v:mID="54" v:groupContext="shape" transform="translate(7.04135,-18.6032)">
						<title>Sheet.54</title>
						<path d="M16.39 164.77 L1.19 138.64 C0 136.6 0 134.08 1.19 132.03 L16.39 105.9 C17.58 103.85 19.78 102.58
									 22.17 102.58 L52.58 102.58 C54.97 102.57 57.18 103.83 58.38 105.88 L73.58 132.01 C74.77 134.06
									 74.77 136.58 73.58 138.63 L58.38 164.76 C57.18 166.81 54.97 168.07 52.58 168.06 L22.17 168.06
									 C19.79 168.07 17.59 166.81 16.39 164.77 Z" class="st7"/>
					</g>
					<g id="shape55-19" v:mID="55" v:groupContext="shape" transform="translate(-8.27199,0)">
						<title>Sheet.55</title>
						<desc>Greeter Service</desc>
						<v:textBlock v:margins="rect(4,4,4,4)" v:tabSpace="42.5197"/>
						<v:textRect cx="53.8583" cy="162.069" width="107.72" height="11.9964"/>
						<rect x="0" y="156.071" width="107.717" height="11.9964" class="st8"/>
						<text x="9.04" y="166.27" class="st4" v:langID="2070"><v:paragraph v:horizAlign="1"/><v:tabList/>Greeter Service</text>					</g>
				</g>
				<g id="shape56-22" v:mID="56" v:groupContext="shape" v:layerMember="0" transform="translate(163.35,-53.9414)">
					<title>Dynamic connector.97</title>
					<path d="M-6.67 161.08 L-7.03 161.08 L-70.72 160.88" class="st9"/>
				</g>
			</g>
			<g id="shape57-31" v:mID="57" v:groupContext="shape" transform="translate(8.7874,-110.567)">
				<title>Sheet.57</title>
				<desc>Node 1</desc>
				<v:textBlock v:margins="rect(4,4,4,4)" v:tabSpace="42.5197"/>
				<v:textRect cx="30.8976" cy="158.067" width="61.8" height="20"/>
				<rect x="0" y="148.067" width="61.7953" height="20" class="st8"/>
				<text x="10.11" y="162.27" class="st4" v:langID="2070"><v:paragraph v:horizAlign="1"/><v:tabList/>Node 1</text>			</g>
		</g>
	</g>
</svg>
