<?xml version="1.0" encoding="UTF-8" standalone="no"?>
<!DOCTYPE svg PUBLIC "-//W3C//DTD SVG 1.1//EN" "http://www.w3.org/Graphics/SVG/1.1/DTD/svg11.dtd">
<!-- Generated by Microsoft Visio, SVG Export io-gql-db.svg io-gql-db -->
<svg xmlns="http://www.w3.org/2000/svg" xmlns:xlink="http://www.w3.org/1999/xlink" xmlns:ev="http://www.w3.org/2001/xml-events"
		xmlns:v="http://schemas.microsoft.com/visio/2003/SVGExtensions/" width="9.60294in" height="4.35942in"
		viewBox="0 0 691.411 313.878" xml:space="preserve" color-interpolation-filters="sRGB" class="st29">
	<v:documentProperties v:langID="2070" v:metric="true" v:viewMarkup="false">
		<v:userDefs>
			<v:ud v:nameU="msvNoAutoConnect" v:val="VT0(1):26"/>
		</v:userDefs>
	</v:documentProperties>

	<style type="text/css">
	<![CDATA[
		.st1 {fill:#dae8fc;stroke:#6c8ebf;stroke-linecap:butt;stroke-width:0.75}
		.st2 {fill:#000000;fill-opacity:0.25;stroke:#000000;stroke-linecap:butt;stroke-opacity:0.25;stroke-width:0.75}
		.st3 {fill:#fff2cc;stroke:#d6b656;stroke-linecap:butt;stroke-width:0.75}
		.st4 {fill:#000000;font-family:Calibri;font-size:1.16666em;font-weight:bold}
		.st5 {font-size:1em}
		.st6 {fill:#000000;fill-opacity:0.25;stroke:none;stroke-linecap:butt;stroke-width:0.75}
		.st7 {fill:url(#grad0-17);stroke:none;stroke-linecap:butt;stroke-width:0.75}
		.st8 {fill:#000000;fill-opacity:0.067;stroke:none;stroke-linecap:butt;stroke-width:0.75}
		.st9 {fill:#ffffff;stroke:none;stroke-linecap:butt;stroke-width:0.75}
		.st10 {fill:none;stroke:none;stroke-linecap:round;stroke-linejoin:round;stroke-width:0.75}
		.st11 {marker-end:url(#mrkr5-34);marker-start:url(#mrkr5-32);stroke:#000000;stroke-linecap:round;stroke-linejoin:round;stroke-width:1.5}
		.st12 {fill:#000000;fill-opacity:1;stroke:#000000;stroke-opacity:1;stroke-width:0.37313432835821}
		.st13 {stroke:#000000;stroke-linecap:round;stroke-linejoin:round;stroke-width:1.5}
		.st14 {fill:#ffffff;stroke:#000000;stroke-dasharray:1.5,3;stroke-linecap:round;stroke-linejoin:round;stroke-width:1.5}
		.st15 {fill:#000000;font-family:Segoe UI;font-size:1.16666em;font-weight:bold}
		.st16 {marker-end:url(#mrkr5-34);marker-start:url(#mrkr5-32);stroke:#000000;stroke-dasharray:10.5,7.5,0,7.5;stroke-linecap:round;stroke-linejoin:round;stroke-width:1.5}
		.st17 {fill:#f54f33;stroke:none;stroke-linecap:butt;stroke-width:4.78125}
		.st18 {fill:#ffffff;stroke:none;stroke-linecap:butt;stroke-width:4.78125}
		.st19 {fill:#e1e3e9;stroke:none;stroke-linecap:butt;stroke-width:4.78125}
		.st20 {fill:#f24b45;stroke:none;stroke-linecap:butt;stroke-width:4.78125}
		.st21 {fill:#ffb202;stroke:none;stroke-linecap:butt;stroke-width:4.78125}
		.st22 {fill:#4cbb41;stroke:none;stroke-linecap:butt;stroke-width:4.78125}
		.st23 {fill:#53899f;stroke:none;stroke-linecap:butt;stroke-width:4.78125}
		.st24 {fill:url(#grad0-81);stroke:none;stroke-linecap:butt;stroke-width:0.75}
		.st25 {fill:#424a60;stroke:none;stroke-linecap:butt;stroke-width:11.5472}
		.st26 {fill:#556080;stroke:none;stroke-linecap:butt;stroke-width:11.5472}
		.st27 {fill:#7fabda;stroke:none;stroke-linecap:butt;stroke-width:11.5472}
		.st28 {fill:#7383bf;stroke:none;stroke-linecap:butt;stroke-width:11.5472}
		.st29 {fill:none;fill-rule:evenodd;font-size:12px;overflow:visible;stroke-linecap:square;stroke-miterlimit:3}
	]]>
	</style>

	<defs id="Patterns_And_Gradients">
		<linearGradient id="grad0-17" x1="0" y1="0" x2="1" y2="0" gradientTransform="rotate(90 0.5 0.5)">
			<stop offset="0" stop-color="#35cc49" stop-opacity="1"/>
			<stop offset="1" stop-color="#44bf3b" stop-opacity="1"/>
		</linearGradient>
		<linearGradient id="grad0-81" x1="0" y1="0" x2="1" y2="0" gradientTransform="rotate(90 0.5 0.5)">
			<stop offset="0" stop-color="#4387fd" stop-opacity="1"/>
			<stop offset="1" stop-color="#4683ea" stop-opacity="1"/>
		</linearGradient>
	</defs>
	<defs id="Markers">
		<g id="lend5">
			<path d="M 2 1 L 0 0 L 1.98117 -0.993387 C 1.67173 -0.364515 1.67301 0.372641 1.98465 1.00043 " style="stroke:none"/>
		</g>
		<marker id="mrkr5-32" class="st12" v:arrowType="5" v:arrowSize="2" v:setback="4.45" refX="4.45" orient="auto"
				markerUnits="strokeWidth" overflow="visible">
			<use xlink:href="#lend5" transform="scale(2.68) "/>
		</marker>
		<marker id="mrkr5-34" class="st12" v:arrowType="5" v:arrowSize="2" v:setback="4.69" refX="-4.69" orient="auto"
				markerUnits="strokeWidth" overflow="visible">
			<use xlink:href="#lend5" transform="scale(-2.68,-2.68) "/>
		</marker>
	</defs>
	<g v:mID="26" v:index="9" v:groupContext="foregroundPage">
		<title>io-gql-db</title>
		<v:pageProperties v:drawingScale="0.0393701" v:pageScale="0.0393701" v:drawingUnits="24" v:shadowOffsetX="9"
				v:shadowOffsetY="-9"/>
		<v:layer v:name="Connector" v:index="0"/>
		<g id="shape1-1" v:mID="1" v:groupContext="shape" transform="translate(155.339,-18.75)">
			<title>Sheet.1</title>
			<path d="M0 272.42 A37.8978 41.4577 -180 0 0 37.9 313.88 L479.43 313.88 A37.8978 41.4577 -180 0 0 517.32 272.42 L517.32
						 78.96 A37.8978 41.4577 -180 0 0 479.43 37.5 L37.9 37.5 A37.8978 41.4577 -180 0 0 -0 78.96 L0 272.42 Z"
					class="st1"/>
		</g>
		<g id="group2-3" transform="translate(331.318,-118.857)" v:mID="2" v:groupContext="group">
			<title>Sheet.2</title>
			<g id="shape3-4" v:mID="3" v:groupContext="shape" transform="translate(0.322164,0)">
				<title>Sheet.3</title>
				<rect x="0" y="230.115" width="72.4869" height="83.7626" class="st2"/>
			</g>
			<g id="shape4-6" v:mID="4" v:groupContext="shape" transform="translate(0,-0.483246)">
				<title>Sheet.4</title>
				<desc>Service Broker</desc>
				<v:textBlock v:margins="rect(0,0,0,0)" v:tabSpace="42.5197"/>
				<v:textRect cx="36.2434" cy="271.997" width="72.49" height="83.7626"/>
				<rect x="0" y="230.115" width="72.4869" height="83.7626" class="st3"/>
				<text x="15.44" y="267.8" class="st4" v:langID="2070"><v:paragraph v:horizAlign="1"/><v:tabList/>Service<v:lf/><tspan
							x="16.7" dy="1.2em" class="st5">Broker</tspan></text>			</g>
		</g>
		<g id="group5-10" transform="translate(210.693,-95.2689)" v:mID="5" v:groupContext="group">
			<title>Sheet.5</title>
			<g id="group6-11" transform="translate(7.62102,-34.3433)" v:mID="6" v:groupContext="group">
				<title>Sheet.6</title>
				<g id="shape7-12" v:mID="7" v:groupContext="shape" transform="translate(1.15933,-1.36424E-12)">
					<title>Sheet.7</title>
					<path d="M16.4 310.54 L1.19 284.18 C0 282.11 0 279.57 1.19 277.5 L16.4 251.13 C17.59 249.07 19.79 247.8 22.17
								 247.8 L52.6 247.8 C54.98 247.8 57.18 249.07 58.37 251.13 L73.58 277.5 C74.77 279.57 74.77 282.11
								 73.58 284.18 L58.37 310.54 C57.18 312.61 54.98 313.88 52.6 313.88 L22.17 313.88 C19.79 313.88 17.59
								 312.61 16.4 310.54 Z" class="st6"/>
				</g>
				<g id="shape8-14" v:mID="8" v:groupContext="shape" transform="translate(0,-1.739)">
					<title>Sheet.8</title>
					<path d="M16.4 310.54 L1.19 284.18 C0 282.11 0 279.57 1.19 277.5 L16.4 251.13 C17.59 249.07 19.79 247.8 22.17
								 247.8 L52.6 247.8 C54.98 247.8 57.18 249.07 58.37 251.13 L73.58 277.5 C74.77 279.57 74.77 282.11
								 73.58 284.18 L58.37 310.54 C57.18 312.61 54.98 313.88 52.6 313.88 L22.17 313.88 C19.79 313.88 17.59
								 312.61 16.4 310.54 Z" class="st7"/>
				</g>
				<g id="shape9-18" v:mID="9" v:groupContext="shape" transform="translate(20.6535,-1.739)">
					<title>Sheet.9</title>
					<path d="M35.7 280.34 L28.61 283.99 L25.44 280.81 L13.01 280.47 L7.22 274.67 L0 280.84 L4.9 288.49 L30.26 313.88
								 L31.95 313.88 C34.33 313.88 36.52 312.61 37.72 310.54 L48.02 292.69 L35.7 280.34 Z" class="st8"/>
				</g>
				<g id="shape10-20" v:mID="10" v:groupContext="shape" transform="translate(18.103,-26.9081)">
					<title>Sheet.10</title>
					<path d="M28 305.99 L26.35 304.34 L12.23 304.34 L10.57 305.99 L12.23 307.66 L26.35 307.66 L28 305.99 ZM9.77 311.28
								 L4.49 306 L9.77 300.73 C10.01 300.48 10.01 300.08 9.77 299.84 L8.31 298.38 C8.06 298.13 7.66 298.13
								 7.41 298.38 L0.24 305.56 C0 305.81 0 306.21 0.24 306.46 L1.7 307.91 L1.7 307.92 L7.42 313.63 C7.67
								 313.88 8.06 313.88 8.31 313.63 L9.77 312.17 C10.01 311.93 10.01 311.53 9.77 311.28 ZM28.8 300.73
								 L34.08 306.01 L28.8 311.28 C28.56 311.53 28.56 311.93 28.8 312.17 L30.26 313.63 C30.51 313.88 30.91
								 313.88 31.16 313.63 L38.33 306.46 C38.57 306.21 38.57 305.81 38.33 305.56 L36.87 304.1 L36.86 304.1
								 L31.15 298.38 C30.9 298.13 30.51 298.13 30.26 298.38 L28.8 299.84 C28.56 300.08 28.56 300.48 28.8
								 300.73 Z" class="st9"/>
				</g>
			</g>
			<g id="shape11-22" v:mID="11" v:groupContext="shape">
				<title>Sheet.11</title>
				<desc>API Gateway</desc>
				<v:textBlock v:margins="rect(4,4,4,4)" v:tabSpace="42.5197"/>
				<v:textRect cx="45.5863" cy="298.283" width="91.18" height="31.1906"/>
				<rect x="0" y="282.687" width="91.1726" height="31.1906" class="st10"/>
				<text x="35.75" y="294.08" class="st4" v:langID="2070"><v:paragraph v:horizAlign="1"/><v:tabList/>API<v:newlineChar/><tspan
							x="19.73" dy="1.2em" class="st5">Gateway</tspan></text>			</g>
		</g>
		<g id="shape12-26" v:mID="12" v:groupContext="shape" v:layerMember="0" transform="translate(331.318,-154.845)">
			<title>Dynamic connector.67</title>
			<path d="M-6.67 306.95 L-7.03 306.94 L-30.35 306.64" class="st11"/>
		</g>
		<g id="shape13-35" v:mID="13" v:groupContext="shape" transform="translate(171.496,-267.102)">
			<title>Sheet.13</title>
			<desc>Node 1</desc>
			<v:textBlock v:margins="rect(4,4,4,4)" v:tabSpace="42.5197"/>
			<v:textRect cx="30.8976" cy="303.878" width="61.8" height="20"/>
			<rect x="0" y="293.878" width="61.7953" height="20" class="st10"/>
			<text x="10.11" y="308.08" class="st4" v:langID="2070"><v:paragraph v:horizAlign="1"/><v:tabList/>Node 1</text>		</g>
		<g id="shape14-38" v:mID="14" v:groupContext="shape" v:layerMember="0" transform="translate(234.249,-134.101)">
			<title>Dynamic connector.180</title>
			<path d="M0 313.88 L-46.23 396.51" class="st13"/>
		</g>
		<g id="shape15-41" v:mID="15" v:groupContext="shape" v:layerMember="0" transform="translate(279.628,-135.143)">
			<title>Dynamic connector.181</title>
			<path d="M0 313.88 L46.81 397.55" class="st13"/>
		</g>
		<g id="shape16-44" v:mID="16" v:groupContext="shape" transform="translate(188.016,-22.9267)">
			<title>Rectangle.182</title>
			<desc>- GraphQL Server - Socket.IO Server</desc>
			<v:userDefs>
				<v:ud v:nameU="visVersion" v:val="VT0(15):26"/>
			</v:userDefs>
			<v:textBlock v:margins="rect(4,4,4,4)" v:tabSpace="42.5197"/>
			<v:textRect cx="69.2096" cy="285.332" width="138.42" height="57.0915"/>
			<path d="M0 313.88 L138.42 313.88 L138.42 256.79 L0 256.79 L0 313.88 Z" class="st14"/>
			<text x="4" y="281.13" class="st15" v:langID="2070"><v:paragraph/><v:tabList/>- GraphQL Server<v:newlineChar/><tspan
						x="4" dy="1.2em" class="st5">-</tspan> Socket.IO Server</text>		</g>
		<g id="shape17-48" v:mID="17" v:groupContext="shape" v:layerMember="0" transform="translate(218.619,-158.157)">
			<title>Dynamic connector.75</title>
			<path d="M-6.67 307.27 L-7.03 307.27 L-118.3 306.32" class="st16"/>
		</g>
		<g id="group18-55" transform="translate(22.7812,-130.826)" v:mID="18" v:groupContext="group">
			<title>Sheet.18</title>
			<g id="shape19-56" v:mID="19" v:groupContext="shape">
				<title>Sheet.19</title>
				<ellipse cx="35.2531" cy="278.625" rx="35.2531" ry="35.2531" class="st17"/>
			</g>
			<g id="shape20-58" v:mID="20" v:groupContext="shape" transform="translate(10.4966,-17.1049)">
				<title>Sheet.20</title>
				<path d="M47.31 313.88 L2.2 313.88 C0.99 313.88 0 312.89 0 311.67 L0 279.78 C0 278.57 0.99 277.58 2.2 277.58 L47.31
							 277.58 C48.53 277.58 49.51 278.57 49.51 279.78 L49.51 311.67 C49.51 312.89 48.53 313.88 47.31 313.88
							 Z" class="st18"/>
			</g>
			<g id="shape21-60" v:mID="21" v:groupContext="shape" transform="translate(10.4966,-47.3416)">
				<title>Sheet.21</title>
				<path d="M49.51 313.88 L49.51 310.02 C49.51 308.8 48.53 307.82 47.31 307.82 L2.2 307.82 C0.99 307.82 0 308.8 0 310.02
							 L0 313.88 L49.51 313.88 Z" class="st19"/>
			</g>
			<g id="shape22-62" v:mID="22" v:groupContext="shape" transform="translate(12.1182,-48.7192)">
				<title>Sheet.22</title>
				<ellipse cx="1.65249" cy="312.225" rx="1.65249" ry="1.65249" class="st20"/>
			</g>
			<g id="shape23-64" v:mID="23" v:groupContext="shape" transform="translate(17.0757,-48.7192)">
				<title>Sheet.23</title>
				<ellipse cx="1.65249" cy="312.225" rx="1.65249" ry="1.65249" class="st21"/>
			</g>
			<g id="shape24-66" v:mID="24" v:groupContext="shape" transform="translate(22.0337,-48.7192)">
				<title>Sheet.24</title>
				<ellipse cx="1.65249" cy="312.225" rx="1.65249" ry="1.65249" class="st22"/>
			</g>
			<g id="group25-68" transform="translate(17.0019,-23.5722)" v:mID="25" v:groupContext="group">
				<title>Sheet.25</title>
				<g id="shape26-69" v:mID="26" v:groupContext="shape" transform="translate(0,-2.11904)">
					<title>Sheet.26</title>
					<path d="M0 305.86 L12.45 300.07 L12.45 302.83 L3.04 306.95 L3.04 307 L12.45 311.13 L12.45 313.88 L0 308.09 L0
								 305.86 Z" class="st23"/>
				</g>
				<g id="shape27-71" v:mID="27" v:groupContext="shape" transform="translate(14.3722,0)">
					<title>Sheet.27</title>
					<path d="M0 313.88 L5.55 295.07 L8.17 295.07 L2.62 313.88 L0 313.88 Z" class="st23"/>
				</g>
				<g id="shape28-73" v:mID="28" v:groupContext="shape" transform="translate(24.0481,-2.11904)">
					<title>Sheet.28</title>
					<path d="M12.45 308.17 L0 313.88 L0 311.13 L9.63 307 L9.63 306.95 L0 302.83 L0 300.07 L12.45 305.78 L12.45 308.17
								 L12.45 308.17 Z" class="st23"/>
				</g>
			</g>
		</g>
		<g id="group30-75" transform="translate(479.154,-203.508)" v:mID="30" v:groupContext="group">
			<title>Sheet.30</title>
			<g id="shape31-76" v:mID="31" v:groupContext="shape" transform="translate(8.20069,-16.8642)">
				<title>Sheet.31</title>
				<path d="M16.39 310.59 L1.19 284.45 C0 282.41 0 279.89 1.19 277.84 L16.39 251.71 C17.58 249.66 19.78 248.39 22.17
							 248.39 L52.58 248.39 C54.97 248.38 57.18 249.64 58.38 251.69 L73.58 277.82 C74.77 279.87 74.77 282.39
							 73.58 284.44 L58.38 310.57 C57.18 312.62 54.97 313.88 52.58 313.87 L22.17 313.87 C19.79 313.88 17.59
							 312.63 16.39 310.59 Z" class="st6"/>
			</g>
			<g id="shape32-78" v:mID="32" v:groupContext="shape" transform="translate(7.04135,-18.6032)">
				<title>Sheet.32</title>
				<path d="M16.39 310.59 L1.19 284.45 C0 282.41 0 279.89 1.19 277.84 L16.39 251.71 C17.58 249.66 19.78 248.39 22.17
							 248.39 L52.58 248.39 C54.97 248.38 57.18 249.64 58.38 251.69 L73.58 277.82 C74.77 279.87 74.77 282.39
							 73.58 284.44 L58.38 310.57 C57.18 312.62 54.97 313.88 52.58 313.87 L22.17 313.87 C19.79 313.88 17.59
							 312.63 16.39 310.59 Z" class="st24"/>
			</g>
			<g id="shape33-82" v:mID="33" v:groupContext="shape" transform="translate(-8.27199,0)">
				<title>Sheet.33</title>
				<desc>Greeter Service</desc>
				<v:textBlock v:margins="rect(4,4,4,4)" v:tabSpace="42.5197"/>
				<v:textRect cx="53.8583" cy="307.88" width="107.72" height="11.9964"/>
				<rect x="0" y="301.882" width="107.717" height="11.9964" class="st10"/>
				<text x="9.04" y="312.08" class="st4" v:langID="2070"><v:paragraph v:horizAlign="1"/><v:tabList/>Greeter Service</text>			</g>
		</g>
		<g id="group34-85" transform="translate(480.949,-55.6289)" v:mID="34" v:groupContext="group">
			<title>Sheet.34</title>
			<g id="shape35-86" v:mID="35" v:groupContext="shape" transform="translate(8.20069,-16.8642)">
				<title>Sheet.35</title>
				<path d="M16.39 310.59 L1.19 284.45 C0 282.41 0 279.89 1.19 277.84 L16.39 251.71 C17.58 249.66 19.78 248.39 22.17
							 248.39 L52.58 248.39 C54.97 248.38 57.18 249.64 58.38 251.69 L73.58 277.82 C74.77 279.87 74.77 282.39
							 73.58 284.44 L58.38 310.57 C57.18 312.62 54.97 313.88 52.58 313.87 L22.17 313.87 C19.79 313.88 17.59
							 312.63 16.39 310.59 Z" class="st6"/>
			</g>
			<g id="shape36-88" v:mID="36" v:groupContext="shape" transform="translate(7.04135,-18.6032)">
				<title>Sheet.36</title>
				<path d="M16.39 310.59 L1.19 284.45 C0 282.41 0 279.89 1.19 277.84 L16.39 251.71 C17.58 249.66 19.78 248.39 22.17
							 248.39 L52.58 248.39 C54.97 248.38 57.18 249.64 58.38 251.69 L73.58 277.82 C74.77 279.87 74.77 282.39
							 73.58 284.44 L58.38 310.57 C57.18 312.62 54.97 313.88 52.58 313.87 L22.17 313.87 C19.79 313.88 17.59
							 312.63 16.39 310.59 Z" class="st24"/>
			</g>
			<g id="shape37-91" v:mID="37" v:groupContext="shape" transform="translate(-12.0822,0)">
				<title>Sheet.37</title>
				<desc>Products Service</desc>
				<v:textBlock v:margins="rect(4,4,4,4)" v:tabSpace="42.5197"/>
				<v:textRect cx="59.5276" cy="307.88" width="119.06" height="11.9964"/>
				<rect x="0" y="301.882" width="119.055" height="11.9964" class="st10"/>
				<text x="11.5" y="312.08" class="st4" v:langID="2070"><v:paragraph v:horizAlign="1"/><v:tabList/>Products Service</text>			</g>
		</g>
		<g id="shape38-94" v:mID="38" v:groupContext="shape" v:layerMember="0" transform="translate(605.266,-112.642)">
			<title>Dynamic connector.261</title>
			<path d="M-6.67 320.89 L-7.03 320.89 L-34.61 321.04" class="st11"/>
		</g>
		<g id="group39-101" transform="translate(605.266,-79.1314)" v:mID="39" v:groupContext="group">
			<title>Sheet.39</title>
			<g id="shape40-102" v:mID="40" v:groupContext="shape">
				<title>Sheet.40</title>
				<path d="M48.26 268.59 C47.52 264.1 37.01 260.54 24.15 260.54 C11.29 260.54 0.78 264.1 0.05 268.59 L0 268.59 L0 269.1
							 L0 280.67 L0 281.17 L0 281.67 L0 292.74 L0 293.25 L0 293.75 L0 305.83 L0.05 305.83 C0.78 310.32 11.29
							 313.88 24.15 313.88 C37.01 313.88 47.52 310.32 48.26 305.83 L48.3 305.83 L48.3 293.75 L48.3 293.25 L48.3
							 292.74 L48.3 281.67 L48.3 281.17 L48.3 280.67 L48.3 269.1 L48.3 268.59 L48.26 268.59 Z" class="st25"/>
			</g>
			<g id="group41-104" v:mID="41" v:groupContext="group">
				<title>Sheet.41</title>
				<g id="shape42-105" v:mID="42" v:groupContext="shape">
					<title>Sheet.42</title>
					<path d="M24.15 301.8 C10.81 301.8 0 297.97 0 293.25 L0 305.83 L0.05 305.83 C0.78 310.32 11.29 313.88 24.15 313.88
								 C37.01 313.88 47.52 310.32 48.26 305.83 L48.3 305.83 L48.3 293.25 C48.3 297.97 37.49 301.8 24.15
								 301.8 Z" class="st25"/>
				</g>
				<g id="shape43-107" v:mID="43" v:groupContext="shape" transform="translate(0,-20.6301)">
					<title>Sheet.43</title>
					<path d="M0 313.37 L0 313.88 C0 313.71 0.02 313.54 0.05 313.37 L0 313.37 Z" class="st25"/>
				</g>
				<g id="shape44-109" v:mID="44" v:groupContext="shape" transform="translate(48.2592,-20.6301)">
					<title>Sheet.44</title>
					<path d="M0 313.37 C0.03 313.54 0.05 313.71 0.05 313.88 L0.05 313.37 L0 313.37 Z" class="st25"/>
				</g>
			</g>
			<g id="group45-111" transform="translate(0,-12.0761)" v:mID="45" v:groupContext="group">
				<title>Sheet.45</title>
				<g id="shape46-112" v:mID="46" v:groupContext="shape">
					<title>Sheet.46</title>
					<path d="M24.15 301.8 C10.81 301.8 0 297.97 0 293.25 L0 305.83 L0.05 305.83 C0.78 310.32 11.29 313.88 24.15 313.88
								 C37.01 313.88 47.52 310.32 48.26 305.83 L48.3 305.83 L48.3 293.25 C48.3 297.97 37.49 301.8 24.15
								 301.8 Z" class="st26"/>
				</g>
				<g id="shape47-114" v:mID="47" v:groupContext="shape" transform="translate(0,-20.6301)">
					<title>Sheet.47</title>
					<path d="M0 313.37 L0 313.88 C0 313.71 0.02 313.54 0.05 313.37 L0 313.37 Z" class="st26"/>
				</g>
				<g id="shape48-116" v:mID="48" v:groupContext="shape" transform="translate(48.2592,-20.6301)">
					<title>Sheet.48</title>
					<path d="M0 313.37 C0.03 313.54 0.05 313.71 0.05 313.88 L0.05 313.37 L0 313.37 Z" class="st26"/>
				</g>
			</g>
			<g id="shape49-118" v:mID="49" v:groupContext="shape" transform="translate(0,-36.2284)">
				<title>Sheet.49</title>
				<ellipse cx="24.1523" cy="305.324" rx="24.1523" ry="8.55393" class="st27"/>
			</g>
			<g id="group50-120" transform="translate(0,-24.1523)" v:mID="50" v:groupContext="group">
				<title>Sheet.50</title>
				<g id="shape51-121" v:mID="51" v:groupContext="shape">
					<title>Sheet.51</title>
					<path d="M24.15 301.8 C10.81 301.8 0 297.97 0 293.25 L0 305.83 L0.05 305.83 C0.78 310.32 11.29 313.88 24.15 313.88
								 C37.01 313.88 47.52 310.32 48.26 305.83 L48.3 305.83 L48.3 293.25 C48.3 297.97 37.49 301.8 24.15
								 301.8 Z" class="st28"/>
				</g>
				<g id="shape52-123" v:mID="52" v:groupContext="shape" transform="translate(0,-20.6301)">
					<title>Sheet.52</title>
					<path d="M0 313.37 L0 313.88 C0 313.71 0.02 313.54 0.05 313.37 L0 313.37 Z" class="st28"/>
				</g>
				<g id="shape53-125" v:mID="53" v:groupContext="shape" transform="translate(48.2592,-20.6301)">
					<title>Sheet.53</title>
					<path d="M0 313.37 C0.03 313.54 0.05 313.71 0.05 313.88 L0.05 313.37 L0 313.37 Z" class="st28"/>
				</g>
			</g>
		</g>
		<g id="shape58-127" v:mID="58" v:groupContext="shape" v:layerMember="0" transform="translate(403.805,-182.412)">
			<title>Dynamic connector.97</title>
			<path d="M5.76 310.51 L6.07 310.33 L86.41 263.36" class="st11"/>
		</g>
		<g id="shape60-134" v:mID="60" v:groupContext="shape" v:layerMember="0" transform="translate(493.579,-117.834)">
			<title>Dynamic connector.283</title>
			<path d="M-6.32 311.72 L-6.66 311.61 L-82.79 285.62" class="st11"/>
		</g>
	</g>
</svg>
