<?xml version="1.0" encoding="UTF-8" standalone="no"?>
<!DOCTYPE svg PUBLIC "-//W3C//DTD SVG 1.1//EN" "http://www.w3.org/Graphics/SVG/1.1/DTD/svg11.dtd">
<!-- Generated by Microsoft Visio, SVG Export channels-http.svg channels-http -->
<svg xmlns="http://www.w3.org/2000/svg" xmlns:xlink="http://www.w3.org/1999/xlink" xmlns:ev="http://www.w3.org/2001/xml-events"
		xmlns:v="http://schemas.microsoft.com/visio/2003/SVGExtensions/" width="14.2589in" height="7.07043in"
		viewBox="0 0 1026.64 509.071" xml:space="preserve" color-interpolation-filters="sRGB" class="st33">
	<v:documentProperties v:langID="2070" v:metric="true" v:viewMarkup="false">
		<v:userDefs>
			<v:ud v:nameU="msvNoAutoConnect" v:val="VT0(1):26"/>
		</v:userDefs>
	</v:documentProperties>

	<style type="text/css">
	<![CDATA[
		.st1 {stroke:#000000;stroke-linecap:round;stroke-linejoin:round;stroke-width:1.5}
		.st2 {fill:#dae8fc;stroke:#6c8ebf;stroke-linecap:butt;stroke-width:0.75}
		.st3 {fill:#000000;fill-opacity:0.25;stroke:#000000;stroke-linecap:butt;stroke-opacity:0.25;stroke-width:0.75}
		.st4 {fill:#fff2cc;stroke:#d6b656;stroke-linecap:butt;stroke-width:0.75}
		.st5 {fill:#000000;font-family:Calibri;font-size:1.16666em;font-weight:bold}
		.st6 {font-size:1em}
		.st7 {fill:#000000;fill-opacity:0.25;stroke:none;stroke-linecap:butt;stroke-width:0.75}
		.st8 {fill:url(#grad0-20);stroke:none;stroke-linecap:butt;stroke-width:0.75}
		.st9 {fill:none;stroke:none;stroke-linecap:round;stroke-linejoin:round;stroke-width:0.75}
		.st10 {marker-end:url(#mrkr5-32);marker-start:url(#mrkr5-30);stroke:#000000;stroke-linecap:round;stroke-linejoin:round;stroke-width:1.5}
		.st11 {fill:#000000;fill-opacity:1;stroke:#000000;stroke-opacity:1;stroke-width:0.37313432835821}
		.st12 {fill:url(#grad0-40);stroke:none;stroke-linecap:butt;stroke-width:0.75}
		.st13 {fill:#000000;fill-opacity:0.067;stroke:none;stroke-linecap:butt;stroke-width:0.75}
		.st14 {fill:#ffffff;stroke:none;stroke-linecap:butt;stroke-width:0.75}
		.st15 {marker-end:url(#mrkr5-32);marker-start:url(#mrkr5-30);stroke:#000000;stroke-dasharray:1.5,3;stroke-linecap:round;stroke-linejoin:round;stroke-width:1.5}
		.st16 {marker-end:url(#mrkr5-32);marker-start:url(#mrkr5-30);stroke:#000000;stroke-dasharray:4.5,4.5,0,4.5,0,4.5;stroke-linecap:round;stroke-linejoin:round;stroke-width:1.5}
		.st17 {fill:url(#grad0-103);stroke:none;stroke-linecap:butt;stroke-width:0.75}
		.st18 {fill:#ffffff;stroke:#000000;stroke-dasharray:1.5,3;stroke-linecap:round;stroke-linejoin:round;stroke-width:1.5}
		.st19 {fill:#000000;font-family:Segoe UI;font-size:1.16666em;font-weight:bold}
		.st20 {fill:#424a60;stroke:none;stroke-linecap:butt;stroke-width:11.5472}
		.st21 {fill:#556080;stroke:none;stroke-linecap:butt;stroke-width:11.5472}
		.st22 {fill:#7fabda;stroke:none;stroke-linecap:butt;stroke-width:11.5472}
		.st23 {fill:#7383bf;stroke:none;stroke-linecap:butt;stroke-width:11.5472}
		.st24 {marker-end:url(#mrkr5-32);marker-start:url(#mrkr5-30);stroke:#000000;stroke-dasharray:10.5,7.5,0,7.5;stroke-linecap:round;stroke-linejoin:round;stroke-width:1.5}
		.st25 {fill:#f54f33;stroke:none;stroke-linecap:butt;stroke-width:4.78125}
		.st26 {fill:#ffffff;stroke:none;stroke-linecap:butt;stroke-width:4.78125}
		.st27 {fill:#e1e3e9;stroke:none;stroke-linecap:butt;stroke-width:4.78125}
		.st28 {fill:#f24b45;stroke:none;stroke-linecap:butt;stroke-width:4.78125}
		.st29 {fill:#ffb202;stroke:none;stroke-linecap:butt;stroke-width:4.78125}
		.st30 {fill:#4cbb41;stroke:none;stroke-linecap:butt;stroke-width:4.78125}
		.st31 {fill:#53899f;stroke:none;stroke-linecap:butt;stroke-width:4.78125}
		.st32 {fill:#ffd965;stroke:none;stroke-linecap:butt;stroke-width:0.75}
		.st33 {fill:none;fill-rule:evenodd;font-size:12px;overflow:visible;stroke-linecap:square;stroke-miterlimit:3}
	]]>
	</style>

	<defs id="Patterns_And_Gradients">
		<linearGradient id="grad0-20" x1="0" y1="0" x2="1" y2="0" gradientTransform="rotate(90 0.5 0.5)">
			<stop offset="0" stop-color="#4387fd" stop-opacity="1"/>
			<stop offset="1" stop-color="#4683ea" stop-opacity="1"/>
		</linearGradient>
		<linearGradient id="grad0-40" x1="0" y1="0" x2="1" y2="0" gradientTransform="rotate(90 0.5 0.5)">
			<stop offset="0" stop-color="#fd9e3f" stop-opacity="1"/>
			<stop offset="1" stop-color="#ea9f49" stop-opacity="1"/>
		</linearGradient>
		<linearGradient id="grad0-103" x1="0" y1="0" x2="1" y2="0" gradientTransform="rotate(90 0.5 0.5)">
			<stop offset="0" stop-color="#35cc49" stop-opacity="1"/>
			<stop offset="1" stop-color="#44bf3b" stop-opacity="1"/>
		</linearGradient>
	</defs>
	<defs id="Markers">
		<g id="lend5">
			<path d="M 2 1 L 0 0 L 1.98117 -0.993387 C 1.67173 -0.364515 1.67301 0.372641 1.98465 1.00043 " style="stroke:none"/>
		</g>
		<marker id="mrkr5-30" class="st11" v:arrowType="5" v:arrowSize="2" v:setback="4.45" refX="4.45" orient="auto"
				markerUnits="strokeWidth" overflow="visible">
			<use xlink:href="#lend5" transform="scale(2.68) "/>
		</marker>
		<marker id="mrkr5-32" class="st11" v:arrowType="5" v:arrowSize="2" v:setback="4.69" refX="-4.69" orient="auto"
				markerUnits="strokeWidth" overflow="visible">
			<use xlink:href="#lend5" transform="scale(-2.68,-2.68) "/>
		</marker>
	</defs>
	<g v:mID="6" v:index="7" v:groupContext="foregroundPage">
		<title>channels-http</title>
		<v:pageProperties v:drawingScale="0.0393701" v:pageScale="0.0393701" v:drawingUnits="24" v:shadowOffsetX="9"
				v:shadowOffsetY="-9"/>
		<v:layer v:name="Connector" v:index="0"/>
		<g id="shape1-1" v:mID="1" v:groupContext="shape" v:layerMember="0" transform="translate(572.172,-169.793)">
			<title>Dynamic connector.250</title>
			<path d="M0 509.07 L41.04 460.6" class="st1"/>
		</g>
		<g id="group2-4" transform="translate(703.922,-195.431)" v:mID="2" v:groupContext="group">
			<title>Sheet.2</title>
			<g id="shape3-5" v:mID="3" v:groupContext="shape">
				<title>Sheet.3</title>
				<path d="M0 489.49 A22.0365 19.5855 -180 0 0 22.04 509.07 L278.77 509.07 A22.0365 19.5855 -180 0 0 300.81 489.49
							 L300.81 398.09 A22.0365 19.5855 -180 0 0 278.77 378.5 L22.04 378.5 A22.0365 19.5855 -180 0 0 0 398.09
							 L0 489.49 Z" class="st2"/>
			</g>
			<g id="group4-7" transform="translate(13.1117,-18.8939)" v:mID="4" v:groupContext="group">
				<title>Sheet.4</title>
				<g id="shape5-8" v:mID="5" v:groupContext="shape" transform="translate(0.322164,0)">
					<title>Sheet.5</title>
					<rect x="0" y="425.308" width="72.4869" height="83.7626" class="st3"/>
				</g>
				<g id="shape6-10" v:mID="6" v:groupContext="shape" transform="translate(0,-0.483246)">
					<title>Sheet.6</title>
					<desc>Service Broker</desc>
					<v:textBlock v:margins="rect(0,0,0,0)" v:tabSpace="42.5197"/>
					<v:textRect cx="36.2434" cy="467.19" width="72.49" height="83.7626"/>
					<rect x="0" y="425.308" width="72.4869" height="83.7626" class="st4"/>
					<text x="15.44" y="462.99" class="st5" v:langID="2070"><v:paragraph v:horizAlign="1"/><v:tabList/>Service<v:lf/><tspan
								x="16.7" dy="1.2em" class="st6">Broker</tspan></text>				</g>
			</g>
			<g id="group7-14" transform="translate(119.799,-9.4436)" v:mID="7" v:groupContext="group">
				<title>Sheet.7</title>
				<g id="shape8-15" v:mID="8" v:groupContext="shape" transform="translate(8.20069,-16.8642)">
					<title>Sheet.8</title>
					<path d="M16.39 505.78 L1.19 479.65 C0 477.6 0 475.08 1.19 473.03 L16.39 446.9 C17.58 444.85 19.78 443.59 22.17
								 443.58 L52.58 443.58 C54.97 443.57 57.18 444.83 58.38 446.88 L73.58 473.02 C74.77 475.06 74.77 477.58
								 73.58 479.63 L58.38 505.76 C57.18 507.81 54.97 509.07 52.58 509.07 L22.17 509.07 C19.79 509.07 17.59
								 507.82 16.39 505.78 Z" class="st7"/>
				</g>
				<g id="shape9-17" v:mID="9" v:groupContext="shape" transform="translate(7.04135,-18.6032)">
					<title>Sheet.9</title>
					<path d="M16.39 505.78 L1.19 479.65 C0 477.6 0 475.08 1.19 473.03 L16.39 446.9 C17.58 444.85 19.78 443.59 22.17
								 443.58 L52.58 443.58 C54.97 443.57 57.18 444.83 58.38 446.88 L73.58 473.02 C74.77 475.06 74.77 477.58
								 73.58 479.63 L58.38 505.76 C57.18 507.81 54.97 509.07 52.58 509.07 L22.17 509.07 C19.79 509.07 17.59
								 507.82 16.39 505.78 Z" class="st8"/>
				</g>
				<g id="shape10-21" v:mID="10" v:groupContext="shape" transform="translate(-12.0822,0)">
					<title>Sheet.10</title>
					<desc>Products Service</desc>
					<v:textBlock v:margins="rect(4,4,4,4)" v:tabSpace="42.5197"/>
					<v:textRect cx="59.5276" cy="503.073" width="119.06" height="11.9964"/>
					<rect x="0" y="497.075" width="119.055" height="11.9964" class="st9"/>
					<text x="11.5" y="507.27" class="st5" v:langID="2070"><v:paragraph v:horizAlign="1"/><v:tabList/>Products Service</text>				</g>
			</g>
			<g id="shape11-24" v:mID="11" v:groupContext="shape" v:layerMember="0" transform="translate(127.139,-53.9418)">
				<title>Dynamic connector</title>
				<path d="M-6.67 502.04 L-7.03 502.04 L-34.51 501.93" class="st10"/>
			</g>
		</g>
		<g id="group12-33" transform="translate(503.847,-283.465)" v:mID="12" v:groupContext="group">
			<title>Sheet.12</title>
			<g id="group13-34" transform="translate(8.45539,-22.5896)" v:mID="13" v:groupContext="group">
				<title>Sheet.13</title>
				<g id="shape14-35" v:mID="14" v:groupContext="shape" transform="translate(0.657184,-1.02318E-12)">
					<title>Sheet.14</title>
					<path d="M16.15 505.76 L1.17 479.53 C0 477.48 0 474.95 1.17 472.9 L16.15 446.67 C17.32 444.62 19.49 443.35 21.83
								 443.35 L51.78 443.35 C54.12 443.35 56.29 444.62 57.46 446.67 L72.43 472.9 C73.6 474.95 73.6 477.48
								 72.43 479.53 L57.46 505.76 C56.29 507.81 54.12 509.07 51.78 509.07 L21.83 509.07 C19.49 509.07 17.32
								 507.81 16.15 505.76 Z" class="st7"/>
				</g>
				<g id="shape15-37" v:mID="15" v:groupContext="shape" transform="translate(-3.67706E-13,-0.985776)">
					<title>Sheet.15</title>
					<path d="M16.15 505.76 L1.17 479.53 C0 477.48 0 474.95 1.17 472.9 L16.15 446.67 C17.32 444.62 19.49 443.35 21.83
								 443.35 L51.78 443.35 C54.12 443.35 56.29 444.62 57.46 446.67 L72.43 472.9 C73.6 474.95 73.6 477.48
								 72.43 479.53 L57.46 505.76 C56.29 507.81 54.12 509.07 51.78 509.07 L21.83 509.07 C19.49 509.07 17.32
								 507.81 16.15 505.76 Z" class="st12"/>
				</g>
				<g id="shape16-41" v:mID="16" v:groupContext="shape" transform="translate(23.1526,-1.15336)">
					<title>Sheet.16</title>
					<path d="M16 462.64 L13.73 462.22 L11.38 467.24 L13.36 469.25 L12.8 472.49 L16.06 475.78 L7.2 476.7 L4.59 474.06
								 L0 478.71 L30.03 509.07 C31.83 508.68 33.38 507.53 34.31 505.92 L43.27 490.23 L16 462.64 Z"
							class="st13"/>
				</g>
				<g id="shape17-43" v:mID="17" v:groupContext="shape" transform="translate(33.5598,-42.0635)">
					<title>Sheet.17</title>
					<ellipse cx="3.24584" cy="505.789" rx="3.24584" ry="3.28217" class="st14"/>
				</g>
				<g id="shape18-45" v:mID="18" v:groupContext="shape" transform="translate(33.5598,-19.0621)">
					<title>Sheet.18</title>
					<ellipse cx="3.24584" cy="505.789" rx="3.24584" ry="3.28217" class="st14"/>
				</g>
				<g id="shape19-47" v:mID="19" v:groupContext="shape" transform="translate(22.059,-30.5628)">
					<title>Sheet.19</title>
					<ellipse cx="3.24584" cy="505.789" rx="3.24584" ry="3.28217" class="st14"/>
				</g>
				<g id="shape20-49" v:mID="20" v:groupContext="shape" transform="translate(45.0605,-30.5628)">
					<title>Sheet.20</title>
					<ellipse cx="3.24584" cy="505.789" rx="3.24584" ry="3.28217" class="st14"/>
				</g>
				<g id="shape21-51" v:mID="21" v:groupContext="shape" transform="translate(22.5644,-21.4571)">
					<title>Sheet.21</title>
					<path d="M13.42 509.07 L0 495.62 L22.81 495.62 L13.42 486.1 L15.07 484.33 L28.48 497.75 L5.66 497.75 L15.07 507.31
								 L13.42 509.07 Z" class="st14"/>
				</g>
				<g id="shape22-53" v:mID="22" v:groupContext="shape" transform="translate(35.9513,-22.1668)">
					<title>Sheet.22</title>
					<rect x="0" y="501.29" width="1.39652" height="7.78106" class="st14"/>
				</g>
				<g id="shape23-55" v:mID="23" v:groupContext="shape" transform="translate(35.9513,-37.7289)">
					<title>Sheet.23</title>
					<rect x="0" y="501.29" width="1.39652" height="7.78106" class="st14"/>
				</g>
			</g>
			<g id="shape24-57" v:mID="24" v:groupContext="shape">
				<title>Sheet.24</title>
				<desc>Transporter</desc>
				<v:textBlock v:margins="rect(4,4,4,4)" v:tabSpace="42.5197"/>
				<v:textRect cx="45.5863" cy="499.911" width="91.18" height="18.3201"/>
				<rect x="0" y="490.751" width="91.1726" height="18.3201" class="st9"/>
				<text x="11.18" y="504.11" class="st5" v:langID="2070"><v:paragraph v:horizAlign="1"/><v:tabList/>Transporter</text>			</g>
		</g>
		<g id="shape25-60" v:mID="25" v:groupContext="shape" v:layerMember="0" transform="translate(580.252,-326.595)">
			<title>Dynamic connector.159</title>
			<path d="M6.19 511.57 L6.52 511.71 L130.26 561.7" class="st15"/>
		</g>
		<g id="shape26-67" v:mID="26" v:groupContext="shape" transform="translate(712.709,-305.998)">
			<title>Sheet.26</title>
			<desc>Node 3</desc>
			<v:textBlock v:margins="rect(4,4,4,4)" v:tabSpace="42.5197"/>
			<v:textRect cx="30.8976" cy="499.071" width="61.8" height="20"/>
			<rect x="0" y="489.071" width="61.7953" height="20" class="st9"/>
			<text x="10.11" y="503.27" class="st5" v:langID="2070"><v:paragraph v:horizAlign="1"/><v:tabList/>Node 3</text>		</g>
		<g id="shape27-70" v:mID="27" v:groupContext="shape" v:layerMember="0" transform="translate(513.26,-332.578)">
			<title>Dynamic connector</title>
			<path d="M-6.67 502.38 L-7.03 502.38 L-102.1 501.59" class="st15"/>
		</g>
		<g id="shape28-77" v:mID="28" v:groupContext="shape" v:layerMember="0" transform="translate(578.23,-159.181)">
			<title>Dynamic connector.179</title>
			<path d="M5.83 505.82 L6.15 505.65 L77.54 465.88 A2.3622 2.3622 0 1 1 81.67 463.58 L132.66 435.18" class="st16"/>
		</g>
		<g id="group29-84" transform="translate(171.008,-213.772)" v:mID="29" v:groupContext="group">
			<title>Sheet.29</title>
			<g id="group30-85" transform="translate(39.685,-58.2811)" v:mID="30" v:groupContext="group">
				<title>Sheet.30</title>
				<g id="group31-86" v:mID="31" v:groupContext="group">
					<title>Sheet.31</title>
					<g id="shape32-87" v:mID="32" v:groupContext="shape">
						<title>Sheet.32</title>
						<path d="M-0 489.49 A15.7821 19.5855 -180 0 0 15.78 509.07 L199.65 509.07 A15.7821 19.5855 -180 0 0 215.43
									 489.49 L215.43 398.09 A15.7821 19.5855 -180 0 0 199.65 378.5 L15.78 378.5 A15.7821 19.5855 -180
									 0 0 -0 398.09 L0 489.49 Z" class="st2"/>
					</g>
					<g id="group33-89" transform="translate(120.625,-26.4786)" v:mID="33" v:groupContext="group">
						<title>Sheet.33</title>
						<g id="shape34-90" v:mID="34" v:groupContext="shape" transform="translate(0.322164,0)">
							<title>Sheet.34</title>
							<rect x="0" y="425.308" width="72.4869" height="83.7626" class="st3"/>
						</g>
						<g id="shape35-92" v:mID="35" v:groupContext="shape" transform="translate(0,-0.483246)">
							<title>Sheet.35</title>
							<desc>Service Broker</desc>
							<v:textBlock v:margins="rect(0,0,0,0)" v:tabSpace="42.5197"/>
							<v:textRect cx="36.2434" cy="467.19" width="72.49" height="83.7626"/>
							<rect x="0" y="425.308" width="72.4869" height="83.7626" class="st4"/>
							<text x="15.44" y="462.99" class="st5" v:langID="2070"><v:paragraph v:horizAlign="1"/><v:tabList/>Service<v:lf/><tspan
										x="16.7" dy="1.2em" class="st6">Broker</tspan></text>						</g>
					</g>
					<g id="group36-96" transform="translate(6.39488E-14,-2.89091)" v:mID="36" v:groupContext="group">
						<title>Sheet.36</title>
						<g id="group37-97" transform="translate(7.62102,-34.3433)" v:mID="37" v:groupContext="group">
							<title>Sheet.37</title>
							<g id="shape38-98" v:mID="38" v:groupContext="shape" transform="translate(1.15933,-1.3074E-12)">
								<title>Sheet.38</title>
								<path d="M16.4 505.74 L1.19 479.37 C0 477.31 0 474.76 1.19 472.7 L16.4 446.32 C17.59 444.26 19.79
											 442.99 22.17 442.99 L52.6 442.99 C54.98 442.99 57.18 444.26 58.37 446.32 L73.58 472.7
											 C74.77 474.76 74.77 477.31 73.58 479.37 L58.37 505.74 C57.18 507.8 54.98 509.07 52.6
											 509.07 L22.17 509.07 C19.79 509.07 17.59 507.8 16.4 505.74 Z" class="st7"/>
							</g>
							<g id="shape39-100" v:mID="39" v:groupContext="shape" transform="translate(0,-1.739)">
								<title>Sheet.39</title>
								<path d="M16.4 505.74 L1.19 479.37 C0 477.31 0 474.76 1.19 472.7 L16.4 446.32 C17.59 444.26 19.79
											 442.99 22.17 442.99 L52.6 442.99 C54.98 442.99 57.18 444.26 58.37 446.32 L73.58 472.7
											 C74.77 474.76 74.77 477.31 73.58 479.37 L58.37 505.74 C57.18 507.8 54.98 509.07 52.6
											 509.07 L22.17 509.07 C19.79 509.07 17.59 507.8 16.4 505.74 Z" class="st17"/>
							</g>
							<g id="shape40-104" v:mID="40" v:groupContext="shape" transform="translate(20.6535,-1.739)">
								<title>Sheet.40</title>
								<path d="M35.7 475.54 L28.61 479.18 L25.44 476.01 L13.01 475.66 L7.22 469.86 L0 476.04 L4.9 483.69
											 L30.26 509.07 L31.95 509.07 C34.33 509.07 36.52 507.8 37.72 505.74 L48.02 487.88 L35.7
											 475.54 Z" class="st13"/>
							</g>
							<g id="shape41-106" v:mID="41" v:groupContext="shape" transform="translate(18.103,-26.9081)">
								<title>Sheet.41</title>
								<path d="M28 501.19 L26.35 499.53 L12.23 499.53 L10.57 501.19 L12.23 502.85 L26.35 502.85 L28 501.19
											 ZM9.77 506.47 L4.49 501.19 L9.77 495.92 C10.01 495.67 10.01 495.27 9.77 495.03 L8.31
											 493.58 C8.06 493.33 7.66 493.33 7.41 493.58 L0.24 500.75 C0 501 0 501.4 0.24 501.65
											 L1.7 503.11 L1.7 503.11 L7.42 508.82 C7.67 509.07 8.06 509.07 8.31 508.82 L9.77 507.37
											 C10.01 507.12 10.01 506.72 9.77 506.47 ZM28.8 495.92 L34.08 501.2 L28.8 506.47 C28.56
											 506.72 28.56 507.12 28.8 507.37 L30.26 508.82 C30.51 509.07 30.91 509.07 31.16 508.82
											 L38.33 501.65 C38.57 501.4 38.57 501 38.33 500.75 L36.87 499.3 L36.86 499.29 L31.15
											 493.58 C30.9 493.33 30.51 493.33 30.26 493.58 L28.8 495.03 C28.56 495.27 28.56 495.67
											 28.8 495.92 Z" class="st14"/>
							</g>
						</g>
						<g id="shape42-108" v:mID="42" v:groupContext="shape">
							<title>Sheet.42</title>
							<desc>API Gateway</desc>
							<v:textBlock v:margins="rect(4,4,4,4)" v:tabSpace="42.5197"/>
							<v:textRect cx="45.5863" cy="493.476" width="91.18" height="31.1906"/>
							<rect x="0" y="477.88" width="91.1726" height="31.1906" class="st9"/>
							<text x="35.75" y="489.28" class="st5" v:langID="2070"><v:paragraph v:horizAlign="1"/><v:tabList/>API<v:newlineChar/><tspan
										x="19.73" dy="1.2em" class="st6">Gateway</tspan></text>						</g>
					</g>
					<g id="shape43-112" v:mID="43" v:groupContext="shape" v:layerMember="0" transform="translate(120.625,-62.4672)">
						<title>Dynamic connector.67</title>
						<path d="M-6.67 502.14 L-7.03 502.14 L-30.35 501.83" class="st10"/>
					</g>
				</g>
				<g id="shape44-119" v:mID="44" v:groupContext="shape" transform="translate(-1.19904E-14,-110.567)">
					<title>Sheet.44</title>
					<desc>Node 1</desc>
					<v:textBlock v:margins="rect(4,4,4,4)" v:tabSpace="42.5197"/>
					<v:textRect cx="30.8976" cy="499.071" width="61.8" height="20"/>
					<rect x="0" y="489.071" width="61.7953" height="20" class="st9"/>
					<text x="10.11" y="503.27" class="st5" v:langID="2070"><v:paragraph v:horizAlign="1"/><v:tabList/>Node 1</text>				</g>
			</g>
			<g id="shape45-122" v:mID="45" v:groupContext="shape" v:layerMember="0" transform="translate(63.2404,-100.005)">
				<title>Dynamic connector.193</title>
				<path d="M0 509.07 L-46.23 591.7" class="st1"/>
			</g>
			<g id="shape46-125" v:mID="46" v:groupContext="shape" v:layerMember="0" transform="translate(108.62,-101.046)">
				<title>Dynamic connector.194</title>
				<path d="M0 509.07 L46.81 592.74" class="st1"/>
			</g>
			<g id="shape47-128" v:mID="47" v:groupContext="shape" transform="translate(17.0079,11.1702)">
				<title>Rectangle.117</title>
				<desc>HTTP Server</desc>
				<v:userDefs>
					<v:ud v:nameU="visVersion" v:val="VT0(15):26"/>
				</v:userDefs>
				<v:textBlock v:margins="rect(4,4,4,4)" v:tabSpace="42.5197"/>
				<v:textRect cx="69.2096" cy="480.525" width="138.42" height="57.0915"/>
				<path d="M0 509.07 L138.42 509.07 L138.42 451.98 L0 451.98 L0 509.07 Z" class="st18"/>
				<text x="28.55" y="484.73" class="st19" v:langID="2070"><v:paragraph v:horizAlign="1"/><v:tabList/>HTTP Server</text>			</g>
		</g>
		<g id="shape48-131" v:mID="48" v:groupContext="shape" v:layerMember="0" transform="translate(948.038,-261.888)">
			<title>Dynamic connector.182</title>
			<path d="M-6.67 516.08 L-7.03 516.08 L-34.61 516.23" class="st10"/>
		</g>
		<g id="group49-138" transform="translate(948.038,-228.377)" v:mID="49" v:groupContext="group">
			<title>Sheet.49</title>
			<g id="shape50-139" v:mID="50" v:groupContext="shape">
				<title>Sheet.50</title>
				<path d="M48.26 463.79 C47.52 459.3 37.01 455.73 24.15 455.73 C11.29 455.73 0.78 459.3 0.05 463.79 L0 463.79 L0 464.29
							 L0 475.86 L0 476.36 L0 476.87 L0 487.94 L0 488.44 L0 488.94 L0 501.02 L0.05 501.02 C0.78 505.51 11.29
							 509.07 24.15 509.07 C37.01 509.07 47.52 505.51 48.26 501.02 L48.3 501.02 L48.3 488.94 L48.3 488.44 L48.3
							 487.94 L48.3 476.87 L48.3 476.36 L48.3 475.86 L48.3 464.29 L48.3 463.79 L48.26 463.79 Z" class="st20"/>
			</g>
			<g id="group51-141" v:mID="51" v:groupContext="group">
				<title>Sheet.51</title>
				<g id="shape52-142" v:mID="52" v:groupContext="shape">
					<title>Sheet.52</title>
					<path d="M24.15 496.99 C10.81 496.99 0 493.16 0 488.44 L0 501.02 L0.05 501.02 C0.78 505.51 11.29 509.07 24.15
								 509.07 C37.01 509.07 47.52 505.51 48.26 501.02 L48.3 501.02 L48.3 488.44 C48.3 493.16 37.49 496.99
								 24.15 496.99 Z" class="st20"/>
				</g>
				<g id="shape53-144" v:mID="53" v:groupContext="shape" transform="translate(0,-20.6301)">
					<title>Sheet.53</title>
					<path d="M0 508.57 L0 509.07 C0 508.9 0.02 508.73 0.05 508.57 L0 508.57 Z" class="st20"/>
				</g>
				<g id="shape54-146" v:mID="54" v:groupContext="shape" transform="translate(48.2592,-20.6301)">
					<title>Sheet.54</title>
					<path d="M0 508.57 C0.03 508.73 0.05 508.9 0.05 509.07 L0.05 508.57 L0 508.57 Z" class="st20"/>
				</g>
			</g>
			<g id="group55-148" transform="translate(0,-12.0761)" v:mID="55" v:groupContext="group">
				<title>Sheet.55</title>
				<g id="shape56-149" v:mID="56" v:groupContext="shape">
					<title>Sheet.56</title>
					<path d="M24.15 496.99 C10.81 496.99 0 493.16 0 488.44 L0 501.02 L0.05 501.02 C0.78 505.51 11.29 509.07 24.15
								 509.07 C37.01 509.07 47.52 505.51 48.26 501.02 L48.3 501.02 L48.3 488.44 C48.3 493.16 37.49 496.99
								 24.15 496.99 Z" class="st21"/>
				</g>
				<g id="shape57-151" v:mID="57" v:groupContext="shape" transform="translate(0,-20.6301)">
					<title>Sheet.57</title>
					<path d="M0 508.57 L0 509.07 C0 508.9 0.02 508.73 0.05 508.57 L0 508.57 Z" class="st21"/>
				</g>
				<g id="shape58-153" v:mID="58" v:groupContext="shape" transform="translate(48.2592,-20.6301)">
					<title>Sheet.58</title>
					<path d="M0 508.57 C0.03 508.73 0.05 508.9 0.05 509.07 L0.05 508.57 L0 508.57 Z" class="st21"/>
				</g>
			</g>
			<g id="shape59-155" v:mID="59" v:groupContext="shape" transform="translate(0,-36.2284)">
				<title>Sheet.59</title>
				<ellipse cx="24.1523" cy="500.517" rx="24.1523" ry="8.55393" class="st22"/>
			</g>
			<g id="group60-157" transform="translate(0,-24.1523)" v:mID="60" v:groupContext="group">
				<title>Sheet.60</title>
				<g id="shape61-158" v:mID="61" v:groupContext="shape">
					<title>Sheet.61</title>
					<path d="M24.15 496.99 C10.81 496.99 0 493.16 0 488.44 L0 501.02 L0.05 501.02 C0.78 505.51 11.29 509.07 24.15
								 509.07 C37.01 509.07 47.52 505.51 48.26 501.02 L48.3 501.02 L48.3 488.44 C48.3 493.16 37.49 496.99
								 24.15 496.99 Z" class="st23"/>
				</g>
				<g id="shape62-160" v:mID="62" v:groupContext="shape" transform="translate(0,-20.6301)">
					<title>Sheet.62</title>
					<path d="M0 508.57 L0 509.07 C0 508.9 0.02 508.73 0.05 508.57 L0 508.57 Z" class="st23"/>
				</g>
				<g id="shape63-162" v:mID="63" v:groupContext="shape" transform="translate(48.2592,-20.6301)">
					<title>Sheet.63</title>
					<path d="M0 508.57 C0.03 508.73 0.05 508.9 0.05 509.07 L0.05 508.57 L0 508.57 Z" class="st23"/>
				</g>
			</g>
		</g>
		<g id="shape64-164" v:mID="64" v:groupContext="shape" transform="translate(952.77,-205.722)">
			<title>Sheet.64</title>
			<desc>DB</desc>
			<v:textBlock v:margins="rect(4,4,4,4)" v:tabSpace="42.5197"/>
			<v:textRect cx="19.235" cy="503.073" width="38.47" height="11.9964"/>
			<rect x="0" y="497.075" width="38.47" height="11.9964" class="st9"/>
			<text x="10.9" y="507.27" class="st5" v:langID="2070"><v:paragraph v:horizAlign="1"/><v:tabList/>DB</text>		</g>
		<g id="shape65-167" v:mID="65" v:groupContext="shape" v:layerMember="0" transform="translate(526.377,-363.675)">
			<title>Dynamic connector.193</title>
			<path d="M0 509.07 L-55.6 450.19" class="st1"/>
		</g>
		<g id="shape66-170" v:mID="66" v:groupContext="shape" v:layerMember="0" transform="translate(573.074,-363.804)">
			<title>Dynamic connector.194</title>
			<path d="M0 509.07 L55.02 450.32" class="st1"/>
		</g>
		<g id="shape67-173" v:mID="67" v:groupContext="shape" transform="translate(470.772,-390.217)">
			<title>Rectangle.117</title>
			<desc>- Node Discovery - RPC requests - Ephemeral Events</desc>
			<v:userDefs>
				<v:ud v:nameU="visVersion" v:val="VT0(15):26"/>
			</v:userDefs>
			<v:textBlock v:margins="rect(4,4,4,4)" v:tabSpace="42.5197"/>
			<v:textRect cx="78.6614" cy="476.735" width="157.33" height="64.6713"/>
			<path d="M0 509.07 L157.32 509.07 L157.32 444.4 L0 444.4 L0 509.07 Z" class="st18"/>
			<text x="4" y="464.14" class="st19" v:langID="2070"><v:paragraph/><v:tabList/>- Node Discovery<v:newlineChar/><tspan
						x="4" dy="1.2em" class="st6">-</tspan> RPC requests<v:lf/><tspan x="4" dy="1.2em" class="st6">-</tspan> Ephemeral Events</text>		</g>
		<g id="shape68-178" v:mID="68" v:groupContext="shape" v:layerMember="0" transform="translate(527.259,-169.63)">
			<title>Dynamic connector.205</title>
			<path d="M0 509.07 L-41.6 460.43" class="st1"/>
		</g>
		<g id="shape69-181" v:mID="69" v:groupContext="shape" transform="translate(485.654,-195.307)">
			<title>Rectangle.207</title>
			<desc>Persistent Events</desc>
			<v:userDefs>
				<v:ud v:nameU="visVersion" v:val="VT0(15):26"/>
			</v:userDefs>
			<v:textBlock v:margins="rect(4,4,4,4)" v:tabSpace="42.5197"/>
			<v:textRect cx="63.7795" cy="486.11" width="127.56" height="45.9213"/>
			<path d="M0 509.07 L127.56 509.07 L127.56 463.15 L0 463.15 L0 509.07 Z" class="st18"/>
			<text x="8.01" y="490.31" class="st19" v:langID="2070"><v:paragraph v:horizAlign="1"/><v:tabList/>Persistent Events</text>		</g>
		<g id="shape70-184" v:mID="70" v:groupContext="shape" v:layerMember="0" transform="translate(218.619,-337.832)">
			<title>Dynamic connector.67</title>
			<path d="M-6.67 502.46 L-7.03 502.46 L-118.3 501.51" class="st24"/>
		</g>
		<g id="group71-191" transform="translate(22.7812,-310.501)" v:mID="71" v:groupContext="group">
			<title>Sheet.71</title>
			<g id="shape72-192" v:mID="72" v:groupContext="shape">
				<title>Sheet.72</title>
				<ellipse cx="35.2531" cy="473.818" rx="35.2531" ry="35.2531" class="st25"/>
			</g>
			<g id="shape73-194" v:mID="73" v:groupContext="shape" transform="translate(10.4966,-17.1049)">
				<title>Sheet.73</title>
				<path d="M47.31 509.07 L2.2 509.07 C0.99 509.07 0 508.08 0 506.87 L0 474.98 C0 473.76 0.99 472.77 2.2 472.77 L47.31
							 472.77 C48.53 472.77 49.51 473.76 49.51 474.98 L49.51 506.87 C49.51 508.08 48.53 509.07 47.31 509.07
							 Z" class="st26"/>
			</g>
			<g id="shape74-196" v:mID="74" v:groupContext="shape" transform="translate(10.4966,-47.3416)">
				<title>Sheet.74</title>
				<path d="M49.51 509.07 L49.51 505.21 C49.51 504 48.53 503.01 47.31 503.01 L2.2 503.01 C0.99 503.01 0 504 0 505.21
							 L0 509.07 L49.51 509.07 Z" class="st27"/>
			</g>
			<g id="shape75-198" v:mID="75" v:groupContext="shape" transform="translate(12.1182,-48.7192)">
				<title>Sheet.75</title>
				<ellipse cx="1.65249" cy="507.418" rx="1.65249" ry="1.65249" class="st28"/>
			</g>
			<g id="shape76-200" v:mID="76" v:groupContext="shape" transform="translate(17.0757,-48.7192)">
				<title>Sheet.76</title>
				<ellipse cx="1.65249" cy="507.418" rx="1.65249" ry="1.65249" class="st29"/>
			</g>
			<g id="shape77-202" v:mID="77" v:groupContext="shape" transform="translate(22.0337,-48.7192)">
				<title>Sheet.77</title>
				<ellipse cx="1.65249" cy="507.418" rx="1.65249" ry="1.65249" class="st30"/>
			</g>
			<g id="group78-204" transform="translate(17.0019,-23.5722)" v:mID="78" v:groupContext="group">
				<title>Sheet.78</title>
				<g id="shape79-205" v:mID="79" v:groupContext="shape" transform="translate(0,-2.11904)">
					<title>Sheet.79</title>
					<path d="M0 501.05 L12.45 495.27 L12.45 498.02 L3.04 502.14 L3.04 502.2 L12.45 506.32 L12.45 509.07 L0 503.28
								 L0 501.05 Z" class="st31"/>
				</g>
				<g id="shape80-207" v:mID="80" v:groupContext="shape" transform="translate(14.3722,0)">
					<title>Sheet.80</title>
					<path d="M0 509.07 L5.55 490.26 L8.17 490.26 L2.62 509.07 L0 509.07 Z" class="st31"/>
				</g>
				<g id="shape81-209" v:mID="81" v:groupContext="shape" transform="translate(24.0481,-2.11904)">
					<title>Sheet.81</title>
					<path d="M12.45 503.36 L0 509.07 L0 506.32 L9.63 502.2 L9.63 502.14 L0 498.02 L0 495.27 L12.45 500.98 L12.45
								 503.36 L12.45 503.36 Z" class="st31"/>
				</g>
			</g>
		</g>
		<g id="group82-211" transform="translate(503.847,-87.874)" v:mID="82" v:groupContext="group">
			<title>Sheet.82</title>
			<g id="group83-212" transform="translate(8.45539,-22.5896)" v:mID="83" v:groupContext="group">
				<title>Sheet.83</title>
				<g id="shape84-213" v:mID="84" v:groupContext="shape" transform="translate(0.657184,-1.02318E-12)">
					<title>Sheet.84</title>
					<path d="M16.15 505.76 L1.17 479.53 C0 477.48 0 474.95 1.17 472.9 L16.15 446.67 C17.32 444.62 19.49 443.35 21.83
								 443.35 L51.78 443.35 C54.12 443.35 56.29 444.62 57.46 446.67 L72.43 472.9 C73.6 474.95 73.6 477.48
								 72.43 479.53 L57.46 505.76 C56.29 507.81 54.12 509.07 51.78 509.07 L21.83 509.07 C19.49 509.07 17.32
								 507.81 16.15 505.76 Z" class="st7"/>
				</g>
				<g id="shape85-215" v:mID="85" v:groupContext="shape" transform="translate(-3.67706E-13,-0.985776)">
					<title>Sheet.85</title>
					<path d="M16.15 505.76 L1.17 479.53 C0 477.48 0 474.95 1.17 472.9 L16.15 446.67 C17.32 444.62 19.49 443.35 21.83
								 443.35 L51.78 443.35 C54.12 443.35 56.29 444.62 57.46 446.67 L72.43 472.9 C73.6 474.95 73.6 477.48
								 72.43 479.53 L57.46 505.76 C56.29 507.81 54.12 509.07 51.78 509.07 L21.83 509.07 C19.49 509.07 17.32
								 507.81 16.15 505.76 Z" class="st32"/>
				</g>
				<g id="shape86-217" v:mID="86" v:groupContext="shape" transform="translate(23.1526,-1.15336)">
					<title>Sheet.86</title>
					<path d="M16 462.64 L13.73 462.22 L11.38 467.24 L13.36 469.25 L12.8 472.49 L16.06 475.78 L7.2 476.7 L4.59 474.06
								 L0 478.71 L30.03 509.07 C31.83 508.68 33.38 507.53 34.31 505.92 L43.27 490.23 L16 462.64 Z"
							class="st13"/>
				</g>
				<g id="shape87-219" v:mID="87" v:groupContext="shape" transform="translate(33.5598,-42.0635)">
					<title>Sheet.87</title>
					<ellipse cx="3.24584" cy="505.789" rx="3.24584" ry="3.28217" class="st14"/>
				</g>
				<g id="shape88-221" v:mID="88" v:groupContext="shape" transform="translate(33.5598,-19.0621)">
					<title>Sheet.88</title>
					<ellipse cx="3.24584" cy="505.789" rx="3.24584" ry="3.28217" class="st14"/>
				</g>
				<g id="shape89-223" v:mID="89" v:groupContext="shape" transform="translate(22.059,-30.5628)">
					<title>Sheet.89</title>
					<ellipse cx="3.24584" cy="505.789" rx="3.24584" ry="3.28217" class="st14"/>
				</g>
				<g id="shape90-225" v:mID="90" v:groupContext="shape" transform="translate(45.0605,-30.5628)">
					<title>Sheet.90</title>
					<ellipse cx="3.24584" cy="505.789" rx="3.24584" ry="3.28217" class="st14"/>
				</g>
				<g id="shape91-227" v:mID="91" v:groupContext="shape" transform="translate(22.5644,-21.4571)">
					<title>Sheet.91</title>
					<path d="M13.42 509.07 L0 495.62 L22.81 495.62 L13.42 486.1 L15.07 484.33 L28.48 497.75 L5.66 497.75 L15.07 507.31
								 L13.42 509.07 Z" class="st14"/>
				</g>
				<g id="shape92-229" v:mID="92" v:groupContext="shape" transform="translate(35.9513,-22.1668)">
					<title>Sheet.92</title>
					<rect x="0" y="501.29" width="1.39652" height="7.78106" class="st14"/>
				</g>
				<g id="shape93-231" v:mID="93" v:groupContext="shape" transform="translate(35.9513,-37.7289)">
					<title>Sheet.93</title>
					<rect x="0" y="501.29" width="1.39652" height="7.78106" class="st14"/>
				</g>
			</g>
			<g id="shape94-233" v:mID="94" v:groupContext="shape" transform="translate(1.59872E-14,3.05437)">
				<title>Sheet.94</title>
				<desc>Event Stream Broker</desc>
				<v:textBlock v:margins="rect(4,4,4,4)" v:tabSpace="42.5197"/>
				<v:textRect cx="45.5863" cy="499.911" width="91.18" height="18.3201"/>
				<rect x="0" y="490.751" width="91.1726" height="18.3201" class="st9"/>
				<text x="6.67" y="495.71" class="st5" v:langID="2070"><v:paragraph v:horizAlign="1"/><v:tabList/>Event Stream<v:lf/><tspan
							x="26.04" dy="1.2em" class="st6">Broker</tspan></text>			</g>
		</g>
		<g id="group95-237" transform="translate(703.922,-359.754)" v:mID="95" v:groupContext="group">
			<title>Sheet.95</title>
			<g id="group96-238" v:mID="96" v:groupContext="group">
				<title>Sheet.96</title>
				<g id="shape97-239" v:mID="97" v:groupContext="shape">
					<title>Sheet.97</title>
					<path d="M0 489.49 A22.0365 19.5855 -180 0 0 22.04 509.07 L278.77 509.07 A22.0365 19.5855 -180 0 0 300.81 489.49
								 L300.81 398.09 A22.0365 19.5855 -180 0 0 278.77 378.5 L22.04 378.5 A22.0365 19.5855 -180 0 0 -0
								 398.09 L0 489.49 Z" class="st2"/>
				</g>
				<g id="group98-241" transform="translate(13.1117,-18.8939)" v:mID="98" v:groupContext="group">
					<title>Sheet.98</title>
					<g id="shape99-242" v:mID="99" v:groupContext="shape" transform="translate(0.322164,0)">
						<title>Sheet.99</title>
						<rect x="0" y="425.308" width="72.4869" height="83.7626" class="st3"/>
					</g>
					<g id="shape100-244" v:mID="100" v:groupContext="shape" transform="translate(0,-0.483246)">
						<title>Sheet.100</title>
						<desc>Service Broker</desc>
						<v:textBlock v:margins="rect(0,0,0,0)" v:tabSpace="42.5197"/>
						<v:textRect cx="36.2434" cy="467.19" width="72.49" height="83.7626"/>
						<rect x="0" y="425.308" width="72.4869" height="83.7626" class="st4"/>
						<text x="15.44" y="462.99" class="st5" v:langID="2070"><v:paragraph v:horizAlign="1"/><v:tabList/>Service<v:lf/><tspan
									x="16.7" dy="1.2em" class="st6">Broker</tspan></text>					</g>
				</g>
				<g id="group101-248" transform="translate(156.01,-9.4436)" v:mID="101" v:groupContext="group">
					<title>Sheet.101</title>
					<g id="shape102-249" v:mID="102" v:groupContext="shape" transform="translate(8.20069,-16.8642)">
						<title>Sheet.102</title>
						<path d="M16.39 505.78 L1.19 479.65 C0 477.6 0 475.08 1.19 473.03 L16.39 446.9 C17.58 444.85 19.78 443.59
									 22.17 443.58 L52.58 443.58 C54.97 443.57 57.18 444.83 58.38 446.88 L73.58 473.02 C74.77 475.06
									 74.77 477.58 73.58 479.63 L58.38 505.76 C57.18 507.81 54.97 509.07 52.58 509.07 L22.17 509.07
									 C19.79 509.07 17.59 507.82 16.39 505.78 Z" class="st7"/>
					</g>
					<g id="shape103-251" v:mID="103" v:groupContext="shape" transform="translate(7.04135,-18.6032)">
						<title>Sheet.103</title>
						<path d="M16.39 505.78 L1.19 479.65 C0 477.6 0 475.08 1.19 473.03 L16.39 446.9 C17.58 444.85 19.78 443.59
									 22.17 443.58 L52.58 443.58 C54.97 443.57 57.18 444.83 58.38 446.88 L73.58 473.02 C74.77 475.06
									 74.77 477.58 73.58 479.63 L58.38 505.76 C57.18 507.81 54.97 509.07 52.58 509.07 L22.17 509.07
									 C19.79 509.07 17.59 507.82 16.39 505.78 Z" class="st8"/>
					</g>
					<g id="shape104-254" v:mID="104" v:groupContext="shape" transform="translate(-8.27199,0)">
						<title>Sheet.104</title>
						<desc>Greeter Service</desc>
						<v:textBlock v:margins="rect(4,4,4,4)" v:tabSpace="42.5197"/>
						<v:textRect cx="53.8583" cy="503.073" width="107.72" height="11.9964"/>
						<rect x="0" y="497.075" width="107.717" height="11.9964" class="st9"/>
						<text x="9.04" y="507.27" class="st5" v:langID="2070"><v:paragraph v:horizAlign="1"/><v:tabList/>Greeter Service</text>					</g>
				</g>
				<g id="shape105-257" v:mID="105" v:groupContext="shape" v:layerMember="0" transform="translate(163.35,-53.9414)">
					<title>Dynamic connector.97</title>
					<path d="M-6.67 502.08 L-7.03 502.08 L-70.72 501.89" class="st10"/>
				</g>
			</g>
			<g id="shape106-264" v:mID="106" v:groupContext="shape" transform="translate(8.7874,-110.567)">
				<title>Sheet.106</title>
				<desc>Node 2</desc>
				<v:textBlock v:margins="rect(4,4,4,4)" v:tabSpace="42.5197"/>
				<v:textRect cx="30.8976" cy="499.071" width="61.8" height="20"/>
				<rect x="0" y="489.071" width="61.7953" height="20" class="st9"/>
				<text x="10.11" y="503.27" class="st5" v:langID="2070"><v:paragraph v:horizAlign="1"/><v:tabList/>Node 2</text>			</g>
		</g>
		<g id="group107-267" transform="translate(707.08,-18.75)" v:mID="107" v:groupContext="group">
			<title>Sheet.107</title>
			<g id="group108-268" v:mID="108" v:groupContext="group">
				<title>Sheet.108</title>
				<g id="shape109-269" v:mID="109" v:groupContext="shape">
					<title>Sheet.109</title>
					<path d="M0 489.49 A22.0365 19.5855 -180 0 0 22.04 509.07 L278.77 509.07 A22.0365 19.5855 -180 0 0 300.81 489.49
								 L300.81 398.09 A22.0365 19.5855 -180 0 0 278.77 378.5 L22.04 378.5 A22.0365 19.5855 -180 0 0 -0
								 398.09 L0 489.49 Z" class="st2"/>
				</g>
				<g id="group110-271" transform="translate(13.1117,-18.8939)" v:mID="110" v:groupContext="group">
					<title>Sheet.110</title>
					<g id="shape111-272" v:mID="111" v:groupContext="shape" transform="translate(0.322164,0)">
						<title>Sheet.111</title>
						<rect x="0" y="425.308" width="72.4869" height="83.7626" class="st3"/>
					</g>
					<g id="shape112-274" v:mID="112" v:groupContext="shape" transform="translate(0,-0.483246)">
						<title>Sheet.112</title>
						<desc>Service Broker</desc>
						<v:textBlock v:margins="rect(0,0,0,0)" v:tabSpace="42.5197"/>
						<v:textRect cx="36.2434" cy="467.19" width="72.49" height="83.7626"/>
						<rect x="0" y="425.308" width="72.4869" height="83.7626" class="st4"/>
						<text x="15.44" y="462.99" class="st5" v:langID="2070"><v:paragraph v:horizAlign="1"/><v:tabList/>Service<v:lf/><tspan
									x="16.7" dy="1.2em" class="st6">Broker</tspan></text>					</g>
				</g>
				<g id="group113-278" transform="translate(156.01,-9.4436)" v:mID="113" v:groupContext="group">
					<title>Sheet.113</title>
					<g id="shape114-279" v:mID="114" v:groupContext="shape" transform="translate(8.20069,-16.8642)">
						<title>Sheet.114</title>
						<path d="M16.39 505.78 L1.19 479.65 C0 477.6 0 475.08 1.19 473.03 L16.39 446.9 C17.58 444.85 19.78 443.59
									 22.17 443.58 L52.58 443.58 C54.97 443.57 57.18 444.83 58.38 446.88 L73.58 473.02 C74.77 475.06
									 74.77 477.58 73.58 479.63 L58.38 505.76 C57.18 507.81 54.97 509.07 52.58 509.07 L22.17 509.07
									 C19.79 509.07 17.59 507.82 16.39 505.78 Z" class="st7"/>
					</g>
					<g id="shape115-281" v:mID="115" v:groupContext="shape" transform="translate(7.04135,-18.6032)">
						<title>Sheet.115</title>
						<path d="M16.39 505.78 L1.19 479.65 C0 477.6 0 475.08 1.19 473.03 L16.39 446.9 C17.58 444.85 19.78 443.59
									 22.17 443.58 L52.58 443.58 C54.97 443.57 57.18 444.83 58.38 446.88 L73.58 473.02 C74.77 475.06
									 74.77 477.58 73.58 479.63 L58.38 505.76 C57.18 507.81 54.97 509.07 52.58 509.07 L22.17 509.07
									 C19.79 509.07 17.59 507.82 16.39 505.78 Z" class="st8"/>
					</g>
					<g id="shape116-284" v:mID="116" v:groupContext="shape" transform="translate(-6.91696,0)">
						<title>Sheet.116</title>
						<desc>Inventory Service</desc>
						<v:textBlock v:margins="rect(4,4,4,4)" v:tabSpace="42.5197"/>
						<v:textRect cx="57.0628" cy="503.073" width="114.13" height="11.9964"/>
						<rect x="0" y="497.075" width="114.126" height="11.9964" class="st9"/>
						<text x="6.47" y="507.27" class="st5" v:langID="2070"><v:paragraph v:horizAlign="1"/><v:tabList/>Inventory Service</text>					</g>
				</g>
				<g id="shape117-287" v:mID="117" v:groupContext="shape" v:layerMember="0" transform="translate(163.35,-53.9414)">
					<title>Dynamic connector.97</title>
					<path d="M-6.67 502.08 L-7.03 502.08 L-70.72 501.89" class="st10"/>
				</g>
			</g>
			<g id="shape118-294" v:mID="118" v:groupContext="shape" transform="translate(8.7874,-110.567)">
				<title>Sheet.118</title>
				<desc>Node 4</desc>
				<v:textBlock v:margins="rect(4,4,4,4)" v:tabSpace="42.5197"/>
				<v:textRect cx="30.8976" cy="499.071" width="61.8" height="20"/>
				<rect x="0" y="489.071" width="61.7953" height="20" class="st9"/>
				<text x="10.11" y="503.27" class="st5" v:langID="2070"><v:paragraph v:horizAlign="1"/><v:tabList/>Node 4</text>			</g>
		</g>
		<g id="shape119-297" v:mID="119" v:groupContext="shape" v:layerMember="0" transform="translate(581.671,-133.488)">
			<title>Dynamic connector.177</title>
			<path d="M6.38 511.04 L6.72 511.14 L132.12 549.79" class="st16"/>
		</g>
		<g id="shape120-304" v:mID="120" v:groupContext="shape" v:layerMember="0" transform="translate(571.638,-311.508)">
			<title>Dynamic connector.251</title>
			<path d="M4.16 514.29 L4.39 514.57 L146.98 693.19" class="st15"/>
		</g>
		<g id="shape121-311" v:mID="121" v:groupContext="shape" v:layerMember="0" transform="translate(580.26,-351.216)">
			<title>Dynamic connector.158</title>
			<path d="M6.19 506.57 L6.52 506.44 L130.25 456.53" class="st15"/>
		</g>
	</g>
</svg>
