<?xml version="1.0" encoding="UTF-8" standalone="no"?>
<!DOCTYPE svg PUBLIC "-//W3C//DTD SVG 1.1//EN" "http://www.w3.org/Graphics/SVG/1.1/DTD/svg11.dtd">
<!-- Generated by Microsoft Visio, SVG Export channels-io-gql-http.svg FULL -->
<svg xmlns="http://www.w3.org/2000/svg" xmlns:xlink="http://www.w3.org/1999/xlink" xmlns:ev="http://www.w3.org/2001/xml-events"
		xmlns:v="http://schemas.microsoft.com/visio/2003/SVGExtensions/" width="14.2589in" height="7.07043in"
		viewBox="0 0 1026.64 509.071" xml:space="preserve" color-interpolation-filters="sRGB" class="st33">
	<v:documentProperties v:langID="2070" v:metric="true" v:viewMarkup="false">
		<v:userDefs>
			<v:ud v:nameU="msvNoAutoConnect" v:val="VT0(1):26"/>
		</v:userDefs>
	</v:documentProperties>

	<style type="text/css">
	<![CDATA[
		.st1 {stroke:#000000;stroke-linecap:round;stroke-linejoin:round;stroke-width:1.5}
		.st2 {fill:#dae8fc;stroke:#6c8ebf;stroke-linecap:butt;stroke-width:0.75}
		.st3 {fill:#000000;fill-opacity:0.25;stroke:#000000;stroke-linecap:butt;stroke-opacity:0.25;stroke-width:0.75}
		.st4 {fill:#fff2cc;stroke:#d6b656;stroke-linecap:butt;stroke-width:0.75}
		.st5 {fill:#000000;font-family:Calibri;font-size:1.16666em;font-weight:bold}
		.st6 {font-size:1em}
		.st7 {fill:#000000;fill-opacity:0.25;stroke:none;stroke-linecap:butt;stroke-width:0.75}
		.st8 {fill:url(#grad0-20);stroke:none;stroke-linecap:butt;stroke-width:0.75}
		.st9 {fill:none;stroke:none;stroke-linecap:round;stroke-linejoin:round;stroke-width:0.75}
		.st10 {marker-end:url(#mrkr5-32);marker-start:url(#mrkr5-30);stroke:#000000;stroke-linecap:round;stroke-linejoin:round;stroke-width:1.5}
		.st11 {fill:#000000;fill-opacity:1;stroke:#000000;stroke-opacity:1;stroke-width:0.37313432835821}
		.st12 {fill:url(#grad0-40);stroke:none;stroke-linecap:butt;stroke-width:0.75}
		.st13 {fill:#000000;fill-opacity:0.067;stroke:none;stroke-linecap:butt;stroke-width:0.75}
		.st14 {fill:#ffffff;stroke:none;stroke-linecap:butt;stroke-width:0.75}
		.st15 {marker-end:url(#mrkr5-32);marker-start:url(#mrkr5-30);stroke:#000000;stroke-dasharray:1.5,3;stroke-linecap:round;stroke-linejoin:round;stroke-width:1.5}
		.st16 {marker-end:url(#mrkr5-32);marker-start:url(#mrkr5-30);stroke:#000000;stroke-dasharray:4.5,4.5,0,4.5,0,4.5;stroke-linecap:round;stroke-linejoin:round;stroke-width:1.5}
		.st17 {fill:url(#grad0-103);stroke:none;stroke-linecap:butt;stroke-width:0.75}
		.st18 {fill:#ffffff;stroke:#000000;stroke-dasharray:1.5,3;stroke-linecap:round;stroke-linejoin:round;stroke-width:1.5}
		.st19 {fill:#000000;font-family:Segoe UI;font-size:1.16666em;font-weight:bold}
		.st20 {fill:#424a60;stroke:none;stroke-linecap:butt;stroke-width:11.5472}
		.st21 {fill:#556080;stroke:none;stroke-linecap:butt;stroke-width:11.5472}
		.st22 {fill:#7fabda;stroke:none;stroke-linecap:butt;stroke-width:11.5472}
		.st23 {fill:#7383bf;stroke:none;stroke-linecap:butt;stroke-width:11.5472}
		.st24 {marker-end:url(#mrkr5-32);marker-start:url(#mrkr5-30);stroke:#000000;stroke-dasharray:10.5,7.5,0,7.5;stroke-linecap:round;stroke-linejoin:round;stroke-width:1.5}
		.st25 {fill:#f54f33;stroke:none;stroke-linecap:butt;stroke-width:4.78125}
		.st26 {fill:#ffffff;stroke:none;stroke-linecap:butt;stroke-width:4.78125}
		.st27 {fill:#e1e3e9;stroke:none;stroke-linecap:butt;stroke-width:4.78125}
		.st28 {fill:#f24b45;stroke:none;stroke-linecap:butt;stroke-width:4.78125}
		.st29 {fill:#ffb202;stroke:none;stroke-linecap:butt;stroke-width:4.78125}
		.st30 {fill:#4cbb41;stroke:none;stroke-linecap:butt;stroke-width:4.78125}
		.st31 {fill:#53899f;stroke:none;stroke-linecap:butt;stroke-width:4.78125}
		.st32 {fill:#ffd965;stroke:none;stroke-linecap:butt;stroke-width:0.75}
		.st33 {fill:none;fill-rule:evenodd;font-size:12px;overflow:visible;stroke-linecap:square;stroke-miterlimit:3}
	]]>
	</style>

	<defs id="Patterns_And_Gradients">
		<linearGradient id="grad0-20" x1="0" y1="0" x2="1" y2="0" gradientTransform="rotate(90 0.5 0.5)">
			<stop offset="0" stop-color="#4387fd" stop-opacity="1"/>
			<stop offset="1" stop-color="#4683ea" stop-opacity="1"/>
		</linearGradient>
		<linearGradient id="grad0-40" x1="0" y1="0" x2="1" y2="0" gradientTransform="rotate(90 0.5 0.5)">
			<stop offset="0" stop-color="#fd9e3f" stop-opacity="1"/>
			<stop offset="1" stop-color="#ea9f49" stop-opacity="1"/>
		</linearGradient>
		<linearGradient id="grad0-103" x1="0" y1="0" x2="1" y2="0" gradientTransform="rotate(90 0.5 0.5)">
			<stop offset="0" stop-color="#35cc49" stop-opacity="1"/>
			<stop offset="1" stop-color="#44bf3b" stop-opacity="1"/>
		</linearGradient>
	</defs>
	<defs id="Markers">
		<g id="lend5">
			<path d="M 2 1 L 0 0 L 1.98117 -0.993387 C 1.67173 -0.364515 1.67301 0.372641 1.98465 1.00043 " style="stroke:none"/>
		</g>
		<marker id="mrkr5-30" class="st11" v:arrowType="5" v:arrowSize="2" v:setback="4.45" refX="4.45" orient="auto"
				markerUnits="strokeWidth" overflow="visible">
			<use xlink:href="#lend5" transform="scale(2.68) "/>
		</marker>
		<marker id="mrkr5-32" class="st11" v:arrowType="5" v:arrowSize="2" v:setback="4.69" refX="-4.69" orient="auto"
				markerUnits="strokeWidth" overflow="visible">
			<use xlink:href="#lend5" transform="scale(-2.68,-2.68) "/>
		</marker>
	</defs>
	<g v:mID="0" v:index="1" v:groupContext="foregroundPage">
		<title>channels-io-gql-http</title>
		<v:pageProperties v:drawingScale="0.0393701" v:pageScale="0.0393701" v:drawingUnits="24" v:shadowOffsetX="9"
				v:shadowOffsetY="-9"/>
		<v:layer v:name="Connector" v:index="0"/>
		<g id="shape250-1" v:mID="250" v:groupContext="shape" v:layerMember="0" transform="translate(572.172,-169.793)">
			<title>Dynamic connector.250</title>
			<path d="M0 509.07 L41.04 460.6" class="st1"/>
		</g>
		<g id="group124-4" transform="translate(703.922,-195.431)" v:mID="124" v:groupContext="group">
			<title>Sheet.124</title>
			<g id="shape125-5" v:mID="125" v:groupContext="shape">
				<title>Sheet.125</title>
				<path d="M0 489.49 A22.0365 19.5855 -180 0 0 22.04 509.07 L278.77 509.07 A22.0365 19.5855 -180 0 0 300.81 489.49
							 L300.81 398.09 A22.0365 19.5855 -180 0 0 278.77 378.5 L22.04 378.5 A22.0365 19.5855 -180 0 0 0 398.09
							 L0 489.49 Z" class="st2"/>
			</g>
			<g id="group126-7" transform="translate(13.1117,-18.8939)" v:mID="126" v:groupContext="group">
				<title>Sheet.126</title>
				<g id="shape127-8" v:mID="127" v:groupContext="shape" transform="translate(0.322164,0)">
					<title>Sheet.127</title>
					<rect x="0" y="425.308" width="72.4869" height="83.7626" class="st3"/>
				</g>
				<g id="shape128-10" v:mID="128" v:groupContext="shape" transform="translate(0,-0.483246)">
					<title>Sheet.128</title>
					<desc>Service Broker</desc>
					<v:textBlock v:margins="rect(0,0,0,0)" v:tabSpace="42.5197"/>
					<v:textRect cx="36.2434" cy="467.19" width="72.49" height="83.7626"/>
					<rect x="0" y="425.308" width="72.4869" height="83.7626" class="st4"/>
					<text x="15.44" y="462.99" class="st5" v:langID="2070"><v:paragraph v:horizAlign="1"/><v:tabList/>Service<v:lf/><tspan
								x="16.7" dy="1.2em" class="st6">Broker</tspan></text>				</g>
			</g>
			<g id="group129-14" transform="translate(119.799,-9.4436)" v:mID="129" v:groupContext="group">
				<title>Sheet.129</title>
				<g id="shape130-15" v:mID="130" v:groupContext="shape" transform="translate(8.20069,-16.8642)">
					<title>Sheet.130</title>
					<path d="M16.39 505.78 L1.19 479.65 C0 477.6 0 475.08 1.19 473.03 L16.39 446.9 C17.58 444.85 19.78 443.59 22.17
								 443.58 L52.58 443.58 C54.97 443.57 57.18 444.83 58.38 446.88 L73.58 473.02 C74.77 475.06 74.77 477.58
								 73.58 479.63 L58.38 505.76 C57.18 507.81 54.97 509.07 52.58 509.07 L22.17 509.07 C19.79 509.07 17.59
								 507.82 16.39 505.78 Z" class="st7"/>
				</g>
				<g id="shape131-17" v:mID="131" v:groupContext="shape" transform="translate(7.04135,-18.6032)">
					<title>Sheet.131</title>
					<path d="M16.39 505.78 L1.19 479.65 C0 477.6 0 475.08 1.19 473.03 L16.39 446.9 C17.58 444.85 19.78 443.59 22.17
								 443.58 L52.58 443.58 C54.97 443.57 57.18 444.83 58.38 446.88 L73.58 473.02 C74.77 475.06 74.77 477.58
								 73.58 479.63 L58.38 505.76 C57.18 507.81 54.97 509.07 52.58 509.07 L22.17 509.07 C19.79 509.07 17.59
								 507.82 16.39 505.78 Z" class="st8"/>
				</g>
				<g id="shape132-21" v:mID="132" v:groupContext="shape" transform="translate(-12.0822,0)">
					<title>Sheet.132</title>
					<desc>Products Service</desc>
					<v:textBlock v:margins="rect(4,4,4,4)" v:tabSpace="42.5197"/>
					<v:textRect cx="59.5276" cy="503.073" width="119.06" height="11.9964"/>
					<rect x="0" y="497.075" width="119.055" height="11.9964" class="st9"/>
					<text x="11.5" y="507.27" class="st5" v:langID="2070"><v:paragraph v:horizAlign="1"/><v:tabList/>Products Service</text>				</g>
			</g>
			<g id="shape133-24" v:mID="133" v:groupContext="shape" v:layerMember="0" transform="translate(127.139,-53.9418)">
				<title>Dynamic connector</title>
				<path d="M-6.67 502.04 L-7.03 502.04 L-34.51 501.93" class="st10"/>
			</g>
		</g>
		<g id="group156-33" transform="translate(503.847,-283.465)" v:mID="156" v:groupContext="group">
			<title>Sheet.156</title>
			<g id="group137-34" transform="translate(8.45539,-22.5896)" v:mID="137" v:groupContext="group">
				<title>Sheet.137</title>
				<g id="shape138-35" v:mID="138" v:groupContext="shape" transform="translate(0.657184,-1.02318E-12)">
					<title>Sheet.138</title>
					<path d="M16.15 505.76 L1.17 479.53 C0 477.48 0 474.95 1.17 472.9 L16.15 446.67 C17.32 444.62 19.49 443.35 21.83
								 443.35 L51.78 443.35 C54.12 443.35 56.29 444.62 57.46 446.67 L72.43 472.9 C73.6 474.95 73.6 477.48
								 72.43 479.53 L57.46 505.76 C56.29 507.81 54.12 509.07 51.78 509.07 L21.83 509.07 C19.49 509.07 17.32
								 507.81 16.15 505.76 Z" class="st7"/>
				</g>
				<g id="shape139-37" v:mID="139" v:groupContext="shape" transform="translate(-3.67706E-13,-0.985776)">
					<title>Sheet.139</title>
					<path d="M16.15 505.76 L1.17 479.53 C0 477.48 0 474.95 1.17 472.9 L16.15 446.67 C17.32 444.62 19.49 443.35 21.83
								 443.35 L51.78 443.35 C54.12 443.35 56.29 444.62 57.46 446.67 L72.43 472.9 C73.6 474.95 73.6 477.48
								 72.43 479.53 L57.46 505.76 C56.29 507.81 54.12 509.07 51.78 509.07 L21.83 509.07 C19.49 509.07 17.32
								 507.81 16.15 505.76 Z" class="st12"/>
				</g>
				<g id="shape140-41" v:mID="140" v:groupContext="shape" transform="translate(23.1526,-1.15336)">
					<title>Sheet.140</title>
					<path d="M16 462.64 L13.73 462.22 L11.38 467.24 L13.36 469.25 L12.8 472.49 L16.06 475.78 L7.2 476.7 L4.59 474.06
								 L0 478.71 L30.03 509.07 C31.83 508.68 33.38 507.53 34.31 505.92 L43.27 490.23 L16 462.64 Z"
							class="st13"/>
				</g>
				<g id="shape141-43" v:mID="141" v:groupContext="shape" transform="translate(33.5598,-42.0635)">
					<title>Sheet.141</title>
					<ellipse cx="3.24584" cy="505.789" rx="3.24584" ry="3.28217" class="st14"/>
				</g>
				<g id="shape142-45" v:mID="142" v:groupContext="shape" transform="translate(33.5598,-19.0621)">
					<title>Sheet.142</title>
					<ellipse cx="3.24584" cy="505.789" rx="3.24584" ry="3.28217" class="st14"/>
				</g>
				<g id="shape143-47" v:mID="143" v:groupContext="shape" transform="translate(22.059,-30.5628)">
					<title>Sheet.143</title>
					<ellipse cx="3.24584" cy="505.789" rx="3.24584" ry="3.28217" class="st14"/>
				</g>
				<g id="shape144-49" v:mID="144" v:groupContext="shape" transform="translate(45.0605,-30.5628)">
					<title>Sheet.144</title>
					<ellipse cx="3.24584" cy="505.789" rx="3.24584" ry="3.28217" class="st14"/>
				</g>
				<g id="shape145-51" v:mID="145" v:groupContext="shape" transform="translate(22.5644,-21.4571)">
					<title>Sheet.145</title>
					<path d="M13.42 509.07 L0 495.62 L22.81 495.62 L13.42 486.1 L15.07 484.33 L28.48 497.75 L5.66 497.75 L15.07 507.31
								 L13.42 509.07 Z" class="st14"/>
				</g>
				<g id="shape146-53" v:mID="146" v:groupContext="shape" transform="translate(35.9513,-22.1668)">
					<title>Sheet.146</title>
					<rect x="0" y="501.29" width="1.39652" height="7.78106" class="st14"/>
				</g>
				<g id="shape147-55" v:mID="147" v:groupContext="shape" transform="translate(35.9513,-37.7289)">
					<title>Sheet.147</title>
					<rect x="0" y="501.29" width="1.39652" height="7.78106" class="st14"/>
				</g>
			</g>
			<g id="shape155-57" v:mID="155" v:groupContext="shape">
				<title>Sheet.155</title>
				<desc>Transporter</desc>
				<v:textBlock v:margins="rect(4,4,4,4)" v:tabSpace="42.5197"/>
				<v:textRect cx="45.5863" cy="499.911" width="91.18" height="18.3201"/>
				<rect x="0" y="490.751" width="91.1726" height="18.3201" class="st9"/>
				<text x="11.18" y="504.11" class="st5" v:langID="2070"><v:paragraph v:horizAlign="1"/><v:tabList/>Transporter</text>			</g>
		</g>
		<g id="shape159-60" v:mID="159" v:groupContext="shape" v:layerMember="0" transform="translate(580.252,-326.595)">
			<title>Dynamic connector.159</title>
			<path d="M6.19 511.57 L6.52 511.71 L130.26 561.7" class="st15"/>
		</g>
		<g id="shape162-67" v:mID="162" v:groupContext="shape" transform="translate(712.709,-305.998)">
			<title>Sheet.162</title>
			<desc>Node 3</desc>
			<v:textBlock v:margins="rect(4,4,4,4)" v:tabSpace="42.5197"/>
			<v:textRect cx="30.8976" cy="499.071" width="61.8" height="20"/>
			<rect x="0" y="489.071" width="61.7953" height="20" class="st9"/>
			<text x="10.11" y="503.27" class="st5" v:langID="2070"><v:paragraph v:horizAlign="1"/><v:tabList/>Node 3</text>		</g>
		<g id="shape157-70" v:mID="157" v:groupContext="shape" v:layerMember="0" transform="translate(513.26,-332.578)">
			<title>Dynamic connector</title>
			<path d="M-6.67 502.38 L-7.03 502.38 L-102.1 501.59" class="st15"/>
		</g>
		<g id="shape179-77" v:mID="179" v:groupContext="shape" v:layerMember="0" transform="translate(578.23,-159.181)">
			<title>Dynamic connector.179</title>
			<path d="M5.83 505.82 L6.15 505.65 L77.54 465.88 A2.3622 2.3622 0 1 1 81.67 463.58 L132.66 435.18" class="st16"/>
		</g>
		<g id="group183-84" transform="translate(171.008,-213.772)" v:mID="183" v:groupContext="group">
			<title>Sheet.183</title>
			<g id="group176-85" transform="translate(39.685,-58.2811)" v:mID="176" v:groupContext="group">
				<title>Sheet.176</title>
				<g id="group135-86" v:mID="135" v:groupContext="group">
					<title>Sheet.135</title>
					<g id="shape134-87" v:mID="134" v:groupContext="shape">
						<title>Sheet.134</title>
						<path d="M-0 489.49 A15.7821 19.5855 -180 0 0 15.78 509.07 L199.65 509.07 A15.7821 19.5855 -180 0 0 215.43
									 489.49 L215.43 398.09 A15.7821 19.5855 -180 0 0 199.65 378.5 L15.78 378.5 A15.7821 19.5855 -180
									 0 0 -0 398.09 L0 489.49 Z" class="st2"/>
					</g>
					<g id="group2-89" transform="translate(120.625,-26.4786)" v:mID="2" v:groupContext="group">
						<title>Sheet.2</title>
						<g id="shape3-90" v:mID="3" v:groupContext="shape" transform="translate(0.322164,0)">
							<title>Sheet.3</title>
							<rect x="0" y="425.308" width="72.4869" height="83.7626" class="st3"/>
						</g>
						<g id="shape4-92" v:mID="4" v:groupContext="shape" transform="translate(0,-0.483246)">
							<title>Sheet.4</title>
							<desc>Service Broker</desc>
							<v:textBlock v:margins="rect(0,0,0,0)" v:tabSpace="42.5197"/>
							<v:textRect cx="36.2434" cy="467.19" width="72.49" height="83.7626"/>
							<rect x="0" y="425.308" width="72.4869" height="83.7626" class="st4"/>
							<text x="15.44" y="462.99" class="st5" v:langID="2070"><v:paragraph v:horizAlign="1"/><v:tabList/>Service<v:lf/><tspan
										x="16.7" dy="1.2em" class="st6">Broker</tspan></text>						</g>
					</g>
					<g id="group49-96" transform="translate(6.39488E-14,-2.89091)" v:mID="49" v:groupContext="group">
						<title>Sheet.49</title>
						<g id="group50-97" transform="translate(7.62102,-34.3433)" v:mID="50" v:groupContext="group">
							<title>Sheet.50</title>
							<g id="shape51-98" v:mID="51" v:groupContext="shape" transform="translate(1.15933,-1.3074E-12)">
								<title>Sheet.51</title>
								<path d="M16.4 505.74 L1.19 479.37 C0 477.31 0 474.76 1.19 472.7 L16.4 446.32 C17.59 444.26 19.79
											 442.99 22.17 442.99 L52.6 442.99 C54.98 442.99 57.18 444.26 58.37 446.32 L73.58 472.7
											 C74.77 474.76 74.77 477.31 73.58 479.37 L58.37 505.74 C57.18 507.8 54.98 509.07 52.6
											 509.07 L22.17 509.07 C19.79 509.07 17.59 507.8 16.4 505.74 Z" class="st7"/>
							</g>
							<g id="shape52-100" v:mID="52" v:groupContext="shape" transform="translate(0,-1.739)">
								<title>Sheet.52</title>
								<path d="M16.4 505.74 L1.19 479.37 C0 477.31 0 474.76 1.19 472.7 L16.4 446.32 C17.59 444.26 19.79
											 442.99 22.17 442.99 L52.6 442.99 C54.98 442.99 57.18 444.26 58.37 446.32 L73.58 472.7
											 C74.77 474.76 74.77 477.31 73.58 479.37 L58.37 505.74 C57.18 507.8 54.98 509.07 52.6
											 509.07 L22.17 509.07 C19.79 509.07 17.59 507.8 16.4 505.74 Z" class="st17"/>
							</g>
							<g id="shape53-104" v:mID="53" v:groupContext="shape" transform="translate(20.6535,-1.739)">
								<title>Sheet.53</title>
								<path d="M35.7 475.54 L28.61 479.18 L25.44 476.01 L13.01 475.66 L7.22 469.86 L0 476.04 L4.9 483.69
											 L30.26 509.07 L31.95 509.07 C34.33 509.07 36.52 507.8 37.72 505.74 L48.02 487.88 L35.7
											 475.54 Z" class="st13"/>
							</g>
							<g id="shape54-106" v:mID="54" v:groupContext="shape" transform="translate(18.103,-26.9081)">
								<title>Sheet.54</title>
								<path d="M28 501.19 L26.35 499.53 L12.23 499.53 L10.57 501.19 L12.23 502.85 L26.35 502.85 L28 501.19
											 ZM9.77 506.47 L4.49 501.19 L9.77 495.92 C10.01 495.67 10.01 495.27 9.77 495.03 L8.31
											 493.58 C8.06 493.33 7.66 493.33 7.41 493.58 L0.24 500.75 C0 501 0 501.4 0.24 501.65
											 L1.7 503.11 L1.7 503.11 L7.42 508.82 C7.67 509.07 8.06 509.07 8.31 508.82 L9.77 507.37
											 C10.01 507.12 10.01 506.72 9.77 506.47 ZM28.8 495.92 L34.08 501.2 L28.8 506.47 C28.56
											 506.72 28.56 507.12 28.8 507.37 L30.26 508.82 C30.51 509.07 30.91 509.07 31.16 508.82
											 L38.33 501.65 C38.57 501.4 38.57 501 38.33 500.75 L36.87 499.3 L36.86 499.29 L31.15
											 493.58 C30.9 493.33 30.51 493.33 30.26 493.58 L28.8 495.03 C28.56 495.27 28.56 495.67
											 28.8 495.92 Z" class="st14"/>
							</g>
						</g>
						<g id="shape55-108" v:mID="55" v:groupContext="shape">
							<title>Sheet.55</title>
							<desc>API Gateway</desc>
							<v:textBlock v:margins="rect(4,4,4,4)" v:tabSpace="42.5197"/>
							<v:textRect cx="45.5863" cy="493.476" width="91.18" height="31.1906"/>
							<rect x="0" y="477.88" width="91.1726" height="31.1906" class="st9"/>
							<text x="35.75" y="489.28" class="st5" v:langID="2070"><v:paragraph v:horizAlign="1"/><v:tabList/>API<v:newlineChar/><tspan
										x="19.73" dy="1.2em" class="st6">Gateway</tspan></text>						</g>
					</g>
					<g id="shape67-112" v:mID="67" v:groupContext="shape" v:layerMember="0" transform="translate(120.625,-62.4672)">
						<title>Dynamic connector.67</title>
						<path d="M-6.67 502.14 L-7.03 502.14 L-30.35 501.83" class="st10"/>
					</g>
				</g>
				<g id="shape160-119" v:mID="160" v:groupContext="shape" transform="translate(-1.19904E-14,-110.567)">
					<title>Sheet.160</title>
					<desc>Node 1</desc>
					<v:textBlock v:margins="rect(4,4,4,4)" v:tabSpace="42.5197"/>
					<v:textRect cx="30.8976" cy="499.071" width="61.8" height="20"/>
					<rect x="0" y="489.071" width="61.7953" height="20" class="st9"/>
					<text x="10.11" y="503.27" class="st5" v:langID="2070"><v:paragraph v:horizAlign="1"/><v:tabList/>Node 1</text>				</g>
			</g>
			<g id="shape180-122" v:mID="180" v:groupContext="shape" v:layerMember="0" transform="translate(63.2404,-100.005)">
				<title>Dynamic connector.193</title>
				<path d="M0 509.07 L-46.23 591.7" class="st1"/>
			</g>
			<g id="shape181-125" v:mID="181" v:groupContext="shape" v:layerMember="0" transform="translate(108.62,-101.046)">
				<title>Dynamic connector.194</title>
				<path d="M0 509.07 L46.81 592.74" class="st1"/>
			</g>
			<g id="shape182-128" v:mID="182" v:groupContext="shape" transform="translate(17.0079,11.1702)">
				<title>Rectangle.117</title>
				<desc>- HTTP Server - GraphQL Server - Socket.IO Server</desc>
				<v:userDefs>
					<v:ud v:nameU="visVersion" v:val="VT0(15):26"/>
				</v:userDefs>
				<v:textBlock v:margins="rect(4,4,4,4)" v:tabSpace="42.5197"/>
				<v:textRect cx="69.2096" cy="480.525" width="138.42" height="57.0915"/>
				<path d="M0 509.07 L138.42 509.07 L138.42 451.98 L0 451.98 L0 509.07 Z" class="st18"/>
				<text x="4" y="467.93" class="st19" v:langID="2070"><v:paragraph/><v:tabList/>- HTTP Server<v:newlineChar/><tspan
							x="4" dy="1.2em" class="st6">-</tspan> GraphQL Server<v:newlineChar/><tspan x="4" dy="1.2em"
							class="st6">-</tspan> Socket.IO Server</text>			</g>
		</g>
		<g id="shape185-133" v:mID="185" v:groupContext="shape" v:layerMember="0" transform="translate(948.038,-261.888)">
			<title>Dynamic connector.182</title>
			<path d="M-6.67 516.08 L-7.03 516.08 L-34.61 516.23" class="st10"/>
		</g>
		<g id="group186-140" transform="translate(948.038,-228.377)" v:mID="186" v:groupContext="group">
			<title>Sheet.186</title>
			<g id="shape187-141" v:mID="187" v:groupContext="shape">
				<title>Sheet.187</title>
				<path d="M48.26 463.79 C47.52 459.3 37.01 455.73 24.15 455.73 C11.29 455.73 0.78 459.3 0.05 463.79 L0 463.79 L0 464.29
							 L0 475.86 L0 476.36 L0 476.87 L0 487.94 L0 488.44 L0 488.94 L0 501.02 L0.05 501.02 C0.78 505.51 11.29
							 509.07 24.15 509.07 C37.01 509.07 47.52 505.51 48.26 501.02 L48.3 501.02 L48.3 488.94 L48.3 488.44 L48.3
							 487.94 L48.3 476.87 L48.3 476.36 L48.3 475.86 L48.3 464.29 L48.3 463.79 L48.26 463.79 Z" class="st20"/>
			</g>
			<g id="group188-143" v:mID="188" v:groupContext="group">
				<title>Sheet.188</title>
				<g id="shape189-144" v:mID="189" v:groupContext="shape">
					<title>Sheet.189</title>
					<path d="M24.15 496.99 C10.81 496.99 0 493.16 0 488.44 L0 501.02 L0.05 501.02 C0.78 505.51 11.29 509.07 24.15
								 509.07 C37.01 509.07 47.52 505.51 48.26 501.02 L48.3 501.02 L48.3 488.44 C48.3 493.16 37.49 496.99
								 24.15 496.99 Z" class="st20"/>
				</g>
				<g id="shape190-146" v:mID="190" v:groupContext="shape" transform="translate(0,-20.6301)">
					<title>Sheet.190</title>
					<path d="M0 508.57 L0 509.07 C0 508.9 0.02 508.73 0.05 508.57 L0 508.57 Z" class="st20"/>
				</g>
				<g id="shape191-148" v:mID="191" v:groupContext="shape" transform="translate(48.2592,-20.6301)">
					<title>Sheet.191</title>
					<path d="M0 508.57 C0.03 508.73 0.05 508.9 0.05 509.07 L0.05 508.57 L0 508.57 Z" class="st20"/>
				</g>
			</g>
			<g id="group192-150" transform="translate(0,-12.0761)" v:mID="192" v:groupContext="group">
				<title>Sheet.192</title>
				<g id="shape193-151" v:mID="193" v:groupContext="shape">
					<title>Sheet.193</title>
					<path d="M24.15 496.99 C10.81 496.99 0 493.16 0 488.44 L0 501.02 L0.05 501.02 C0.78 505.51 11.29 509.07 24.15
								 509.07 C37.01 509.07 47.52 505.51 48.26 501.02 L48.3 501.02 L48.3 488.44 C48.3 493.16 37.49 496.99
								 24.15 496.99 Z" class="st21"/>
				</g>
				<g id="shape194-153" v:mID="194" v:groupContext="shape" transform="translate(0,-20.6301)">
					<title>Sheet.194</title>
					<path d="M0 508.57 L0 509.07 C0 508.9 0.02 508.73 0.05 508.57 L0 508.57 Z" class="st21"/>
				</g>
				<g id="shape195-155" v:mID="195" v:groupContext="shape" transform="translate(48.2592,-20.6301)">
					<title>Sheet.195</title>
					<path d="M0 508.57 C0.03 508.73 0.05 508.9 0.05 509.07 L0.05 508.57 L0 508.57 Z" class="st21"/>
				</g>
			</g>
			<g id="shape196-157" v:mID="196" v:groupContext="shape" transform="translate(0,-36.2284)">
				<title>Sheet.196</title>
				<ellipse cx="24.1523" cy="500.517" rx="24.1523" ry="8.55393" class="st22"/>
			</g>
			<g id="group197-159" transform="translate(0,-24.1523)" v:mID="197" v:groupContext="group">
				<title>Sheet.197</title>
				<g id="shape198-160" v:mID="198" v:groupContext="shape">
					<title>Sheet.198</title>
					<path d="M24.15 496.99 C10.81 496.99 0 493.16 0 488.44 L0 501.02 L0.05 501.02 C0.78 505.51 11.29 509.07 24.15
								 509.07 C37.01 509.07 47.52 505.51 48.26 501.02 L48.3 501.02 L48.3 488.44 C48.3 493.16 37.49 496.99
								 24.15 496.99 Z" class="st23"/>
				</g>
				<g id="shape199-162" v:mID="199" v:groupContext="shape" transform="translate(0,-20.6301)">
					<title>Sheet.199</title>
					<path d="M0 508.57 L0 509.07 C0 508.9 0.02 508.73 0.05 508.57 L0 508.57 Z" class="st23"/>
				</g>
				<g id="shape200-164" v:mID="200" v:groupContext="shape" transform="translate(48.2592,-20.6301)">
					<title>Sheet.200</title>
					<path d="M0 508.57 C0.03 508.73 0.05 508.9 0.05 509.07 L0.05 508.57 L0 508.57 Z" class="st23"/>
				</g>
			</g>
		</g>
		<g id="shape201-166" v:mID="201" v:groupContext="shape" transform="translate(952.77,-205.722)">
			<title>Sheet.201</title>
			<desc>DB</desc>
			<v:textBlock v:margins="rect(4,4,4,4)" v:tabSpace="42.5197"/>
			<v:textRect cx="19.235" cy="503.073" width="38.47" height="11.9964"/>
			<rect x="0" y="497.075" width="38.47" height="11.9964" class="st9"/>
			<text x="10.9" y="507.27" class="st5" v:langID="2070"><v:paragraph v:horizAlign="1"/><v:tabList/>DB</text>		</g>
		<g id="shape202-169" v:mID="202" v:groupContext="shape" v:layerMember="0" transform="translate(526.377,-363.675)">
			<title>Dynamic connector.193</title>
			<path d="M0 509.07 L-55.6 450.19" class="st1"/>
		</g>
		<g id="shape203-172" v:mID="203" v:groupContext="shape" v:layerMember="0" transform="translate(573.074,-363.804)">
			<title>Dynamic connector.194</title>
			<path d="M0 509.07 L55.02 450.32" class="st1"/>
		</g>
		<g id="shape204-175" v:mID="204" v:groupContext="shape" transform="translate(470.772,-390.217)">
			<title>Rectangle.117</title>
			<desc>- Node Discovery - RPC requests - Ephemeral Events</desc>
			<v:userDefs>
				<v:ud v:nameU="visVersion" v:val="VT0(15):26"/>
			</v:userDefs>
			<v:textBlock v:margins="rect(4,4,4,4)" v:tabSpace="42.5197"/>
			<v:textRect cx="78.6614" cy="476.735" width="157.33" height="64.6713"/>
			<path d="M0 509.07 L157.32 509.07 L157.32 444.4 L0 444.4 L0 509.07 Z" class="st18"/>
			<text x="4" y="464.14" class="st19" v:langID="2070"><v:paragraph/><v:tabList/>- Node Discovery<v:newlineChar/><tspan
						x="4" dy="1.2em" class="st6">-</tspan> RPC requests<v:lf/><tspan x="4" dy="1.2em" class="st6">-</tspan> Ephemeral Events</text>		</g>
		<g id="shape205-180" v:mID="205" v:groupContext="shape" v:layerMember="0" transform="translate(527.259,-169.63)">
			<title>Dynamic connector.205</title>
			<path d="M0 509.07 L-41.6 460.43" class="st1"/>
		</g>
		<g id="shape207-183" v:mID="207" v:groupContext="shape" transform="translate(485.654,-195.307)">
			<title>Rectangle.207</title>
			<desc>Persistent Events</desc>
			<v:userDefs>
				<v:ud v:nameU="visVersion" v:val="VT0(15):26"/>
			</v:userDefs>
			<v:textBlock v:margins="rect(4,4,4,4)" v:tabSpace="42.5197"/>
			<v:textRect cx="63.7795" cy="486.11" width="127.56" height="45.9213"/>
			<path d="M0 509.07 L127.56 509.07 L127.56 463.15 L0 463.15 L0 509.07 Z" class="st18"/>
			<text x="8.01" y="490.31" class="st19" v:langID="2070"><v:paragraph v:horizAlign="1"/><v:tabList/>Persistent Events</text>		</g>
		<g id="shape75-186" v:mID="75" v:groupContext="shape" v:layerMember="0" transform="translate(218.619,-337.832)">
			<title>Dynamic connector.67</title>
			<path d="M-6.67 502.46 L-7.03 502.46 L-118.3 501.51" class="st24"/>
		</g>
		<g id="group213-193" transform="translate(22.7812,-310.501)" v:mID="213" v:groupContext="group">
			<title>Sheet.213</title>
			<g id="shape214-194" v:mID="214" v:groupContext="shape">
				<title>Sheet.214</title>
				<ellipse cx="35.2531" cy="473.818" rx="35.2531" ry="35.2531" class="st25"/>
			</g>
			<g id="shape215-196" v:mID="215" v:groupContext="shape" transform="translate(10.4966,-17.1049)">
				<title>Sheet.215</title>
				<path d="M47.31 509.07 L2.2 509.07 C0.99 509.07 0 508.08 0 506.87 L0 474.98 C0 473.76 0.99 472.77 2.2 472.77 L47.31
							 472.77 C48.53 472.77 49.51 473.76 49.51 474.98 L49.51 506.87 C49.51 508.08 48.53 509.07 47.31 509.07
							 Z" class="st26"/>
			</g>
			<g id="shape216-198" v:mID="216" v:groupContext="shape" transform="translate(10.4966,-47.3416)">
				<title>Sheet.216</title>
				<path d="M49.51 509.07 L49.51 505.21 C49.51 504 48.53 503.01 47.31 503.01 L2.2 503.01 C0.99 503.01 0 504 0 505.21
							 L0 509.07 L49.51 509.07 Z" class="st27"/>
			</g>
			<g id="shape217-200" v:mID="217" v:groupContext="shape" transform="translate(12.1182,-48.7192)">
				<title>Sheet.217</title>
				<ellipse cx="1.65249" cy="507.418" rx="1.65249" ry="1.65249" class="st28"/>
			</g>
			<g id="shape218-202" v:mID="218" v:groupContext="shape" transform="translate(17.0757,-48.7192)">
				<title>Sheet.218</title>
				<ellipse cx="1.65249" cy="507.418" rx="1.65249" ry="1.65249" class="st29"/>
			</g>
			<g id="shape219-204" v:mID="219" v:groupContext="shape" transform="translate(22.0337,-48.7192)">
				<title>Sheet.219</title>
				<ellipse cx="1.65249" cy="507.418" rx="1.65249" ry="1.65249" class="st30"/>
			</g>
			<g id="group220-206" transform="translate(17.0019,-23.5722)" v:mID="220" v:groupContext="group">
				<title>Sheet.220</title>
				<g id="shape221-207" v:mID="221" v:groupContext="shape" transform="translate(0,-2.11904)">
					<title>Sheet.221</title>
					<path d="M0 501.05 L12.45 495.27 L12.45 498.02 L3.04 502.14 L3.04 502.2 L12.45 506.32 L12.45 509.07 L0 503.28
								 L0 501.05 Z" class="st31"/>
				</g>
				<g id="shape222-209" v:mID="222" v:groupContext="shape" transform="translate(14.3722,0)">
					<title>Sheet.222</title>
					<path d="M0 509.07 L5.55 490.26 L8.17 490.26 L2.62 509.07 L0 509.07 Z" class="st31"/>
				</g>
				<g id="shape223-211" v:mID="223" v:groupContext="shape" transform="translate(24.0481,-2.11904)">
					<title>Sheet.223</title>
					<path d="M12.45 503.36 L0 509.07 L0 506.32 L9.63 502.2 L9.63 502.14 L0 498.02 L0 495.27 L12.45 500.98 L12.45
								 503.36 L12.45 503.36 Z" class="st31"/>
				</g>
			</g>
		</g>
		<g id="group163-213" transform="translate(503.847,-87.874)" v:mID="163" v:groupContext="group">
			<title>Sheet.163</title>
			<g id="group164-214" transform="translate(8.45539,-22.5896)" v:mID="164" v:groupContext="group">
				<title>Sheet.164</title>
				<g id="shape165-215" v:mID="165" v:groupContext="shape" transform="translate(0.657184,-1.02318E-12)">
					<title>Sheet.165</title>
					<path d="M16.15 505.76 L1.17 479.53 C0 477.48 0 474.95 1.17 472.9 L16.15 446.67 C17.32 444.62 19.49 443.35 21.83
								 443.35 L51.78 443.35 C54.12 443.35 56.29 444.62 57.46 446.67 L72.43 472.9 C73.6 474.95 73.6 477.48
								 72.43 479.53 L57.46 505.76 C56.29 507.81 54.12 509.07 51.78 509.07 L21.83 509.07 C19.49 509.07 17.32
								 507.81 16.15 505.76 Z" class="st7"/>
				</g>
				<g id="shape166-217" v:mID="166" v:groupContext="shape" transform="translate(-3.67706E-13,-0.985776)">
					<title>Sheet.166</title>
					<path d="M16.15 505.76 L1.17 479.53 C0 477.48 0 474.95 1.17 472.9 L16.15 446.67 C17.32 444.62 19.49 443.35 21.83
								 443.35 L51.78 443.35 C54.12 443.35 56.29 444.62 57.46 446.67 L72.43 472.9 C73.6 474.95 73.6 477.48
								 72.43 479.53 L57.46 505.76 C56.29 507.81 54.12 509.07 51.78 509.07 L21.83 509.07 C19.49 509.07 17.32
								 507.81 16.15 505.76 Z" class="st32"/>
				</g>
				<g id="shape167-219" v:mID="167" v:groupContext="shape" transform="translate(23.1526,-1.15336)">
					<title>Sheet.167</title>
					<path d="M16 462.64 L13.73 462.22 L11.38 467.24 L13.36 469.25 L12.8 472.49 L16.06 475.78 L7.2 476.7 L4.59 474.06
								 L0 478.71 L30.03 509.07 C31.83 508.68 33.38 507.53 34.31 505.92 L43.27 490.23 L16 462.64 Z"
							class="st13"/>
				</g>
				<g id="shape168-221" v:mID="168" v:groupContext="shape" transform="translate(33.5598,-42.0635)">
					<title>Sheet.168</title>
					<ellipse cx="3.24584" cy="505.789" rx="3.24584" ry="3.28217" class="st14"/>
				</g>
				<g id="shape169-223" v:mID="169" v:groupContext="shape" transform="translate(33.5598,-19.0621)">
					<title>Sheet.169</title>
					<ellipse cx="3.24584" cy="505.789" rx="3.24584" ry="3.28217" class="st14"/>
				</g>
				<g id="shape170-225" v:mID="170" v:groupContext="shape" transform="translate(22.059,-30.5628)">
					<title>Sheet.170</title>
					<ellipse cx="3.24584" cy="505.789" rx="3.24584" ry="3.28217" class="st14"/>
				</g>
				<g id="shape171-227" v:mID="171" v:groupContext="shape" transform="translate(45.0605,-30.5628)">
					<title>Sheet.171</title>
					<ellipse cx="3.24584" cy="505.789" rx="3.24584" ry="3.28217" class="st14"/>
				</g>
				<g id="shape172-229" v:mID="172" v:groupContext="shape" transform="translate(22.5644,-21.4571)">
					<title>Sheet.172</title>
					<path d="M13.42 509.07 L0 495.62 L22.81 495.62 L13.42 486.1 L15.07 484.33 L28.48 497.75 L5.66 497.75 L15.07 507.31
								 L13.42 509.07 Z" class="st14"/>
				</g>
				<g id="shape173-231" v:mID="173" v:groupContext="shape" transform="translate(35.9513,-22.1668)">
					<title>Sheet.173</title>
					<rect x="0" y="501.29" width="1.39652" height="7.78106" class="st14"/>
				</g>
				<g id="shape174-233" v:mID="174" v:groupContext="shape" transform="translate(35.9513,-37.7289)">
					<title>Sheet.174</title>
					<rect x="0" y="501.29" width="1.39652" height="7.78106" class="st14"/>
				</g>
			</g>
			<g id="shape175-235" v:mID="175" v:groupContext="shape" transform="translate(1.59872E-14,3.05437)">
				<title>Sheet.175</title>
				<desc>Event Stream Broker</desc>
				<v:textBlock v:margins="rect(4,4,4,4)" v:tabSpace="42.5197"/>
				<v:textRect cx="45.5863" cy="499.911" width="91.18" height="18.3201"/>
				<rect x="0" y="490.751" width="91.1726" height="18.3201" class="st9"/>
				<text x="6.67" y="495.71" class="st5" v:langID="2070"><v:paragraph v:horizAlign="1"/><v:tabList/>Event Stream<v:lf/><tspan
							x="26.04" dy="1.2em" class="st6">Broker</tspan></text>			</g>
		</g>
		<g id="group237-239" transform="translate(703.922,-359.754)" v:mID="237" v:groupContext="group">
			<title>Sheet.237</title>
			<g id="group226-240" v:mID="226" v:groupContext="group">
				<title>Sheet.226</title>
				<g id="shape78-241" v:mID="78" v:groupContext="shape">
					<title>Sheet.78</title>
					<path d="M0 489.49 A22.0365 19.5855 -180 0 0 22.04 509.07 L278.77 509.07 A22.0365 19.5855 -180 0 0 300.81 489.49
								 L300.81 398.09 A22.0365 19.5855 -180 0 0 278.77 378.5 L22.04 378.5 A22.0365 19.5855 -180 0 0 -0
								 398.09 L0 489.49 Z" class="st2"/>
				</g>
				<g id="group79-243" transform="translate(13.1117,-18.8939)" v:mID="79" v:groupContext="group">
					<title>Sheet.79</title>
					<g id="shape80-244" v:mID="80" v:groupContext="shape" transform="translate(0.322164,0)">
						<title>Sheet.80</title>
						<rect x="0" y="425.308" width="72.4869" height="83.7626" class="st3"/>
					</g>
					<g id="shape81-246" v:mID="81" v:groupContext="shape" transform="translate(0,-0.483246)">
						<title>Sheet.81</title>
						<desc>Service Broker</desc>
						<v:textBlock v:margins="rect(0,0,0,0)" v:tabSpace="42.5197"/>
						<v:textRect cx="36.2434" cy="467.19" width="72.49" height="83.7626"/>
						<rect x="0" y="425.308" width="72.4869" height="83.7626" class="st4"/>
						<text x="15.44" y="462.99" class="st5" v:langID="2070"><v:paragraph v:horizAlign="1"/><v:tabList/>Service<v:lf/><tspan
									x="16.7" dy="1.2em" class="st6">Broker</tspan></text>					</g>
				</g>
				<g id="group82-250" transform="translate(156.01,-9.4436)" v:mID="82" v:groupContext="group">
					<title>Sheet.82</title>
					<g id="shape83-251" v:mID="83" v:groupContext="shape" transform="translate(8.20069,-16.8642)">
						<title>Sheet.83</title>
						<path d="M16.39 505.78 L1.19 479.65 C0 477.6 0 475.08 1.19 473.03 L16.39 446.9 C17.58 444.85 19.78 443.59
									 22.17 443.58 L52.58 443.58 C54.97 443.57 57.18 444.83 58.38 446.88 L73.58 473.02 C74.77 475.06
									 74.77 477.58 73.58 479.63 L58.38 505.76 C57.18 507.81 54.97 509.07 52.58 509.07 L22.17 509.07
									 C19.79 509.07 17.59 507.82 16.39 505.78 Z" class="st7"/>
					</g>
					<g id="shape84-253" v:mID="84" v:groupContext="shape" transform="translate(7.04135,-18.6032)">
						<title>Sheet.84</title>
						<path d="M16.39 505.78 L1.19 479.65 C0 477.6 0 475.08 1.19 473.03 L16.39 446.9 C17.58 444.85 19.78 443.59
									 22.17 443.58 L52.58 443.58 C54.97 443.57 57.18 444.83 58.38 446.88 L73.58 473.02 C74.77 475.06
									 74.77 477.58 73.58 479.63 L58.38 505.76 C57.18 507.81 54.97 509.07 52.58 509.07 L22.17 509.07
									 C19.79 509.07 17.59 507.82 16.39 505.78 Z" class="st8"/>
					</g>
					<g id="shape85-256" v:mID="85" v:groupContext="shape" transform="translate(-8.27199,0)">
						<title>Sheet.85</title>
						<desc>Greeter Service</desc>
						<v:textBlock v:margins="rect(4,4,4,4)" v:tabSpace="42.5197"/>
						<v:textRect cx="53.8583" cy="503.073" width="107.72" height="11.9964"/>
						<rect x="0" y="497.075" width="107.717" height="11.9964" class="st9"/>
						<text x="9.04" y="507.27" class="st5" v:langID="2070"><v:paragraph v:horizAlign="1"/><v:tabList/>Greeter Service</text>					</g>
				</g>
				<g id="shape97-259" v:mID="97" v:groupContext="shape" v:layerMember="0" transform="translate(163.35,-53.9414)">
					<title>Dynamic connector.97</title>
					<path d="M-6.67 502.08 L-7.03 502.08 L-70.72 501.89" class="st10"/>
				</g>
			</g>
			<g id="shape161-266" v:mID="161" v:groupContext="shape" transform="translate(8.7874,-110.567)">
				<title>Sheet.161</title>
				<desc>Node 2</desc>
				<v:textBlock v:margins="rect(4,4,4,4)" v:tabSpace="42.5197"/>
				<v:textRect cx="30.8976" cy="499.071" width="61.8" height="20"/>
				<rect x="0" y="489.071" width="61.7953" height="20" class="st9"/>
				<text x="10.11" y="503.27" class="st5" v:langID="2070"><v:paragraph v:horizAlign="1"/><v:tabList/>Node 2</text>			</g>
		</g>
		<g id="group238-269" transform="translate(707.08,-18.75)" v:mID="238" v:groupContext="group">
			<title>Sheet.238</title>
			<g id="group239-270" v:mID="239" v:groupContext="group">
				<title>Sheet.239</title>
				<g id="shape240-271" v:mID="240" v:groupContext="shape">
					<title>Sheet.240</title>
					<path d="M0 489.49 A22.0365 19.5855 -180 0 0 22.04 509.07 L278.77 509.07 A22.0365 19.5855 -180 0 0 300.81 489.49
								 L300.81 398.09 A22.0365 19.5855 -180 0 0 278.77 378.5 L22.04 378.5 A22.0365 19.5855 -180 0 0 -0
								 398.09 L0 489.49 Z" class="st2"/>
				</g>
				<g id="group241-273" transform="translate(13.1117,-18.8939)" v:mID="241" v:groupContext="group">
					<title>Sheet.241</title>
					<g id="shape242-274" v:mID="242" v:groupContext="shape" transform="translate(0.322164,0)">
						<title>Sheet.242</title>
						<rect x="0" y="425.308" width="72.4869" height="83.7626" class="st3"/>
					</g>
					<g id="shape243-276" v:mID="243" v:groupContext="shape" transform="translate(0,-0.483246)">
						<title>Sheet.243</title>
						<desc>Service Broker</desc>
						<v:textBlock v:margins="rect(0,0,0,0)" v:tabSpace="42.5197"/>
						<v:textRect cx="36.2434" cy="467.19" width="72.49" height="83.7626"/>
						<rect x="0" y="425.308" width="72.4869" height="83.7626" class="st4"/>
						<text x="15.44" y="462.99" class="st5" v:langID="2070"><v:paragraph v:horizAlign="1"/><v:tabList/>Service<v:lf/><tspan
									x="16.7" dy="1.2em" class="st6">Broker</tspan></text>					</g>
				</g>
				<g id="group244-280" transform="translate(156.01,-9.4436)" v:mID="244" v:groupContext="group">
					<title>Sheet.244</title>
					<g id="shape245-281" v:mID="245" v:groupContext="shape" transform="translate(8.20069,-16.8642)">
						<title>Sheet.245</title>
						<path d="M16.39 505.78 L1.19 479.65 C0 477.6 0 475.08 1.19 473.03 L16.39 446.9 C17.58 444.85 19.78 443.59
									 22.17 443.58 L52.58 443.58 C54.97 443.57 57.18 444.83 58.38 446.88 L73.58 473.02 C74.77 475.06
									 74.77 477.58 73.58 479.63 L58.38 505.76 C57.18 507.81 54.97 509.07 52.58 509.07 L22.17 509.07
									 C19.79 509.07 17.59 507.82 16.39 505.78 Z" class="st7"/>
					</g>
					<g id="shape246-283" v:mID="246" v:groupContext="shape" transform="translate(7.04135,-18.6032)">
						<title>Sheet.246</title>
						<path d="M16.39 505.78 L1.19 479.65 C0 477.6 0 475.08 1.19 473.03 L16.39 446.9 C17.58 444.85 19.78 443.59
									 22.17 443.58 L52.58 443.58 C54.97 443.57 57.18 444.83 58.38 446.88 L73.58 473.02 C74.77 475.06
									 74.77 477.58 73.58 479.63 L58.38 505.76 C57.18 507.81 54.97 509.07 52.58 509.07 L22.17 509.07
									 C19.79 509.07 17.59 507.82 16.39 505.78 Z" class="st8"/>
					</g>
					<g id="shape247-286" v:mID="247" v:groupContext="shape" transform="translate(-6.91696,0)">
						<title>Sheet.247</title>
						<desc>Inventory Service</desc>
						<v:textBlock v:margins="rect(4,4,4,4)" v:tabSpace="42.5197"/>
						<v:textRect cx="57.0628" cy="503.073" width="114.13" height="11.9964"/>
						<rect x="0" y="497.075" width="114.126" height="11.9964" class="st9"/>
						<text x="6.47" y="507.27" class="st5" v:langID="2070"><v:paragraph v:horizAlign="1"/><v:tabList/>Inventory Service</text>					</g>
				</g>
				<g id="shape248-289" v:mID="248" v:groupContext="shape" v:layerMember="0" transform="translate(163.35,-53.9414)">
					<title>Dynamic connector.97</title>
					<path d="M-6.67 502.08 L-7.03 502.08 L-70.72 501.89" class="st10"/>
				</g>
			</g>
			<g id="shape249-296" v:mID="249" v:groupContext="shape" transform="translate(8.7874,-110.567)">
				<title>Sheet.249</title>
				<desc>Node 4</desc>
				<v:textBlock v:margins="rect(4,4,4,4)" v:tabSpace="42.5197"/>
				<v:textRect cx="30.8976" cy="499.071" width="61.8" height="20"/>
				<rect x="0" y="489.071" width="61.7953" height="20" class="st9"/>
				<text x="10.11" y="503.27" class="st5" v:langID="2070"><v:paragraph v:horizAlign="1"/><v:tabList/>Node 4</text>			</g>
		</g>
		<g id="shape177-299" v:mID="177" v:groupContext="shape" v:layerMember="0" transform="translate(581.671,-133.488)">
			<title>Dynamic connector.177</title>
			<path d="M6.38 511.04 L6.72 511.14 L132.12 549.79" class="st16"/>
		</g>
		<g id="shape251-306" v:mID="251" v:groupContext="shape" v:layerMember="0" transform="translate(571.638,-311.508)">
			<title>Dynamic connector.251</title>
			<path d="M4.16 514.29 L4.39 514.57 L146.98 693.19" class="st15"/>
		</g>
		<g id="shape158-313" v:mID="158" v:groupContext="shape" v:layerMember="0" transform="translate(580.26,-351.216)">
			<title>Dynamic connector.158</title>
			<path d="M6.19 506.57 L6.52 506.44 L130.25 456.53" class="st15"/>
		</g>
	</g>
</svg>
