<?xml version="1.0" encoding="UTF-8" standalone="no"?>
<!DOCTYPE svg PUBLIC "-//W3C//DTD SVG 1.1//EN" "http://www.w3.org/Graphics/SVG/1.1/DTD/svg11.dtd">
<!-- Generated by Microsoft Visio, SVG Export greeter.svg greeter -->
<svg xmlns="http://www.w3.org/2000/svg" xmlns:xlink="http://www.w3.org/1999/xlink" xmlns:ev="http://www.w3.org/2001/xml-events"
		xmlns:v="http://schemas.microsoft.com/visio/2003/SVGExtensions/" width="7.93693in" height="2.9699in"
		viewBox="0 0 571.459 213.833" xml:space="preserve" color-interpolation-filters="sRGB" class="st18">
	<v:documentProperties v:langID="2070" v:metric="true" v:viewMarkup="false">
		<v:userDefs>
			<v:ud v:nameU="msvNoAutoConnect" v:val="VT0(1):26"/>
		</v:userDefs>
	</v:documentProperties>

	<style type="text/css">
	<![CDATA[
		.st1 {fill:#000000;fill-opacity:0.25;stroke:none;stroke-linecap:butt;stroke-width:0.75}
		.st2 {fill:url(#grad0-8);stroke:none;stroke-linecap:butt;stroke-width:0.75}
		.st3 {fill:#000000;fill-opacity:0.067;stroke:none;stroke-linecap:butt;stroke-width:0.75}
		.st4 {fill:#ffffff;stroke:none;stroke-linecap:butt;stroke-width:0.75}
		.st5 {fill:none;stroke:none;stroke-linecap:round;stroke-linejoin:round;stroke-width:0.75}
		.st6 {fill:#000000;font-family:Calibri;font-size:1.16666em;font-weight:bold}
		.st7 {stroke:#000000;stroke-linecap:round;stroke-linejoin:round;stroke-width:1.5}
		.st8 {fill:#ffffff;stroke:#000000;stroke-dasharray:1.5,3;stroke-linecap:round;stroke-linejoin:round;stroke-width:1.5}
		.st9 {fill:#000000;font-family:Segoe UI;font-size:1.16666em;font-weight:bold}
		.st10 {font-size:1em}
		.st11 {fill:#dae8fc;stroke:#6c8ebf;stroke-linecap:butt;stroke-width:0.75}
		.st12 {fill:#000000;fill-opacity:0.25;stroke:#000000;stroke-linecap:butt;stroke-opacity:0.25;stroke-width:0.75}
		.st13 {fill:#fff2cc;stroke:#d6b656;stroke-linecap:butt;stroke-width:0.75}
		.st14 {fill:url(#grad0-56);stroke:none;stroke-linecap:butt;stroke-width:0.75}
		.st15 {marker-end:url(#mrkr5-68);marker-start:url(#mrkr5-66);stroke:#000000;stroke-linecap:round;stroke-linejoin:round;stroke-width:1.5}
		.st16 {fill:#000000;fill-opacity:1;stroke:#000000;stroke-opacity:1;stroke-width:0.37313432835821}
		.st17 {marker-end:url(#mrkr5-68);marker-start:url(#mrkr5-66);stroke:#000000;stroke-dasharray:1.5,3;stroke-linecap:round;stroke-linejoin:round;stroke-width:1.5}
		.st18 {fill:none;fill-rule:evenodd;font-size:12px;overflow:visible;stroke-linecap:square;stroke-miterlimit:3}
	]]>
	</style>

	<defs id="Patterns_And_Gradients">
		<linearGradient id="grad0-8" x1="0" y1="0" x2="1" y2="0" gradientTransform="rotate(90 0.5 0.5)">
			<stop offset="0" stop-color="#fd9e3f" stop-opacity="1"/>
			<stop offset="1" stop-color="#ea9f49" stop-opacity="1"/>
		</linearGradient>
		<linearGradient id="grad0-56" x1="0" y1="0" x2="1" y2="0" gradientTransform="rotate(90 0.5 0.5)">
			<stop offset="0" stop-color="#4387fd" stop-opacity="1"/>
			<stop offset="1" stop-color="#4683ea" stop-opacity="1"/>
		</linearGradient>
	</defs>
	<defs id="Markers">
		<g id="lend5">
			<path d="M 2 1 L 0 0 L 1.98117 -0.993387 C 1.67173 -0.364515 1.67301 0.372641 1.98465 1.00043 " style="stroke:none"/>
		</g>
		<marker id="mrkr5-66" class="st16" v:arrowType="5" v:arrowSize="2" v:setback="4.45" refX="4.45" orient="auto"
				markerUnits="strokeWidth" overflow="visible">
			<use xlink:href="#lend5" transform="scale(2.68) "/>
		</marker>
		<marker id="mrkr5-68" class="st16" v:arrowType="5" v:arrowSize="2" v:setback="4.69" refX="-4.69" orient="auto"
				markerUnits="strokeWidth" overflow="visible">
			<use xlink:href="#lend5" transform="scale(-2.68,-2.68) "/>
		</marker>
	</defs>
	<g v:mID="17" v:index="24" v:groupContext="foregroundPage">
		<title>greeter</title>
		<v:pageProperties v:drawingScale="0.0393701" v:pageScale="0.0393701" v:drawingUnits="24" v:shadowOffsetX="9"
				v:shadowOffsetY="-9"/>
		<v:layer v:name="Connector" v:index="0"/>
		<g id="group11-1" transform="translate(51.8251,-23.6595)" v:mID="11" v:groupContext="group">
			<title>Sheet.11</title>
			<g id="group12-2" transform="translate(8.45539,-22.5896)" v:mID="12" v:groupContext="group">
				<title>Sheet.12</title>
				<g id="shape13-3" v:mID="13" v:groupContext="shape" transform="translate(0.657184,-9.9476E-13)">
					<title>Sheet.13</title>
					<path d="M16.15 210.52 L1.17 184.29 C0 182.24 0 179.71 1.17 177.66 L16.15 151.43 C17.32 149.38 19.49 148.11 21.83
								 148.11 L51.78 148.11 C54.12 148.11 56.29 149.38 57.46 151.43 L72.43 177.66 C73.6 179.71 73.6 182.24
								 72.43 184.29 L57.46 210.52 C56.29 212.57 54.12 213.83 51.78 213.83 L21.83 213.83 C19.49 213.83 17.32
								 212.57 16.15 210.52 Z" class="st1"/>
				</g>
				<g id="shape14-5" v:mID="14" v:groupContext="shape" transform="translate(-3.67706E-13,-0.985776)">
					<title>Sheet.14</title>
					<path d="M16.15 210.52 L1.17 184.29 C0 182.24 0 179.71 1.17 177.66 L16.15 151.43 C17.32 149.38 19.49 148.11 21.83
								 148.11 L51.78 148.11 C54.12 148.11 56.29 149.38 57.46 151.43 L72.43 177.66 C73.6 179.71 73.6 182.24
								 72.43 184.29 L57.46 210.52 C56.29 212.57 54.12 213.83 51.78 213.83 L21.83 213.83 C19.49 213.83 17.32
								 212.57 16.15 210.52 Z" class="st2"/>
				</g>
				<g id="shape15-9" v:mID="15" v:groupContext="shape" transform="translate(23.1526,-1.15336)">
					<title>Sheet.15</title>
					<path d="M16 167.4 L13.73 166.98 L11.38 172.01 L13.36 174.01 L12.8 177.25 L16.06 180.54 L7.2 181.47 L4.59 178.82
								 L0 183.47 L30.03 213.83 C31.83 213.44 33.38 212.29 34.31 210.68 L43.27 194.99 L16 167.4 Z"
							class="st3"/>
				</g>
				<g id="shape16-11" v:mID="16" v:groupContext="shape" transform="translate(33.5598,-42.0635)">
					<title>Sheet.16</title>
					<ellipse cx="3.24584" cy="210.551" rx="3.24584" ry="3.28217" class="st4"/>
				</g>
				<g id="shape17-13" v:mID="17" v:groupContext="shape" transform="translate(33.5598,-19.0621)">
					<title>Sheet.17</title>
					<ellipse cx="3.24584" cy="210.551" rx="3.24584" ry="3.28217" class="st4"/>
				</g>
				<g id="shape18-15" v:mID="18" v:groupContext="shape" transform="translate(22.059,-30.5628)">
					<title>Sheet.18</title>
					<ellipse cx="3.24584" cy="210.551" rx="3.24584" ry="3.28217" class="st4"/>
				</g>
				<g id="shape19-17" v:mID="19" v:groupContext="shape" transform="translate(45.0605,-30.5628)">
					<title>Sheet.19</title>
					<ellipse cx="3.24584" cy="210.551" rx="3.24584" ry="3.28217" class="st4"/>
				</g>
				<g id="shape20-19" v:mID="20" v:groupContext="shape" transform="translate(22.5644,-21.4571)">
					<title>Sheet.20</title>
					<path d="M13.42 213.83 L0 200.39 L22.81 200.39 L13.42 190.86 L15.07 189.1 L28.48 202.51 L5.66 202.51 L15.07 212.07
								 L13.42 213.83 Z" class="st4"/>
				</g>
				<g id="shape21-21" v:mID="21" v:groupContext="shape" transform="translate(35.9513,-22.1668)">
					<title>Sheet.21</title>
					<rect x="0" y="206.052" width="1.39652" height="7.78106" class="st4"/>
				</g>
				<g id="shape22-23" v:mID="22" v:groupContext="shape" transform="translate(35.9513,-37.7289)">
					<title>Sheet.22</title>
					<rect x="0" y="206.052" width="1.39652" height="7.78106" class="st4"/>
				</g>
			</g>
			<g id="shape23-25" v:mID="23" v:groupContext="shape">
				<title>Sheet.23</title>
				<desc>Transporter</desc>
				<v:textBlock v:margins="rect(4,4,4,4)" v:tabSpace="42.5197"/>
				<v:textRect cx="45.5863" cy="204.673" width="91.18" height="18.3201"/>
				<rect x="0" y="195.513" width="91.1726" height="18.3201" class="st5"/>
				<text x="11.18" y="208.87" class="st6" v:langID="2070"><v:paragraph v:horizAlign="1"/><v:tabList/>Transporter</text>			</g>
		</g>
		<g id="shape43-28" v:mID="43" v:groupContext="shape" v:layerMember="0" transform="translate(74.3546,-103.87)">
			<title>Dynamic connector.193</title>
			<path d="M0 213.83 L-55.6 154.96" class="st7"/>
		</g>
		<g id="shape44-31" v:mID="44" v:groupContext="shape" v:layerMember="0" transform="translate(121.052,-103.999)">
			<title>Dynamic connector.194</title>
			<path d="M0 213.83 L55.02 155.08" class="st7"/>
		</g>
		<g id="shape45-34" v:mID="45" v:groupContext="shape" transform="translate(18.75,-130.412)">
			<title>Rectangle.117</title>
			<desc>- Node Discovery - RPC requests - Ephemeral Events</desc>
			<v:userDefs>
				<v:ud v:nameU="visVersion" v:val="VT0(15):26"/>
			</v:userDefs>
			<v:textBlock v:margins="rect(4,4,4,4)" v:tabSpace="42.5197"/>
			<v:textRect cx="78.6614" cy="181.497" width="157.33" height="64.6713"/>
			<path d="M0 213.83 L157.32 213.83 L157.32 149.16 L0 149.16 L0 213.83 Z" class="st8"/>
			<text x="4" y="168.9" class="st9" v:langID="2070"><v:paragraph/><v:tabList/>- Node Discovery<v:newlineChar/><tspan
						x="4" dy="1.2em" class="st10">-</tspan> RPC requests<v:lf/><tspan x="4" dy="1.2em" class="st10">-</tspan> Ephemeral Events</text>		</g>
		<g id="group46-39" transform="translate(251.9,-18.75)" v:mID="46" v:groupContext="group">
			<title>Sheet.46</title>
			<g id="group47-40" v:mID="47" v:groupContext="group">
				<title>Sheet.47</title>
				<g id="shape48-41" v:mID="48" v:groupContext="shape">
					<title>Sheet.48</title>
					<path d="M0 194.25 A22.0365 19.5855 -180 0 0 22.04 213.83 L278.77 213.83 A22.0365 19.5855 -180 0 0 300.81 194.25
								 L300.81 102.85 A22.0365 19.5855 -180 0 0 278.77 83.27 L22.04 83.27 A22.0365 19.5855 -180 0 0 -0
								 102.85 L0 194.25 Z" class="st11"/>
				</g>
				<g id="group49-43" transform="translate(13.1117,-18.8939)" v:mID="49" v:groupContext="group">
					<title>Sheet.49</title>
					<g id="shape50-44" v:mID="50" v:groupContext="shape" transform="translate(0.322164,0)">
						<title>Sheet.50</title>
						<rect x="0" y="130.07" width="72.4869" height="83.7626" class="st12"/>
					</g>
					<g id="shape51-46" v:mID="51" v:groupContext="shape" transform="translate(0,-0.483246)">
						<title>Sheet.51</title>
						<desc>Service Broker</desc>
						<v:textBlock v:margins="rect(0,0,0,0)" v:tabSpace="42.5197"/>
						<v:textRect cx="36.2434" cy="171.951" width="72.49" height="83.7626"/>
						<rect x="0" y="130.07" width="72.4869" height="83.7626" class="st13"/>
						<text x="15.44" y="167.75" class="st6" v:langID="2070"><v:paragraph v:horizAlign="1"/><v:tabList/>Service<v:lf/><tspan
									x="16.7" dy="1.2em" class="st10">Broker</tspan></text>					</g>
				</g>
				<g id="group52-50" transform="translate(156.01,-9.4436)" v:mID="52" v:groupContext="group">
					<title>Sheet.52</title>
					<g id="shape53-51" v:mID="53" v:groupContext="shape" transform="translate(8.20069,-16.8642)">
						<title>Sheet.53</title>
						<path d="M16.39 210.54 L1.19 184.41 C0 182.36 0 179.84 1.19 177.79 L16.39 151.66 C17.58 149.61 19.78 148.35
									 22.17 148.34 L52.58 148.34 C54.97 148.34 57.18 149.59 58.38 151.65 L73.58 177.78 C74.77 179.82
									 74.77 182.35 73.58 184.39 L58.38 210.52 C57.18 212.57 54.97 213.83 52.58 213.83 L22.17 213.83
									 C19.79 213.83 17.59 212.58 16.39 210.54 Z" class="st1"/>
					</g>
					<g id="shape54-53" v:mID="54" v:groupContext="shape" transform="translate(7.04135,-18.6032)">
						<title>Sheet.54</title>
						<path d="M16.39 210.54 L1.19 184.41 C0 182.36 0 179.84 1.19 177.79 L16.39 151.66 C17.58 149.61 19.78 148.35
									 22.17 148.34 L52.58 148.34 C54.97 148.34 57.18 149.59 58.38 151.65 L73.58 177.78 C74.77 179.82
									 74.77 182.35 73.58 184.39 L58.38 210.52 C57.18 212.57 54.97 213.83 52.58 213.83 L22.17 213.83
									 C19.79 213.83 17.59 212.58 16.39 210.54 Z" class="st14"/>
					</g>
					<g id="shape55-57" v:mID="55" v:groupContext="shape" transform="translate(-8.27199,0)">
						<title>Sheet.55</title>
						<desc>Greeter Service</desc>
						<v:textBlock v:margins="rect(4,4,4,4)" v:tabSpace="42.5197"/>
						<v:textRect cx="53.8583" cy="207.835" width="107.72" height="11.9964"/>
						<rect x="0" y="201.836" width="107.717" height="11.9964" class="st5"/>
						<text x="9.04" y="212.03" class="st6" v:langID="2070"><v:paragraph v:horizAlign="1"/><v:tabList/>Greeter Service</text>					</g>
				</g>
				<g id="shape56-60" v:mID="56" v:groupContext="shape" v:layerMember="0" transform="translate(163.35,-53.9414)">
					<title>Dynamic connector.97</title>
					<path d="M-6.67 206.84 L-7.03 206.84 L-70.72 206.65" class="st15"/>
				</g>
			</g>
			<g id="shape57-69" v:mID="57" v:groupContext="shape" transform="translate(8.7874,-110.567)">
				<title>Sheet.57</title>
				<desc>Node 1</desc>
				<v:textBlock v:margins="rect(4,4,4,4)" v:tabSpace="42.5197"/>
				<v:textRect cx="30.8976" cy="203.833" width="61.8" height="20"/>
				<rect x="0" y="193.833" width="61.7953" height="20" class="st5"/>
				<text x="10.11" y="208.03" class="st6" v:langID="2070"><v:paragraph v:horizAlign="1"/><v:tabList/>Node 1</text>			</g>
		</g>
		<g id="shape58-72" v:mID="58" v:groupContext="shape" v:layerMember="0" transform="translate(134.247,-72.4723)">
			<title>Dynamic connector.158</title>
			<path d="M6.67 207.01 L7.03 207 L123.73 206.49" class="st17"/>
		</g>
	</g>
</svg>
