<?xml version="1.0" encoding="UTF-8" standalone="no"?>
<!DOCTYPE svg PUBLIC "-//W3C//DTD SVG 1.1//EN" "http://www.w3.org/Graphics/SVG/1.1/DTD/svg11.dtd">
<!-- Generated by Microsoft Visio, SVG Export io-gql-http-db.svg io-gql-http -->
<svg xmlns="http://www.w3.org/2000/svg" xmlns:xlink="http://www.w3.org/1999/xlink" xmlns:ev="http://www.w3.org/2001/xml-events"
		xmlns:v="http://schemas.microsoft.com/visio/2003/SVGExtensions/" width="14.2485in" height="4.61652in"
		viewBox="0 0 1025.89 332.39" xml:space="preserve" color-interpolation-filters="sRGB" class="st31">
	<v:documentProperties v:langID="2070" v:metric="true" v:viewMarkup="false">
		<v:userDefs>
			<v:ud v:nameU="msvNoAutoConnect" v:val="VT0(1):26"/>
		</v:userDefs>
	</v:documentProperties>

	<style type="text/css">
	<![CDATA[
		.st1 {fill:#dae8fc;stroke:#6c8ebf;stroke-linecap:butt;stroke-width:0.75}
		.st2 {fill:#000000;fill-opacity:0.25;stroke:#000000;stroke-linecap:butt;stroke-opacity:0.25;stroke-width:0.75}
		.st3 {fill:#fff2cc;stroke:#d6b656;stroke-linecap:butt;stroke-width:0.75}
		.st4 {fill:#000000;font-family:Calibri;font-size:1.16666em;font-weight:bold}
		.st5 {font-size:1em}
		.st6 {fill:#000000;fill-opacity:0.25;stroke:none;stroke-linecap:butt;stroke-width:0.75}
		.st7 {fill:url(#grad0-17);stroke:none;stroke-linecap:butt;stroke-width:0.75}
		.st8 {fill:none;stroke:none;stroke-linecap:round;stroke-linejoin:round;stroke-width:0.75}
		.st9 {marker-end:url(#mrkr5-29);marker-start:url(#mrkr5-27);stroke:#000000;stroke-linecap:round;stroke-linejoin:round;stroke-width:1.5}
		.st10 {fill:#000000;fill-opacity:1;stroke:#000000;stroke-opacity:1;stroke-width:0.37313432835821}
		.st11 {fill:url(#grad0-37);stroke:none;stroke-linecap:butt;stroke-width:0.75}
		.st12 {fill:#000000;fill-opacity:0.067;stroke:none;stroke-linecap:butt;stroke-width:0.75}
		.st13 {fill:#ffffff;stroke:none;stroke-linecap:butt;stroke-width:0.75}
		.st14 {marker-end:url(#mrkr5-29);marker-start:url(#mrkr5-27);stroke:#000000;stroke-dasharray:1.5,3;stroke-linecap:round;stroke-linejoin:round;stroke-width:1.5}
		.st15 {fill:url(#grad0-93);stroke:none;stroke-linecap:butt;stroke-width:0.75}
		.st16 {stroke:#000000;stroke-linecap:round;stroke-linejoin:round;stroke-width:1.5}
		.st17 {fill:#ffffff;stroke:#000000;stroke-dasharray:1.5,3;stroke-linecap:round;stroke-linejoin:round;stroke-width:1.5}
		.st18 {fill:#000000;font-family:Segoe UI;font-size:1.16666em;font-weight:bold}
		.st19 {fill:#424a60;stroke:none;stroke-linecap:butt;stroke-width:11.5472}
		.st20 {fill:#556080;stroke:none;stroke-linecap:butt;stroke-width:11.5472}
		.st21 {fill:#7fabda;stroke:none;stroke-linecap:butt;stroke-width:11.5472}
		.st22 {fill:#7383bf;stroke:none;stroke-linecap:butt;stroke-width:11.5472}
		.st23 {marker-end:url(#mrkr5-29);marker-start:url(#mrkr5-27);stroke:#000000;stroke-dasharray:10.5,7.5,0,7.5;stroke-linecap:round;stroke-linejoin:round;stroke-width:1.5}
		.st24 {fill:#f54f33;stroke:none;stroke-linecap:butt;stroke-width:4.78125}
		.st25 {fill:#ffffff;stroke:none;stroke-linecap:butt;stroke-width:4.78125}
		.st26 {fill:#e1e3e9;stroke:none;stroke-linecap:butt;stroke-width:4.78125}
		.st27 {fill:#f24b45;stroke:none;stroke-linecap:butt;stroke-width:4.78125}
		.st28 {fill:#ffb202;stroke:none;stroke-linecap:butt;stroke-width:4.78125}
		.st29 {fill:#4cbb41;stroke:none;stroke-linecap:butt;stroke-width:4.78125}
		.st30 {fill:#53899f;stroke:none;stroke-linecap:butt;stroke-width:4.78125}
		.st31 {fill:none;fill-rule:evenodd;font-size:12px;overflow:visible;stroke-linecap:square;stroke-miterlimit:3}
	]]>
	</style>

	<defs id="Patterns_And_Gradients">
		<linearGradient id="grad0-17" x1="0" y1="0" x2="1" y2="0" gradientTransform="rotate(90 0.5 0.5)">
			<stop offset="0" stop-color="#4387fd" stop-opacity="1"/>
			<stop offset="1" stop-color="#4683ea" stop-opacity="1"/>
		</linearGradient>
		<linearGradient id="grad0-37" x1="0" y1="0" x2="1" y2="0" gradientTransform="rotate(90 0.5 0.5)">
			<stop offset="0" stop-color="#fd9e3f" stop-opacity="1"/>
			<stop offset="1" stop-color="#ea9f49" stop-opacity="1"/>
		</linearGradient>
		<linearGradient id="grad0-93" x1="0" y1="0" x2="1" y2="0" gradientTransform="rotate(90 0.5 0.5)">
			<stop offset="0" stop-color="#35cc49" stop-opacity="1"/>
			<stop offset="1" stop-color="#44bf3b" stop-opacity="1"/>
		</linearGradient>
	</defs>
	<defs id="Markers">
		<g id="lend5">
			<path d="M 2 1 L 0 0 L 1.98117 -0.993387 C 1.67173 -0.364515 1.67301 0.372641 1.98465 1.00043 " style="stroke:none"/>
		</g>
		<marker id="mrkr5-27" class="st10" v:arrowType="5" v:arrowSize="2" v:setback="4.45" refX="4.45" orient="auto"
				markerUnits="strokeWidth" overflow="visible">
			<use xlink:href="#lend5" transform="scale(2.68) "/>
		</marker>
		<marker id="mrkr5-29" class="st10" v:arrowType="5" v:arrowSize="2" v:setback="4.69" refX="-4.69" orient="auto"
				markerUnits="strokeWidth" overflow="visible">
			<use xlink:href="#lend5" transform="scale(-2.68,-2.68) "/>
		</marker>
	</defs>
	<g v:mID="7" v:index="5" v:groupContext="foregroundPage">
		<title>io-gql-http-db</title>
		<v:pageProperties v:drawingScale="0.0393701" v:pageScale="0.0393701" v:drawingUnits="24" v:shadowOffsetX="9"
				v:shadowOffsetY="-9"/>
		<v:layer v:name="Connector" v:index="0"/>
		<g id="group2-1" transform="translate(703.922,-18.75)" v:mID="2" v:groupContext="group">
			<title>Sheet.2</title>
			<g id="shape3-2" v:mID="3" v:groupContext="shape">
				<title>Sheet.3</title>
				<path d="M0 312.8 A22.0365 19.5855 -180 0 0 22.04 332.39 L278.77 332.39 A22.0365 19.5855 -180 0 0 300.81 312.8 L300.81
							 221.41 A22.0365 19.5855 -180 0 0 278.77 201.82 L22.04 201.82 A22.0365 19.5855 -180 0 0 0 221.41 L0 312.8
							 Z" class="st1"/>
			</g>
			<g id="group4-4" transform="translate(13.1117,-18.8939)" v:mID="4" v:groupContext="group">
				<title>Sheet.4</title>
				<g id="shape5-5" v:mID="5" v:groupContext="shape" transform="translate(0.322164,0)">
					<title>Sheet.5</title>
					<rect x="0" y="248.627" width="72.4869" height="83.7626" class="st2"/>
				</g>
				<g id="shape6-7" v:mID="6" v:groupContext="shape" transform="translate(0,-0.483246)">
					<title>Sheet.6</title>
					<desc>Service Broker</desc>
					<v:textBlock v:margins="rect(0,0,0,0)" v:tabSpace="42.5197"/>
					<v:textRect cx="36.2434" cy="290.508" width="72.49" height="83.7626"/>
					<rect x="0" y="248.627" width="72.4869" height="83.7626" class="st3"/>
					<text x="15.44" y="286.31" class="st4" v:langID="2070"><v:paragraph v:horizAlign="1"/><v:tabList/>Service<v:lf/><tspan
								x="16.7" dy="1.2em" class="st5">Broker</tspan></text>				</g>
			</g>
			<g id="group7-11" transform="translate(119.799,-9.4436)" v:mID="7" v:groupContext="group">
				<title>Sheet.7</title>
				<g id="shape8-12" v:mID="8" v:groupContext="shape" transform="translate(8.20069,-16.8642)">
					<title>Sheet.8</title>
					<path d="M16.39 329.1 L1.19 302.97 C0 300.92 0 298.4 1.19 296.35 L16.39 270.22 C17.58 268.17 19.78 266.9 22.17
								 266.9 L52.58 266.9 C54.97 266.89 57.18 268.15 58.38 270.2 L73.58 296.33 C74.77 298.38 74.77 300.9
								 73.58 302.95 L58.38 329.08 C57.18 331.13 54.97 332.39 52.58 332.38 L22.17 332.38 C19.79 332.39 17.59
								 331.14 16.39 329.1 Z" class="st6"/>
				</g>
				<g id="shape9-14" v:mID="9" v:groupContext="shape" transform="translate(7.04135,-18.6032)">
					<title>Sheet.9</title>
					<path d="M16.39 329.1 L1.19 302.97 C0 300.92 0 298.4 1.19 296.35 L16.39 270.22 C17.58 268.17 19.78 266.9 22.17
								 266.9 L52.58 266.9 C54.97 266.89 57.18 268.15 58.38 270.2 L73.58 296.33 C74.77 298.38 74.77 300.9
								 73.58 302.95 L58.38 329.08 C57.18 331.13 54.97 332.39 52.58 332.38 L22.17 332.38 C19.79 332.39 17.59
								 331.14 16.39 329.1 Z" class="st7"/>
				</g>
				<g id="shape10-18" v:mID="10" v:groupContext="shape" transform="translate(-12.0822,0)">
					<title>Sheet.10</title>
					<desc>Products Service</desc>
					<v:textBlock v:margins="rect(4,4,4,4)" v:tabSpace="42.5197"/>
					<v:textRect cx="59.5276" cy="326.392" width="119.06" height="11.9964"/>
					<rect x="0" y="320.393" width="119.055" height="11.9964" class="st8"/>
					<text x="11.5" y="330.59" class="st4" v:langID="2070"><v:paragraph v:horizAlign="1"/><v:tabList/>Products Service</text>				</g>
			</g>
			<g id="shape11-21" v:mID="11" v:groupContext="shape" v:layerMember="0" transform="translate(127.139,-53.9418)">
				<title>Dynamic connector</title>
				<path d="M-6.67 325.36 L-7.03 325.36 L-34.51 325.25" class="st9"/>
			</g>
		</g>
		<g id="group12-30" transform="translate(503.847,-106.783)" v:mID="12" v:groupContext="group">
			<title>Sheet.12</title>
			<g id="group13-31" transform="translate(8.45539,-22.5896)" v:mID="13" v:groupContext="group">
				<title>Sheet.13</title>
				<g id="shape14-32" v:mID="14" v:groupContext="shape" transform="translate(0.657184,-1.02318E-12)">
					<title>Sheet.14</title>
					<path d="M16.15 329.07 L1.17 302.85 C0 300.8 0 298.27 1.17 296.22 L16.15 269.99 C17.32 267.94 19.49 266.67 21.83
								 266.67 L51.78 266.67 C54.12 266.67 56.29 267.94 57.46 269.99 L72.43 296.22 C73.6 298.27 73.6 300.8
								 72.43 302.85 L57.46 329.07 C56.29 331.12 54.12 332.39 51.78 332.39 L21.83 332.39 C19.49 332.39 17.32
								 331.12 16.15 329.07 Z" class="st6"/>
				</g>
				<g id="shape15-34" v:mID="15" v:groupContext="shape" transform="translate(-3.67706E-13,-0.985776)">
					<title>Sheet.15</title>
					<path d="M16.15 329.07 L1.17 302.85 C0 300.8 0 298.27 1.17 296.22 L16.15 269.99 C17.32 267.94 19.49 266.67 21.83
								 266.67 L51.78 266.67 C54.12 266.67 56.29 267.94 57.46 269.99 L72.43 296.22 C73.6 298.27 73.6 300.8
								 72.43 302.85 L57.46 329.07 C56.29 331.12 54.12 332.39 51.78 332.39 L21.83 332.39 C19.49 332.39 17.32
								 331.12 16.15 329.07 Z" class="st11"/>
				</g>
				<g id="shape16-38" v:mID="16" v:groupContext="shape" transform="translate(23.1526,-1.15336)">
					<title>Sheet.16</title>
					<path d="M16 285.96 L13.73 285.54 L11.38 290.56 L13.36 292.56 L12.8 295.81 L16.06 299.1 L7.2 300.02 L4.59 297.38
								 L0 302.02 L30.03 332.39 C31.83 332 33.38 330.85 34.31 329.24 L43.27 313.55 L16 285.96 Z"
							class="st12"/>
				</g>
				<g id="shape17-40" v:mID="17" v:groupContext="shape" transform="translate(33.5598,-42.0635)">
					<title>Sheet.17</title>
					<ellipse cx="3.24584" cy="329.108" rx="3.24584" ry="3.28217" class="st13"/>
				</g>
				<g id="shape18-42" v:mID="18" v:groupContext="shape" transform="translate(33.5598,-19.0621)">
					<title>Sheet.18</title>
					<ellipse cx="3.24584" cy="329.108" rx="3.24584" ry="3.28217" class="st13"/>
				</g>
				<g id="shape19-44" v:mID="19" v:groupContext="shape" transform="translate(22.059,-30.5628)">
					<title>Sheet.19</title>
					<ellipse cx="3.24584" cy="329.108" rx="3.24584" ry="3.28217" class="st13"/>
				</g>
				<g id="shape20-46" v:mID="20" v:groupContext="shape" transform="translate(45.0605,-30.5628)">
					<title>Sheet.20</title>
					<ellipse cx="3.24584" cy="329.108" rx="3.24584" ry="3.28217" class="st13"/>
				</g>
				<g id="shape21-48" v:mID="21" v:groupContext="shape" transform="translate(22.5644,-21.4571)">
					<title>Sheet.21</title>
					<path d="M13.42 332.39 L0 318.94 L22.81 318.94 L13.42 309.42 L15.07 307.65 L28.48 321.07 L5.66 321.07 L15.07
								 330.63 L13.42 332.39 Z" class="st13"/>
				</g>
				<g id="shape22-50" v:mID="22" v:groupContext="shape" transform="translate(35.9513,-22.1668)">
					<title>Sheet.22</title>
					<rect x="0" y="324.609" width="1.39652" height="7.78106" class="st13"/>
				</g>
				<g id="shape23-52" v:mID="23" v:groupContext="shape" transform="translate(35.9513,-37.7289)">
					<title>Sheet.23</title>
					<rect x="0" y="324.609" width="1.39652" height="7.78106" class="st13"/>
				</g>
			</g>
			<g id="shape24-54" v:mID="24" v:groupContext="shape">
				<title>Sheet.24</title>
				<desc>Transporter</desc>
				<v:textBlock v:margins="rect(4,4,4,4)" v:tabSpace="42.5197"/>
				<v:textRect cx="45.5863" cy="323.23" width="91.18" height="18.3201"/>
				<rect x="0" y="314.07" width="91.1726" height="18.3201" class="st8"/>
				<text x="11.18" y="327.43" class="st4" v:langID="2070"><v:paragraph v:horizAlign="1"/><v:tabList/>Transporter</text>			</g>
		</g>
		<g id="shape25-57" v:mID="25" v:groupContext="shape" v:layerMember="0" transform="translate(580.252,-149.914)">
			<title>Dynamic connector.159</title>
			<path d="M6.19 334.89 L6.52 335.03 L130.26 385.02" class="st14"/>
		</g>
		<g id="shape26-64" v:mID="26" v:groupContext="shape" transform="translate(712.709,-129.317)">
			<title>Sheet.26</title>
			<desc>Node 3</desc>
			<v:textBlock v:margins="rect(4,4,4,4)" v:tabSpace="42.5197"/>
			<v:textRect cx="30.8976" cy="322.39" width="61.8" height="20"/>
			<rect x="0" y="312.39" width="61.7953" height="20" class="st8"/>
			<text x="10.11" y="326.59" class="st4" v:langID="2070"><v:paragraph v:horizAlign="1"/><v:tabList/>Node 3</text>		</g>
		<g id="shape27-67" v:mID="27" v:groupContext="shape" v:layerMember="0" transform="translate(513.26,-155.897)">
			<title>Dynamic connector</title>
			<path d="M-6.67 325.7 L-7.03 325.7 L-102.1 324.91" class="st14"/>
		</g>
		<g id="group29-74" transform="translate(171.008,-37.091)" v:mID="29" v:groupContext="group">
			<title>Sheet.29</title>
			<g id="group30-75" transform="translate(39.685,-58.2811)" v:mID="30" v:groupContext="group">
				<title>Sheet.30</title>
				<g id="group31-76" v:mID="31" v:groupContext="group">
					<title>Sheet.31</title>
					<g id="shape32-77" v:mID="32" v:groupContext="shape">
						<title>Sheet.32</title>
						<path d="M-0 312.8 A15.7821 19.5855 -180 0 0 15.78 332.39 L199.65 332.39 A15.7821 19.5855 -180 0 0 215.43
									 312.8 L215.43 221.41 A15.7821 19.5855 -180 0 0 199.65 201.82 L15.78 201.82 A15.7821 19.5855
									 -180 0 0 -0 221.41 L0 312.8 Z" class="st1"/>
					</g>
					<g id="group33-79" transform="translate(120.625,-26.4786)" v:mID="33" v:groupContext="group">
						<title>Sheet.33</title>
						<g id="shape34-80" v:mID="34" v:groupContext="shape" transform="translate(0.322164,0)">
							<title>Sheet.34</title>
							<rect x="0" y="248.627" width="72.4869" height="83.7626" class="st2"/>
						</g>
						<g id="shape35-82" v:mID="35" v:groupContext="shape" transform="translate(0,-0.483246)">
							<title>Sheet.35</title>
							<desc>Service Broker</desc>
							<v:textBlock v:margins="rect(0,0,0,0)" v:tabSpace="42.5197"/>
							<v:textRect cx="36.2434" cy="290.508" width="72.49" height="83.7626"/>
							<rect x="0" y="248.627" width="72.4869" height="83.7626" class="st3"/>
							<text x="15.44" y="286.31" class="st4" v:langID="2070"><v:paragraph v:horizAlign="1"/><v:tabList/>Service<v:lf/><tspan
										x="16.7" dy="1.2em" class="st5">Broker</tspan></text>						</g>
					</g>
					<g id="group36-86" transform="translate(6.39488E-14,-2.89091)" v:mID="36" v:groupContext="group">
						<title>Sheet.36</title>
						<g id="group37-87" transform="translate(7.62102,-34.3433)" v:mID="37" v:groupContext="group">
							<title>Sheet.37</title>
							<g id="shape38-88" v:mID="38" v:groupContext="shape" transform="translate(1.15933,-1.3074E-12)">
								<title>Sheet.38</title>
								<path d="M16.4 329.06 L1.19 302.69 C0 300.62 0 298.08 1.19 296.02 L16.4 269.64 C17.59 267.58 19.79
											 266.31 22.17 266.31 L52.6 266.31 C54.98 266.31 57.18 267.58 58.37 269.64 L73.58 296.02
											 C74.77 298.08 74.77 300.62 73.58 302.69 L58.37 329.06 C57.18 331.12 54.98 332.39 52.6
											 332.39 L22.17 332.39 C19.79 332.39 17.59 331.12 16.4 329.06 Z" class="st6"/>
							</g>
							<g id="shape39-90" v:mID="39" v:groupContext="shape" transform="translate(0,-1.739)">
								<title>Sheet.39</title>
								<path d="M16.4 329.06 L1.19 302.69 C0 300.62 0 298.08 1.19 296.02 L16.4 269.64 C17.59 267.58 19.79
											 266.31 22.17 266.31 L52.6 266.31 C54.98 266.31 57.18 267.58 58.37 269.64 L73.58 296.02
											 C74.77 298.08 74.77 300.62 73.58 302.69 L58.37 329.06 C57.18 331.12 54.98 332.39 52.6
											 332.39 L22.17 332.39 C19.79 332.39 17.59 331.12 16.4 329.06 Z" class="st15"/>
							</g>
							<g id="shape40-94" v:mID="40" v:groupContext="shape" transform="translate(20.6535,-1.739)">
								<title>Sheet.40</title>
								<path d="M35.7 298.86 L28.61 302.5 L25.44 299.33 L13.01 298.98 L7.22 293.18 L0 299.35 L4.9 307.01
											 L30.26 332.39 L31.95 332.39 C34.33 332.39 36.52 331.12 37.72 329.06 L48.02 311.2 L35.7
											 298.86 Z" class="st12"/>
							</g>
							<g id="shape41-96" v:mID="41" v:groupContext="shape" transform="translate(18.103,-26.9081)">
								<title>Sheet.41</title>
								<path d="M28 324.51 L26.35 322.85 L12.23 322.85 L10.57 324.51 L12.23 326.17 L26.35 326.17 L28 324.51
											 ZM9.77 329.79 L4.49 324.51 L9.77 319.24 C10.01 318.99 10.01 318.59 9.77 318.35 L8.31
											 316.9 C8.06 316.65 7.66 316.65 7.41 316.9 L0.24 324.07 C0 324.32 0 324.72 0.24 324.97
											 L1.7 326.43 L1.7 326.43 L7.42 332.14 C7.67 332.39 8.06 332.39 8.31 332.14 L9.77 330.69
											 C10.01 330.44 10.01 330.04 9.77 329.79 ZM28.8 319.24 L34.08 324.52 L28.8 329.79 C28.56
											 330.04 28.56 330.44 28.8 330.69 L30.26 332.14 C30.51 332.39 30.91 332.39 31.16 332.14
											 L38.33 324.97 C38.57 324.72 38.57 324.32 38.33 324.07 L36.87 322.62 L36.86 322.61 L31.15
											 316.9 C30.9 316.65 30.51 316.65 30.26 316.9 L28.8 318.35 C28.56 318.59 28.56 318.99
											 28.8 319.24 Z" class="st13"/>
							</g>
						</g>
						<g id="shape42-98" v:mID="42" v:groupContext="shape">
							<title>Sheet.42</title>
							<desc>API Gateway</desc>
							<v:textBlock v:margins="rect(4,4,4,4)" v:tabSpace="42.5197"/>
							<v:textRect cx="45.5863" cy="316.794" width="91.18" height="31.1906"/>
							<rect x="0" y="301.199" width="91.1726" height="31.1906" class="st8"/>
							<text x="35.75" y="312.59" class="st4" v:langID="2070"><v:paragraph v:horizAlign="1"/><v:tabList/>API<v:newlineChar/><tspan
										x="19.73" dy="1.2em" class="st5">Gateway</tspan></text>						</g>
					</g>
					<g id="shape43-102" v:mID="43" v:groupContext="shape" v:layerMember="0" transform="translate(120.625,-62.4672)">
						<title>Dynamic connector.67</title>
						<path d="M-6.67 325.46 L-7.03 325.45 L-30.35 325.15" class="st9"/>
					</g>
				</g>
				<g id="shape44-109" v:mID="44" v:groupContext="shape" transform="translate(-1.19904E-14,-110.567)">
					<title>Sheet.44</title>
					<desc>Node 1</desc>
					<v:textBlock v:margins="rect(4,4,4,4)" v:tabSpace="42.5197"/>
					<v:textRect cx="30.8976" cy="322.39" width="61.8" height="20"/>
					<rect x="0" y="312.39" width="61.7953" height="20" class="st8"/>
					<text x="10.11" y="326.59" class="st4" v:langID="2070"><v:paragraph v:horizAlign="1"/><v:tabList/>Node 1</text>				</g>
			</g>
			<g id="shape45-112" v:mID="45" v:groupContext="shape" v:layerMember="0" transform="translate(63.2404,-100.005)">
				<title>Dynamic connector.193</title>
				<path d="M0 332.39 L-46.23 415.02" class="st16"/>
			</g>
			<g id="shape46-115" v:mID="46" v:groupContext="shape" v:layerMember="0" transform="translate(108.62,-101.046)">
				<title>Dynamic connector.194</title>
				<path d="M0 332.39 L46.81 416.06" class="st16"/>
			</g>
			<g id="shape47-118" v:mID="47" v:groupContext="shape" transform="translate(17.0079,11.1702)">
				<title>Rectangle.117</title>
				<desc>- HTTP Server - GraphQL Server - Socket.IO Server</desc>
				<v:userDefs>
					<v:ud v:nameU="visVersion" v:val="VT0(15):26"/>
				</v:userDefs>
				<v:textBlock v:margins="rect(4,4,4,4)" v:tabSpace="42.5197"/>
				<v:textRect cx="69.2096" cy="303.844" width="138.42" height="57.0915"/>
				<path d="M0 332.39 L138.42 332.39 L138.42 275.3 L0 275.3 L0 332.39 Z" class="st17"/>
				<text x="4" y="291.24" class="st18" v:langID="2070"><v:paragraph/><v:tabList/>- HTTP Server<v:newlineChar/><tspan
							x="4" dy="1.2em" class="st5">-</tspan> GraphQL Server<v:newlineChar/><tspan x="4" dy="1.2em"
							class="st5">-</tspan> Socket.IO Server</text>			</g>
		</g>
		<g id="shape48-123" v:mID="48" v:groupContext="shape" v:layerMember="0" transform="translate(948.038,-85.2068)">
			<title>Dynamic connector.182</title>
			<path d="M-6.67 339.4 L-7.03 339.4 L-34.61 339.55" class="st9"/>
		</g>
		<g id="group49-130" transform="translate(948.038,-51.6961)" v:mID="49" v:groupContext="group">
			<title>Sheet.49</title>
			<g id="shape50-131" v:mID="50" v:groupContext="shape">
				<title>Sheet.50</title>
				<path d="M48.26 287.1 C47.52 282.61 37.01 279.05 24.15 279.05 C11.29 279.05 0.78 282.61 0.05 287.1 L0 287.1 L0 287.61
							 L0 299.18 L0 299.68 L0 300.19 L0 311.26 L0 311.76 L0 312.26 L0 324.34 L0.05 324.34 C0.78 328.83 11.29
							 332.39 24.15 332.39 C37.01 332.39 47.52 328.83 48.26 324.34 L48.3 324.34 L48.3 312.26 L48.3 311.76 L48.3
							 311.26 L48.3 300.19 L48.3 299.68 L48.3 299.18 L48.3 287.61 L48.3 287.1 L48.26 287.1 Z" class="st19"/>
			</g>
			<g id="group51-133" v:mID="51" v:groupContext="group">
				<title>Sheet.51</title>
				<g id="shape52-134" v:mID="52" v:groupContext="shape">
					<title>Sheet.52</title>
					<path d="M24.15 320.31 C10.81 320.31 0 316.48 0 311.76 L0 324.34 L0.05 324.34 C0.78 328.83 11.29 332.39 24.15
								 332.39 C37.01 332.39 47.52 328.83 48.26 324.34 L48.3 324.34 L48.3 311.76 C48.3 316.48 37.49 320.31
								 24.15 320.31 Z" class="st19"/>
				</g>
				<g id="shape53-136" v:mID="53" v:groupContext="shape" transform="translate(0,-20.6301)">
					<title>Sheet.53</title>
					<path d="M0 331.89 L0 332.39 C0 332.22 0.02 332.05 0.05 331.89 L0 331.89 Z" class="st19"/>
				</g>
				<g id="shape54-138" v:mID="54" v:groupContext="shape" transform="translate(48.2592,-20.6301)">
					<title>Sheet.54</title>
					<path d="M0 331.89 C0.03 332.05 0.05 332.22 0.05 332.39 L0.05 331.89 L0 331.89 Z" class="st19"/>
				</g>
			</g>
			<g id="group55-140" transform="translate(0,-12.0761)" v:mID="55" v:groupContext="group">
				<title>Sheet.55</title>
				<g id="shape56-141" v:mID="56" v:groupContext="shape">
					<title>Sheet.56</title>
					<path d="M24.15 320.31 C10.81 320.31 0 316.48 0 311.76 L0 324.34 L0.05 324.34 C0.78 328.83 11.29 332.39 24.15
								 332.39 C37.01 332.39 47.52 328.83 48.26 324.34 L48.3 324.34 L48.3 311.76 C48.3 316.48 37.49 320.31
								 24.15 320.31 Z" class="st20"/>
				</g>
				<g id="shape57-143" v:mID="57" v:groupContext="shape" transform="translate(0,-20.6301)">
					<title>Sheet.57</title>
					<path d="M0 331.89 L0 332.39 C0 332.22 0.02 332.05 0.05 331.89 L0 331.89 Z" class="st20"/>
				</g>
				<g id="shape58-145" v:mID="58" v:groupContext="shape" transform="translate(48.2592,-20.6301)">
					<title>Sheet.58</title>
					<path d="M0 331.89 C0.03 332.05 0.05 332.22 0.05 332.39 L0.05 331.89 L0 331.89 Z" class="st20"/>
				</g>
			</g>
			<g id="shape59-147" v:mID="59" v:groupContext="shape" transform="translate(0,-36.2284)">
				<title>Sheet.59</title>
				<ellipse cx="24.1523" cy="323.836" rx="24.1523" ry="8.55393" class="st21"/>
			</g>
			<g id="group60-149" transform="translate(0,-24.1523)" v:mID="60" v:groupContext="group">
				<title>Sheet.60</title>
				<g id="shape61-150" v:mID="61" v:groupContext="shape">
					<title>Sheet.61</title>
					<path d="M24.15 320.31 C10.81 320.31 0 316.48 0 311.76 L0 324.34 L0.05 324.34 C0.78 328.83 11.29 332.39 24.15
								 332.39 C37.01 332.39 47.52 328.83 48.26 324.34 L48.3 324.34 L48.3 311.76 C48.3 316.48 37.49 320.31
								 24.15 320.31 Z" class="st22"/>
				</g>
				<g id="shape62-152" v:mID="62" v:groupContext="shape" transform="translate(0,-20.6301)">
					<title>Sheet.62</title>
					<path d="M0 331.89 L0 332.39 C0 332.22 0.02 332.05 0.05 331.89 L0 331.89 Z" class="st22"/>
				</g>
				<g id="shape63-154" v:mID="63" v:groupContext="shape" transform="translate(48.2592,-20.6301)">
					<title>Sheet.63</title>
					<path d="M0 331.89 C0.03 332.05 0.05 332.22 0.05 332.39 L0.05 331.89 L0 331.89 Z" class="st22"/>
				</g>
			</g>
		</g>
		<g id="shape64-156" v:mID="64" v:groupContext="shape" transform="translate(952.77,-29.0414)">
			<title>Sheet.64</title>
			<desc>DB</desc>
			<v:textBlock v:margins="rect(4,4,4,4)" v:tabSpace="42.5197"/>
			<v:textRect cx="19.235" cy="326.392" width="38.47" height="11.9964"/>
			<rect x="0" y="320.393" width="38.47" height="11.9964" class="st8"/>
			<text x="10.9" y="330.59" class="st4" v:langID="2070"><v:paragraph v:horizAlign="1"/><v:tabList/>DB</text>		</g>
		<g id="shape65-159" v:mID="65" v:groupContext="shape" v:layerMember="0" transform="translate(526.377,-186.994)">
			<title>Dynamic connector.193</title>
			<path d="M0 332.39 L-55.6 273.51" class="st16"/>
		</g>
		<g id="shape66-162" v:mID="66" v:groupContext="shape" v:layerMember="0" transform="translate(573.074,-187.123)">
			<title>Dynamic connector.194</title>
			<path d="M0 332.39 L55.02 273.64" class="st16"/>
		</g>
		<g id="shape67-165" v:mID="67" v:groupContext="shape" transform="translate(470.772,-213.535)">
			<title>Rectangle.117</title>
			<desc>- Node Discovery - RPC requests - Ephemeral Events</desc>
			<v:userDefs>
				<v:ud v:nameU="visVersion" v:val="VT0(15):26"/>
			</v:userDefs>
			<v:textBlock v:margins="rect(4,4,4,4)" v:tabSpace="42.5197"/>
			<v:textRect cx="78.6614" cy="300.054" width="157.33" height="64.6713"/>
			<path d="M0 332.39 L157.32 332.39 L157.32 267.72 L0 267.72 L0 332.39 Z" class="st17"/>
			<text x="4" y="287.45" class="st18" v:langID="2070"><v:paragraph/><v:tabList/>- Node Discovery<v:newlineChar/><tspan
						x="4" dy="1.2em" class="st5">-</tspan> RPC requests<v:lf/><tspan x="4" dy="1.2em" class="st5">-</tspan> Ephemeral Events</text>		</g>
		<g id="shape70-170" v:mID="70" v:groupContext="shape" v:layerMember="0" transform="translate(218.619,-161.151)">
			<title>Dynamic connector.67</title>
			<path d="M-6.67 325.78 L-7.03 325.78 L-118.3 324.83" class="st23"/>
		</g>
		<g id="group71-177" transform="translate(22.7812,-133.82)" v:mID="71" v:groupContext="group">
			<title>Sheet.71</title>
			<g id="shape72-178" v:mID="72" v:groupContext="shape">
				<title>Sheet.72</title>
				<ellipse cx="35.2531" cy="297.137" rx="35.2531" ry="35.2531" class="st24"/>
			</g>
			<g id="shape73-180" v:mID="73" v:groupContext="shape" transform="translate(10.4966,-17.1049)">
				<title>Sheet.73</title>
				<path d="M47.31 332.39 L2.2 332.39 C0.99 332.39 0 331.4 0 330.19 L0 298.3 C0 297.08 0.99 296.09 2.2 296.09 L47.31
							 296.09 C48.53 296.09 49.51 297.08 49.51 298.3 L49.51 330.19 C49.51 331.4 48.53 332.39 47.31 332.39 Z"
						class="st25"/>
			</g>
			<g id="shape74-182" v:mID="74" v:groupContext="shape" transform="translate(10.4966,-47.3416)">
				<title>Sheet.74</title>
				<path d="M49.51 332.39 L49.51 328.53 C49.51 327.32 48.53 326.33 47.31 326.33 L2.2 326.33 C0.99 326.33 0 327.32 0
							 328.53 L0 332.39 L49.51 332.39 Z" class="st26"/>
			</g>
			<g id="shape75-184" v:mID="75" v:groupContext="shape" transform="translate(12.1182,-48.7192)">
				<title>Sheet.75</title>
				<ellipse cx="1.65249" cy="330.737" rx="1.65249" ry="1.65249" class="st27"/>
			</g>
			<g id="shape76-186" v:mID="76" v:groupContext="shape" transform="translate(17.0757,-48.7192)">
				<title>Sheet.76</title>
				<ellipse cx="1.65249" cy="330.737" rx="1.65249" ry="1.65249" class="st28"/>
			</g>
			<g id="shape77-188" v:mID="77" v:groupContext="shape" transform="translate(22.0337,-48.7192)">
				<title>Sheet.77</title>
				<ellipse cx="1.65249" cy="330.737" rx="1.65249" ry="1.65249" class="st29"/>
			</g>
			<g id="group78-190" transform="translate(17.0019,-23.5722)" v:mID="78" v:groupContext="group">
				<title>Sheet.78</title>
				<g id="shape79-191" v:mID="79" v:groupContext="shape" transform="translate(0,-2.11904)">
					<title>Sheet.79</title>
					<path d="M0 324.37 L12.45 318.59 L12.45 321.34 L3.04 325.46 L3.04 325.51 L12.45 329.64 L12.45 332.39 L0 326.6
								 L0 324.37 Z" class="st30"/>
				</g>
				<g id="shape80-193" v:mID="80" v:groupContext="shape" transform="translate(14.3722,0)">
					<title>Sheet.80</title>
					<path d="M0 332.39 L5.55 313.58 L8.17 313.58 L2.62 332.39 L0 332.39 Z" class="st30"/>
				</g>
				<g id="shape81-195" v:mID="81" v:groupContext="shape" transform="translate(24.0481,-2.11904)">
					<title>Sheet.81</title>
					<path d="M12.45 326.68 L0 332.39 L0 329.64 L9.63 325.51 L9.63 325.46 L0 321.34 L0 318.59 L12.45 324.29 L12.45
								 326.68 L12.45 326.68 Z" class="st30"/>
				</g>
			</g>
		</g>
		<g id="group95-197" transform="translate(703.922,-183.073)" v:mID="95" v:groupContext="group">
			<title>Sheet.95</title>
			<g id="group96-198" v:mID="96" v:groupContext="group">
				<title>Sheet.96</title>
				<g id="shape97-199" v:mID="97" v:groupContext="shape">
					<title>Sheet.97</title>
					<path d="M0 312.8 A22.0365 19.5855 -180 0 0 22.04 332.39 L278.77 332.39 A22.0365 19.5855 -180 0 0 300.81 312.8
								 L300.81 221.41 A22.0365 19.5855 -180 0 0 278.77 201.82 L22.04 201.82 A22.0365 19.5855 -180 0 0 -0
								 221.41 L0 312.8 Z" class="st1"/>
				</g>
				<g id="group98-201" transform="translate(13.1117,-18.8939)" v:mID="98" v:groupContext="group">
					<title>Sheet.98</title>
					<g id="shape99-202" v:mID="99" v:groupContext="shape" transform="translate(0.322164,0)">
						<title>Sheet.99</title>
						<rect x="0" y="248.627" width="72.4869" height="83.7626" class="st2"/>
					</g>
					<g id="shape100-204" v:mID="100" v:groupContext="shape" transform="translate(0,-0.483246)">
						<title>Sheet.100</title>
						<desc>Service Broker</desc>
						<v:textBlock v:margins="rect(0,0,0,0)" v:tabSpace="42.5197"/>
						<v:textRect cx="36.2434" cy="290.508" width="72.49" height="83.7626"/>
						<rect x="0" y="248.627" width="72.4869" height="83.7626" class="st3"/>
						<text x="15.44" y="286.31" class="st4" v:langID="2070"><v:paragraph v:horizAlign="1"/><v:tabList/>Service<v:lf/><tspan
									x="16.7" dy="1.2em" class="st5">Broker</tspan></text>					</g>
				</g>
				<g id="group101-208" transform="translate(156.01,-9.4436)" v:mID="101" v:groupContext="group">
					<title>Sheet.101</title>
					<g id="shape102-209" v:mID="102" v:groupContext="shape" transform="translate(8.20069,-16.8642)">
						<title>Sheet.102</title>
						<path d="M16.39 329.1 L1.19 302.97 C0 300.92 0 298.4 1.19 296.35 L16.39 270.22 C17.58 268.17 19.78 266.9
									 22.17 266.9 L52.58 266.9 C54.97 266.89 57.18 268.15 58.38 270.2 L73.58 296.33 C74.77 298.38
									 74.77 300.9 73.58 302.95 L58.38 329.08 C57.18 331.13 54.97 332.39 52.58 332.38 L22.17 332.38
									 C19.79 332.39 17.59 331.14 16.39 329.1 Z" class="st6"/>
					</g>
					<g id="shape103-211" v:mID="103" v:groupContext="shape" transform="translate(7.04135,-18.6032)">
						<title>Sheet.103</title>
						<path d="M16.39 329.1 L1.19 302.97 C0 300.92 0 298.4 1.19 296.35 L16.39 270.22 C17.58 268.17 19.78 266.9
									 22.17 266.9 L52.58 266.9 C54.97 266.89 57.18 268.15 58.38 270.2 L73.58 296.33 C74.77 298.38
									 74.77 300.9 73.58 302.95 L58.38 329.08 C57.18 331.13 54.97 332.39 52.58 332.38 L22.17 332.38
									 C19.79 332.39 17.59 331.14 16.39 329.1 Z" class="st7"/>
					</g>
					<g id="shape104-214" v:mID="104" v:groupContext="shape" transform="translate(-8.27199,0)">
						<title>Sheet.104</title>
						<desc>Greeter Service</desc>
						<v:textBlock v:margins="rect(4,4,4,4)" v:tabSpace="42.5197"/>
						<v:textRect cx="53.8583" cy="326.392" width="107.72" height="11.9964"/>
						<rect x="0" y="320.393" width="107.717" height="11.9964" class="st8"/>
						<text x="9.04" y="330.59" class="st4" v:langID="2070"><v:paragraph v:horizAlign="1"/><v:tabList/>Greeter Service</text>					</g>
				</g>
				<g id="shape105-217" v:mID="105" v:groupContext="shape" v:layerMember="0" transform="translate(163.35,-53.9414)">
					<title>Dynamic connector.97</title>
					<path d="M-6.67 325.4 L-7.03 325.4 L-70.72 325.21" class="st9"/>
				</g>
			</g>
			<g id="shape106-224" v:mID="106" v:groupContext="shape" transform="translate(8.7874,-110.567)">
				<title>Sheet.106</title>
				<desc>Node 2</desc>
				<v:textBlock v:margins="rect(4,4,4,4)" v:tabSpace="42.5197"/>
				<v:textRect cx="30.8976" cy="322.39" width="61.8" height="20"/>
				<rect x="0" y="312.39" width="61.7953" height="20" class="st8"/>
				<text x="10.11" y="326.59" class="st4" v:langID="2070"><v:paragraph v:horizAlign="1"/><v:tabList/>Node 2</text>			</g>
		</g>
		<g id="shape121-227" v:mID="121" v:groupContext="shape" v:layerMember="0" transform="translate(580.26,-174.535)">
			<title>Dynamic connector.158</title>
			<path d="M6.19 329.89 L6.52 329.76 L130.25 279.85" class="st14"/>
		</g>
	</g>
</svg>
