<?xml version="1.0" encoding="UTF-8" standalone="no"?>
<!DOCTYPE svg PUBLIC "-//W3C//DTD SVG 1.1//EN" "http://www.w3.org/Graphics/SVG/1.1/DTD/svg11.dtd">
<!-- Generated by Microsoft Visio, SVG Export io-http.svg Page-15 -->
<svg xmlns="http://www.w3.org/2000/svg" xmlns:xlink="http://www.w3.org/1999/xlink" xmlns:ev="http://www.w3.org/2001/xml-events"
		xmlns:v="http://schemas.microsoft.com/visio/2003/SVGExtensions/" width="13.0675in" height="4.0248in"
		viewBox="0 0 940.86 289.786" xml:space="preserve" color-interpolation-filters="sRGB" class="st27">
	<v:documentProperties v:langID="2070" v:metric="true" v:viewMarkup="false">
		<v:userDefs>
			<v:ud v:nameU="msvNoAutoConnect" v:val="VT0(1):26"/>
		</v:userDefs>
	</v:documentProperties>

	<style type="text/css">
	<![CDATA[
		.st1 {fill:#000000;fill-opacity:0.25;stroke:none;stroke-linecap:butt;stroke-width:0.75}
		.st2 {fill:url(#grad0-8);stroke:none;stroke-linecap:butt;stroke-width:0.75}
		.st3 {fill:#000000;fill-opacity:0.067;stroke:none;stroke-linecap:butt;stroke-width:0.75}
		.st4 {fill:#ffffff;stroke:none;stroke-linecap:butt;stroke-width:0.75}
		.st5 {fill:none;stroke:none;stroke-linecap:round;stroke-linejoin:round;stroke-width:0.75}
		.st6 {fill:#000000;font-family:Calibri;font-size:1.16666em;font-weight:bold}
		.st7 {marker-end:url(#mrkr5-36);marker-start:url(#mrkr5-34);stroke:#000000;stroke-dasharray:1.5,3;stroke-linecap:round;stroke-linejoin:round;stroke-width:1.5}
		.st8 {fill:#000000;fill-opacity:1;stroke:#000000;stroke-opacity:1;stroke-width:0.37313432835821}
		.st9 {fill:#dae8fc;stroke:#6c8ebf;stroke-linecap:butt;stroke-width:0.75}
		.st10 {fill:#000000;fill-opacity:0.25;stroke:#000000;stroke-linecap:butt;stroke-opacity:0.25;stroke-width:0.75}
		.st11 {fill:#fff2cc;stroke:#d6b656;stroke-linecap:butt;stroke-width:0.75}
		.st12 {font-size:1em}
		.st13 {fill:url(#grad0-56);stroke:none;stroke-linecap:butt;stroke-width:0.75}
		.st14 {marker-end:url(#mrkr5-36);marker-start:url(#mrkr5-34);stroke:#000000;stroke-linecap:round;stroke-linejoin:round;stroke-width:1.5}
		.st15 {stroke:#000000;stroke-linecap:round;stroke-linejoin:round;stroke-width:1.5}
		.st16 {fill:#ffffff;stroke:#000000;stroke-dasharray:1.5,3;stroke-linecap:round;stroke-linejoin:round;stroke-width:1.5}
		.st17 {fill:#000000;font-family:Segoe UI;font-size:1.16666em;font-weight:bold}
		.st18 {marker-end:url(#mrkr5-36);marker-start:url(#mrkr5-34);stroke:#000000;stroke-dasharray:10.5,7.5,0,7.5;stroke-linecap:round;stroke-linejoin:round;stroke-width:1.5}
		.st19 {fill:#f54f33;stroke:none;stroke-linecap:butt;stroke-width:4.78125}
		.st20 {fill:#ffffff;stroke:none;stroke-linecap:butt;stroke-width:4.78125}
		.st21 {fill:#e1e3e9;stroke:none;stroke-linecap:butt;stroke-width:4.78125}
		.st22 {fill:#f24b45;stroke:none;stroke-linecap:butt;stroke-width:4.78125}
		.st23 {fill:#ffb202;stroke:none;stroke-linecap:butt;stroke-width:4.78125}
		.st24 {fill:#4cbb41;stroke:none;stroke-linecap:butt;stroke-width:4.78125}
		.st25 {fill:#53899f;stroke:none;stroke-linecap:butt;stroke-width:4.78125}
		.st26 {fill:url(#grad0-146);stroke:none;stroke-linecap:butt;stroke-width:0.75}
		.st27 {fill:none;fill-rule:evenodd;font-size:12px;overflow:visible;stroke-linecap:square;stroke-miterlimit:3}
	]]>
	</style>

	<defs id="Patterns_And_Gradients">
		<linearGradient id="grad0-8" x1="0" y1="0" x2="1" y2="0" gradientTransform="rotate(90 0.5 0.5)">
			<stop offset="0" stop-color="#fd9e3f" stop-opacity="1"/>
			<stop offset="1" stop-color="#ea9f49" stop-opacity="1"/>
		</linearGradient>
		<linearGradient id="grad0-56" x1="0" y1="0" x2="1" y2="0" gradientTransform="rotate(90 0.5 0.5)">
			<stop offset="0" stop-color="#35cc49" stop-opacity="1"/>
			<stop offset="1" stop-color="#44bf3b" stop-opacity="1"/>
		</linearGradient>
		<linearGradient id="grad0-146" x1="0" y1="0" x2="1" y2="0" gradientTransform="rotate(90 0.5 0.5)">
			<stop offset="0" stop-color="#4387fd" stop-opacity="1"/>
			<stop offset="1" stop-color="#4683ea" stop-opacity="1"/>
		</linearGradient>
	</defs>
	<defs id="Markers">
		<g id="lend5">
			<path d="M 2 1 L 0 0 L 1.98117 -0.993387 C 1.67173 -0.364515 1.67301 0.372641 1.98465 1.00043 " style="stroke:none"/>
		</g>
		<marker id="mrkr5-34" class="st8" v:arrowType="5" v:arrowSize="2" v:setback="4.45" refX="4.45" orient="auto"
				markerUnits="strokeWidth" overflow="visible">
			<use xlink:href="#lend5" transform="scale(2.68) "/>
		</marker>
		<marker id="mrkr5-36" class="st8" v:arrowType="5" v:arrowSize="2" v:setback="4.69" refX="-4.69" orient="auto"
				markerUnits="strokeWidth" overflow="visible">
			<use xlink:href="#lend5" transform="scale(-2.68,-2.68) "/>
		</marker>
	</defs>
	<g v:mID="13" v:index="17" v:groupContext="foregroundPage">
		<title>io-http</title>
		<v:pageProperties v:drawingScale="0.0393701" v:pageScale="0.0393701" v:drawingUnits="24" v:shadowOffsetX="9"
				v:shadowOffsetY="-9"/>
		<v:layer v:name="Connector" v:index="0"/>
		<g id="group181-1" transform="translate(503.847,-99.6126)" v:mID="181" v:groupContext="group">
			<title>Sheet.181</title>
			<g id="group182-2" transform="translate(8.45539,-22.5896)" v:mID="182" v:groupContext="group">
				<title>Sheet.182</title>
				<g id="shape183-3" v:mID="183" v:groupContext="shape" transform="translate(0.657184,-1.02318E-12)">
					<title>Sheet.183</title>
					<path d="M16.15 286.47 L1.17 260.25 C0 258.2 0 255.66 1.17 253.61 L16.15 227.38 C17.32 225.33 19.49 224.07 21.83
								 224.07 L51.78 224.07 C54.12 224.07 56.29 225.33 57.46 227.38 L72.43 253.61 C73.6 255.66 73.6 258.2
								 72.43 260.25 L57.46 286.47 C56.29 288.52 54.12 289.79 51.78 289.79 L21.83 289.79 C19.49 289.79 17.32
								 288.52 16.15 286.47 Z" class="st1"/>
				</g>
				<g id="shape184-5" v:mID="184" v:groupContext="shape" transform="translate(-3.67706E-13,-0.985776)">
					<title>Sheet.184</title>
					<path d="M16.15 286.47 L1.17 260.25 C0 258.2 0 255.66 1.17 253.61 L16.15 227.38 C17.32 225.33 19.49 224.07 21.83
								 224.07 L51.78 224.07 C54.12 224.07 56.29 225.33 57.46 227.38 L72.43 253.61 C73.6 255.66 73.6 258.2
								 72.43 260.25 L57.46 286.47 C56.29 288.52 54.12 289.79 51.78 289.79 L21.83 289.79 C19.49 289.79 17.32
								 288.52 16.15 286.47 Z" class="st2"/>
				</g>
				<g id="shape185-9" v:mID="185" v:groupContext="shape" transform="translate(23.1526,-1.15336)">
					<title>Sheet.185</title>
					<path d="M16 243.36 L13.73 242.94 L11.38 247.96 L13.36 249.96 L12.8 253.2 L16.06 256.5 L7.2 257.42 L4.59 254.77
								 L0 259.42 L30.03 289.79 C31.83 289.39 33.38 288.25 34.31 286.64 L43.27 270.94 L16 243.36 Z"
							class="st3"/>
				</g>
				<g id="shape186-11" v:mID="186" v:groupContext="shape" transform="translate(33.5598,-42.0635)">
					<title>Sheet.186</title>
					<ellipse cx="3.24584" cy="286.504" rx="3.24584" ry="3.28217" class="st4"/>
				</g>
				<g id="shape187-13" v:mID="187" v:groupContext="shape" transform="translate(33.5598,-19.0621)">
					<title>Sheet.187</title>
					<ellipse cx="3.24584" cy="286.504" rx="3.24584" ry="3.28217" class="st4"/>
				</g>
				<g id="shape188-15" v:mID="188" v:groupContext="shape" transform="translate(22.059,-30.5628)">
					<title>Sheet.188</title>
					<ellipse cx="3.24584" cy="286.504" rx="3.24584" ry="3.28217" class="st4"/>
				</g>
				<g id="shape189-17" v:mID="189" v:groupContext="shape" transform="translate(45.0605,-30.5628)">
					<title>Sheet.189</title>
					<ellipse cx="3.24584" cy="286.504" rx="3.24584" ry="3.28217" class="st4"/>
				</g>
				<g id="shape190-19" v:mID="190" v:groupContext="shape" transform="translate(22.5644,-21.4571)">
					<title>Sheet.190</title>
					<path d="M13.42 289.79 L0 276.34 L22.81 276.34 L13.42 266.82 L15.07 265.05 L28.48 278.46 L5.66 278.46 L15.07
								 288.02 L13.42 289.79 Z" class="st4"/>
				</g>
				<g id="shape191-21" v:mID="191" v:groupContext="shape" transform="translate(35.9513,-22.1668)">
					<title>Sheet.191</title>
					<rect x="0" y="282.005" width="1.39652" height="7.78106" class="st4"/>
				</g>
				<g id="shape192-23" v:mID="192" v:groupContext="shape" transform="translate(35.9513,-37.7289)">
					<title>Sheet.192</title>
					<rect x="0" y="282.005" width="1.39652" height="7.78106" class="st4"/>
				</g>
			</g>
			<g id="shape193-25" v:mID="193" v:groupContext="shape">
				<title>Sheet.193</title>
				<desc>Transporter</desc>
				<v:textBlock v:margins="rect(4,4,4,4)" v:tabSpace="42.5197"/>
				<v:textRect cx="45.5863" cy="280.626" width="91.18" height="18.3201"/>
				<rect x="0" y="271.466" width="91.1726" height="18.3201" class="st5"/>
				<text x="11.18" y="284.83" class="st6" v:langID="2070"><v:paragraph v:horizAlign="1"/><v:tabList/>Transporter</text>			</g>
		</g>
		<g id="shape194-28" v:mID="194" v:groupContext="shape" v:layerMember="0" transform="translate(513.26,-148.726)">
			<title>Dynamic connector</title>
			<path d="M-6.67 283.09 L-7.03 283.09 L-102.1 282.31" class="st7"/>
		</g>
		<g id="group195-37" transform="translate(171.008,-29.9202)" v:mID="195" v:groupContext="group">
			<title>Sheet.195</title>
			<g id="group196-38" transform="translate(39.685,-58.2811)" v:mID="196" v:groupContext="group">
				<title>Sheet.196</title>
				<g id="group197-39" v:mID="197" v:groupContext="group">
					<title>Sheet.197</title>
					<g id="shape198-40" v:mID="198" v:groupContext="shape">
						<title>Sheet.198</title>
						<path d="M-0 270.2 A15.7821 19.5855 -180 0 0 15.78 289.79 L199.65 289.79 A15.7821 19.5855 -180 0 0 215.43
									 270.2 L215.43 178.8 A15.7821 19.5855 -180 0 0 199.65 159.22 L15.78 159.22 A15.7821 19.5855 -180
									 0 0 -0 178.8 L0 270.2 Z" class="st9"/>
					</g>
					<g id="group199-42" transform="translate(120.625,-26.4786)" v:mID="199" v:groupContext="group">
						<title>Sheet.199</title>
						<g id="shape200-43" v:mID="200" v:groupContext="shape" transform="translate(0.322164,0)">
							<title>Sheet.200</title>
							<rect x="0" y="206.023" width="72.4869" height="83.7626" class="st10"/>
						</g>
						<g id="shape201-45" v:mID="201" v:groupContext="shape" transform="translate(0,-0.483246)">
							<title>Sheet.201</title>
							<desc>Service Broker</desc>
							<v:textBlock v:margins="rect(0,0,0,0)" v:tabSpace="42.5197"/>
							<v:textRect cx="36.2434" cy="247.905" width="72.49" height="83.7626"/>
							<rect x="0" y="206.023" width="72.4869" height="83.7626" class="st11"/>
							<text x="15.44" y="243.7" class="st6" v:langID="2070"><v:paragraph v:horizAlign="1"/><v:tabList/>Service<v:lf/><tspan
										x="16.7" dy="1.2em" class="st12">Broker</tspan></text>						</g>
					</g>
					<g id="group202-49" transform="translate(6.39488E-14,-2.89091)" v:mID="202" v:groupContext="group">
						<title>Sheet.202</title>
						<g id="group203-50" transform="translate(7.62102,-34.3433)" v:mID="203" v:groupContext="group">
							<title>Sheet.203</title>
							<g id="shape204-51" v:mID="204" v:groupContext="shape" transform="translate(1.15933,-1.3074E-12)">
								<title>Sheet.204</title>
								<path d="M16.4 286.45 L1.19 260.08 C0 258.02 0 255.48 1.19 253.41 L16.4 227.04 C17.59 224.97 19.79
											 223.7 22.17 223.7 L52.6 223.7 C54.98 223.7 57.18 224.97 58.37 227.04 L73.58 253.41 C74.77
											 255.48 74.77 258.02 73.58 260.08 L58.37 286.45 C57.18 288.52 54.98 289.79 52.6 289.79
											 L22.17 289.79 C19.79 289.79 17.59 288.52 16.4 286.45 Z" class="st1"/>
							</g>
							<g id="shape205-53" v:mID="205" v:groupContext="shape" transform="translate(0,-1.739)">
								<title>Sheet.205</title>
								<path d="M16.4 286.45 L1.19 260.08 C0 258.02 0 255.48 1.19 253.41 L16.4 227.04 C17.59 224.97 19.79
											 223.7 22.17 223.7 L52.6 223.7 C54.98 223.7 57.18 224.97 58.37 227.04 L73.58 253.41 C74.77
											 255.48 74.77 258.02 73.58 260.08 L58.37 286.45 C57.18 288.52 54.98 289.79 52.6 289.79
											 L22.17 289.79 C19.79 289.79 17.59 288.52 16.4 286.45 Z" class="st13"/>
							</g>
							<g id="shape206-57" v:mID="206" v:groupContext="shape" transform="translate(20.6535,-1.739)">
								<title>Sheet.206</title>
								<path d="M35.7 256.25 L28.61 259.9 L25.44 256.72 L13.01 256.37 L7.22 250.58 L0 256.75 L4.9 264.4
											 L30.26 289.79 L31.95 289.79 C34.33 289.79 36.52 288.52 37.72 286.45 L48.02 268.59 L35.7
											 256.25 Z" class="st3"/>
							</g>
							<g id="shape207-59" v:mID="207" v:groupContext="shape" transform="translate(18.103,-26.9081)">
								<title>Sheet.207</title>
								<path d="M28 281.9 L26.35 280.24 L12.23 280.24 L10.57 281.9 L12.23 283.57 L26.35 283.57 L28 281.9
											 ZM9.77 287.19 L4.49 281.91 L9.77 276.64 C10.01 276.39 10.01 275.99 9.77 275.75 L8.31
											 274.29 C8.06 274.04 7.66 274.04 7.41 274.29 L0.24 281.47 C0 281.72 0 282.12 0.24 282.37
											 L1.7 283.82 L1.7 283.83 L7.42 289.54 C7.67 289.79 8.06 289.79 8.31 289.54 L9.77 288.08
											 C10.01 287.84 10.01 287.44 9.77 287.19 ZM28.8 276.64 L34.08 281.92 L28.8 287.19 C28.56
											 287.44 28.56 287.84 28.8 288.08 L30.26 289.54 C30.51 289.79 30.91 289.79 31.16 289.54
											 L38.33 282.37 C38.57 282.12 38.57 281.72 38.33 281.47 L36.87 280.01 L36.86 280.01 L31.15
											 274.29 C30.9 274.04 30.51 274.04 30.26 274.29 L28.8 275.75 C28.56 275.99 28.56 276.39
											 28.8 276.64 Z" class="st4"/>
							</g>
						</g>
						<g id="shape208-61" v:mID="208" v:groupContext="shape">
							<title>Sheet.208</title>
							<desc>API Gateway</desc>
							<v:textBlock v:margins="rect(4,4,4,4)" v:tabSpace="42.5197"/>
							<v:textRect cx="45.5863" cy="274.191" width="91.18" height="31.1906"/>
							<rect x="0" y="258.595" width="91.1726" height="31.1906" class="st5"/>
							<text x="35.75" y="269.99" class="st6" v:langID="2070"><v:paragraph v:horizAlign="1"/><v:tabList/>API<v:newlineChar/><tspan
										x="19.73" dy="1.2em" class="st12">Gateway</tspan></text>						</g>
					</g>
					<g id="shape209-65" v:mID="209" v:groupContext="shape" v:layerMember="0"
							transform="translate(120.625,-62.4672)">
						<title>Dynamic connector.67</title>
						<path d="M-6.67 282.85 L-7.03 282.85 L-30.35 282.55" class="st14"/>
					</g>
				</g>
				<g id="shape210-72" v:mID="210" v:groupContext="shape" transform="translate(-1.19904E-14,-110.567)">
					<title>Sheet.210</title>
					<desc>Node 1</desc>
					<v:textBlock v:margins="rect(4,4,4,4)" v:tabSpace="42.5197"/>
					<v:textRect cx="30.8976" cy="279.786" width="61.8" height="20"/>
					<rect x="0" y="269.786" width="61.7953" height="20" class="st5"/>
					<text x="10.11" y="283.99" class="st6" v:langID="2070"><v:paragraph v:horizAlign="1"/><v:tabList/>Node 1</text>				</g>
			</g>
			<g id="shape211-75" v:mID="211" v:groupContext="shape" v:layerMember="0" transform="translate(63.2404,-100.005)">
				<title>Dynamic connector.193</title>
				<path d="M0 289.79 L-46.23 372.41" class="st15"/>
			</g>
			<g id="shape212-78" v:mID="212" v:groupContext="shape" v:layerMember="0" transform="translate(108.62,-101.046)">
				<title>Dynamic connector.194</title>
				<path d="M0 289.79 L46.81 373.46" class="st15"/>
			</g>
			<g id="shape213-81" v:mID="213" v:groupContext="shape" transform="translate(17.0079,11.1702)">
				<title>Rectangle.117</title>
				<desc>- HTTP Server - Socket.IO Server</desc>
				<v:userDefs>
					<v:ud v:nameU="visVersion" v:val="VT0(15):26"/>
				</v:userDefs>
				<v:textBlock v:margins="rect(4,4,4,4)" v:tabSpace="42.5197"/>
				<v:textRect cx="69.2096" cy="261.24" width="138.42" height="57.0915"/>
				<path d="M0 289.79 L138.42 289.79 L138.42 232.69 L0 232.69 L0 289.79 Z" class="st16"/>
				<text x="4" y="257.04" class="st17" v:langID="2070"><v:paragraph/><v:tabList/>- HTTP Server<v:newlineChar/><tspan
							x="4" dy="1.2em" class="st12">-</tspan> Socket.IO Server</text>			</g>
		</g>
		<g id="shape214-85" v:mID="214" v:groupContext="shape" v:layerMember="0" transform="translate(526.377,-179.823)">
			<title>Dynamic connector.193</title>
			<path d="M0 289.79 L-55.6 230.91" class="st15"/>
		</g>
		<g id="shape215-88" v:mID="215" v:groupContext="shape" v:layerMember="0" transform="translate(573.074,-179.952)">
			<title>Dynamic connector.194</title>
			<path d="M0 289.79 L55.02 231.04" class="st15"/>
		</g>
		<g id="shape216-91" v:mID="216" v:groupContext="shape" transform="translate(470.772,-206.365)">
			<title>Rectangle.117</title>
			<desc>- Node Discovery - RPC requests - Ephemeral Events</desc>
			<v:userDefs>
				<v:ud v:nameU="visVersion" v:val="VT0(15):26"/>
			</v:userDefs>
			<v:textBlock v:margins="rect(4,4,4,4)" v:tabSpace="42.5197"/>
			<v:textRect cx="78.6614" cy="257.45" width="157.33" height="64.6713"/>
			<path d="M0 289.79 L157.32 289.79 L157.32 225.11 L0 225.11 L0 289.79 Z" class="st16"/>
			<text x="4" y="244.85" class="st17" v:langID="2070"><v:paragraph/><v:tabList/>- Node Discovery<v:newlineChar/><tspan
						x="4" dy="1.2em" class="st12">-</tspan> RPC requests<v:lf/><tspan x="4" dy="1.2em" class="st12">-</tspan> Ephemeral Events</text>		</g>
		<g id="shape217-96" v:mID="217" v:groupContext="shape" v:layerMember="0" transform="translate(218.619,-153.98)">
			<title>Dynamic connector.67</title>
			<path d="M-6.67 283.18 L-7.03 283.17 L-118.3 282.22" class="st18"/>
		</g>
		<g id="group218-103" transform="translate(22.7812,-126.649)" v:mID="218" v:groupContext="group">
			<title>Sheet.218</title>
			<g id="shape219-104" v:mID="219" v:groupContext="shape">
				<title>Sheet.219</title>
				<ellipse cx="35.2531" cy="254.533" rx="35.2531" ry="35.2531" class="st19"/>
			</g>
			<g id="shape220-106" v:mID="220" v:groupContext="shape" transform="translate(10.4966,-17.1049)">
				<title>Sheet.220</title>
				<path d="M47.31 289.79 L2.2 289.79 C0.99 289.79 0 288.8 0 287.58 L0 255.69 C0 254.48 0.99 253.49 2.2 253.49 L47.31
							 253.49 C48.53 253.49 49.51 254.48 49.51 255.69 L49.51 287.58 C49.51 288.8 48.53 289.79 47.31 289.79
							 Z" class="st20"/>
			</g>
			<g id="shape221-108" v:mID="221" v:groupContext="shape" transform="translate(10.4966,-47.3416)">
				<title>Sheet.221</title>
				<path d="M49.51 289.79 L49.51 285.93 C49.51 284.71 48.53 283.73 47.31 283.73 L2.2 283.73 C0.99 283.73 0 284.71 0
							 285.93 L0 289.79 L49.51 289.79 Z" class="st21"/>
			</g>
			<g id="shape222-110" v:mID="222" v:groupContext="shape" transform="translate(12.1182,-48.7192)">
				<title>Sheet.222</title>
				<ellipse cx="1.65249" cy="288.133" rx="1.65249" ry="1.65249" class="st22"/>
			</g>
			<g id="shape223-112" v:mID="223" v:groupContext="shape" transform="translate(17.0757,-48.7192)">
				<title>Sheet.223</title>
				<ellipse cx="1.65249" cy="288.133" rx="1.65249" ry="1.65249" class="st23"/>
			</g>
			<g id="shape224-114" v:mID="224" v:groupContext="shape" transform="translate(22.0337,-48.7192)">
				<title>Sheet.224</title>
				<ellipse cx="1.65249" cy="288.133" rx="1.65249" ry="1.65249" class="st24"/>
			</g>
			<g id="group225-116" transform="translate(17.0019,-23.5722)" v:mID="225" v:groupContext="group">
				<title>Sheet.225</title>
				<g id="shape226-117" v:mID="226" v:groupContext="shape" transform="translate(0,-2.11904)">
					<title>Sheet.226</title>
					<path d="M0 281.77 L12.45 275.98 L12.45 278.73 L3.04 282.86 L3.04 282.91 L12.45 287.04 L12.45 289.79 L0 284 L0
								 281.77 Z" class="st25"/>
				</g>
				<g id="shape227-119" v:mID="227" v:groupContext="shape" transform="translate(14.3722,0)">
					<title>Sheet.227</title>
					<path d="M0 289.79 L5.55 270.98 L8.17 270.98 L2.62 289.79 L0 289.79 Z" class="st25"/>
				</g>
				<g id="shape228-121" v:mID="228" v:groupContext="shape" transform="translate(24.0481,-2.11904)">
					<title>Sheet.228</title>
					<path d="M12.45 284.08 L0 289.79 L0 287.04 L9.63 282.91 L9.63 282.86 L0 278.73 L0 275.98 L12.45 281.69 L12.45
								 284.08 L12.45 284.08 Z" class="st25"/>
				</g>
			</g>
		</g>
		<g id="shape229-123" v:mID="229" v:groupContext="shape" v:layerMember="0" transform="translate(586.269,-148.425)">
			<title>Dynamic connector.158</title>
			<path d="M6.67 282.96 L7.03 282.96 L123.73 282.44" class="st7"/>
		</g>
		<g id="group230-130" transform="translate(703.922,-94.7031)" v:mID="230" v:groupContext="group">
			<title>Sheet.230</title>
			<g id="shape231-131" v:mID="231" v:groupContext="shape">
				<title>Sheet.231</title>
				<path d="M0 270.2 A15.984 19.5855 -180 0 0 15.98 289.79 L202.21 289.79 A15.984 19.5855 -180 0 0 218.19 270.2 L218.19
							 178.8 A15.984 19.5855 -180 0 0 202.21 159.22 L15.98 159.22 A15.984 19.5855 -180 0 0 0 178.8 L0 270.2
							 Z" class="st9"/>
			</g>
			<g id="group232-133" transform="translate(13.1117,-18.8939)" v:mID="232" v:groupContext="group">
				<title>Sheet.232</title>
				<g id="shape233-134" v:mID="233" v:groupContext="shape" transform="translate(0.322164,0)">
					<title>Sheet.233</title>
					<rect x="0" y="206.023" width="72.4869" height="83.7626" class="st10"/>
				</g>
				<g id="shape234-136" v:mID="234" v:groupContext="shape" transform="translate(0,-0.483246)">
					<title>Sheet.234</title>
					<desc>Service Broker</desc>
					<v:textBlock v:margins="rect(0,0,0,0)" v:tabSpace="42.5197"/>
					<v:textRect cx="36.2434" cy="247.905" width="72.49" height="83.7626"/>
					<rect x="0" y="206.023" width="72.4869" height="83.7626" class="st11"/>
					<text x="15.44" y="243.7" class="st6" v:langID="2070"><v:paragraph v:horizAlign="1"/><v:tabList/>Service<v:lf/><tspan
								x="16.7" dy="1.2em" class="st12">Broker</tspan></text>				</g>
			</g>
			<g id="group235-140" transform="translate(116.141,-9.4436)" v:mID="235" v:groupContext="group">
				<title>Sheet.235</title>
				<g id="shape236-141" v:mID="236" v:groupContext="shape" transform="translate(8.20069,-16.8642)">
					<title>Sheet.236</title>
					<path d="M16.39 286.49 L1.19 260.36 C0 258.32 0 255.79 1.19 253.75 L16.39 227.62 C17.58 225.56 19.78 224.3 22.17
								 224.3 L52.58 224.3 C54.97 224.29 57.18 225.55 58.38 227.6 L73.58 253.73 C74.77 255.78 74.77 258.3
								 73.58 260.34 L58.38 286.48 C57.18 288.53 54.97 289.79 52.58 289.78 L22.17 289.78 C19.79 289.79 17.59
								 288.53 16.39 286.49 Z" class="st1"/>
				</g>
				<g id="shape237-143" v:mID="237" v:groupContext="shape" transform="translate(7.04135,-18.6032)">
					<title>Sheet.237</title>
					<path d="M16.39 286.49 L1.19 260.36 C0 258.32 0 255.79 1.19 253.75 L16.39 227.62 C17.58 225.56 19.78 224.3 22.17
								 224.3 L52.58 224.3 C54.97 224.29 57.18 225.55 58.38 227.6 L73.58 253.73 C74.77 255.78 74.77 258.3
								 73.58 260.34 L58.38 286.48 C57.18 288.53 54.97 289.79 52.58 289.78 L22.17 289.78 C19.79 289.79 17.59
								 288.53 16.39 286.49 Z" class="st26"/>
				</g>
				<g id="shape238-147" v:mID="238" v:groupContext="shape" transform="translate(-8.27199,0)">
					<title>Sheet.238</title>
					<desc>Greeter Service</desc>
					<v:textBlock v:margins="rect(4,4,4,4)" v:tabSpace="42.5197"/>
					<v:textRect cx="53.8583" cy="283.788" width="107.72" height="11.9964"/>
					<rect x="0" y="277.79" width="107.717" height="11.9964" class="st5"/>
					<text x="9.04" y="287.99" class="st6" v:langID="2070"><v:paragraph v:horizAlign="1"/><v:tabList/>Greeter Service</text>				</g>
			</g>
			<g id="shape239-150" v:mID="239" v:groupContext="shape" v:layerMember="0" transform="translate(123.482,-53.9419)">
				<title>Dynamic connector.97</title>
				<path d="M-6.67 282.75 L-7.03 282.75 L-30.85 282.65" class="st14"/>
			</g>
			<g id="shape240-157" v:mID="240" v:groupContext="shape" transform="translate(8.7874,-110.567)">
				<title>Sheet.240</title>
				<desc>Node 2</desc>
				<v:textBlock v:margins="rect(4,4,4,4)" v:tabSpace="42.5197"/>
				<v:textRect cx="30.8976" cy="279.786" width="61.8" height="20"/>
				<rect x="0" y="269.786" width="61.7953" height="20" class="st5"/>
				<text x="10.11" y="283.99" class="st6" v:langID="2070"><v:paragraph v:horizAlign="1"/><v:tabList/>Node 2</text>			</g>
		</g>
	</g>
</svg>
