<?xml version="1.0" encoding="UTF-8" standalone="no"?>
<!DOCTYPE svg PUBLIC "-//W3C//DTD SVG 1.1//EN" "http://www.w3.org/Graphics/SVG/1.1/DTD/svg11.dtd">
<!-- Generated by Microsoft Visio, SVG Export channels-db.svg channels-db -->
<svg xmlns="http://www.w3.org/2000/svg" xmlns:xlink="http://www.w3.org/1999/xlink" xmlns:ev="http://www.w3.org/2001/xml-events"
		xmlns:v="http://schemas.microsoft.com/visio/2003/SVGExtensions/" width="8.48879in" height="5.60474in"
		viewBox="0 0 611.193 403.541" xml:space="preserve" color-interpolation-filters="sRGB" class="st24">
	<v:documentProperties v:langID="2070" v:metric="true" v:viewMarkup="false">
		<v:userDefs>
			<v:ud v:nameU="msvNoAutoConnect" v:val="VT0(1):26"/>
		</v:userDefs>
	</v:documentProperties>

	<style type="text/css">
	<![CDATA[
		.st1 {fill:#dae8fc;stroke:#6c8ebf;stroke-linecap:butt;stroke-width:0.75}
		.st2 {fill:#000000;fill-opacity:0.25;stroke:#000000;stroke-linecap:butt;stroke-opacity:0.25;stroke-width:0.75}
		.st3 {fill:#fff2cc;stroke:#d6b656;stroke-linecap:butt;stroke-width:0.75}
		.st4 {fill:#000000;font-family:Calibri;font-size:1.16666em;font-weight:bold}
		.st5 {font-size:1em}
		.st6 {fill:none;stroke:none;stroke-linecap:round;stroke-linejoin:round;stroke-width:0.75}
		.st7 {marker-end:url(#mrkr5-21);marker-start:url(#mrkr5-19);stroke:#000000;stroke-dasharray:1.5,3;stroke-linecap:round;stroke-linejoin:round;stroke-width:1.5}
		.st8 {fill:#000000;fill-opacity:1;stroke:#000000;stroke-opacity:1;stroke-width:0.37313432835821}
		.st9 {fill:#000000;fill-opacity:0.25;stroke:none;stroke-linecap:butt;stroke-width:0.75}
		.st10 {fill:url(#grad0-28);stroke:none;stroke-linecap:butt;stroke-width:0.75}
		.st11 {marker-end:url(#mrkr5-21);marker-start:url(#mrkr5-19);stroke:#000000;stroke-linecap:round;stroke-linejoin:round;stroke-width:1.5}
		.st12 {fill:#424a60;stroke:none;stroke-linecap:butt;stroke-width:11.5472}
		.st13 {fill:#556080;stroke:none;stroke-linecap:butt;stroke-width:11.5472}
		.st14 {fill:#7fabda;stroke:none;stroke-linecap:butt;stroke-width:11.5472}
		.st15 {fill:#7383bf;stroke:none;stroke-linecap:butt;stroke-width:11.5472}
		.st16 {marker-end:url(#mrkr5-21);marker-start:url(#mrkr5-19);stroke:#000000;stroke-dasharray:4.5,4.5,0,4.5,0,4.5;stroke-linecap:round;stroke-linejoin:round;stroke-width:1.5}
		.st17 {stroke:#000000;stroke-linecap:round;stroke-linejoin:round;stroke-width:1.5}
		.st18 {fill:#ffd965;stroke:none;stroke-linecap:butt;stroke-width:0.75}
		.st19 {fill:#000000;fill-opacity:0.067;stroke:none;stroke-linecap:butt;stroke-width:0.75}
		.st20 {fill:#ffffff;stroke:none;stroke-linecap:butt;stroke-width:0.75}
		.st21 {fill:#ffffff;stroke:#000000;stroke-dasharray:1.5,3;stroke-linecap:round;stroke-linejoin:round;stroke-width:1.5}
		.st22 {fill:#000000;font-family:Segoe UI;font-size:1.16666em;font-weight:bold}
		.st23 {fill:url(#grad0-154);stroke:none;stroke-linecap:butt;stroke-width:0.75}
		.st24 {fill:none;fill-rule:evenodd;font-size:12px;overflow:visible;stroke-linecap:square;stroke-miterlimit:3}
	]]>
	</style>

	<defs id="Patterns_And_Gradients">
		<linearGradient id="grad0-28" x1="0" y1="0" x2="1" y2="0" gradientTransform="rotate(90 0.5 0.5)">
			<stop offset="0" stop-color="#4387fd" stop-opacity="1"/>
			<stop offset="1" stop-color="#4683ea" stop-opacity="1"/>
		</linearGradient>
		<linearGradient id="grad0-154" x1="0" y1="0" x2="1" y2="0" gradientTransform="rotate(90 0.5 0.5)">
			<stop offset="0" stop-color="#fd9e3f" stop-opacity="1"/>
			<stop offset="1" stop-color="#ea9f49" stop-opacity="1"/>
		</linearGradient>
	</defs>
	<defs id="Markers">
		<g id="lend5">
			<path d="M 2 1 L 0 0 L 1.98117 -0.993387 C 1.67173 -0.364515 1.67301 0.372641 1.98465 1.00043 " style="stroke:none"/>
		</g>
		<marker id="mrkr5-19" class="st8" v:arrowType="5" v:arrowSize="2" v:setback="4.45" refX="4.45" orient="auto"
				markerUnits="strokeWidth" overflow="visible">
			<use xlink:href="#lend5" transform="scale(2.68) "/>
		</marker>
		<marker id="mrkr5-21" class="st8" v:arrowType="5" v:arrowSize="2" v:setback="4.69" refX="-4.69" orient="auto"
				markerUnits="strokeWidth" overflow="visible">
			<use xlink:href="#lend5" transform="scale(-2.68,-2.68) "/>
		</marker>
	</defs>
	<g v:mID="15" v:index="22" v:groupContext="foregroundPage">
		<title>channels-db</title>
		<v:pageProperties v:drawingScale="0.0393701" v:pageScale="0.0393701" v:drawingUnits="24" v:shadowOffsetX="9"
				v:shadowOffsetY="-9"/>
		<v:layer v:name="Connector" v:index="0"/>
		<g id="shape1-1" v:mID="1" v:groupContext="shape" transform="translate(220.275,-46.0513)">
			<title>Sheet.1</title>
			<path d="M0 362.08 A27.2641 41.4577 -180 0 0 27.26 403.54 L344.9 403.54 A27.2641 41.4577 -180 0 0 372.17 362.08 L372.17
						 168.62 A27.2641 41.4577 -180 0 0 344.9 127.16 L27.26 127.16 A27.2641 41.4577 -180 0 0 -0 168.62 L0 362.08
						 Z" class="st1"/>
		</g>
		<g id="group2-3" transform="translate(251.1,-146.158)" v:mID="2" v:groupContext="group">
			<title>Sheet.2</title>
			<g id="shape3-4" v:mID="3" v:groupContext="shape" transform="translate(0.322164,5.68434E-14)">
				<title>Sheet.3</title>
				<rect x="0" y="319.779" width="72.4869" height="83.7626" class="st2"/>
			</g>
			<g id="shape4-6" v:mID="4" v:groupContext="shape" transform="translate(0,-0.483246)">
				<title>Sheet.4</title>
				<desc>Service Broker</desc>
				<v:textBlock v:margins="rect(0,0,0,0)" v:tabSpace="42.5197"/>
				<v:textRect cx="36.2434" cy="361.66" width="72.49" height="83.7626"/>
				<rect x="0" y="319.779" width="72.4869" height="83.7626" class="st3"/>
				<text x="15.44" y="357.46" class="st4" v:langID="2070"><v:paragraph v:horizAlign="1"/><v:tabList/>Service<v:lf/><tspan
							x="16.7" dy="1.2em" class="st5">Broker</tspan></text>			</g>
		</g>
		<g id="shape13-10" v:mID="13" v:groupContext="shape" transform="translate(220.558,-294.403)">
			<title>Sheet.13</title>
			<desc>Node 1</desc>
			<v:textBlock v:margins="rect(4,4,4,4)" v:tabSpace="42.5197"/>
			<v:textRect cx="30.8976" cy="393.541" width="61.8" height="20"/>
			<rect x="0" y="383.541" width="61.7953" height="20" class="st6"/>
			<text x="10.11" y="397.74" class="st4" v:langID="2070"><v:paragraph v:horizAlign="1"/><v:tabList/>Node 1</text>		</g>
		<g id="shape29-13" v:mID="29" v:groupContext="shape" v:layerMember="0" transform="translate(128.037,-254.731)">
			<title>Dynamic connector.252</title>
			<path d="M6.16 406.11 L6.49 406.25 L116.89 452.38" class="st7"/>
		</g>
		<g id="group30-22" transform="translate(398.935,-230.303)" v:mID="30" v:groupContext="group">
			<title>Sheet.30</title>
			<g id="shape31-23" v:mID="31" v:groupContext="shape" transform="translate(8.20069,-16.8642)">
				<title>Sheet.31</title>
				<path d="M16.39 400.25 L1.19 374.12 C0 372.07 0 369.55 1.19 367.5 L16.39 341.37 C17.58 339.32 19.78 338.06 22.17
							 338.05 L52.58 338.05 C54.97 338.04 57.18 339.3 58.38 341.35 L73.58 367.49 C74.77 369.53 74.77 372.05
							 73.58 374.1 L58.38 400.23 C57.18 402.28 54.97 403.54 52.58 403.54 L22.17 403.54 C19.79 403.54 17.59
							 402.29 16.39 400.25 Z" class="st9"/>
			</g>
			<g id="shape32-25" v:mID="32" v:groupContext="shape" transform="translate(7.04135,-18.6032)">
				<title>Sheet.32</title>
				<path d="M16.39 400.25 L1.19 374.12 C0 372.07 0 369.55 1.19 367.5 L16.39 341.37 C17.58 339.32 19.78 338.06 22.17
							 338.05 L52.58 338.05 C54.97 338.04 57.18 339.3 58.38 341.35 L73.58 367.49 C74.77 369.53 74.77 372.05
							 73.58 374.1 L58.38 400.23 C57.18 402.28 54.97 403.54 52.58 403.54 L22.17 403.54 C19.79 403.54 17.59
							 402.29 16.39 400.25 Z" class="st10"/>
			</g>
			<g id="shape33-29" v:mID="33" v:groupContext="shape" transform="translate(-8.27199,5.68434E-14)">
				<title>Sheet.33</title>
				<desc>Greeter Service</desc>
				<v:textBlock v:margins="rect(4,4,4,4)" v:tabSpace="42.5197"/>
				<v:textRect cx="53.8583" cy="397.543" width="107.72" height="11.9964"/>
				<rect x="0" y="391.545" width="107.717" height="11.9964" class="st6"/>
				<text x="9.04" y="401.74" class="st4" v:langID="2070"><v:paragraph v:horizAlign="1"/><v:tabList/>Greeter Service</text>			</g>
		</g>
		<g id="group34-32" transform="translate(400.73,-138.177)" v:mID="34" v:groupContext="group">
			<title>Sheet.34</title>
			<g id="shape35-33" v:mID="35" v:groupContext="shape" transform="translate(8.20069,-16.8642)">
				<title>Sheet.35</title>
				<path d="M16.39 400.25 L1.19 374.12 C0 372.07 0 369.55 1.19 367.5 L16.39 341.37 C17.58 339.32 19.78 338.06 22.17
							 338.05 L52.58 338.05 C54.97 338.04 57.18 339.3 58.38 341.35 L73.58 367.49 C74.77 369.53 74.77 372.05
							 73.58 374.1 L58.38 400.23 C57.18 402.28 54.97 403.54 52.58 403.54 L22.17 403.54 C19.79 403.54 17.59
							 402.29 16.39 400.25 Z" class="st9"/>
			</g>
			<g id="shape36-35" v:mID="36" v:groupContext="shape" transform="translate(7.04135,-18.6032)">
				<title>Sheet.36</title>
				<path d="M16.39 400.25 L1.19 374.12 C0 372.07 0 369.55 1.19 367.5 L16.39 341.37 C17.58 339.32 19.78 338.06 22.17
							 338.05 L52.58 338.05 C54.97 338.04 57.18 339.3 58.38 341.35 L73.58 367.49 C74.77 369.53 74.77 372.05
							 73.58 374.1 L58.38 400.23 C57.18 402.28 54.97 403.54 52.58 403.54 L22.17 403.54 C19.79 403.54 17.59
							 402.29 16.39 400.25 Z" class="st10"/>
			</g>
			<g id="shape37-38" v:mID="37" v:groupContext="shape" transform="translate(-12.0822,5.68434E-14)">
				<title>Sheet.37</title>
				<desc>Products Service</desc>
				<v:textBlock v:margins="rect(4,4,4,4)" v:tabSpace="42.5197"/>
				<v:textRect cx="59.5276" cy="397.543" width="119.06" height="11.9964"/>
				<rect x="0" y="391.545" width="119.055" height="11.9964" class="st6"/>
				<text x="11.5" y="401.74" class="st4" v:langID="2070"><v:paragraph v:horizAlign="1"/><v:tabList/>Products Service</text>			</g>
		</g>
		<g id="shape38-41" v:mID="38" v:groupContext="shape" v:layerMember="0" transform="translate(525.048,-195.191)">
			<title>Dynamic connector.261</title>
			<path d="M-6.67 410.55 L-7.03 410.55 L-34.61 410.7" class="st11"/>
		</g>
		<g id="group39-48" transform="translate(525.048,-161.68)" v:mID="39" v:groupContext="group">
			<title>Sheet.39</title>
			<g id="shape40-49" v:mID="40" v:groupContext="shape">
				<title>Sheet.40</title>
				<path d="M48.26 358.26 C47.52 353.77 37.01 350.21 24.15 350.21 C11.29 350.21 0.78 353.77 0.05 358.26 L0 358.26 L0
							 358.76 L0 370.33 L0 370.84 L0 371.34 L0 382.41 L0 382.91 L0 383.41 L0 395.49 L0.05 395.49 C0.78 399.98
							 11.29 403.54 24.15 403.54 C37.01 403.54 47.52 399.98 48.26 395.49 L48.3 395.49 L48.3 383.41 L48.3 382.91
							 L48.3 382.41 L48.3 371.34 L48.3 370.84 L48.3 370.33 L48.3 358.76 L48.3 358.26 L48.26 358.26 Z"
						class="st12"/>
			</g>
			<g id="group41-51" v:mID="41" v:groupContext="group">
				<title>Sheet.41</title>
				<g id="shape42-52" v:mID="42" v:groupContext="shape">
					<title>Sheet.42</title>
					<path d="M24.15 391.47 C10.81 391.47 0 387.64 0 382.91 L0 395.49 L0.05 395.49 C0.78 399.98 11.29 403.54 24.15
								 403.54 C37.01 403.54 47.52 399.98 48.26 395.49 L48.3 395.49 L48.3 382.91 C48.3 387.64 37.49 391.47
								 24.15 391.47 Z" class="st12"/>
				</g>
				<g id="shape43-54" v:mID="43" v:groupContext="shape" transform="translate(0,-20.6301)">
					<title>Sheet.43</title>
					<path d="M0 403.04 L0 403.54 C0 403.37 0.02 403.21 0.05 403.04 L0 403.04 Z" class="st12"/>
				</g>
				<g id="shape44-56" v:mID="44" v:groupContext="shape" transform="translate(48.2592,-20.6301)">
					<title>Sheet.44</title>
					<path d="M0 403.04 C0.03 403.21 0.05 403.37 0.05 403.54 L0.05 403.04 L0 403.04 Z" class="st12"/>
				</g>
			</g>
			<g id="group45-58" transform="translate(0,-12.0761)" v:mID="45" v:groupContext="group">
				<title>Sheet.45</title>
				<g id="shape46-59" v:mID="46" v:groupContext="shape">
					<title>Sheet.46</title>
					<path d="M24.15 391.47 C10.81 391.47 0 387.64 0 382.91 L0 395.49 L0.05 395.49 C0.78 399.98 11.29 403.54 24.15
								 403.54 C37.01 403.54 47.52 399.98 48.26 395.49 L48.3 395.49 L48.3 382.91 C48.3 387.64 37.49 391.47
								 24.15 391.47 Z" class="st13"/>
				</g>
				<g id="shape47-61" v:mID="47" v:groupContext="shape" transform="translate(0,-20.6301)">
					<title>Sheet.47</title>
					<path d="M0 403.04 L0 403.54 C0 403.37 0.02 403.21 0.05 403.04 L0 403.04 Z" class="st13"/>
				</g>
				<g id="shape48-63" v:mID="48" v:groupContext="shape" transform="translate(48.2592,-20.6301)">
					<title>Sheet.48</title>
					<path d="M0 403.04 C0.03 403.21 0.05 403.37 0.05 403.54 L0.05 403.04 L0 403.04 Z" class="st13"/>
				</g>
			</g>
			<g id="shape49-65" v:mID="49" v:groupContext="shape" transform="translate(0,-36.2284)">
				<title>Sheet.49</title>
				<ellipse cx="24.1523" cy="394.988" rx="24.1523" ry="8.55393" class="st14"/>
			</g>
			<g id="group50-67" transform="translate(0,-24.1523)" v:mID="50" v:groupContext="group">
				<title>Sheet.50</title>
				<g id="shape51-68" v:mID="51" v:groupContext="shape">
					<title>Sheet.51</title>
					<path d="M24.15 391.47 C10.81 391.47 0 387.64 0 382.91 L0 395.49 L0.05 395.49 C0.78 399.98 11.29 403.54 24.15
								 403.54 C37.01 403.54 47.52 399.98 48.26 395.49 L48.3 395.49 L48.3 382.91 C48.3 387.64 37.49 391.47
								 24.15 391.47 Z" class="st15"/>
				</g>
				<g id="shape52-70" v:mID="52" v:groupContext="shape" transform="translate(0,-20.6301)">
					<title>Sheet.52</title>
					<path d="M0 403.04 L0 403.54 C0 403.37 0.02 403.21 0.05 403.04 L0 403.04 Z" class="st15"/>
				</g>
				<g id="shape53-72" v:mID="53" v:groupContext="shape" transform="translate(48.2592,-20.6301)">
					<title>Sheet.53</title>
					<path d="M0 403.04 C0.03 403.21 0.05 403.37 0.05 403.54 L0.05 403.04 L0 403.04 Z" class="st15"/>
				</g>
			</g>
		</g>
		<g id="group54-74" transform="translate(402.002,-46.9909)" v:mID="54" v:groupContext="group">
			<title>Sheet.54</title>
			<g id="shape55-75" v:mID="55" v:groupContext="shape" transform="translate(8.20069,-16.8642)">
				<title>Sheet.55</title>
				<path d="M16.39 400.25 L1.19 374.12 C0 372.07 0 369.55 1.19 367.5 L16.39 341.37 C17.58 339.32 19.78 338.06 22.17
							 338.05 L52.58 338.05 C54.97 338.04 57.18 339.3 58.38 341.35 L73.58 367.49 C74.77 369.53 74.77 372.05
							 73.58 374.1 L58.38 400.23 C57.18 402.28 54.97 403.54 52.58 403.54 L22.17 403.54 C19.79 403.54 17.59
							 402.29 16.39 400.25 Z" class="st9"/>
			</g>
			<g id="shape56-77" v:mID="56" v:groupContext="shape" transform="translate(7.04135,-18.6032)">
				<title>Sheet.56</title>
				<path d="M16.39 400.25 L1.19 374.12 C0 372.07 0 369.55 1.19 367.5 L16.39 341.37 C17.58 339.32 19.78 338.06 22.17
							 338.05 L52.58 338.05 C54.97 338.04 57.18 339.3 58.38 341.35 L73.58 367.49 C74.77 369.53 74.77 372.05
							 73.58 374.1 L58.38 400.23 C57.18 402.28 54.97 403.54 52.58 403.54 L22.17 403.54 C19.79 403.54 17.59
							 402.29 16.39 400.25 Z" class="st10"/>
			</g>
			<g id="shape57-80" v:mID="57" v:groupContext="shape" transform="translate(-6.91696,5.68434E-14)">
				<title>Sheet.57</title>
				<desc>Inventory Service</desc>
				<v:textBlock v:margins="rect(4,4,4,4)" v:tabSpace="42.5197"/>
				<v:textRect cx="57.0628" cy="397.543" width="114.13" height="11.9964"/>
				<rect x="0" y="391.545" width="114.126" height="11.9964" class="st6"/>
				<text x="6.47" y="401.74" class="st4" v:langID="2070"><v:paragraph v:horizAlign="1"/><v:tabList/>Inventory Service</text>			</g>
		</g>
		<g id="shape58-83" v:mID="58" v:groupContext="shape" v:layerMember="0" transform="translate(323.586,-209.597)">
			<title>Dynamic connector.97</title>
			<path d="M5.77 400.19 L6.08 400.01 L86.36 353.33" class="st11"/>
		</g>
		<g id="shape59-90" v:mID="59" v:groupContext="shape" v:layerMember="0" transform="translate(417.746,-114.547)">
			<title>Dynamic connector.282</title>
			<path d="M-5.81 400.26 L-6.13 400.08 L-87.71 353.99" class="st11"/>
		</g>
		<g id="shape60-97" v:mID="60" v:groupContext="shape" v:layerMember="0" transform="translate(408.077,-195.867)">
			<title>Dynamic connector.283</title>
			<path d="M-6.67 410.29 L-7.03 410.3 L-77.13 410.96" class="st11"/>
		</g>
		<g id="shape61-104" v:mID="61" v:groupContext="shape" v:layerMember="0" transform="translate(127.052,-151.876)">
			<title>Dynamic connector.179</title>
			<path d="M6.51 402.08 L6.86 402 L117.51 377.08" class="st16"/>
		</g>
		<g id="group79-111" transform="translate(18.75,-18.75)" v:mID="79" v:groupContext="group">
			<title>Sheet.79</title>
			<g id="shape80-112" v:mID="80" v:groupContext="shape" v:layerMember="0" transform="translate(97.8293,-99.8091)">
				<title>Dynamic connector.250</title>
				<path d="M0 403.54 L59.49 471.01" class="st17"/>
			</g>
			<g id="shape81-115" v:mID="81" v:groupContext="shape" v:layerMember="0" transform="translate(53.1076,-98.3568)">
				<title>Dynamic connector.205</title>
				<path d="M0 403.54 L-53.11 469.56" class="st17"/>
			</g>
			<g id="group82-118" transform="translate(37.5943,-92.7803)" v:mID="82" v:groupContext="group">
				<title>Sheet.82</title>
				<g id="shape83-119" v:mID="83" v:groupContext="shape" transform="translate(0.657184,-9.66338E-13)">
					<title>Sheet.83</title>
					<path d="M16.15 400.23 L1.17 374 C0 371.95 0 369.42 1.17 367.37 L16.15 341.14 C17.32 339.09 19.49 337.82 21.83
								 337.82 L51.78 337.82 C54.12 337.82 56.29 339.09 57.46 341.14 L72.43 367.37 C73.6 369.42 73.6 371.95
								 72.43 374 L57.46 400.23 C56.29 402.28 54.12 403.54 51.78 403.54 L21.83 403.54 C19.49 403.54 17.32
								 402.28 16.15 400.23 Z" class="st9"/>
				</g>
				<g id="shape84-121" v:mID="84" v:groupContext="shape" transform="translate(-3.83693E-13,-0.985776)">
					<title>Sheet.84</title>
					<path d="M16.15 400.23 L1.17 374 C0 371.95 0 369.42 1.17 367.37 L16.15 341.14 C17.32 339.09 19.49 337.82 21.83
								 337.82 L51.78 337.82 C54.12 337.82 56.29 339.09 57.46 341.14 L72.43 367.37 C73.6 369.42 73.6 371.95
								 72.43 374 L57.46 400.23 C56.29 402.28 54.12 403.54 51.78 403.54 L21.83 403.54 C19.49 403.54 17.32
								 402.28 16.15 400.23 Z" class="st18"/>
				</g>
				<g id="shape85-123" v:mID="85" v:groupContext="shape" transform="translate(23.1526,-1.15336)">
					<title>Sheet.85</title>
					<path d="M16 357.11 L13.73 356.69 L11.38 361.71 L13.36 363.72 L12.8 366.96 L16.06 370.25 L7.2 371.18 L4.59 368.53
								 L0 373.18 L30.03 403.54 C31.83 403.15 33.38 402 34.31 400.39 L43.27 384.7 L16 357.11 Z"
							class="st19"/>
				</g>
				<g id="shape86-125" v:mID="86" v:groupContext="shape" transform="translate(33.5598,-42.0635)">
					<title>Sheet.86</title>
					<ellipse cx="3.24584" cy="400.259" rx="3.24584" ry="3.28217" class="st20"/>
				</g>
				<g id="shape87-127" v:mID="87" v:groupContext="shape" transform="translate(33.5598,-19.0621)">
					<title>Sheet.87</title>
					<ellipse cx="3.24584" cy="400.259" rx="3.24584" ry="3.28217" class="st20"/>
				</g>
				<g id="shape88-129" v:mID="88" v:groupContext="shape" transform="translate(22.059,-30.5628)">
					<title>Sheet.88</title>
					<ellipse cx="3.24584" cy="400.259" rx="3.24584" ry="3.28217" class="st20"/>
				</g>
				<g id="shape89-131" v:mID="89" v:groupContext="shape" transform="translate(45.0605,-30.5628)">
					<title>Sheet.89</title>
					<ellipse cx="3.24584" cy="400.259" rx="3.24584" ry="3.28217" class="st20"/>
				</g>
				<g id="shape90-133" v:mID="90" v:groupContext="shape" transform="translate(22.5644,-21.4571)">
					<title>Sheet.90</title>
					<path d="M13.42 403.54 L0 390.1 L22.81 390.1 L13.42 380.57 L15.07 378.81 L28.48 392.22 L5.66 392.22 L15.07 401.78
								 L13.42 403.54 Z" class="st20"/>
				</g>
				<g id="shape91-135" v:mID="91" v:groupContext="shape" transform="translate(35.9513,-22.1668)">
					<title>Sheet.91</title>
					<rect x="0" y="395.76" width="1.39652" height="7.78106" class="st20"/>
				</g>
				<g id="shape92-137" v:mID="92" v:groupContext="shape" transform="translate(35.9513,-37.7289)">
					<title>Sheet.92</title>
					<rect x="0" y="395.76" width="1.39652" height="7.78106" class="st20"/>
				</g>
			</g>
			<g id="shape93-139" v:mID="93" v:groupContext="shape" transform="translate(26.3043,-70.8661)">
				<title>Sheet.93</title>
				<desc>Event Stream Broker</desc>
				<v:textBlock v:margins="rect(4,4,4,4)" v:tabSpace="42.5197"/>
				<v:textRect cx="50.9817" cy="394.381" width="101.97" height="18.3201"/>
				<rect x="0" y="385.221" width="101.963" height="18.3201" class="st6"/>
				<text x="34.55" y="390.18" class="st4" v:langID="2070"><v:paragraph v:horizAlign="1"/><v:tabList/>Event<v:newlineChar/><tspan
							x="8.95" dy="1.2em" class="st5">Stream Broker</tspan></text>			</g>
			<g id="shape94-143" v:mID="94" v:groupContext="shape">
				<title>Rectangle.117</title>
				<desc>Persistent Events</desc>
				<v:userDefs>
					<v:ud v:nameU="visVersion" v:val="VT0(15):26"/>
				</v:userDefs>
				<v:textBlock v:margins="rect(4,4,4,4)" v:tabSpace="42.5197"/>
				<v:textRect cx="78.6614" cy="371.206" width="157.33" height="64.6713"/>
				<path d="M0 403.54 L157.32 403.54 L157.32 338.87 L0 338.87 L0 403.54 Z" class="st21"/>
				<text x="22.89" y="375.41" class="st22" v:langID="2070"><v:paragraph v:horizAlign="1"/><v:tabList/>Persistent Events</text>			</g>
		</g>
		<g id="group95-146" transform="translate(18.75,-211.94)" v:mID="95" v:groupContext="group">
			<title>Sheet.95</title>
			<g id="group63-147" transform="translate(33.0751,5.68434E-14)" v:mID="63" v:groupContext="group">
				<title>Sheet.63</title>
				<g id="group64-148" transform="translate(8.45539,-22.5896)" v:mID="64" v:groupContext="group">
					<title>Sheet.64</title>
					<g id="shape65-149" v:mID="65" v:groupContext="shape" transform="translate(0.657184,-9.66338E-13)">
						<title>Sheet.65</title>
						<path d="M16.15 400.23 L1.17 374 C0 371.95 0 369.42 1.17 367.37 L16.15 341.14 C17.32 339.09 19.49 337.82
									 21.83 337.82 L51.78 337.82 C54.12 337.82 56.29 339.09 57.46 341.14 L72.43 367.37 C73.6 369.42
									 73.6 371.95 72.43 374 L57.46 400.23 C56.29 402.28 54.12 403.54 51.78 403.54 L21.83 403.54 C19.49
									 403.54 17.32 402.28 16.15 400.23 Z" class="st9"/>
					</g>
					<g id="shape66-151" v:mID="66" v:groupContext="shape" transform="translate(-3.67706E-13,-0.985776)">
						<title>Sheet.66</title>
						<path d="M16.15 400.23 L1.17 374 C0 371.95 0 369.42 1.17 367.37 L16.15 341.14 C17.32 339.09 19.49 337.82
									 21.83 337.82 L51.78 337.82 C54.12 337.82 56.29 339.09 57.46 341.14 L72.43 367.37 C73.6 369.42
									 73.6 371.95 72.43 374 L57.46 400.23 C56.29 402.28 54.12 403.54 51.78 403.54 L21.83 403.54 C19.49
									 403.54 17.32 402.28 16.15 400.23 Z" class="st23"/>
					</g>
					<g id="shape67-155" v:mID="67" v:groupContext="shape" transform="translate(23.1526,-1.15336)">
						<title>Sheet.67</title>
						<path d="M16 357.11 L13.73 356.69 L11.38 361.71 L13.36 363.72 L12.8 366.96 L16.06 370.25 L7.2 371.18 L4.59
									 368.53 L0 373.18 L30.03 403.54 C31.83 403.15 33.38 402 34.31 400.39 L43.27 384.7 L16 357.11
									 Z" class="st19"/>
					</g>
					<g id="shape68-157" v:mID="68" v:groupContext="shape" transform="translate(33.5598,-42.0635)">
						<title>Sheet.68</title>
						<ellipse cx="3.24584" cy="400.259" rx="3.24584" ry="3.28217" class="st20"/>
					</g>
					<g id="shape69-159" v:mID="69" v:groupContext="shape" transform="translate(33.5598,-19.0621)">
						<title>Sheet.69</title>
						<ellipse cx="3.24584" cy="400.259" rx="3.24584" ry="3.28217" class="st20"/>
					</g>
					<g id="shape70-161" v:mID="70" v:groupContext="shape" transform="translate(22.059,-30.5628)">
						<title>Sheet.70</title>
						<ellipse cx="3.24584" cy="400.259" rx="3.24584" ry="3.28217" class="st20"/>
					</g>
					<g id="shape71-163" v:mID="71" v:groupContext="shape" transform="translate(45.0605,-30.5628)">
						<title>Sheet.71</title>
						<ellipse cx="3.24584" cy="400.259" rx="3.24584" ry="3.28217" class="st20"/>
					</g>
					<g id="shape72-165" v:mID="72" v:groupContext="shape" transform="translate(22.5644,-21.4571)">
						<title>Sheet.72</title>
						<path d="M13.42 403.54 L0 390.1 L22.81 390.1 L13.42 380.57 L15.07 378.81 L28.48 392.22 L5.66 392.22 L15.07
									 401.78 L13.42 403.54 Z" class="st20"/>
					</g>
					<g id="shape73-167" v:mID="73" v:groupContext="shape" transform="translate(35.9513,-22.1668)">
						<title>Sheet.73</title>
						<rect x="0" y="395.76" width="1.39652" height="7.78106" class="st20"/>
					</g>
					<g id="shape74-169" v:mID="74" v:groupContext="shape" transform="translate(35.9513,-37.7289)">
						<title>Sheet.74</title>
						<rect x="0" y="395.76" width="1.39652" height="7.78106" class="st20"/>
					</g>
				</g>
				<g id="shape75-171" v:mID="75" v:groupContext="shape">
					<title>Sheet.75</title>
					<desc>Transporter</desc>
					<v:textBlock v:margins="rect(4,4,4,4)" v:tabSpace="42.5197"/>
					<v:textRect cx="45.5863" cy="394.381" width="91.18" height="18.3201"/>
					<rect x="0" y="385.221" width="91.1726" height="18.3201" class="st6"/>
					<text x="11.18" y="398.58" class="st4" v:langID="2070"><v:paragraph v:horizAlign="1"/><v:tabList/>Transporter</text>				</g>
			</g>
			<g id="shape76-174" v:mID="76" v:groupContext="shape" v:layerMember="0" transform="translate(55.7541,-80.4724)">
				<title>Dynamic connector.193</title>
				<path d="M0 403.54 L-55.75 343.5" class="st17"/>
			</g>
			<g id="shape77-177" v:mID="77" v:groupContext="shape" v:layerMember="0" transform="translate(102.152,-80.602)">
				<title>Dynamic connector.194</title>
				<path d="M0 403.54 L55.17 343.63" class="st17"/>
			</g>
			<g id="shape78-180" v:mID="78" v:groupContext="shape" transform="translate(0,-108.181)">
				<title>Rectangle.117</title>
				<desc>- Node Discovery - RPC requests - Ephemeral Events</desc>
				<v:userDefs>
					<v:ud v:nameU="visVersion" v:val="VT0(15):26"/>
				</v:userDefs>
				<v:textBlock v:margins="rect(4,4,4,4)" v:tabSpace="42.5197"/>
				<v:textRect cx="78.6614" cy="371.206" width="157.33" height="64.6713"/>
				<path d="M0 403.54 L157.32 403.54 L157.32 338.87 L0 338.87 L0 403.54 Z" class="st21"/>
				<text x="4" y="358.61" class="st22" v:langID="2070"><v:paragraph/><v:tabList/>- Node Discovery<v:newlineChar/><tspan
							x="4" dy="1.2em" class="st5">-</tspan> RPC requests<v:lf/><tspan x="4" dy="1.2em" class="st5">-</tspan> Ephemeral Events</text>			</g>
		</g>
	</g>
</svg>
