<?xml version="1.0" encoding="UTF-8" standalone="no"?>
<!DOCTYPE svg PUBLIC "-//W3C//DTD SVG 1.1//EN" "http://www.w3.org/Graphics/SVG/1.1/DTD/svg11.dtd">
<!-- Generated by Microsoft Visio, SVG Export db.svg db -->
<svg xmlns="http://www.w3.org/2000/svg" xmlns:xlink="http://www.w3.org/1999/xlink" xmlns:ev="http://www.w3.org/2001/xml-events"
		xmlns:v="http://schemas.microsoft.com/visio/2003/SVGExtensions/" width="8.48879in" height="4.35942in"
		viewBox="0 0 611.193 313.878" xml:space="preserve" color-interpolation-filters="sRGB" class="st22">
	<v:documentProperties v:langID="2070" v:metric="true" v:viewMarkup="false">
		<v:userDefs>
			<v:ud v:nameU="msvNoAutoConnect" v:val="VT0(1):26"/>
		</v:userDefs>
	</v:documentProperties>

	<style type="text/css">
	<![CDATA[
		.st1 {fill:#dae8fc;stroke:#6c8ebf;stroke-linecap:butt;stroke-width:0.75}
		.st2 {fill:#000000;fill-opacity:0.25;stroke:#000000;stroke-linecap:butt;stroke-opacity:0.25;stroke-width:0.75}
		.st3 {fill:#fff2cc;stroke:#d6b656;stroke-linecap:butt;stroke-width:0.75}
		.st4 {fill:#000000;font-family:Calibri;font-size:1.16666em;font-weight:bold}
		.st5 {font-size:1em}
		.st6 {fill:none;stroke:none;stroke-linecap:round;stroke-linejoin:round;stroke-width:0.75}
		.st7 {marker-end:url(#mrkr5-21);marker-start:url(#mrkr5-19);stroke:#000000;stroke-dasharray:1.5,3;stroke-linecap:round;stroke-linejoin:round;stroke-width:1.5}
		.st8 {fill:#000000;fill-opacity:1;stroke:#000000;stroke-opacity:1;stroke-width:0.37313432835821}
		.st9 {fill:#000000;fill-opacity:0.25;stroke:none;stroke-linecap:butt;stroke-width:0.75}
		.st10 {fill:url(#grad0-28);stroke:none;stroke-linecap:butt;stroke-width:0.75}
		.st11 {marker-end:url(#mrkr5-21);marker-start:url(#mrkr5-19);stroke:#000000;stroke-linecap:round;stroke-linejoin:round;stroke-width:1.5}
		.st12 {fill:#424a60;stroke:none;stroke-linecap:butt;stroke-width:11.5472}
		.st13 {fill:#556080;stroke:none;stroke-linecap:butt;stroke-width:11.5472}
		.st14 {fill:#7fabda;stroke:none;stroke-linecap:butt;stroke-width:11.5472}
		.st15 {fill:#7383bf;stroke:none;stroke-linecap:butt;stroke-width:11.5472}
		.st16 {fill:url(#grad0-96);stroke:none;stroke-linecap:butt;stroke-width:0.75}
		.st17 {fill:#000000;fill-opacity:0.067;stroke:none;stroke-linecap:butt;stroke-width:0.75}
		.st18 {fill:#ffffff;stroke:none;stroke-linecap:butt;stroke-width:0.75}
		.st19 {stroke:#000000;stroke-linecap:round;stroke-linejoin:round;stroke-width:1.5}
		.st20 {fill:#ffffff;stroke:#000000;stroke-dasharray:1.5,3;stroke-linecap:round;stroke-linejoin:round;stroke-width:1.5}
		.st21 {fill:#000000;font-family:Segoe UI;font-size:1.16666em;font-weight:bold}
		.st22 {fill:none;fill-rule:evenodd;font-size:12px;overflow:visible;stroke-linecap:square;stroke-miterlimit:3}
	]]>
	</style>

	<defs id="Patterns_And_Gradients">
		<linearGradient id="grad0-28" x1="0" y1="0" x2="1" y2="0" gradientTransform="rotate(90 0.5 0.5)">
			<stop offset="0" stop-color="#4387fd" stop-opacity="1"/>
			<stop offset="1" stop-color="#4683ea" stop-opacity="1"/>
		</linearGradient>
		<linearGradient id="grad0-96" x1="0" y1="0" x2="1" y2="0" gradientTransform="rotate(90 0.5 0.5)">
			<stop offset="0" stop-color="#fd9e3f" stop-opacity="1"/>
			<stop offset="1" stop-color="#ea9f49" stop-opacity="1"/>
		</linearGradient>
	</defs>
	<defs id="Markers">
		<g id="lend5">
			<path d="M 2 1 L 0 0 L 1.98117 -0.993387 C 1.67173 -0.364515 1.67301 0.372641 1.98465 1.00043 " style="stroke:none"/>
		</g>
		<marker id="mrkr5-19" class="st8" v:arrowType="5" v:arrowSize="2" v:setback="4.45" refX="4.45" orient="auto"
				markerUnits="strokeWidth" overflow="visible">
			<use xlink:href="#lend5" transform="scale(2.68) "/>
		</marker>
		<marker id="mrkr5-21" class="st8" v:arrowType="5" v:arrowSize="2" v:setback="4.69" refX="-4.69" orient="auto"
				markerUnits="strokeWidth" overflow="visible">
			<use xlink:href="#lend5" transform="scale(-2.68,-2.68) "/>
		</marker>
	</defs>
	<g v:mID="16" v:index="14" v:groupContext="foregroundPage">
		<title>db</title>
		<v:pageProperties v:drawingScale="0.0393701" v:pageScale="0.0393701" v:drawingUnits="24" v:shadowOffsetX="9"
				v:shadowOffsetY="-9"/>
		<v:layer v:name="Connector" v:index="0"/>
		<g id="shape1-1" v:mID="1" v:groupContext="shape" transform="translate(220.275,-18.75)">
			<title>Sheet.1</title>
			<path d="M0 272.42 A27.2641 41.4577 -180 0 0 27.26 313.88 L344.9 313.88 A27.2641 41.4577 -180 0 0 372.17 272.42 L372.17
						 78.96 A27.2641 41.4577 -180 0 0 344.9 37.5 L27.26 37.5 A27.2641 41.4577 -180 0 0 -0 78.96 L0 272.42 Z"
					class="st1"/>
		</g>
		<g id="group2-3" transform="translate(251.1,-118.857)" v:mID="2" v:groupContext="group">
			<title>Sheet.2</title>
			<g id="shape3-4" v:mID="3" v:groupContext="shape" transform="translate(0.322164,0)">
				<title>Sheet.3</title>
				<rect x="0" y="230.115" width="72.4869" height="83.7626" class="st2"/>
			</g>
			<g id="shape4-6" v:mID="4" v:groupContext="shape" transform="translate(0,-0.483246)">
				<title>Sheet.4</title>
				<desc>Service Broker</desc>
				<v:textBlock v:margins="rect(0,0,0,0)" v:tabSpace="42.5197"/>
				<v:textRect cx="36.2434" cy="271.997" width="72.49" height="83.7626"/>
				<rect x="0" y="230.115" width="72.4869" height="83.7626" class="st3"/>
				<text x="15.44" y="267.8" class="st4" v:langID="2070"><v:paragraph v:horizAlign="1"/><v:tabList/>Service<v:lf/><tspan
							x="16.7" dy="1.2em" class="st5">Broker</tspan></text>			</g>
		</g>
		<g id="shape5-10" v:mID="5" v:groupContext="shape" transform="translate(220.558,-267.102)">
			<title>Sheet.5</title>
			<desc>Node 1</desc>
			<v:textBlock v:margins="rect(4,4,4,4)" v:tabSpace="42.5197"/>
			<v:textRect cx="30.8976" cy="303.878" width="61.8" height="20"/>
			<rect x="0" y="293.878" width="61.7953" height="20" class="st6"/>
			<text x="10.11" y="308.08" class="st4" v:langID="2070"><v:paragraph v:horizAlign="1"/><v:tabList/>Node 1</text>		</g>
		<g id="shape6-13" v:mID="6" v:groupContext="shape" v:layerMember="0" transform="translate(134.248,-168.117)">
			<title>Dynamic connector.252</title>
			<path d="M6.67 320.8 L7.03 320.81 L110.14 321.12" class="st7"/>
		</g>
		<g id="group7-22" transform="translate(398.935,-203.002)" v:mID="7" v:groupContext="group">
			<title>Sheet.7</title>
			<g id="shape8-23" v:mID="8" v:groupContext="shape" transform="translate(8.20069,-16.8642)">
				<title>Sheet.8</title>
				<path d="M16.39 310.59 L1.19 284.45 C0 282.41 0 279.89 1.19 277.84 L16.39 251.71 C17.58 249.66 19.78 248.39 22.17
							 248.39 L52.58 248.39 C54.97 248.38 57.18 249.64 58.38 251.69 L73.58 277.82 C74.77 279.87 74.77 282.39
							 73.58 284.44 L58.38 310.57 C57.18 312.62 54.97 313.88 52.58 313.87 L22.17 313.87 C19.79 313.88 17.59
							 312.63 16.39 310.59 Z" class="st9"/>
			</g>
			<g id="shape9-25" v:mID="9" v:groupContext="shape" transform="translate(7.04135,-18.6032)">
				<title>Sheet.9</title>
				<path d="M16.39 310.59 L1.19 284.45 C0 282.41 0 279.89 1.19 277.84 L16.39 251.71 C17.58 249.66 19.78 248.39 22.17
							 248.39 L52.58 248.39 C54.97 248.38 57.18 249.64 58.38 251.69 L73.58 277.82 C74.77 279.87 74.77 282.39
							 73.58 284.44 L58.38 310.57 C57.18 312.62 54.97 313.88 52.58 313.87 L22.17 313.87 C19.79 313.88 17.59
							 312.63 16.39 310.59 Z" class="st10"/>
			</g>
			<g id="shape10-29" v:mID="10" v:groupContext="shape" transform="translate(-8.27199,0)">
				<title>Sheet.10</title>
				<desc>Greeter Service</desc>
				<v:textBlock v:margins="rect(4,4,4,4)" v:tabSpace="42.5197"/>
				<v:textRect cx="53.8583" cy="307.88" width="107.72" height="11.9964"/>
				<rect x="0" y="301.882" width="107.717" height="11.9964" class="st6"/>
				<text x="9.04" y="312.08" class="st4" v:langID="2070"><v:paragraph v:horizAlign="1"/><v:tabList/>Greeter Service</text>			</g>
		</g>
		<g id="group11-32" transform="translate(400.73,-44.8987)" v:mID="11" v:groupContext="group">
			<title>Sheet.11</title>
			<g id="shape12-33" v:mID="12" v:groupContext="shape" transform="translate(8.20069,-16.8642)">
				<title>Sheet.12</title>
				<path d="M16.39 310.59 L1.19 284.45 C0 282.41 0 279.89 1.19 277.84 L16.39 251.71 C17.58 249.66 19.78 248.39 22.17
							 248.39 L52.58 248.39 C54.97 248.38 57.18 249.64 58.38 251.69 L73.58 277.82 C74.77 279.87 74.77 282.39
							 73.58 284.44 L58.38 310.57 C57.18 312.62 54.97 313.88 52.58 313.87 L22.17 313.87 C19.79 313.88 17.59
							 312.63 16.39 310.59 Z" class="st9"/>
			</g>
			<g id="shape13-35" v:mID="13" v:groupContext="shape" transform="translate(7.04135,-18.6032)">
				<title>Sheet.13</title>
				<path d="M16.39 310.59 L1.19 284.45 C0 282.41 0 279.89 1.19 277.84 L16.39 251.71 C17.58 249.66 19.78 248.39 22.17
							 248.39 L52.58 248.39 C54.97 248.38 57.18 249.64 58.38 251.69 L73.58 277.82 C74.77 279.87 74.77 282.39
							 73.58 284.44 L58.38 310.57 C57.18 312.62 54.97 313.88 52.58 313.87 L22.17 313.87 C19.79 313.88 17.59
							 312.63 16.39 310.59 Z" class="st10"/>
			</g>
			<g id="shape14-38" v:mID="14" v:groupContext="shape" transform="translate(-12.0822,0)">
				<title>Sheet.14</title>
				<desc>Products Service</desc>
				<v:textBlock v:margins="rect(4,4,4,4)" v:tabSpace="42.5197"/>
				<v:textRect cx="59.5276" cy="307.88" width="119.06" height="11.9964"/>
				<rect x="0" y="301.882" width="119.055" height="11.9964" class="st6"/>
				<text x="11.5" y="312.08" class="st4" v:langID="2070"><v:paragraph v:horizAlign="1"/><v:tabList/>Products Service</text>			</g>
		</g>
		<g id="shape15-41" v:mID="15" v:groupContext="shape" v:layerMember="0" transform="translate(525.048,-101.912)">
			<title>Dynamic connector.261</title>
			<path d="M-6.67 320.89 L-7.03 320.89 L-34.61 321.04" class="st11"/>
		</g>
		<g id="group16-48" transform="translate(525.048,-68.4012)" v:mID="16" v:groupContext="group">
			<title>Sheet.16</title>
			<g id="shape17-49" v:mID="17" v:groupContext="shape">
				<title>Sheet.17</title>
				<path d="M48.26 268.59 C47.52 264.1 37.01 260.54 24.15 260.54 C11.29 260.54 0.78 264.1 0.05 268.59 L0 268.59 L0 269.1
							 L0 280.67 L0 281.17 L0 281.67 L0 292.74 L0 293.25 L0 293.75 L0 305.83 L0.05 305.83 C0.78 310.32 11.29
							 313.88 24.15 313.88 C37.01 313.88 47.52 310.32 48.26 305.83 L48.3 305.83 L48.3 293.75 L48.3 293.25 L48.3
							 292.74 L48.3 281.67 L48.3 281.17 L48.3 280.67 L48.3 269.1 L48.3 268.59 L48.26 268.59 Z" class="st12"/>
			</g>
			<g id="group18-51" v:mID="18" v:groupContext="group">
				<title>Sheet.18</title>
				<g id="shape19-52" v:mID="19" v:groupContext="shape">
					<title>Sheet.19</title>
					<path d="M24.15 301.8 C10.81 301.8 0 297.97 0 293.25 L0 305.83 L0.05 305.83 C0.78 310.32 11.29 313.88 24.15 313.88
								 C37.01 313.88 47.52 310.32 48.26 305.83 L48.3 305.83 L48.3 293.25 C48.3 297.97 37.49 301.8 24.15
								 301.8 Z" class="st12"/>
				</g>
				<g id="shape20-54" v:mID="20" v:groupContext="shape" transform="translate(0,-20.6301)">
					<title>Sheet.20</title>
					<path d="M0 313.37 L0 313.88 C0 313.71 0.02 313.54 0.05 313.37 L0 313.37 Z" class="st12"/>
				</g>
				<g id="shape21-56" v:mID="21" v:groupContext="shape" transform="translate(48.2592,-20.6301)">
					<title>Sheet.21</title>
					<path d="M0 313.37 C0.03 313.54 0.05 313.71 0.05 313.88 L0.05 313.37 L0 313.37 Z" class="st12"/>
				</g>
			</g>
			<g id="group22-58" transform="translate(0,-12.0761)" v:mID="22" v:groupContext="group">
				<title>Sheet.22</title>
				<g id="shape23-59" v:mID="23" v:groupContext="shape">
					<title>Sheet.23</title>
					<path d="M24.15 301.8 C10.81 301.8 0 297.97 0 293.25 L0 305.83 L0.05 305.83 C0.78 310.32 11.29 313.88 24.15 313.88
								 C37.01 313.88 47.52 310.32 48.26 305.83 L48.3 305.83 L48.3 293.25 C48.3 297.97 37.49 301.8 24.15
								 301.8 Z" class="st13"/>
				</g>
				<g id="shape24-61" v:mID="24" v:groupContext="shape" transform="translate(0,-20.6301)">
					<title>Sheet.24</title>
					<path d="M0 313.37 L0 313.88 C0 313.71 0.02 313.54 0.05 313.37 L0 313.37 Z" class="st13"/>
				</g>
				<g id="shape25-63" v:mID="25" v:groupContext="shape" transform="translate(48.2592,-20.6301)">
					<title>Sheet.25</title>
					<path d="M0 313.37 C0.03 313.54 0.05 313.71 0.05 313.88 L0.05 313.37 L0 313.37 Z" class="st13"/>
				</g>
			</g>
			<g id="shape26-65" v:mID="26" v:groupContext="shape" transform="translate(0,-36.2284)">
				<title>Sheet.26</title>
				<ellipse cx="24.1523" cy="305.324" rx="24.1523" ry="8.55393" class="st14"/>
			</g>
			<g id="group27-67" transform="translate(0,-24.1523)" v:mID="27" v:groupContext="group">
				<title>Sheet.27</title>
				<g id="shape28-68" v:mID="28" v:groupContext="shape">
					<title>Sheet.28</title>
					<path d="M24.15 301.8 C10.81 301.8 0 297.97 0 293.25 L0 305.83 L0.05 305.83 C0.78 310.32 11.29 313.88 24.15 313.88
								 C37.01 313.88 47.52 310.32 48.26 305.83 L48.3 305.83 L48.3 293.25 C48.3 297.97 37.49 301.8 24.15
								 301.8 Z" class="st15"/>
				</g>
				<g id="shape29-70" v:mID="29" v:groupContext="shape" transform="translate(0,-20.6301)">
					<title>Sheet.29</title>
					<path d="M0 313.37 L0 313.88 C0 313.71 0.02 313.54 0.05 313.37 L0 313.37 Z" class="st15"/>
				</g>
				<g id="shape30-72" v:mID="30" v:groupContext="shape" transform="translate(48.2592,-20.6301)">
					<title>Sheet.30</title>
					<path d="M0 313.37 C0.03 313.54 0.05 313.71 0.05 313.88 L0.05 313.37 L0 313.37 Z" class="st15"/>
				</g>
			</g>
		</g>
		<g id="shape35-74" v:mID="35" v:groupContext="shape" v:layerMember="0" transform="translate(323.586,-182.295)">
			<title>Dynamic connector.97</title>
			<path d="M5.77 310.52 L6.08 310.34 L86.36 263.66" class="st11"/>
		</g>
		<g id="shape37-81" v:mID="37" v:groupContext="shape" v:layerMember="0" transform="translate(414.379,-108.853)">
			<title>Dynamic connector.283</title>
			<path d="M-6.18 311.35 L-6.51 311.21 L-83.96 279.5" class="st11"/>
		</g>
		<g id="group55-88" transform="translate(18.75,-105.874)" v:mID="55" v:groupContext="group">
			<title>Sheet.55</title>
			<g id="group56-89" transform="translate(33.0751,0)" v:mID="56" v:groupContext="group">
				<title>Sheet.56</title>
				<g id="group57-90" transform="translate(8.45539,-22.5896)" v:mID="57" v:groupContext="group">
					<title>Sheet.57</title>
					<g id="shape58-91" v:mID="58" v:groupContext="shape" transform="translate(0.657184,-1.02318E-12)">
						<title>Sheet.58</title>
						<path d="M16.15 310.56 L1.17 284.34 C0 282.29 0 279.76 1.17 277.7 L16.15 251.48 C17.32 249.42 19.49 248.16
									 21.83 248.16 L51.78 248.16 C54.12 248.16 56.29 249.42 57.46 251.48 L72.43 277.7 C73.6 279.76
									 73.6 282.29 72.43 284.34 L57.46 310.56 C56.29 312.61 54.12 313.88 51.78 313.88 L21.83 313.88
									 C19.49 313.88 17.32 312.61 16.15 310.56 Z" class="st9"/>
					</g>
					<g id="shape59-93" v:mID="59" v:groupContext="shape" transform="translate(-3.67706E-13,-0.985776)">
						<title>Sheet.59</title>
						<path d="M16.15 310.56 L1.17 284.34 C0 282.29 0 279.76 1.17 277.7 L16.15 251.48 C17.32 249.42 19.49 248.16
									 21.83 248.16 L51.78 248.16 C54.12 248.16 56.29 249.42 57.46 251.48 L72.43 277.7 C73.6 279.76
									 73.6 282.29 72.43 284.34 L57.46 310.56 C56.29 312.61 54.12 313.88 51.78 313.88 L21.83 313.88
									 C19.49 313.88 17.32 312.61 16.15 310.56 Z" class="st16"/>
					</g>
					<g id="shape60-97" v:mID="60" v:groupContext="shape" transform="translate(23.1526,-1.15336)">
						<title>Sheet.60</title>
						<path d="M16 267.45 L13.73 267.03 L11.38 272.05 L13.36 274.05 L12.8 277.3 L16.06 280.59 L7.2 281.51 L4.59
									 278.86 L0 283.51 L30.03 313.88 C31.83 313.48 33.38 312.34 34.31 310.73 L43.27 295.03 L16 267.45
									 Z" class="st17"/>
					</g>
					<g id="shape61-99" v:mID="61" v:groupContext="shape" transform="translate(33.5598,-42.0635)">
						<title>Sheet.61</title>
						<ellipse cx="3.24584" cy="310.596" rx="3.24584" ry="3.28217" class="st18"/>
					</g>
					<g id="shape62-101" v:mID="62" v:groupContext="shape" transform="translate(33.5598,-19.0621)">
						<title>Sheet.62</title>
						<ellipse cx="3.24584" cy="310.596" rx="3.24584" ry="3.28217" class="st18"/>
					</g>
					<g id="shape63-103" v:mID="63" v:groupContext="shape" transform="translate(22.059,-30.5628)">
						<title>Sheet.63</title>
						<ellipse cx="3.24584" cy="310.596" rx="3.24584" ry="3.28217" class="st18"/>
					</g>
					<g id="shape64-105" v:mID="64" v:groupContext="shape" transform="translate(45.0605,-30.5628)">
						<title>Sheet.64</title>
						<ellipse cx="3.24584" cy="310.596" rx="3.24584" ry="3.28217" class="st18"/>
					</g>
					<g id="shape65-107" v:mID="65" v:groupContext="shape" transform="translate(22.5644,-21.4571)">
						<title>Sheet.65</title>
						<path d="M13.42 313.88 L0 300.43 L22.81 300.43 L13.42 290.91 L15.07 289.14 L28.48 302.55 L5.66 302.55 L15.07
									 312.11 L13.42 313.88 Z" class="st18"/>
					</g>
					<g id="shape66-109" v:mID="66" v:groupContext="shape" transform="translate(35.9513,-22.1668)">
						<title>Sheet.66</title>
						<rect x="0" y="306.097" width="1.39652" height="7.78106" class="st18"/>
					</g>
					<g id="shape67-111" v:mID="67" v:groupContext="shape" transform="translate(35.9513,-37.7289)">
						<title>Sheet.67</title>
						<rect x="0" y="306.097" width="1.39652" height="7.78106" class="st18"/>
					</g>
				</g>
				<g id="shape68-113" v:mID="68" v:groupContext="shape">
					<title>Sheet.68</title>
					<desc>Transporter</desc>
					<v:textBlock v:margins="rect(4,4,4,4)" v:tabSpace="42.5197"/>
					<v:textRect cx="45.5863" cy="304.718" width="91.18" height="18.3201"/>
					<rect x="0" y="295.558" width="91.1726" height="18.3201" class="st6"/>
					<text x="11.18" y="308.92" class="st4" v:langID="2070"><v:paragraph v:horizAlign="1"/><v:tabList/>Transporter</text>				</g>
			</g>
			<g id="shape69-116" v:mID="69" v:groupContext="shape" v:layerMember="0" transform="translate(55.7541,-80.4724)">
				<title>Dynamic connector.193</title>
				<path d="M0 313.88 L-55.75 253.83" class="st19"/>
			</g>
			<g id="shape70-119" v:mID="70" v:groupContext="shape" v:layerMember="0" transform="translate(102.152,-80.602)">
				<title>Dynamic connector.194</title>
				<path d="M0 313.88 L55.17 253.96" class="st19"/>
			</g>
			<g id="shape71-122" v:mID="71" v:groupContext="shape" transform="translate(0,-108.181)">
				<title>Rectangle.117</title>
				<desc>- Node Discovery - RPC requests - Ephemeral Events</desc>
				<v:userDefs>
					<v:ud v:nameU="visVersion" v:val="VT0(15):26"/>
				</v:userDefs>
				<v:textBlock v:margins="rect(4,4,4,4)" v:tabSpace="42.5197"/>
				<v:textRect cx="78.6614" cy="281.542" width="157.33" height="64.6713"/>
				<path d="M0 313.88 L157.32 313.88 L157.32 249.21 L0 249.21 L0 313.88 Z" class="st20"/>
				<text x="4" y="268.94" class="st21" v:langID="2070"><v:paragraph/><v:tabList/>- Node Discovery<v:newlineChar/><tspan
							x="4" dy="1.2em" class="st5">-</tspan> RPC requests<v:lf/><tspan x="4" dy="1.2em" class="st5">-</tspan> Ephemeral Events</text>			</g>
		</g>
	</g>
</svg>
