<?xml version="1.0" encoding="UTF-8" standalone="no"?>
<!DOCTYPE svg PUBLIC "-//W3C//DTD SVG 1.1//EN" "http://www.w3.org/Graphics/SVG/1.1/DTD/svg11.dtd">
<!-- Generated by Microsoft Visio, SVG Export io-gql-http.svg Page-9 -->
<svg xmlns="http://www.w3.org/2000/svg" xmlns:xlink="http://www.w3.org/1999/xlink" xmlns:ev="http://www.w3.org/2001/xml-events"
		xmlns:v="http://schemas.microsoft.com/visio/2003/SVGExtensions/" width="8.42079in" height="5.84044in"
		viewBox="0 0 606.297 420.511" xml:space="preserve" color-interpolation-filters="sRGB" class="st27">
	<v:documentProperties v:langID="2070" v:metric="true" v:viewMarkup="false">
		<v:userDefs>
			<v:ud v:nameU="msvNoAutoConnect" v:val="VT0(1):26"/>
		</v:userDefs>
	</v:documentProperties>

	<style type="text/css">
	<![CDATA[
		.st1 {fill:#dae8fc;stroke:#6c8ebf;stroke-linecap:butt;stroke-width:0.75}
		.st2 {fill:#000000;fill-opacity:0.25;stroke:#000000;stroke-linecap:butt;stroke-opacity:0.25;stroke-width:0.75}
		.st3 {fill:#fff2cc;stroke:#d6b656;stroke-linecap:butt;stroke-width:0.75}
		.st4 {fill:#000000;font-family:Calibri;font-size:1.16666em;font-weight:bold}
		.st5 {font-size:1em}
		.st6 {fill:#000000;fill-opacity:0.25;stroke:none;stroke-linecap:butt;stroke-width:0.75}
		.st7 {fill:url(#grad0-17);stroke:none;stroke-linecap:butt;stroke-width:0.75}
		.st8 {fill:#000000;fill-opacity:0.067;stroke:none;stroke-linecap:butt;stroke-width:0.75}
		.st9 {fill:#ffffff;stroke:none;stroke-linecap:butt;stroke-width:0.75}
		.st10 {fill:none;stroke:none;stroke-linecap:round;stroke-linejoin:round;stroke-width:0.75}
		.st11 {marker-end:url(#mrkr5-34);marker-start:url(#mrkr5-32);stroke:#000000;stroke-linecap:round;stroke-linejoin:round;stroke-width:1.5}
		.st12 {fill:#000000;fill-opacity:1;stroke:#000000;stroke-opacity:1;stroke-width:0.37313432835821}
		.st13 {stroke:#000000;stroke-linecap:round;stroke-linejoin:round;stroke-width:1.5}
		.st14 {fill:#ffffff;stroke:#000000;stroke-dasharray:1.5,3;stroke-linecap:round;stroke-linejoin:round;stroke-width:1.5}
		.st15 {fill:#000000;font-family:Segoe UI;font-size:1.16666em;font-weight:bold}
		.st16 {marker-end:url(#mrkr5-34);marker-start:url(#mrkr5-32);stroke:#000000;stroke-dasharray:10.5,7.5,0,7.5;stroke-linecap:round;stroke-linejoin:round;stroke-width:1.5}
		.st17 {fill:#f54f33;stroke:none;stroke-linecap:butt;stroke-width:4.78125}
		.st18 {fill:#ffffff;stroke:none;stroke-linecap:butt;stroke-width:4.78125}
		.st19 {fill:#e1e3e9;stroke:none;stroke-linecap:butt;stroke-width:4.78125}
		.st20 {fill:#f24b45;stroke:none;stroke-linecap:butt;stroke-width:4.78125}
		.st21 {fill:#ffb202;stroke:none;stroke-linecap:butt;stroke-width:4.78125}
		.st22 {fill:#4cbb41;stroke:none;stroke-linecap:butt;stroke-width:4.78125}
		.st23 {fill:#53899f;stroke:none;stroke-linecap:butt;stroke-width:4.78125}
		.st24 {marker-end:url(#mrkr5-34);marker-start:url(#mrkr5-32);stroke:#000000;stroke-dasharray:1.5,3;stroke-linecap:round;stroke-linejoin:round;stroke-width:1.5}
		.st25 {fill:url(#grad0-89);stroke:none;stroke-linecap:butt;stroke-width:0.75}
		.st26 {fill:url(#grad0-108);stroke:none;stroke-linecap:butt;stroke-width:0.75}
		.st27 {fill:none;fill-rule:evenodd;font-size:12px;overflow:visible;stroke-linecap:square;stroke-miterlimit:3}
	]]>
	</style>

	<defs id="Patterns_And_Gradients">
		<linearGradient id="grad0-17" x1="0" y1="0" x2="1" y2="0" gradientTransform="rotate(90 0.5 0.5)">
			<stop offset="0" stop-color="#35cc49" stop-opacity="1"/>
			<stop offset="1" stop-color="#44bf3b" stop-opacity="1"/>
		</linearGradient>
		<linearGradient id="grad0-89" x1="0" y1="0" x2="1" y2="0" gradientTransform="rotate(90 0.5 0.5)">
			<stop offset="0" stop-color="#4387fd" stop-opacity="1"/>
			<stop offset="1" stop-color="#4683ea" stop-opacity="1"/>
		</linearGradient>
		<linearGradient id="grad0-108" x1="0" y1="0" x2="1" y2="0" gradientTransform="rotate(90 0.5 0.5)">
			<stop offset="0" stop-color="#fd9e3f" stop-opacity="1"/>
			<stop offset="1" stop-color="#ea9f49" stop-opacity="1"/>
		</linearGradient>
	</defs>
	<defs id="Markers">
		<g id="lend5">
			<path d="M 2 1 L 0 0 L 1.98117 -0.993387 C 1.67173 -0.364515 1.67301 0.372641 1.98465 1.00043 " style="stroke:none"/>
		</g>
		<marker id="mrkr5-32" class="st12" v:arrowType="5" v:arrowSize="2" v:setback="4.45" refX="4.45" orient="auto"
				markerUnits="strokeWidth" overflow="visible">
			<use xlink:href="#lend5" transform="scale(2.68) "/>
		</marker>
		<marker id="mrkr5-34" class="st12" v:arrowType="5" v:arrowSize="2" v:setback="4.69" refX="-4.69" orient="auto"
				markerUnits="strokeWidth" overflow="visible">
			<use xlink:href="#lend5" transform="scale(-2.68,-2.68) "/>
		</marker>
	</defs>
	<g v:mID="11" v:index="9" v:groupContext="foregroundPage">
		<title>io-gql-http</title>
		<v:pageProperties v:drawingScale="0.0393701" v:pageScale="0.0393701" v:drawingUnits="24" v:shadowOffsetX="9"
				v:shadowOffsetY="-9"/>
		<v:layer v:name="Connector" v:index="0"/>
		<g id="shape1-1" v:mID="1" v:groupContext="shape" transform="translate(155.339,-274.202)">
			<title>Sheet.1</title>
			<path d="M0 401.38 A31.236 19.1343 -180 0 0 31.24 420.51 L395.15 420.51 A31.236 19.1343 -180 0 0 426.39 401.38 L426.39
						 312.09 A31.236 19.1343 -180 0 0 395.15 292.95 L31.24 292.95 A31.236 19.1343 -180 0 0 -0 312.09 L0 401.38
						 Z" class="st1"/>
		</g>
		<g id="group2-3" transform="translate(331.318,-303.342)" v:mID="2" v:groupContext="group">
			<title>Sheet.2</title>
			<g id="shape3-4" v:mID="3" v:groupContext="shape" transform="translate(0.322164,0)">
				<title>Sheet.3</title>
				<rect x="0" y="336.749" width="72.4869" height="83.7626" class="st2"/>
			</g>
			<g id="shape4-6" v:mID="4" v:groupContext="shape" transform="translate(0,-0.483246)">
				<title>Sheet.4</title>
				<desc>Service Broker</desc>
				<v:textBlock v:margins="rect(0,0,0,0)" v:tabSpace="42.5197"/>
				<v:textRect cx="36.2434" cy="378.63" width="72.49" height="83.7626"/>
				<rect x="0" y="336.749" width="72.4869" height="83.7626" class="st3"/>
				<text x="15.44" y="374.43" class="st4" v:langID="2070"><v:paragraph v:horizAlign="1"/><v:tabList/>Service<v:lf/><tspan
							x="16.7" dy="1.2em" class="st5">Broker</tspan></text>			</g>
		</g>
		<g id="group5-10" transform="translate(210.693,-279.521)" v:mID="5" v:groupContext="group">
			<title>Sheet.5</title>
			<g id="group6-11" transform="translate(7.62102,-34.3433)" v:mID="6" v:groupContext="group">
				<title>Sheet.6</title>
				<g id="shape7-12" v:mID="7" v:groupContext="shape" transform="translate(1.15933,-1.3074E-12)">
					<title>Sheet.7</title>
					<path d="M16.4 417.18 L1.19 390.81 C0 388.75 0 386.2 1.19 384.14 L16.4 357.76 C17.59 355.7 19.79 354.43 22.17
								 354.43 L52.6 354.43 C54.98 354.43 57.18 355.7 58.37 357.76 L73.58 384.14 C74.77 386.2 74.77 388.75
								 73.58 390.81 L58.37 417.18 C57.18 419.24 54.98 420.51 52.6 420.51 L22.17 420.51 C19.79 420.51 17.59
								 419.24 16.4 417.18 Z" class="st6"/>
				</g>
				<g id="shape8-14" v:mID="8" v:groupContext="shape" transform="translate(0,-1.739)">
					<title>Sheet.8</title>
					<path d="M16.4 417.18 L1.19 390.81 C0 388.75 0 386.2 1.19 384.14 L16.4 357.76 C17.59 355.7 19.79 354.43 22.17
								 354.43 L52.6 354.43 C54.98 354.43 57.18 355.7 58.37 357.76 L73.58 384.14 C74.77 386.2 74.77 388.75
								 73.58 390.81 L58.37 417.18 C57.18 419.24 54.98 420.51 52.6 420.51 L22.17 420.51 C19.79 420.51 17.59
								 419.24 16.4 417.18 Z" class="st7"/>
				</g>
				<g id="shape9-18" v:mID="9" v:groupContext="shape" transform="translate(20.6535,-1.739)">
					<title>Sheet.9</title>
					<path d="M35.7 386.98 L28.61 390.62 L25.44 387.45 L13.01 387.1 L7.22 381.3 L0 387.48 L4.9 395.13 L30.26 420.51
								 L31.95 420.51 C34.33 420.51 36.52 419.24 37.72 417.18 L48.02 399.32 L35.7 386.98 Z" class="st8"/>
				</g>
				<g id="shape10-20" v:mID="10" v:groupContext="shape" transform="translate(18.103,-26.9081)">
					<title>Sheet.10</title>
					<path d="M28 412.63 L26.35 410.97 L12.23 410.97 L10.57 412.63 L12.23 414.29 L26.35 414.29 L28 412.63 ZM9.77 417.91
								 L4.49 412.63 L9.77 407.36 C10.01 407.12 10.01 406.72 9.77 406.47 L8.31 405.02 C8.06 404.77 7.66
								 404.77 7.41 405.02 L0.24 412.19 C0 412.44 0 412.84 0.24 413.09 L1.7 414.55 L1.7 414.55 L7.42 420.26
								 C7.67 420.51 8.06 420.51 8.31 420.26 L9.77 418.81 C10.01 418.56 10.01 418.16 9.77 417.91 ZM28.8
								 407.36 L34.08 412.65 L28.8 417.91 C28.56 418.16 28.56 418.56 28.8 418.81 L30.26 420.26 C30.51 420.51
								 30.91 420.51 31.16 420.26 L38.33 413.09 C38.57 412.84 38.57 412.44 38.33 412.19 L36.87 410.74 L36.86
								 410.73 L31.15 405.02 C30.9 404.77 30.51 404.77 30.26 405.02 L28.8 406.47 C28.56 406.72 28.56 407.12
								 28.8 407.36 Z" class="st9"/>
				</g>
			</g>
			<g id="shape11-22" v:mID="11" v:groupContext="shape">
				<title>Sheet.11</title>
				<desc>API Gateway</desc>
				<v:textBlock v:margins="rect(4,4,4,4)" v:tabSpace="42.5197"/>
				<v:textRect cx="45.5863" cy="404.916" width="91.18" height="31.1906"/>
				<rect x="0" y="389.321" width="91.1726" height="31.1906" class="st10"/>
				<text x="35.75" y="400.72" class="st4" v:langID="2070"><v:paragraph v:horizAlign="1"/><v:tabList/>API<v:newlineChar/><tspan
							x="19.73" dy="1.2em" class="st5">Gateway</tspan></text>			</g>
		</g>
		<g id="shape12-26" v:mID="12" v:groupContext="shape" v:layerMember="0" transform="translate(331.318,-339.215)">
			<title>Dynamic connector.67</title>
			<path d="M-6.67 413.55 L-7.03 413.55 L-30.35 413.3" class="st11"/>
		</g>
		<g id="shape13-35" v:mID="13" v:groupContext="shape" transform="translate(171.496,-377.588)">
			<title>Sheet.13</title>
			<desc>Node 1</desc>
			<v:textBlock v:margins="rect(4,4,4,4)" v:tabSpace="42.5197"/>
			<v:textRect cx="30.8976" cy="410.511" width="61.8" height="20"/>
			<rect x="0" y="400.511" width="61.7953" height="20" class="st10"/>
			<text x="10.11" y="414.71" class="st4" v:langID="2070"><v:paragraph v:horizAlign="1"/><v:tabList/>Node 1</text>		</g>
		<g id="shape14-38" v:mID="14" v:groupContext="shape" v:layerMember="0" transform="translate(234.249,-318.353)">
			<title>Dynamic connector.180</title>
			<path d="M0 420.51 L-46.23 503.14" class="st13"/>
		</g>
		<g id="shape15-41" v:mID="15" v:groupContext="shape" v:layerMember="0" transform="translate(279.628,-319.395)">
			<title>Dynamic connector.181</title>
			<path d="M0 420.51 L46.81 504.18" class="st13"/>
		</g>
		<g id="shape16-44" v:mID="16" v:groupContext="shape" transform="translate(188.016,-207.179)">
			<title>Rectangle.182</title>
			<desc>- HTTP Server - GraphQL Server - Socket.IO Server</desc>
			<v:userDefs>
				<v:ud v:nameU="visVersion" v:val="VT0(15):26"/>
			</v:userDefs>
			<v:textBlock v:margins="rect(4,4,4,4)" v:tabSpace="42.5197"/>
			<v:textRect cx="69.2096" cy="391.966" width="138.42" height="57.0915"/>
			<path d="M0 420.51 L138.42 420.51 L138.42 363.42 L0 363.42 L0 420.51 Z" class="st14"/>
			<text x="4" y="379.37" class="st15" v:langID="2070"><v:paragraph/><v:tabList/>- HTTP Server<v:newlineChar/><tspan x="4"
						dy="1.2em" class="st5">-</tspan> GraphQL Server<v:newlineChar/><tspan x="4" dy="1.2em" class="st5">-</tspan> Socket.IO Server</text>		</g>
		<g id="shape17-49" v:mID="17" v:groupContext="shape" v:layerMember="0" transform="translate(218.619,-342.409)">
			<title>Dynamic connector.75</title>
			<path d="M-6.67 413.9 L-7.03 413.9 L-118.3 412.95" class="st16"/>
		</g>
		<g id="group18-56" transform="translate(22.7812,-315.078)" v:mID="18" v:groupContext="group">
			<title>Sheet.18</title>
			<g id="shape19-57" v:mID="19" v:groupContext="shape">
				<title>Sheet.19</title>
				<ellipse cx="35.2531" cy="385.258" rx="35.2531" ry="35.2531" class="st17"/>
			</g>
			<g id="shape20-59" v:mID="20" v:groupContext="shape" transform="translate(10.4966,-17.1049)">
				<title>Sheet.20</title>
				<path d="M47.31 420.51 L2.2 420.51 C0.99 420.51 0 419.52 0 418.31 L0 386.42 C0 385.2 0.99 384.22 2.2 384.22 L47.31
							 384.22 C48.53 384.22 49.51 385.2 49.51 386.42 L49.51 418.31 C49.51 419.52 48.53 420.51 47.31 420.51
							 Z" class="st18"/>
			</g>
			<g id="shape21-61" v:mID="21" v:groupContext="shape" transform="translate(10.4966,-47.3416)">
				<title>Sheet.21</title>
				<path d="M49.51 420.51 L49.51 416.66 C49.51 415.44 48.53 414.45 47.31 414.45 L2.2 414.45 C0.99 414.45 0 415.44 0
							 416.66 L0 420.51 L49.51 420.51 Z" class="st19"/>
			</g>
			<g id="shape22-63" v:mID="22" v:groupContext="shape" transform="translate(12.1182,-48.7192)">
				<title>Sheet.22</title>
				<ellipse cx="1.65249" cy="418.859" rx="1.65249" ry="1.65249" class="st20"/>
			</g>
			<g id="shape23-65" v:mID="23" v:groupContext="shape" transform="translate(17.0757,-48.7192)">
				<title>Sheet.23</title>
				<ellipse cx="1.65249" cy="418.859" rx="1.65249" ry="1.65249" class="st21"/>
			</g>
			<g id="shape24-67" v:mID="24" v:groupContext="shape" transform="translate(22.0337,-48.7192)">
				<title>Sheet.24</title>
				<ellipse cx="1.65249" cy="418.859" rx="1.65249" ry="1.65249" class="st22"/>
			</g>
			<g id="group25-69" transform="translate(17.0019,-23.5722)" v:mID="25" v:groupContext="group">
				<title>Sheet.25</title>
				<g id="shape26-70" v:mID="26" v:groupContext="shape" transform="translate(0,-2.11904)">
					<title>Sheet.26</title>
					<path d="M0 412.49 L12.45 406.71 L12.45 409.46 L3.04 413.58 L3.04 413.64 L12.45 417.76 L12.45 420.51 L0 414.73
								 L0 412.49 Z" class="st23"/>
				</g>
				<g id="shape27-72" v:mID="27" v:groupContext="shape" transform="translate(14.3722,0)">
					<title>Sheet.27</title>
					<path d="M0 420.51 L5.55 401.7 L8.17 401.7 L2.62 420.51 L0 420.51 Z" class="st23"/>
				</g>
				<g id="shape28-74" v:mID="28" v:groupContext="shape" transform="translate(24.0481,-2.11904)">
					<title>Sheet.28</title>
					<path d="M12.45 414.8 L0 420.51 L0 417.76 L9.63 413.64 L9.63 413.58 L0 409.46 L0 406.71 L12.45 412.42 L12.45
								 414.8 L12.45 414.8 Z" class="st23"/>
				</g>
			</g>
		</g>
		<g id="shape29-76" v:mID="29" v:groupContext="shape" v:layerMember="0" transform="translate(358.655,-179.833)">
			<title>Dynamic connector.252</title>
			<path d="M5.95 413.84 L5.96 413.48 L8.22 304.04" class="st24"/>
		</g>
		<g id="group34-83" transform="translate(480.949,-293.567)" v:mID="34" v:groupContext="group">
			<title>Sheet.34</title>
			<g id="shape35-84" v:mID="35" v:groupContext="shape" transform="translate(8.20069,-16.8642)">
				<title>Sheet.35</title>
				<path d="M16.39 417.22 L1.19 391.09 C0 389.04 0 386.52 1.19 384.47 L16.39 358.34 C17.58 356.29 19.78 355.03 22.17
							 355.02 L52.58 355.02 C54.97 355.01 57.18 356.27 58.38 358.32 L73.58 384.46 C74.77 386.5 74.77 389.02
							 73.58 391.07 L58.38 417.2 C57.18 419.25 54.97 420.51 52.58 420.51 L22.17 420.51 C19.79 420.51 17.59
							 419.26 16.39 417.22 Z" class="st6"/>
			</g>
			<g id="shape36-86" v:mID="36" v:groupContext="shape" transform="translate(7.04135,-18.6032)">
				<title>Sheet.36</title>
				<path d="M16.39 417.22 L1.19 391.09 C0 389.04 0 386.52 1.19 384.47 L16.39 358.34 C17.58 356.29 19.78 355.03 22.17
							 355.02 L52.58 355.02 C54.97 355.01 57.18 356.27 58.38 358.32 L73.58 384.46 C74.77 386.5 74.77 389.02
							 73.58 391.07 L58.38 417.2 C57.18 419.25 54.97 420.51 52.58 420.51 L22.17 420.51 C19.79 420.51 17.59
							 419.26 16.39 417.22 Z" class="st25"/>
			</g>
			<g id="shape37-90" v:mID="37" v:groupContext="shape" transform="translate(-12.0822,0)">
				<title>Sheet.37</title>
				<desc>Greeter Service</desc>
				<v:textBlock v:margins="rect(4,4,4,4)" v:tabSpace="42.5197"/>
				<v:textRect cx="59.5276" cy="414.513" width="119.06" height="11.9964"/>
				<rect x="0" y="408.515" width="119.055" height="11.9964" class="st10"/>
				<text x="14.7" y="418.71" class="st4" v:langID="2070"><v:paragraph v:horizAlign="1"/><v:tabList/>Greeter Service</text>			</g>
		</g>
		<g id="shape60-93" v:mID="60" v:groupContext="shape" v:layerMember="0" transform="translate(488.288,-337.985)">
			<title>Dynamic connector.283</title>
			<path d="M-6.67 413.49 L-7.03 413.49 L-77.13 413.36" class="st11"/>
		</g>
		<g id="group62-100" transform="translate(284.796,-25.8366)" v:mID="62" v:groupContext="group">
			<title>Sheet.62</title>
			<g id="group63-101" transform="translate(33.0751,-65.6885)" v:mID="63" v:groupContext="group">
				<title>Sheet.63</title>
				<g id="group64-102" transform="translate(8.45539,-22.5896)" v:mID="64" v:groupContext="group">
					<title>Sheet.64</title>
					<g id="shape65-103" v:mID="65" v:groupContext="shape" transform="translate(0.657184,-1.02318E-12)">
						<title>Sheet.65</title>
						<path d="M16.15 417.2 L1.17 390.97 C0 388.92 0 386.39 1.17 384.34 L16.15 358.11 C17.32 356.06 19.49 354.79
									 21.83 354.79 L51.78 354.79 C54.12 354.79 56.29 356.06 57.46 358.11 L72.43 384.34 C73.6 386.39
									 73.6 388.92 72.43 390.97 L57.46 417.2 C56.29 419.25 54.12 420.51 51.78 420.51 L21.83 420.51
									 C19.49 420.51 17.32 419.25 16.15 417.2 Z" class="st6"/>
					</g>
					<g id="shape66-105" v:mID="66" v:groupContext="shape" transform="translate(-3.67706E-13,-0.985776)">
						<title>Sheet.66</title>
						<path d="M16.15 417.2 L1.17 390.97 C0 388.92 0 386.39 1.17 384.34 L16.15 358.11 C17.32 356.06 19.49 354.79
									 21.83 354.79 L51.78 354.79 C54.12 354.79 56.29 356.06 57.46 358.11 L72.43 384.34 C73.6 386.39
									 73.6 388.92 72.43 390.97 L57.46 417.2 C56.29 419.25 54.12 420.51 51.78 420.51 L21.83 420.51
									 C19.49 420.51 17.32 419.25 16.15 417.2 Z" class="st26"/>
					</g>
					<g id="shape67-109" v:mID="67" v:groupContext="shape" transform="translate(23.1526,-1.15336)">
						<title>Sheet.67</title>
						<path d="M16 374.08 L13.73 373.66 L11.38 378.68 L13.36 380.69 L12.8 383.93 L16.06 387.22 L7.2 388.15 L4.59
									 385.5 L0 390.15 L30.03 420.51 C31.83 420.12 33.38 418.97 34.31 417.36 L43.27 401.67 L16 374.08
									 Z" class="st8"/>
					</g>
					<g id="shape68-111" v:mID="68" v:groupContext="shape" transform="translate(33.5598,-42.0635)">
						<title>Sheet.68</title>
						<ellipse cx="3.24584" cy="417.229" rx="3.24584" ry="3.28217" class="st9"/>
					</g>
					<g id="shape69-113" v:mID="69" v:groupContext="shape" transform="translate(33.5598,-19.0621)">
						<title>Sheet.69</title>
						<ellipse cx="3.24584" cy="417.229" rx="3.24584" ry="3.28217" class="st9"/>
					</g>
					<g id="shape70-115" v:mID="70" v:groupContext="shape" transform="translate(22.059,-30.5628)">
						<title>Sheet.70</title>
						<ellipse cx="3.24584" cy="417.229" rx="3.24584" ry="3.28217" class="st9"/>
					</g>
					<g id="shape71-117" v:mID="71" v:groupContext="shape" transform="translate(45.0605,-30.5628)">
						<title>Sheet.71</title>
						<ellipse cx="3.24584" cy="417.229" rx="3.24584" ry="3.28217" class="st9"/>
					</g>
					<g id="shape72-119" v:mID="72" v:groupContext="shape" transform="translate(22.5644,-21.4571)">
						<title>Sheet.72</title>
						<path d="M13.42 420.51 L0 407.07 L22.81 407.07 L13.42 397.54 L15.07 395.78 L28.48 409.19 L5.66 409.19 L15.07
									 418.75 L13.42 420.51 Z" class="st9"/>
					</g>
					<g id="shape73-121" v:mID="73" v:groupContext="shape" transform="translate(35.9513,-22.1668)">
						<title>Sheet.73</title>
						<rect x="0" y="412.73" width="1.39652" height="7.78106" class="st9"/>
					</g>
					<g id="shape74-123" v:mID="74" v:groupContext="shape" transform="translate(35.9513,-37.7289)">
						<title>Sheet.74</title>
						<rect x="0" y="412.73" width="1.39652" height="7.78106" class="st9"/>
					</g>
				</g>
				<g id="shape75-125" v:mID="75" v:groupContext="shape">
					<title>Sheet.75</title>
					<desc>Transporter</desc>
					<v:textBlock v:margins="rect(4,4,4,4)" v:tabSpace="42.5197"/>
					<v:textRect cx="45.5863" cy="411.351" width="91.18" height="18.3201"/>
					<rect x="0" y="402.191" width="91.1726" height="18.3201" class="st10"/>
					<text x="11.18" y="415.55" class="st4" v:langID="2070"><v:paragraph v:horizAlign="1"/><v:tabList/>Transporter</text>				</g>
			</g>
			<g id="shape76-128" v:mID="76" v:groupContext="shape" v:layerMember="0" transform="translate(56.8274,-94.2335)">
				<title>Dynamic connector.193</title>
				<path d="M0 420.51 L-56.83 489.5" class="st13"/>
			</g>
			<g id="shape77-131" v:mID="77" v:groupContext="shape" v:layerMember="0" transform="translate(101.077,-94.1006)">
				<title>Dynamic connector.194</title>
				<path d="M0 420.51 L56.25 489.36" class="st13"/>
			</g>
			<g id="shape78-134" v:mID="78" v:groupContext="shape" transform="translate(0,7.08661)">
				<title>Rectangle.117</title>
				<desc>- Node Discovery - RPC requests - Ephemeral Events</desc>
				<v:userDefs>
					<v:ud v:nameU="visVersion" v:val="VT0(15):26"/>
				</v:userDefs>
				<v:textBlock v:margins="rect(4,4,4,4)" v:tabSpace="42.5197"/>
				<v:textRect cx="78.6614" cy="388.176" width="157.33" height="64.6713"/>
				<path d="M0 420.51 L157.32 420.51 L157.32 355.84 L0 355.84 L0 420.51 Z" class="st14"/>
				<text x="4" y="375.58" class="st15" v:langID="2070"><v:paragraph/><v:tabList/>- Node Discovery<v:newlineChar/><tspan
							x="4" dy="1.2em" class="st5">-</tspan> RPC requests<v:lf/><tspan x="4" dy="1.2em" class="st5">-</tspan> Ephemeral Events</text>			</g>
		</g>
	</g>
</svg>
