<?xml version="1.0" encoding="UTF-8" standalone="no"?>
<!DOCTYPE svg PUBLIC "-//W3C//DTD SVG 1.1//EN" "http://www.w3.org/Graphics/SVG/1.1/DTD/svg11.dtd">
<!-- Generated by Microsoft Visio, SVG Export io-gql-http-db.svg io-gql-http -->
<svg xmlns="http://www.w3.org/2000/svg" xmlns:xlink="http://www.w3.org/1999/xlink" xmlns:ev="http://www.w3.org/2001/xml-events"
		xmlns:v="http://schemas.microsoft.com/visio/2003/SVGExtensions/" width="9.60294in" height="6.91847in"
		viewBox="0 0 691.411 498.13" xml:space="preserve" color-interpolation-filters="sRGB" class="st31">
	<v:documentProperties v:langID="2070" v:metric="true" v:viewMarkup="false">
		<v:userDefs>
			<v:ud v:nameU="msvNoAutoConnect" v:val="VT0(1):26"/>
		</v:userDefs>
	</v:documentProperties>

	<style type="text/css">
	<![CDATA[
		.st1 {fill:#dae8fc;stroke:#6c8ebf;stroke-linecap:butt;stroke-width:0.75}
		.st2 {fill:#000000;fill-opacity:0.25;stroke:#000000;stroke-linecap:butt;stroke-opacity:0.25;stroke-width:0.75}
		.st3 {fill:#fff2cc;stroke:#d6b656;stroke-linecap:butt;stroke-width:0.75}
		.st4 {fill:#000000;font-family:Calibri;font-size:1.16666em;font-weight:bold}
		.st5 {font-size:1em}
		.st6 {fill:#000000;fill-opacity:0.25;stroke:none;stroke-linecap:butt;stroke-width:0.75}
		.st7 {fill:url(#grad0-17);stroke:none;stroke-linecap:butt;stroke-width:0.75}
		.st8 {fill:#000000;fill-opacity:0.067;stroke:none;stroke-linecap:butt;stroke-width:0.75}
		.st9 {fill:#ffffff;stroke:none;stroke-linecap:butt;stroke-width:0.75}
		.st10 {fill:none;stroke:none;stroke-linecap:round;stroke-linejoin:round;stroke-width:0.75}
		.st11 {marker-end:url(#mrkr5-34);marker-start:url(#mrkr5-32);stroke:#000000;stroke-linecap:round;stroke-linejoin:round;stroke-width:1.5}
		.st12 {fill:#000000;fill-opacity:1;stroke:#000000;stroke-opacity:1;stroke-width:0.37313432835821}
		.st13 {stroke:#000000;stroke-linecap:round;stroke-linejoin:round;stroke-width:1.5}
		.st14 {fill:#ffffff;stroke:#000000;stroke-dasharray:1.5,3;stroke-linecap:round;stroke-linejoin:round;stroke-width:1.5}
		.st15 {fill:#000000;font-family:Segoe UI;font-size:1.16666em;font-weight:bold}
		.st16 {marker-end:url(#mrkr5-34);marker-start:url(#mrkr5-32);stroke:#000000;stroke-dasharray:10.5,7.5,0,7.5;stroke-linecap:round;stroke-linejoin:round;stroke-width:1.5}
		.st17 {fill:#f54f33;stroke:none;stroke-linecap:butt;stroke-width:4.78125}
		.st18 {fill:#ffffff;stroke:none;stroke-linecap:butt;stroke-width:4.78125}
		.st19 {fill:#e1e3e9;stroke:none;stroke-linecap:butt;stroke-width:4.78125}
		.st20 {fill:#f24b45;stroke:none;stroke-linecap:butt;stroke-width:4.78125}
		.st21 {fill:#ffb202;stroke:none;stroke-linecap:butt;stroke-width:4.78125}
		.st22 {fill:#4cbb41;stroke:none;stroke-linecap:butt;stroke-width:4.78125}
		.st23 {fill:#53899f;stroke:none;stroke-linecap:butt;stroke-width:4.78125}
		.st24 {marker-end:url(#mrkr5-34);marker-start:url(#mrkr5-32);stroke:#000000;stroke-dasharray:1.5,3;stroke-linecap:round;stroke-linejoin:round;stroke-width:1.5}
		.st25 {fill:url(#grad0-89);stroke:none;stroke-linecap:butt;stroke-width:0.75}
		.st26 {fill:#424a60;stroke:none;stroke-linecap:butt;stroke-width:11.5472}
		.st27 {fill:#556080;stroke:none;stroke-linecap:butt;stroke-width:11.5472}
		.st28 {fill:#7fabda;stroke:none;stroke-linecap:butt;stroke-width:11.5472}
		.st29 {fill:#7383bf;stroke:none;stroke-linecap:butt;stroke-width:11.5472}
		.st30 {fill:url(#grad0-157);stroke:none;stroke-linecap:butt;stroke-width:0.75}
		.st31 {fill:none;fill-rule:evenodd;font-size:12px;overflow:visible;stroke-linecap:square;stroke-miterlimit:3}
	]]>
	</style>

	<defs id="Patterns_And_Gradients">
		<linearGradient id="grad0-17" x1="0" y1="0" x2="1" y2="0" gradientTransform="rotate(90 0.5 0.5)">
			<stop offset="0" stop-color="#35cc49" stop-opacity="1"/>
			<stop offset="1" stop-color="#44bf3b" stop-opacity="1"/>
		</linearGradient>
		<linearGradient id="grad0-89" x1="0" y1="0" x2="1" y2="0" gradientTransform="rotate(90 0.5 0.5)">
			<stop offset="0" stop-color="#4387fd" stop-opacity="1"/>
			<stop offset="1" stop-color="#4683ea" stop-opacity="1"/>
		</linearGradient>
		<linearGradient id="grad0-157" x1="0" y1="0" x2="1" y2="0" gradientTransform="rotate(90 0.5 0.5)">
			<stop offset="0" stop-color="#fd9e3f" stop-opacity="1"/>
			<stop offset="1" stop-color="#ea9f49" stop-opacity="1"/>
		</linearGradient>
	</defs>
	<defs id="Markers">
		<g id="lend5">
			<path d="M 2 1 L 0 0 L 1.98117 -0.993387 C 1.67173 -0.364515 1.67301 0.372641 1.98465 1.00043 " style="stroke:none"/>
		</g>
		<marker id="mrkr5-32" class="st12" v:arrowType="5" v:arrowSize="2" v:setback="4.45" refX="4.45" orient="auto"
				markerUnits="strokeWidth" overflow="visible">
			<use xlink:href="#lend5" transform="scale(2.68) "/>
		</marker>
		<marker id="mrkr5-34" class="st12" v:arrowType="5" v:arrowSize="2" v:setback="4.69" refX="-4.69" orient="auto"
				markerUnits="strokeWidth" overflow="visible">
			<use xlink:href="#lend5" transform="scale(-2.68,-2.68) "/>
		</marker>
	</defs>
	<g v:mID="7" v:index="5" v:groupContext="foregroundPage">
		<title>io-gql-http-db</title>
		<v:pageProperties v:drawingScale="0.0393701" v:pageScale="0.0393701" v:drawingUnits="24" v:shadowOffsetX="9"
				v:shadowOffsetY="-9"/>
		<v:layer v:name="Connector" v:index="0"/>
		<g id="shape1-1" v:mID="1" v:groupContext="shape" transform="translate(155.339,-203.002)">
			<title>Sheet.1</title>
			<path d="M0 456.67 A37.8978 41.4577 -180 0 0 37.9 498.13 L479.43 498.13 A37.8978 41.4577 -180 0 0 517.32 456.67 L517.32
						 263.21 A37.8978 41.4577 -180 0 0 479.43 221.75 L37.9 221.75 A37.8978 41.4577 -180 0 0 -0 263.21 L0 456.67
						 Z" class="st1"/>
		</g>
		<g id="group2-3" transform="translate(331.318,-303.109)" v:mID="2" v:groupContext="group">
			<title>Sheet.2</title>
			<g id="shape3-4" v:mID="3" v:groupContext="shape" transform="translate(0.322164,5.68434E-14)">
				<title>Sheet.3</title>
				<rect x="0" y="414.367" width="72.4869" height="83.7626" class="st2"/>
			</g>
			<g id="shape4-6" v:mID="4" v:groupContext="shape" transform="translate(0,-0.483246)">
				<title>Sheet.4</title>
				<desc>Service Broker</desc>
				<v:textBlock v:margins="rect(0,0,0,0)" v:tabSpace="42.5197"/>
				<v:textRect cx="36.2434" cy="456.249" width="72.49" height="83.7626"/>
				<rect x="0" y="414.367" width="72.4869" height="83.7626" class="st3"/>
				<text x="15.44" y="452.05" class="st4" v:langID="2070"><v:paragraph v:horizAlign="1"/><v:tabList/>Service<v:lf/><tspan
							x="16.7" dy="1.2em" class="st5">Broker</tspan></text>			</g>
		</g>
		<g id="group5-10" transform="translate(210.693,-279.521)" v:mID="5" v:groupContext="group">
			<title>Sheet.5</title>
			<g id="group6-11" transform="translate(7.62102,-34.3433)" v:mID="6" v:groupContext="group">
				<title>Sheet.6</title>
				<g id="shape7-12" v:mID="7" v:groupContext="shape" transform="translate(1.15933,-1.3074E-12)">
					<title>Sheet.7</title>
					<path d="M16.4 494.8 L1.19 468.43 C0 466.36 0 463.82 1.19 461.76 L16.4 435.38 C17.59 433.32 19.79 432.05 22.17
								 432.05 L52.6 432.05 C54.98 432.05 57.18 433.32 58.37 435.38 L73.58 461.76 C74.77 463.82 74.77 466.36
								 73.58 468.43 L58.37 494.8 C57.18 496.86 54.98 498.13 52.6 498.13 L22.17 498.13 C19.79 498.13 17.59
								 496.86 16.4 494.8 Z" class="st6"/>
				</g>
				<g id="shape8-14" v:mID="8" v:groupContext="shape" transform="translate(0,-1.739)">
					<title>Sheet.8</title>
					<path d="M16.4 494.8 L1.19 468.43 C0 466.36 0 463.82 1.19 461.76 L16.4 435.38 C17.59 433.32 19.79 432.05 22.17
								 432.05 L52.6 432.05 C54.98 432.05 57.18 433.32 58.37 435.38 L73.58 461.76 C74.77 463.82 74.77 466.36
								 73.58 468.43 L58.37 494.8 C57.18 496.86 54.98 498.13 52.6 498.13 L22.17 498.13 C19.79 498.13 17.59
								 496.86 16.4 494.8 Z" class="st7"/>
				</g>
				<g id="shape9-18" v:mID="9" v:groupContext="shape" transform="translate(20.6535,-1.739)">
					<title>Sheet.9</title>
					<path d="M35.7 464.6 L28.61 468.24 L25.44 465.07 L13.01 464.72 L7.22 458.92 L0 465.09 L4.9 472.75 L30.26 498.13
								 L31.95 498.13 C34.33 498.13 36.52 496.86 37.72 494.8 L48.02 476.94 L35.7 464.6 Z" class="st8"/>
				</g>
				<g id="shape10-20" v:mID="10" v:groupContext="shape" transform="translate(18.103,-26.9081)">
					<title>Sheet.10</title>
					<path d="M28 490.25 L26.35 488.59 L12.23 488.59 L10.57 490.25 L12.23 491.91 L26.35 491.91 L28 490.25 ZM9.77 495.53
								 L4.49 490.25 L9.77 484.98 C10.01 484.73 10.01 484.33 9.77 484.09 L8.31 482.64 C8.06 482.39 7.66
								 482.39 7.41 482.64 L0.24 489.81 C0 490.06 0 490.46 0.24 490.71 L1.7 492.17 L1.7 492.17 L7.42 497.88
								 C7.67 498.13 8.06 498.13 8.31 497.88 L9.77 496.43 C10.01 496.18 10.01 495.78 9.77 495.53 ZM28.8
								 484.98 L34.08 490.26 L28.8 495.53 C28.56 495.78 28.56 496.18 28.8 496.43 L30.26 497.88 C30.51 498.13
								 30.91 498.13 31.16 497.88 L38.33 490.71 C38.57 490.46 38.57 490.06 38.33 489.81 L36.87 488.36 L36.86
								 488.35 L31.15 482.64 C30.9 482.39 30.51 482.39 30.26 482.64 L28.8 484.09 C28.56 484.33 28.56 484.73
								 28.8 484.98 Z" class="st9"/>
				</g>
			</g>
			<g id="shape11-22" v:mID="11" v:groupContext="shape">
				<title>Sheet.11</title>
				<desc>API Gateway</desc>
				<v:textBlock v:margins="rect(4,4,4,4)" v:tabSpace="42.5197"/>
				<v:textRect cx="45.5863" cy="482.535" width="91.18" height="31.1906"/>
				<rect x="0" y="466.939" width="91.1726" height="31.1906" class="st10"/>
				<text x="35.75" y="478.33" class="st4" v:langID="2070"><v:paragraph v:horizAlign="1"/><v:tabList/>API<v:newlineChar/><tspan
							x="19.73" dy="1.2em" class="st5">Gateway</tspan></text>			</g>
		</g>
		<g id="shape12-26" v:mID="12" v:groupContext="shape" v:layerMember="0" transform="translate(331.318,-339.097)">
			<title>Dynamic connector.67</title>
			<path d="M-6.67 491.2 L-7.03 491.19 L-30.35 490.89" class="st11"/>
		</g>
		<g id="shape13-35" v:mID="13" v:groupContext="shape" transform="translate(171.496,-451.354)">
			<title>Sheet.13</title>
			<desc>Node 1</desc>
			<v:textBlock v:margins="rect(4,4,4,4)" v:tabSpace="42.5197"/>
			<v:textRect cx="30.8976" cy="488.13" width="61.8" height="20"/>
			<rect x="0" y="478.13" width="61.7953" height="20" class="st10"/>
			<text x="10.11" y="492.33" class="st4" v:langID="2070"><v:paragraph v:horizAlign="1"/><v:tabList/>Node 1</text>		</g>
		<g id="shape14-38" v:mID="14" v:groupContext="shape" v:layerMember="0" transform="translate(234.249,-318.353)">
			<title>Dynamic connector.180</title>
			<path d="M0 498.13 L-46.23 580.76" class="st13"/>
		</g>
		<g id="shape15-41" v:mID="15" v:groupContext="shape" v:layerMember="0" transform="translate(279.628,-319.395)">
			<title>Dynamic connector.181</title>
			<path d="M0 498.13 L46.81 581.8" class="st13"/>
		</g>
		<g id="shape16-44" v:mID="16" v:groupContext="shape" transform="translate(188.016,-207.179)">
			<title>Rectangle.182</title>
			<desc>- HTTP Server - GraphQL Server - Socket.IO Server</desc>
			<v:userDefs>
				<v:ud v:nameU="visVersion" v:val="VT0(15):26"/>
			</v:userDefs>
			<v:textBlock v:margins="rect(4,4,4,4)" v:tabSpace="42.5197"/>
			<v:textRect cx="69.2096" cy="469.584" width="138.42" height="57.0915"/>
			<path d="M0 498.13 L138.42 498.13 L138.42 441.04 L0 441.04 L0 498.13 Z" class="st14"/>
			<text x="4" y="456.98" class="st15" v:langID="2070"><v:paragraph/><v:tabList/>- HTTP Server<v:newlineChar/><tspan x="4"
						dy="1.2em" class="st5">-</tspan> GraphQL Server<v:newlineChar/><tspan x="4" dy="1.2em" class="st5">-</tspan> Socket.IO Server</text>		</g>
		<g id="shape17-49" v:mID="17" v:groupContext="shape" v:layerMember="0" transform="translate(218.619,-342.409)">
			<title>Dynamic connector.75</title>
			<path d="M-6.67 491.52 L-7.03 491.52 L-118.3 490.57" class="st16"/>
		</g>
		<g id="group18-56" transform="translate(22.7812,-315.078)" v:mID="18" v:groupContext="group">
			<title>Sheet.18</title>
			<g id="shape19-57" v:mID="19" v:groupContext="shape">
				<title>Sheet.19</title>
				<ellipse cx="35.2531" cy="462.877" rx="35.2531" ry="35.2531" class="st17"/>
			</g>
			<g id="shape20-59" v:mID="20" v:groupContext="shape" transform="translate(10.4966,-17.1049)">
				<title>Sheet.20</title>
				<path d="M47.31 498.13 L2.2 498.13 C0.99 498.13 0 497.14 0 495.93 L0 464.04 C0 462.82 0.99 461.83 2.2 461.83 L47.31
							 461.83 C48.53 461.83 49.51 462.82 49.51 464.04 L49.51 495.93 C49.51 497.14 48.53 498.13 47.31 498.13
							 Z" class="st18"/>
			</g>
			<g id="shape21-61" v:mID="21" v:groupContext="shape" transform="translate(10.4966,-47.3416)">
				<title>Sheet.21</title>
				<path d="M49.51 498.13 L49.51 494.27 C49.51 493.06 48.53 492.07 47.31 492.07 L2.2 492.07 C0.99 492.07 0 493.06 0
							 494.27 L0 498.13 L49.51 498.13 Z" class="st19"/>
			</g>
			<g id="shape22-63" v:mID="22" v:groupContext="shape" transform="translate(12.1182,-48.7192)">
				<title>Sheet.22</title>
				<ellipse cx="1.65249" cy="496.477" rx="1.65249" ry="1.65249" class="st20"/>
			</g>
			<g id="shape23-65" v:mID="23" v:groupContext="shape" transform="translate(17.0757,-48.7192)">
				<title>Sheet.23</title>
				<ellipse cx="1.65249" cy="496.477" rx="1.65249" ry="1.65249" class="st21"/>
			</g>
			<g id="shape24-67" v:mID="24" v:groupContext="shape" transform="translate(22.0337,-48.7192)">
				<title>Sheet.24</title>
				<ellipse cx="1.65249" cy="496.477" rx="1.65249" ry="1.65249" class="st22"/>
			</g>
			<g id="group25-69" transform="translate(17.0019,-23.5722)" v:mID="25" v:groupContext="group">
				<title>Sheet.25</title>
				<g id="shape26-70" v:mID="26" v:groupContext="shape" transform="translate(0,-2.11904)">
					<title>Sheet.26</title>
					<path d="M0 490.11 L12.45 484.33 L12.45 487.08 L3.04 491.2 L3.04 491.25 L12.45 495.38 L12.45 498.13 L0 492.34
								 L0 490.11 Z" class="st23"/>
				</g>
				<g id="shape27-72" v:mID="27" v:groupContext="shape" transform="translate(14.3722,5.68434E-14)">
					<title>Sheet.27</title>
					<path d="M0 498.13 L5.55 479.32 L8.17 479.32 L2.62 498.13 L0 498.13 Z" class="st23"/>
				</g>
				<g id="shape28-74" v:mID="28" v:groupContext="shape" transform="translate(24.0481,-2.11904)">
					<title>Sheet.28</title>
					<path d="M12.45 492.42 L0 498.13 L0 495.38 L9.63 491.25 L9.63 491.2 L0 487.08 L0 484.33 L12.45 490.03 L12.45
								 492.42 L12.45 492.42 Z" class="st23"/>
				</g>
			</g>
		</g>
		<g id="shape29-76" v:mID="29" v:groupContext="shape" v:layerMember="0" transform="translate(359.051,-179.833)">
			<title>Dynamic connector.252</title>
			<path d="M6.16 491.46 L6.17 491.1 L8.01 381.89" class="st24"/>
		</g>
		<g id="group30-83" transform="translate(479.154,-387.76)" v:mID="30" v:groupContext="group">
			<title>Sheet.30</title>
			<g id="shape31-84" v:mID="31" v:groupContext="shape" transform="translate(8.20069,-16.8642)">
				<title>Sheet.31</title>
				<path d="M16.39 494.84 L1.19 468.71 C0 466.66 0 464.14 1.19 462.09 L16.39 435.96 C17.58 433.91 19.78 432.64 22.17
							 432.64 L52.58 432.64 C54.97 432.63 57.18 433.89 58.38 435.94 L73.58 462.07 C74.77 464.12 74.77 466.64
							 73.58 468.69 L58.38 494.82 C57.18 496.87 54.97 498.13 52.58 498.12 L22.17 498.12 C19.79 498.13 17.59
							 496.88 16.39 494.84 Z" class="st6"/>
			</g>
			<g id="shape32-86" v:mID="32" v:groupContext="shape" transform="translate(7.04135,-18.6032)">
				<title>Sheet.32</title>
				<path d="M16.39 494.84 L1.19 468.71 C0 466.66 0 464.14 1.19 462.09 L16.39 435.96 C17.58 433.91 19.78 432.64 22.17
							 432.64 L52.58 432.64 C54.97 432.63 57.18 433.89 58.38 435.94 L73.58 462.07 C74.77 464.12 74.77 466.64
							 73.58 468.69 L58.38 494.82 C57.18 496.87 54.97 498.13 52.58 498.12 L22.17 498.12 C19.79 498.13 17.59
							 496.88 16.39 494.84 Z" class="st25"/>
			</g>
			<g id="shape33-90" v:mID="33" v:groupContext="shape" transform="translate(-8.27199,5.68434E-14)">
				<title>Sheet.33</title>
				<desc>Greeter Service</desc>
				<v:textBlock v:margins="rect(4,4,4,4)" v:tabSpace="42.5197"/>
				<v:textRect cx="53.8583" cy="492.132" width="107.72" height="11.9964"/>
				<rect x="0" y="486.134" width="107.717" height="11.9964" class="st10"/>
				<text x="9.04" y="496.33" class="st4" v:langID="2070"><v:paragraph v:horizAlign="1"/><v:tabList/>Greeter Service</text>			</g>
		</g>
		<g id="group34-93" transform="translate(480.949,-239.881)" v:mID="34" v:groupContext="group">
			<title>Sheet.34</title>
			<g id="shape35-94" v:mID="35" v:groupContext="shape" transform="translate(8.20069,-16.8642)">
				<title>Sheet.35</title>
				<path d="M16.39 494.84 L1.19 468.71 C0 466.66 0 464.14 1.19 462.09 L16.39 435.96 C17.58 433.91 19.78 432.64 22.17
							 432.64 L52.58 432.64 C54.97 432.63 57.18 433.89 58.38 435.94 L73.58 462.07 C74.77 464.12 74.77 466.64
							 73.58 468.69 L58.38 494.82 C57.18 496.87 54.97 498.13 52.58 498.12 L22.17 498.12 C19.79 498.13 17.59
							 496.88 16.39 494.84 Z" class="st6"/>
			</g>
			<g id="shape36-96" v:mID="36" v:groupContext="shape" transform="translate(7.04135,-18.6032)">
				<title>Sheet.36</title>
				<path d="M16.39 494.84 L1.19 468.71 C0 466.66 0 464.14 1.19 462.09 L16.39 435.96 C17.58 433.91 19.78 432.64 22.17
							 432.64 L52.58 432.64 C54.97 432.63 57.18 433.89 58.38 435.94 L73.58 462.07 C74.77 464.12 74.77 466.64
							 73.58 468.69 L58.38 494.82 C57.18 496.87 54.97 498.13 52.58 498.12 L22.17 498.12 C19.79 498.13 17.59
							 496.88 16.39 494.84 Z" class="st25"/>
			</g>
			<g id="shape37-99" v:mID="37" v:groupContext="shape" transform="translate(-12.0822,5.68434E-14)">
				<title>Sheet.37</title>
				<desc>Products Service</desc>
				<v:textBlock v:margins="rect(4,4,4,4)" v:tabSpace="42.5197"/>
				<v:textRect cx="59.5276" cy="492.132" width="119.06" height="11.9964"/>
				<rect x="0" y="486.134" width="119.055" height="11.9964" class="st10"/>
				<text x="11.5" y="496.33" class="st4" v:langID="2070"><v:paragraph v:horizAlign="1"/><v:tabList/>Products Service</text>			</g>
		</g>
		<g id="shape38-102" v:mID="38" v:groupContext="shape" v:layerMember="0" transform="translate(605.266,-296.894)">
			<title>Dynamic connector.261</title>
			<path d="M-6.67 505.14 L-7.03 505.14 L-34.61 505.29" class="st11"/>
		</g>
		<g id="group39-109" transform="translate(605.266,-263.383)" v:mID="39" v:groupContext="group">
			<title>Sheet.39</title>
			<g id="shape40-110" v:mID="40" v:groupContext="shape">
				<title>Sheet.40</title>
				<path d="M48.26 452.84 C47.52 448.35 37.01 444.79 24.15 444.79 C11.29 444.79 0.78 448.35 0.05 452.84 L0 452.84 L0
							 453.35 L0 464.92 L0 465.42 L0 465.93 L0 477 L0 477.5 L0 478 L0 490.08 L0.05 490.08 C0.78 494.57 11.29
							 498.13 24.15 498.13 C37.01 498.13 47.52 494.57 48.26 490.08 L48.3 490.08 L48.3 478 L48.3 477.5 L48.3
							 477 L48.3 465.93 L48.3 465.42 L48.3 464.92 L48.3 453.35 L48.3 452.84 L48.26 452.84 Z" class="st26"/>
			</g>
			<g id="group41-112" v:mID="41" v:groupContext="group">
				<title>Sheet.41</title>
				<g id="shape42-113" v:mID="42" v:groupContext="shape">
					<title>Sheet.42</title>
					<path d="M24.15 486.05 C10.81 486.05 0 482.22 0 477.5 L0 490.08 L0.05 490.08 C0.78 494.57 11.29 498.13 24.15
								 498.13 C37.01 498.13 47.52 494.57 48.26 490.08 L48.3 490.08 L48.3 477.5 C48.3 482.22 37.49 486.05
								 24.15 486.05 Z" class="st26"/>
				</g>
				<g id="shape43-115" v:mID="43" v:groupContext="shape" transform="translate(0,-20.6301)">
					<title>Sheet.43</title>
					<path d="M0 497.63 L0 498.13 C0 497.96 0.02 497.79 0.05 497.63 L0 497.63 Z" class="st26"/>
				</g>
				<g id="shape44-117" v:mID="44" v:groupContext="shape" transform="translate(48.2592,-20.6301)">
					<title>Sheet.44</title>
					<path d="M0 497.63 C0.03 497.79 0.05 497.96 0.05 498.13 L0.05 497.63 L0 497.63 Z" class="st26"/>
				</g>
			</g>
			<g id="group45-119" transform="translate(0,-12.0761)" v:mID="45" v:groupContext="group">
				<title>Sheet.45</title>
				<g id="shape46-120" v:mID="46" v:groupContext="shape">
					<title>Sheet.46</title>
					<path d="M24.15 486.05 C10.81 486.05 0 482.22 0 477.5 L0 490.08 L0.05 490.08 C0.78 494.57 11.29 498.13 24.15
								 498.13 C37.01 498.13 47.52 494.57 48.26 490.08 L48.3 490.08 L48.3 477.5 C48.3 482.22 37.49 486.05
								 24.15 486.05 Z" class="st27"/>
				</g>
				<g id="shape47-122" v:mID="47" v:groupContext="shape" transform="translate(0,-20.6301)">
					<title>Sheet.47</title>
					<path d="M0 497.63 L0 498.13 C0 497.96 0.02 497.79 0.05 497.63 L0 497.63 Z" class="st27"/>
				</g>
				<g id="shape48-124" v:mID="48" v:groupContext="shape" transform="translate(48.2592,-20.6301)">
					<title>Sheet.48</title>
					<path d="M0 497.63 C0.03 497.79 0.05 497.96 0.05 498.13 L0.05 497.63 L0 497.63 Z" class="st27"/>
				</g>
			</g>
			<g id="shape49-126" v:mID="49" v:groupContext="shape" transform="translate(0,-36.2284)">
				<title>Sheet.49</title>
				<ellipse cx="24.1523" cy="489.576" rx="24.1523" ry="8.55393" class="st28"/>
			</g>
			<g id="group50-128" transform="translate(0,-24.1523)" v:mID="50" v:groupContext="group">
				<title>Sheet.50</title>
				<g id="shape51-129" v:mID="51" v:groupContext="shape">
					<title>Sheet.51</title>
					<path d="M24.15 486.05 C10.81 486.05 0 482.22 0 477.5 L0 490.08 L0.05 490.08 C0.78 494.57 11.29 498.13 24.15
								 498.13 C37.01 498.13 47.52 494.57 48.26 490.08 L48.3 490.08 L48.3 477.5 C48.3 482.22 37.49 486.05
								 24.15 486.05 Z" class="st29"/>
				</g>
				<g id="shape52-131" v:mID="52" v:groupContext="shape" transform="translate(0,-20.6301)">
					<title>Sheet.52</title>
					<path d="M0 497.63 L0 498.13 C0 497.96 0.02 497.79 0.05 497.63 L0 497.63 Z" class="st29"/>
				</g>
				<g id="shape53-133" v:mID="53" v:groupContext="shape" transform="translate(48.2592,-20.6301)">
					<title>Sheet.53</title>
					<path d="M0 497.63 C0.03 497.79 0.05 497.96 0.05 498.13 L0.05 497.63 L0 497.63 Z" class="st29"/>
				</g>
			</g>
		</g>
		<g id="shape58-135" v:mID="58" v:groupContext="shape" v:layerMember="0" transform="translate(403.805,-366.664)">
			<title>Dynamic connector.97</title>
			<path d="M5.76 494.76 L6.07 494.58 L86.41 447.61" class="st11"/>
		</g>
		<g id="shape60-142" v:mID="60" v:groupContext="shape" v:layerMember="0" transform="translate(493.579,-302.086)">
			<title>Dynamic connector.283</title>
			<path d="M-6.32 495.97 L-6.66 495.86 L-82.79 469.87" class="st11"/>
		</g>
		<g id="group62-149" transform="translate(285.553,-25.8366)" v:mID="62" v:groupContext="group">
			<title>Sheet.62</title>
			<g id="group63-150" transform="translate(33.0751,-65.6885)" v:mID="63" v:groupContext="group">
				<title>Sheet.63</title>
				<g id="group64-151" transform="translate(8.45539,-22.5896)" v:mID="64" v:groupContext="group">
					<title>Sheet.64</title>
					<g id="shape65-152" v:mID="65" v:groupContext="shape" transform="translate(0.657184,-9.66338E-13)">
						<title>Sheet.65</title>
						<path d="M16.15 494.81 L1.17 468.59 C0 466.54 0 464.01 1.17 461.96 L16.15 435.73 C17.32 433.68 19.49 432.41
									 21.83 432.41 L51.78 432.41 C54.12 432.41 56.29 433.68 57.46 435.73 L72.43 461.96 C73.6 464.01
									 73.6 466.54 72.43 468.59 L57.46 494.81 C56.29 496.86 54.12 498.13 51.78 498.13 L21.83 498.13
									 C19.49 498.13 17.32 496.86 16.15 494.81 Z" class="st6"/>
					</g>
					<g id="shape66-154" v:mID="66" v:groupContext="shape" transform="translate(-3.67706E-13,-0.985776)">
						<title>Sheet.66</title>
						<path d="M16.15 494.81 L1.17 468.59 C0 466.54 0 464.01 1.17 461.96 L16.15 435.73 C17.32 433.68 19.49 432.41
									 21.83 432.41 L51.78 432.41 C54.12 432.41 56.29 433.68 57.46 435.73 L72.43 461.96 C73.6 464.01
									 73.6 466.54 72.43 468.59 L57.46 494.81 C56.29 496.86 54.12 498.13 51.78 498.13 L21.83 498.13
									 C19.49 498.13 17.32 496.86 16.15 494.81 Z" class="st30"/>
					</g>
					<g id="shape67-158" v:mID="67" v:groupContext="shape" transform="translate(23.1526,-1.15336)">
						<title>Sheet.67</title>
						<path d="M16 451.7 L13.73 451.28 L11.38 456.3 L13.36 458.3 L12.8 461.55 L16.06 464.84 L7.2 465.76 L4.59 463.12
									 L0 467.76 L30.03 498.13 C31.83 497.74 33.38 496.59 34.31 494.98 L43.27 479.29 L16 451.7 Z"
								class="st8"/>
					</g>
					<g id="shape68-160" v:mID="68" v:groupContext="shape" transform="translate(33.5598,-42.0635)">
						<title>Sheet.68</title>
						<ellipse cx="3.24584" cy="494.848" rx="3.24584" ry="3.28217" class="st9"/>
					</g>
					<g id="shape69-162" v:mID="69" v:groupContext="shape" transform="translate(33.5598,-19.0621)">
						<title>Sheet.69</title>
						<ellipse cx="3.24584" cy="494.848" rx="3.24584" ry="3.28217" class="st9"/>
					</g>
					<g id="shape70-164" v:mID="70" v:groupContext="shape" transform="translate(22.059,-30.5628)">
						<title>Sheet.70</title>
						<ellipse cx="3.24584" cy="494.848" rx="3.24584" ry="3.28217" class="st9"/>
					</g>
					<g id="shape71-166" v:mID="71" v:groupContext="shape" transform="translate(45.0605,-30.5628)">
						<title>Sheet.71</title>
						<ellipse cx="3.24584" cy="494.848" rx="3.24584" ry="3.28217" class="st9"/>
					</g>
					<g id="shape72-168" v:mID="72" v:groupContext="shape" transform="translate(22.5644,-21.4571)">
						<title>Sheet.72</title>
						<path d="M13.42 498.13 L0 484.68 L22.81 484.68 L13.42 475.16 L15.07 473.39 L28.48 486.81 L5.66 486.81 L15.07
									 496.37 L13.42 498.13 Z" class="st9"/>
					</g>
					<g id="shape73-170" v:mID="73" v:groupContext="shape" transform="translate(35.9513,-22.1668)">
						<title>Sheet.73</title>
						<rect x="0" y="490.349" width="1.39652" height="7.78106" class="st9"/>
					</g>
					<g id="shape74-172" v:mID="74" v:groupContext="shape" transform="translate(35.9513,-37.7289)">
						<title>Sheet.74</title>
						<rect x="0" y="490.349" width="1.39652" height="7.78106" class="st9"/>
					</g>
				</g>
				<g id="shape75-174" v:mID="75" v:groupContext="shape">
					<title>Sheet.75</title>
					<desc>Transporter</desc>
					<v:textBlock v:margins="rect(4,4,4,4)" v:tabSpace="42.5197"/>
					<v:textRect cx="45.5863" cy="488.97" width="91.18" height="18.3201"/>
					<rect x="0" y="479.81" width="91.1726" height="18.3201" class="st10"/>
					<text x="11.18" y="493.17" class="st4" v:langID="2070"><v:paragraph v:horizAlign="1"/><v:tabList/>Transporter</text>				</g>
			</g>
			<g id="shape76-177" v:mID="76" v:groupContext="shape" v:layerMember="0" transform="translate(56.8274,-94.2335)">
				<title>Dynamic connector.193</title>
				<path d="M0 498.13 L-56.83 567.11" class="st13"/>
			</g>
			<g id="shape77-180" v:mID="77" v:groupContext="shape" v:layerMember="0" transform="translate(101.077,-94.1006)">
				<title>Dynamic connector.194</title>
				<path d="M0 498.13 L56.25 566.98" class="st13"/>
			</g>
			<g id="shape78-183" v:mID="78" v:groupContext="shape" transform="translate(0,7.08661)">
				<title>Rectangle.117</title>
				<desc>- Node Discovery - RPC requests - Ephemeral Events</desc>
				<v:userDefs>
					<v:ud v:nameU="visVersion" v:val="VT0(15):26"/>
				</v:userDefs>
				<v:textBlock v:margins="rect(4,4,4,4)" v:tabSpace="42.5197"/>
				<v:textRect cx="78.6614" cy="465.794" width="157.33" height="64.6713"/>
				<path d="M0 498.13 L157.32 498.13 L157.32 433.46 L0 433.46 L0 498.13 Z" class="st14"/>
				<text x="4" y="453.19" class="st15" v:langID="2070"><v:paragraph/><v:tabList/>- Node Discovery<v:newlineChar/><tspan
							x="4" dy="1.2em" class="st5">-</tspan> RPC requests<v:lf/><tspan x="4" dy="1.2em" class="st5">-</tspan> Ephemeral Events</text>			</g>
		</g>
	</g>
</svg>
